<svg width="154" height="18" viewBox="0 0 154 18" fill="none" xmlns="http://www.w3.org/2000/svg">
<path d="M44.6741 5.07405V12.939H46.6351C47.1355 12.9316 47.6294 12.8239 48.0875 12.6222C48.5456 12.4206 48.9586 12.1291 49.3021 11.765C50.007 11.0187 50.3927 10.0266 50.3771 9.00005C50.392 8.49016 50.3061 7.98235 50.1241 7.50578C49.9422 7.02921 49.668 6.59329 49.3171 6.22305C48.9722 5.85848 48.5563 5.56837 48.095 5.37059C47.6338 5.17282 47.1369 5.07156 46.6351 5.07305H44.6751L44.6741 5.07405ZM46.6351 2.60805C50.2901 2.60805 53.0551 5.44005 53.0551 9.00005C53.0551 12.56 50.2901 15.408 46.6351 15.408H42.3101C42.2688 15.4075 42.2281 15.3989 42.1902 15.3826C42.1523 15.3664 42.118 15.3428 42.0892 15.3133C42.0604 15.2837 42.0377 15.2488 42.0224 15.2105C42.0071 15.1722 41.9995 15.1313 42.0001 15.09V2.93905C42.0001 2.76305 42.1391 2.62005 42.3101 2.62005L46.6351 2.60805ZM62.4761 13.213C64.1361 13.218 65.6351 12.197 66.2741 10.626C66.5871 9.85847 66.6707 9.01658 66.5149 8.20242C66.3591 7.38825 65.9704 6.63677 65.3961 6.03905C64.8318 5.45114 64.1024 5.04826 63.3043 4.88364C62.5062 4.71902 61.6769 4.80041 60.9261 5.11705C59.3921 5.76505 58.3901 7.29805 58.3871 9.00005C58.3871 11.32 60.2151 13.202 62.4771 13.213H62.4761ZM62.4771 2.31805C66.3241 2.31805 69.2651 5.35005 69.2651 9.00005C69.2651 12.65 66.3241 15.682 62.4761 15.682C58.6291 15.682 55.7131 12.665 55.7131 9.00005C55.7131 5.33505 58.6541 2.31805 62.4761 2.31805H62.4771ZM78.6101 13.213C80.8731 13.207 82.7041 11.323 82.7021 9.00305C82.6991 6.68105 80.8641 4.80105 78.6021 4.80005C76.3381 4.80005 74.5021 6.67905 74.4991 9.00005C74.4991 10.118 74.9321 11.19 75.7031 11.98C76.0804 12.3694 76.532 12.6791 77.0312 12.8909C77.5303 13.1026 78.0669 13.2122 78.6091 13.213H78.6101ZM78.6091 2.31805C82.4441 2.31805 85.3851 5.33505 85.3851 9.00005C85.3851 12.665 82.4321 15.682 78.6091 15.682C74.7871 15.682 71.8211 12.665 71.8211 9.00005C71.8211 5.33505 74.7621 2.31805 78.6091 2.31805ZM94.3551 5.07405H91.5901V8.45905H94.3551C94.5735 8.46873 94.7917 8.43353 94.996 8.35562C95.2003 8.2777 95.3865 8.15873 95.5431 8.00605C95.8631 7.69605 96.0451 7.26605 96.0491 6.81405C96.0571 6.58473 96.0188 6.35616 95.9363 6.14204C95.8538 5.92792 95.7289 5.73269 95.5691 5.56805C95.4122 5.40602 95.2231 5.27863 95.014 5.19407C94.8049 5.1095 94.5805 5.06964 94.3551 5.07705V5.07405ZM88.9151 2.93905C88.9151 2.76305 89.0551 2.62005 89.2261 2.62005H94.4321C96.9141 2.62005 98.7101 4.48505 98.7101 6.82705C98.7291 8.41105 97.8641 9.86605 96.4831 10.575L98.8841 14.928C98.9173 14.9781 98.936 15.0363 98.9381 15.0963C98.9402 15.1564 98.9257 15.2158 98.8961 15.268C98.8671 15.3195 98.8241 15.3615 98.7719 15.3892C98.7198 15.4168 98.6609 15.4289 98.6021 15.424H96.4951C96.4366 15.4249 96.3791 15.4092 96.3292 15.3787C96.2794 15.3483 96.2391 15.3044 96.2131 15.252L93.8991 10.944H91.5801V15.08C91.5807 15.1214 91.5732 15.1624 91.558 15.2008C91.5427 15.2392 91.5201 15.2743 91.4913 15.3039C91.4625 15.3335 91.4281 15.3572 91.3902 15.3735C91.3522 15.3899 91.3114 15.3985 91.2701 15.399H89.2401C89.1987 15.3985 89.1579 15.3899 89.12 15.3735C89.082 15.3572 89.0476 15.3335 89.0188 15.3039C88.99 15.2743 88.9674 15.2392 88.9521 15.2008C88.9369 15.1624 88.9294 15.1214 88.9301 15.08L88.9161 2.94005L88.9151 2.93905ZM105.682 5.13405V13H107.642C108.142 12.9933 108.636 12.8862 109.095 12.6853C109.553 12.4843 109.966 12.1935 110.31 11.83C111.015 11.0846 111.402 10.0932 111.387 9.06705C111.403 8.55653 111.318 8.0479 111.137 7.57044C110.955 7.09298 110.681 6.65613 110.33 6.28505C109.985 5.91986 109.568 5.6294 109.106 5.4316C108.644 5.2338 108.146 5.13287 107.643 5.13505L105.682 5.13405ZM107.642 2.66505C111.297 2.66505 114.062 5.50005 114.062 9.06705C114.062 12.634 111.297 15.469 107.642 15.469H103.33C103.289 15.4685 103.248 15.4599 103.21 15.4435C103.172 15.4272 103.138 15.4035 103.109 15.3739C103.08 15.3443 103.057 15.3092 103.042 15.2708C103.027 15.2324 103.019 15.1914 103.02 15.15V3.00005C103.02 2.82305 103.159 2.68005 103.33 2.68005L107.643 2.66505H107.642ZM122.218 5.79305L120.701 9.99905H123.732L122.218 5.79305ZM119.811 12.376L118.818 15.176C118.798 15.2419 118.757 15.2993 118.701 15.3391C118.645 15.379 118.577 15.399 118.508 15.396H116.354C116.299 15.4012 116.244 15.3914 116.194 15.3678C116.144 15.3443 116.102 15.3077 116.071 15.262C116.04 15.2158 116.021 15.1623 116.016 15.1066C116.011 15.0509 116.021 14.9949 116.044 14.944L120.698 2.80505C120.72 2.74103 120.762 2.68587 120.818 2.64796C120.874 2.61004 120.941 2.59146 121.008 2.59505H123.418C123.486 2.59124 123.553 2.60972 123.609 2.64764C123.665 2.68557 123.707 2.74086 123.729 2.80505L128.383 14.944C128.406 14.995 128.416 15.051 128.411 15.1067C128.406 15.1624 128.387 15.2159 128.355 15.262C128.324 15.3075 128.282 15.3439 128.232 15.3673C128.182 15.3907 128.127 15.4003 128.072 15.395H125.919C125.85 15.398 125.783 15.378 125.726 15.3381C125.67 15.2983 125.629 15.2409 125.609 15.175L124.616 12.375H119.811V12.376ZM130.88 6.06605C130.88 4.05605 132.574 2.31805 135.249 2.31805C136.69 2.28588 138.084 2.82473 139.129 3.81705C139.161 3.84714 139.186 3.88342 139.204 3.92365C139.221 3.96389 139.23 4.00724 139.23 4.05105C139.23 4.09486 139.221 4.1382 139.204 4.17844C139.186 4.21868 139.161 4.25495 139.129 4.28505L137.936 5.50005C137.908 5.52956 137.873 5.55304 137.836 5.56907C137.798 5.5851 137.757 5.59336 137.716 5.59336C137.675 5.59336 137.634 5.5851 137.597 5.56907C137.559 5.55304 137.525 5.52956 137.496 5.50005C136.934 4.97337 136.196 4.67496 135.426 4.66305C134.356 4.66305 133.565 5.30005 133.565 6.03505C133.565 8.41105 139.888 7.04005 139.888 11.612C139.885 13.929 138.178 15.682 135.16 15.682C134.322 15.6906 133.491 15.5306 132.716 15.2114C131.941 14.8922 131.238 14.4204 130.649 13.824C130.617 13.794 130.592 13.7577 130.575 13.7174C130.557 13.6772 130.548 13.6339 130.548 13.59C130.548 13.5462 130.557 13.5029 130.575 13.4627C130.592 13.4224 130.617 13.3861 130.649 13.356L131.803 12.172C131.832 12.1411 131.867 12.1164 131.905 12.0995C131.944 12.0826 131.986 12.0739 132.028 12.0739C132.07 12.0739 132.112 12.0826 132.151 12.0995C132.19 12.1164 132.224 12.1411 132.253 12.172C132.979 12.892 133.957 13.3008 134.98 13.312C136.317 13.312 137.198 12.58 137.198 11.663C137.198 9.28605 130.878 10.658 130.878 6.08505L130.88 6.06605ZM151.354 2.92305V7.72705H146.002V2.92305C146.003 2.88181 145.995 2.84087 145.98 2.80257C145.964 2.76428 145.942 2.72937 145.913 2.69984C145.884 2.67031 145.85 2.64674 145.812 2.63047C145.774 2.61421 145.733 2.60557 145.692 2.60505H143.662C143.621 2.60557 143.58 2.61421 143.542 2.63047C143.504 2.64674 143.47 2.67031 143.441 2.69984C143.412 2.72937 143.39 2.76428 143.374 2.80257C143.359 2.84087 143.352 2.88181 143.352 2.92305V15.06C143.352 15.236 143.492 15.379 143.662 15.379H145.692C145.862 15.379 146.002 15.236 146.002 15.06V10.18H151.35V15.06C151.35 15.236 151.49 15.379 151.66 15.379H153.69C153.861 15.379 154 15.236 154 15.06V2.92305C154.001 2.88181 153.993 2.84087 153.978 2.80257C153.962 2.76428 153.94 2.72937 153.911 2.69984C153.882 2.67031 153.848 2.64674 153.81 2.63047C153.772 2.61421 153.731 2.60557 153.69 2.60505H151.66C151.577 2.60714 151.499 2.6417 151.442 2.70122C151.384 2.76075 151.353 2.84045 151.354 2.92305ZM30.6051 4.22505C29.1971 1.61505 26.4421 -0.00995411 23.4461 4.58902e-05H0.778058C0.624975 0.000667275 0.475459 0.0463212 0.348139 0.131319C0.22082 0.216317 0.121327 0.336901 0.0620576 0.478046C0.00365406 0.618286 -0.0115568 0.772767 0.0183732 0.921705C0.0483033 1.07064 0.122012 1.20726 0.230058 1.31405L5.16806 6.21405C5.60406 6.64805 6.19806 6.89105 6.81606 6.89105H22.7961C23.9351 6.87905 24.8661 7.78105 24.8781 8.90405C24.8901 10.027 23.9771 10.947 22.8381 10.958H11.8211C11.6679 10.9581 11.5181 11.0033 11.3904 11.0879C11.2627 11.1726 11.1628 11.293 11.1031 11.434C11.0441 11.5744 11.0285 11.7293 11.0582 11.8786C11.088 12.028 11.1618 12.165 11.2701 12.272L16.2111 17.176C16.6498 17.6098 17.2421 17.8528 17.8591 17.852H22.8421C29.3251 17.852 34.2271 11.012 30.6051 4.22205" fill="#F48A88"/>
</svg>
