<svg width="154" height="19" viewBox="0 0 154 19" fill="none" xmlns="http://www.w3.org/2000/svg">
<g clip-path="url(#clip0_1411_2328)">
<path d="M44.6741 5.57405V13.439H46.6351C47.1355 13.4316 47.6294 13.3239 48.0875 13.1222C48.5456 12.9206 48.9586 12.6291 49.3021 12.265C50.007 11.5187 50.3927 10.5266 50.3771 9.50005C50.392 8.99016 50.3061 8.48235 50.1241 8.00578C49.9422 7.52921 49.668 7.09329 49.3171 6.72305C48.9722 6.35848 48.5563 6.06837 48.095 5.87059C47.6338 5.67282 47.1369 5.57156 46.6351 5.57305H44.6751L44.6741 5.57405ZM46.6351 3.10805C50.2901 3.10805 53.0551 5.94005 53.0551 9.50005C53.0551 13.06 50.2901 15.908 46.6351 15.908H42.3101C42.2688 15.9075 42.2281 15.8989 42.1902 15.8826C42.1523 15.8664 42.118 15.8428 42.0892 15.8133C42.0604 15.7837 42.0377 15.7488 42.0224 15.7105C42.0071 15.6722 41.9995 15.6313 42.0001 15.59V3.43905C42.0001 3.26305 42.1391 3.12005 42.3101 3.12005L46.6351 3.10805ZM62.4761 13.713C64.1361 13.718 65.6351 12.697 66.2741 11.126C66.5871 10.3585 66.6707 9.51658 66.5149 8.70242C66.3591 7.88825 65.9704 7.13677 65.3961 6.53905C64.8318 5.95114 64.1024 5.54826 63.3043 5.38364C62.5062 5.21902 61.6769 5.30041 60.9261 5.61705C59.3921 6.26505 58.3901 7.79805 58.3871 9.50005C58.3871 11.82 60.2151 13.702 62.4771 13.713H62.4761ZM62.4771 2.81805C66.3241 2.81805 69.2651 5.85005 69.2651 9.50005C69.2651 13.15 66.3241 16.182 62.4761 16.182C58.6291 16.182 55.7131 13.165 55.7131 9.50005C55.7131 5.83505 58.6541 2.81805 62.4761 2.81805H62.4771ZM78.6101 13.713C80.8731 13.707 82.7041 11.823 82.7021 9.50305C82.6991 7.18105 80.8641 5.30105 78.6021 5.30005C76.3381 5.30005 74.5021 7.17905 74.4991 9.50005C74.4991 10.618 74.9321 11.69 75.7031 12.48C76.0804 12.8694 76.532 13.1791 77.0312 13.3909C77.5303 13.6026 78.0669 13.7122 78.6091 13.713H78.6101ZM78.6091 2.81805C82.4441 2.81805 85.3851 5.83505 85.3851 9.50005C85.3851 13.165 82.4321 16.182 78.6091 16.182C74.7871 16.182 71.8211 13.165 71.8211 9.50005C71.8211 5.83505 74.7621 2.81805 78.6091 2.81805ZM94.3551 5.57405H91.5901V8.95905H94.3551C94.5735 8.96873 94.7917 8.93353 94.996 8.85562C95.2003 8.7777 95.3865 8.65873 95.5431 8.50605C95.8631 8.19605 96.0451 7.76605 96.0491 7.31405C96.0571 7.08473 96.0188 6.85616 95.9363 6.64204C95.8538 6.42792 95.7289 6.23269 95.5691 6.06805C95.4122 5.90602 95.2231 5.77863 95.014 5.69407C94.8049 5.6095 94.5805 5.56964 94.3551 5.57705V5.57405ZM88.9151 3.43905C88.9151 3.26305 89.0551 3.12005 89.2261 3.12005H94.4321C96.9141 3.12005 98.7101 4.98505 98.7101 7.32705C98.7291 8.91105 97.8641 10.366 96.4831 11.075L98.8841 15.428C98.9173 15.4781 98.936 15.5363 98.9381 15.5963C98.9402 15.6564 98.9257 15.7158 98.8961 15.768C98.8671 15.8195 98.8241 15.8615 98.7719 15.8892C98.7198 15.9168 98.6609 15.9289 98.6021 15.924H96.4951C96.4366 15.9249 96.3791 15.9092 96.3292 15.8787C96.2794 15.8483 96.2391 15.8044 96.2131 15.752L93.8991 11.444H91.5801V15.58C91.5807 15.6214 91.5732 15.6624 91.558 15.7008C91.5427 15.7392 91.5201 15.7743 91.4913 15.8039C91.4625 15.8335 91.4281 15.8572 91.3902 15.8735C91.3522 15.8899 91.3114 15.8985 91.2701 15.899H89.2401C89.1987 15.8985 89.1579 15.8899 89.12 15.8735C89.082 15.8572 89.0476 15.8335 89.0188 15.8039C88.99 15.7743 88.9674 15.7392 88.9521 15.7008C88.9369 15.6624 88.9294 15.6214 88.9301 15.58L88.9161 3.44005L88.9151 3.43905ZM105.682 5.63405V13.5H107.642C108.142 13.4933 108.636 13.3862 109.095 13.1853C109.553 12.9843 109.966 12.6935 110.31 12.33C111.015 11.5846 111.402 10.5932 111.387 9.56705C111.403 9.05653 111.318 8.5479 111.137 8.07044C110.955 7.59298 110.681 7.15613 110.33 6.78505C109.985 6.41986 109.568 6.1294 109.106 5.9316C108.644 5.7338 108.146 5.63287 107.643 5.63505L105.682 5.63405ZM107.642 3.16505C111.297 3.16505 114.062 6.00005 114.062 9.56705C114.062 13.134 111.297 15.969 107.642 15.969H103.33C103.289 15.9685 103.248 15.9599 103.21 15.9435C103.172 15.9272 103.138 15.9035 103.109 15.8739C103.08 15.8443 103.057 15.8092 103.042 15.7708C103.027 15.7324 103.019 15.6914 103.02 15.65V3.50005C103.02 3.32305 103.159 3.18005 103.33 3.18005L107.643 3.16505H107.642ZM122.218 6.29305L120.701 10.499H123.732L122.218 6.29305ZM119.811 12.876L118.818 15.676C118.798 15.7419 118.757 15.7993 118.701 15.8391C118.645 15.879 118.577 15.899 118.508 15.896H116.354C116.299 15.9012 116.244 15.8914 116.194 15.8678C116.144 15.8443 116.102 15.8077 116.071 15.762C116.04 15.7158 116.021 15.6623 116.016 15.6066C116.011 15.5509 116.021 15.4949 116.044 15.444L120.698 3.30505C120.72 3.24103 120.762 3.18587 120.818 3.14796C120.874 3.11004 120.941 3.09146 121.008 3.09505H123.418C123.486 3.09124 123.553 3.10972 123.609 3.14764C123.665 3.18557 123.707 3.24086 123.729 3.30505L128.383 15.444C128.406 15.495 128.416 15.551 128.411 15.6067C128.406 15.6624 128.387 15.7159 128.355 15.762C128.324 15.8075 128.282 15.8439 128.232 15.8673C128.182 15.8907 128.127 15.9003 128.072 15.895H125.919C125.85 15.898 125.783 15.878 125.726 15.8381C125.67 15.7983 125.629 15.7409 125.609 15.675L124.616 12.875H119.811V12.876ZM130.88 6.56605C130.88 4.55605 132.574 2.81805 135.249 2.81805C136.69 2.78588 138.084 3.32473 139.129 4.31705C139.161 4.34714 139.186 4.38342 139.204 4.42365C139.221 4.46389 139.23 4.50724 139.23 4.55105C139.23 4.59486 139.221 4.6382 139.204 4.67844C139.186 4.71868 139.161 4.75495 139.129 4.78505L137.936 6.00005C137.908 6.02956 137.873 6.05304 137.836 6.06907C137.798 6.0851 137.757 6.09336 137.716 6.09336C137.675 6.09336 137.634 6.0851 137.597 6.06907C137.559 6.05304 137.525 6.02956 137.496 6.00005C136.934 5.47337 136.196 5.17496 135.426 5.16305C134.356 5.16305 133.565 5.80005 133.565 6.53505C133.565 8.91105 139.888 7.54005 139.888 12.112C139.885 14.429 138.178 16.182 135.16 16.182C134.322 16.1906 133.491 16.0306 132.716 15.7114C131.941 15.3922 131.238 14.9204 130.649 14.324C130.617 14.294 130.592 14.2577 130.575 14.2174C130.557 14.1772 130.548 14.1339 130.548 14.09C130.548 14.0462 130.557 14.0029 130.575 13.9627C130.592 13.9224 130.617 13.8861 130.649 13.856L131.803 12.672C131.832 12.6411 131.867 12.6164 131.905 12.5995C131.944 12.5826 131.986 12.5739 132.028 12.5739C132.07 12.5739 132.112 12.5826 132.151 12.5995C132.19 12.6164 132.224 12.6411 132.253 12.672C132.979 13.392 133.957 13.8008 134.98 13.812C136.317 13.812 137.198 13.08 137.198 12.163C137.198 9.78605 130.878 11.158 130.878 6.58505L130.88 6.56605ZM151.354 3.42305V8.22705H146.002V3.42305C146.003 3.38181 145.995 3.34087 145.98 3.30257C145.964 3.26428 145.942 3.22937 145.913 3.19984C145.884 3.17031 145.85 3.14674 145.812 3.13047C145.774 3.11421 145.733 3.10557 145.692 3.10505H143.662C143.621 3.10557 143.58 3.11421 143.542 3.13047C143.504 3.14674 143.47 3.17031 143.441 3.19984C143.412 3.22937 143.39 3.26428 143.374 3.30257C143.359 3.34087 143.352 3.38181 143.352 3.42305V15.56C143.352 15.736 143.492 15.879 143.662 15.879H145.692C145.862 15.879 146.002 15.736 146.002 15.56V10.68H151.35V15.56C151.35 15.736 151.49 15.879 151.66 15.879H153.69C153.861 15.879 154 15.736 154 15.56V3.42305C154.001 3.38181 153.993 3.34087 153.978 3.30257C153.962 3.26428 153.94 3.22937 153.911 3.19984C153.882 3.17031 153.848 3.14674 153.81 3.13047C153.772 3.11421 153.731 3.10557 153.69 3.10505H151.66C151.577 3.10714 151.499 3.1417 151.442 3.20122C151.384 3.26075 151.353 3.34045 151.354 3.42305ZM30.6051 4.72505C29.1971 2.11505 26.4421 0.490046 23.4461 0.500046H0.778058C0.624975 0.500667 0.475459 0.546321 0.348139 0.631319C0.22082 0.716317 0.121327 0.836901 0.0620576 0.978046C0.00365406 1.11829 -0.0115568 1.27277 0.0183732 1.4217C0.0483033 1.57064 0.122012 1.70726 0.230058 1.81405L5.16806 6.71405C5.60406 7.14805 6.19806 7.39105 6.81606 7.39105H22.7961C23.9351 7.37905 24.8661 8.28105 24.8781 9.40405C24.8901 10.527 23.9771 11.447 22.8381 11.458H11.8211C11.6679 11.4581 11.5181 11.5033 11.3904 11.5879C11.2627 11.6726 11.1628 11.793 11.1031 11.934C11.0441 12.0744 11.0285 12.2293 11.0582 12.3786C11.088 12.528 11.1618 12.665 11.2701 12.772L16.2111 17.676C16.6498 18.1098 17.2421 18.3528 17.8591 18.352H22.8421C29.3251 18.352 34.2271 11.512 30.6051 4.72205" fill="white"/>
</g>
<defs>
<clipPath id="clip0_1411_2328">
<rect width="154" height="18" fill="white" transform="translate(0 0.5)"/>
</clipPath>
</defs>
</svg>
