<svg width="96" height="21" viewBox="0 0 96 21" fill="none" xmlns="http://www.w3.org/2000/svg">
<g clip-path="url(#clip0_1411_2330)">
<path d="M80.3475 0.799948H77.0126C76.8246 0.799948 76.7307 0.893943 76.7307 1.08186V14.2812C76.7307 14.9388 76.5194 15.432 76.2374 15.8079C75.9557 16.1838 75.5799 16.2776 75.11 16.2776C74.6404 16.2776 74.2411 16.0896 73.9593 15.8079C73.6775 15.432 73.4897 14.9388 73.4897 14.2812V1.08186C73.4897 0.893943 73.3015 0.799948 73.2077 0.799948H69.849C69.6611 0.799948 69.5673 0.893943 69.5673 1.08186V14.3752C69.5673 16.0897 69.9431 17.7103 70.9999 18.7671C72.0333 19.8241 73.4661 20.3878 75.11 20.3878C76.8245 20.3878 78.2572 19.8242 79.2201 18.7671C80.2536 17.7339 80.6529 16.2073 80.6529 14.3752V1.08186C80.7468 0.988012 80.559 0.799948 80.3475 0.799948ZM93.1479 10.1713C93.7115 9.60743 94.7685 8.26874 94.7685 6.53078C94.7685 4.51105 93.9935 3.28972 93.4063 2.60847C92.3494 1.48113 90.94 0.893942 89.2961 0.893942H84.0351C83.8238 0.893942 83.7297 1.08186 83.7297 1.1757V19.8241C83.7297 20.0119 83.9176 20.106 84.0351 20.106H89.6013C91.3159 20.106 92.9364 19.4483 93.9935 18.0861C94.5571 17.3345 95.2381 16.0661 95.2381 14.1639C95.0502 11.8857 93.641 10.5469 93.1479 10.1713ZM87.605 4.72218H89.3197C89.7893 4.72218 90.165 4.81603 90.447 5.19193C90.7522 5.49721 90.8463 5.96703 90.8463 6.55414C90.8463 7.14126 90.7522 7.58741 90.447 7.98691C90.165 8.26867 89.7893 8.45658 89.4135 8.45658H87.6991V4.72218H87.605ZM90.6583 15.7139C90.3764 16.0897 90.0006 16.1837 89.4134 16.1837H87.5111V12.1439H89.4134C89.8833 12.1439 90.259 12.3552 90.5408 12.6373C90.8462 13.013 91.0341 13.4826 91.0341 14.0698C91.128 14.8448 90.9636 15.3147 90.6583 15.7139ZM22.6411 11.7916C23.0169 11.5099 23.3223 11.322 23.6041 10.9227C24.2617 10.1712 25.1306 8.83226 25.1306 6.71854C25.1306 4.69867 24.3556 3.38349 23.6041 2.60847C22.6411 1.48113 21.2084 0.893942 19.5878 0.799948H14.045C13.8571 0.799948 13.7632 0.988012 13.7632 1.08186V19.7068C13.7632 19.8946 13.9511 19.9886 14.045 19.9886H17.3801C17.568 19.9886 17.662 19.8006 17.662 19.7068V12.8251H18.8128L20.9031 19.8946C20.9031 19.9886 21.1145 20.0825 21.2085 20.0825H24.7314C24.8253 20.0825 24.9193 19.9886 25.0133 19.9886C25.1072 19.9886 25.1072 19.8006 25.1072 19.7068L22.6411 11.7916ZM20.5273 8.33899C20.2454 8.71505 19.7757 8.92618 19.1885 8.92618H17.5679V4.72218H19.1885C19.7522 4.72218 20.2218 4.9101 20.5273 5.28585C20.903 5.68527 21.0205 6.15495 21.0205 6.81261C21.0205 7.49364 20.9265 7.96324 20.5273 8.33899ZM50.8955 10.1713C51.4827 9.60743 52.5162 8.26874 52.5162 6.53078C52.5162 4.51105 51.7646 3.28972 51.1774 2.60847C50.1205 1.48113 48.6877 0.893942 47.0672 0.893942H41.8296C41.6417 0.893942 41.5477 1.08186 41.5477 1.1757V19.8241C41.5477 20.0119 41.7357 20.106 41.8296 20.106H47.3725C49.087 20.106 50.7076 19.4483 51.7879 18.0861C52.3517 17.3345 53.0328 16.0661 53.0328 14.1639C52.9154 11.8857 51.4827 10.5469 50.8955 10.1713ZM45.3761 4.72218H47.0907C47.5604 4.72218 47.9362 4.81603 48.2181 5.19193C48.4998 5.49721 48.5939 5.96703 48.5939 6.55414C48.5939 7.14126 48.4998 7.58741 48.2181 7.98691C47.9362 8.26867 47.5604 8.45658 47.1846 8.45658H45.47V4.72218H45.3761ZM48.5233 15.7139C48.2416 16.0897 47.8656 16.1837 47.2785 16.1837H45.3761V12.1439H47.2785C47.7482 12.1439 48.124 12.3552 48.4058 12.6373C48.6876 13.013 48.899 13.4826 48.899 14.0698C48.9226 14.8448 48.8287 15.3147 48.5233 15.7139ZM5.51941 0.518188C3.80481 0.518188 2.37219 1.08186 1.40925 2.13864C0.375755 3.19558 0 4.69867 0 6.5307V14.469C0 16.1838 0.375755 17.8041 1.40925 18.8612C2.46611 19.9182 3.8988 20.4818 5.51941 20.4818C7.23386 20.4818 8.68999 19.9182 9.65293 18.8612C10.6864 17.8277 11.0622 16.3011 11.0622 14.469V10.1005C11.0622 9.88927 10.8743 9.70143 10.6864 9.70143H5.82468C5.6134 9.70143 5.42549 9.88927 5.42549 10.1005V13.3418C5.42549 13.5296 5.6134 13.7176 5.82468 13.7176H7.06954V14.4926C7.06954 15.1503 6.88162 15.7375 6.59986 16.1133C6.31788 16.4891 5.91875 16.583 5.44893 16.583C4.97926 16.583 4.60343 16.3951 4.29815 16.1133C4.01631 15.7375 3.82847 15.1503 3.82847 14.4926V6.64829C3.82847 5.96703 4.01631 5.37985 4.29815 5.02739C4.6035 4.65163 4.97926 4.55779 5.44893 4.55779C5.91875 4.55779 6.31795 4.7457 6.59986 5.02739C6.8817 5.40321 7.06954 5.96703 7.06954 6.64829V7.3998C7.06954 7.58749 7.25737 7.705 7.35137 7.705H10.6865C10.8743 7.705 10.9683 7.58749 10.9683 7.3998V6.64829C10.9683 4.93354 10.5926 3.31301 9.53572 2.25615C8.69007 1.08186 7.13994 0.518188 5.51941 0.518188ZM38.2128 0.799948H34.8776C34.6897 0.799948 34.5957 0.893943 34.5957 1.08186V14.2812C34.5957 14.9388 34.3844 15.432 34.1026 15.8079C33.8207 16.1838 33.4449 16.2776 32.9752 16.2776C32.5055 16.2776 32.1062 16.0896 31.8244 15.8079C31.5426 15.432 31.3547 14.9388 31.3547 14.2812V1.08186C31.3547 0.893943 31.1433 0.799948 31.0494 0.799948H27.7143C27.5264 0.799948 27.4325 0.893943 27.4325 1.08186V14.3752C27.4325 16.0897 27.8318 17.7103 28.8651 18.7671C29.922 19.8241 31.3547 20.3878 32.9753 20.3878C34.6899 20.3878 36.146 19.8242 37.0854 18.7671C38.1423 17.7339 38.518 16.2073 38.518 14.3752V1.08186C38.4946 0.988012 38.4006 0.799948 38.2128 0.799948ZM66.3026 0.799948H62.9676C62.7797 0.799948 62.6858 0.988012 62.6858 1.08186V8.33899H59.3507V1.08186C59.3507 0.893943 59.1628 0.799948 59.0688 0.799948H55.7337C55.5458 0.799948 55.4519 0.988012 55.4519 1.08186V19.7068C55.4519 19.8946 55.6398 19.9886 55.7337 19.9886H59.0688C59.2567 19.9886 59.3507 19.8006 59.3507 19.7068V12.2615H62.6858V19.7068C62.6858 19.8946 62.8737 19.9886 62.9676 19.9886H66.3026C66.4906 19.9886 66.5846 19.8006 66.5846 19.7068V1.08186C66.5846 0.988012 66.4906 0.799948 66.3026 0.799948Z" fill="white"/>
</g>
<defs>
<clipPath id="clip0_1411_2330">
<rect width="95.2381" height="20" fill="white" transform="translate(0 0.5)"/>
</clipPath>
</defs>
</svg>
