<svg width="100" height="16" viewBox="0 0 100 16" fill="none" xmlns="http://www.w3.org/2000/svg">
<path d="M52.3306 0H63.3477V2.69564H55.3066V6.52346H63.1239V9.12745H55.3066V13.02H63.3477V15.7156H52.3306V0ZM93.7734 15.9987C97.1511 15.9987 99.0542 14.3813 99.0542 12.1601C99.0542 10.5777 97.9274 9.39702 95.5687 8.88484L93.0752 8.37537C91.6277 8.1058 91.1721 7.83624 91.1721 7.29711C91.1721 6.59894 91.8703 6.17033 93.1561 6.17033C94.5498 6.17033 95.5822 6.54503 95.8517 7.83354H98.7738C98.6148 5.40746 96.8707 3.80625 93.334 3.80625C90.2772 3.80625 88.1314 5.06781 88.1314 7.51276C88.1314 9.20293 89.3121 10.3028 91.8595 10.8392L94.6468 11.4834C95.7466 11.6991 96.0404 11.9956 96.0404 12.4512C96.0404 13.1763 95.2102 13.6319 93.8678 13.6319C92.1803 13.6319 91.2152 13.2572 90.8405 11.9687H87.9023C88.3309 14.3894 90.1262 15.9987 93.7734 15.9987ZM87.0532 15.7048H83.8912C81.9072 15.7048 80.8074 14.4702 80.8074 12.9121V6.73911H78.5834V4.10816H80.8181V0.805998H83.7564V4.10816H87.0532V6.73911H83.7564V12.1601C83.7564 12.7774 84.185 13.0739 84.8562 13.0739H87.0532V15.7048ZM74.3836 4.11355V5.15946C73.3491 4.28496 72.0371 3.80718 70.6825 3.81164C69.8715 3.79458 69.0653 3.93959 68.311 4.23815C67.5568 4.53671 66.8698 4.98283 66.2902 5.55036C65.7106 6.11788 65.2501 6.79539 64.9358 7.54317C64.6214 8.29096 64.4595 9.09397 64.4595 9.90515C64.4595 10.7163 64.6214 11.5193 64.9358 12.2671C65.2501 13.0149 65.7106 13.6924 66.2902 14.2599C66.8698 14.8275 67.5568 15.2736 68.311 15.5721C69.0653 15.8707 69.8715 16.0157 70.6825 15.9987C72.0374 16.0045 73.3498 15.5266 74.3836 14.6508V15.6994H77.3138V4.10816L74.3836 4.11355ZM70.9251 13.454C70.2222 13.462 69.5329 13.2609 68.9446 12.8761C68.3563 12.4914 67.8957 11.9405 67.6212 11.2933C67.3468 10.6462 67.271 9.9321 67.4034 9.24177C67.5358 8.55143 67.8704 7.91604 68.3648 7.41635C68.8591 6.91666 69.4909 6.57522 70.1798 6.43544C70.8687 6.29566 71.5835 6.36385 72.2336 6.63133C72.8836 6.89881 73.4395 7.35351 73.8304 7.93764C74.2214 8.52178 74.4299 9.20897 74.4295 9.91189C74.4337 10.3753 74.3461 10.8349 74.1715 11.2641C73.997 11.6934 73.7391 12.0838 73.4127 12.4127C73.0863 12.7416 72.6979 13.0025 72.27 13.1803C71.842 13.3581 71.3831 13.4493 70.9197 13.4486L70.9251 13.454Z" fill="white"/>
<path d="M45.7909 6.28355C44.3164 6.28355 43.2705 7.43728 43.2705 9.20832V15.7048H41.0196V4.2699H43.2435V5.66625C43.5178 5.20345 43.9109 4.82243 44.3821 4.56269C44.8532 4.30295 45.3852 4.17394 45.923 4.18903H46.7317V6.28355H45.7909ZM39.4642 9.98736C39.4642 6.57737 37.0382 4.02729 33.7549 4.02729C32.9791 4.03256 32.212 4.19116 31.4978 4.49398C30.7836 4.7968 30.1363 5.23786 29.5931 5.79177C29.05 6.34569 28.6217 7.00154 28.333 7.72158C28.0443 8.44162 27.9007 9.21165 27.9107 9.98736C27.9107 13.3947 30.539 15.9717 33.9678 15.9717C34.9256 15.9898 35.8737 15.7774 36.7323 15.3523C37.5908 14.9273 38.3345 14.3021 38.9009 13.5294L37.2673 12.3326C36.8925 12.8556 36.3966 13.2802 35.822 13.5698C35.2474 13.8594 34.6112 14.0056 33.9678 13.9958C33.0515 13.9915 32.167 13.659 31.4746 13.0587C30.7823 12.4583 30.3279 11.6298 30.1939 10.7233H39.4696L39.4642 9.98736ZM30.2424 8.93876C30.6441 7.19468 32.0377 6.01398 33.7279 6.01398C35.4181 6.01398 36.809 7.19468 37.1864 8.93876H30.2424ZM20.7807 4.02729C20.0285 4.02793 19.2839 4.17762 18.5898 4.46772C17.8958 4.75782 17.2662 5.18259 16.7373 5.71746V0H14.4864V15.7048H16.7103V14.2546C17.7877 15.3445 19.2536 15.9621 20.7861 15.9717C21.5811 15.9886 22.3714 15.8466 23.1108 15.5541C23.8501 15.2615 24.5237 14.8243 25.0918 14.2681C25.66 13.7118 26.1114 13.0477 26.4196 12.3148C26.7278 11.5818 26.8866 10.7946 26.8866 9.9995C26.8866 9.20436 26.7278 8.41722 26.4196 7.68424C26.1114 6.95126 25.66 6.28717 25.0918 5.73093C24.5237 5.17469 23.8501 4.73748 23.1108 4.44494C22.3714 4.15239 21.5811 4.0104 20.7861 4.02729H20.7807ZM20.619 13.9607C19.8344 13.9645 19.0664 13.7351 18.4125 13.3016C17.7585 12.8682 17.248 12.2503 16.9458 11.5262C16.6436 10.8022 16.5633 10.0047 16.715 9.23496C16.8668 8.46521 17.2438 7.75788 17.7982 7.20273C18.3525 6.64758 19.0594 6.26962 19.8289 6.11681C20.5984 5.96401 21.396 6.04325 22.1205 6.34447C22.8449 6.64569 23.4636 7.15533 23.8979 7.8087C24.3322 8.46208 24.5627 9.22976 24.56 10.0143C24.5607 10.5318 24.4592 11.0443 24.2614 11.5225C24.0635 12.0007 23.7731 12.4351 23.407 12.8007C23.0408 13.1664 22.606 13.4562 22.1276 13.6534C21.6492 13.8506 21.1365 13.9514 20.619 13.95V13.9607ZM6.19729 13.8529C8.36998 13.8529 10.0575 12.187 10.0575 9.69084V0H12.3892V15.7048H10.0844V14.2195C9.54593 14.776 8.90017 15.2175 8.18617 15.5173C7.47217 15.8171 6.70478 15.9689 5.93042 15.9636C2.57973 15.9636 0 13.5214 0 9.81754V0H2.37486V9.70432C2.37486 12.214 3.99225 13.8529 6.19729 13.8529Z" fill="white"/>
</svg>
