<svg width="59" height="21" viewBox="0 0 59 21" fill="none" xmlns="http://www.w3.org/2000/svg">
<path d="M47.5993 12.3005L48.563 12.0952C48.5996 12.0838 48.624 12.0838 48.6606 12.0724C49.2095 11.9356 49.5511 11.4111 49.4169 10.8981L49.4047 10.8867C49.3681 10.7726 49.3193 10.6472 49.2461 10.556C49.1363 10.4306 49.0022 10.328 48.8558 10.2368C48.6728 10.1455 48.4898 10.0657 48.2946 9.99732L47.2455 9.63246C46.66 9.42723 46.0623 9.2334 45.4645 9.03957C45.0742 8.91416 44.7448 8.80014 44.4642 8.70892C44.4154 8.69752 44.3544 8.67472 44.3057 8.66332C43.9641 8.5607 43.7201 8.5265 43.5127 8.5265C43.3785 8.5265 43.2444 8.5493 43.1102 8.59491C42.976 8.65192 42.854 8.73173 42.7564 8.82294C42.7076 8.86855 42.6588 8.92556 42.6222 8.98257C42.5368 9.09658 42.4758 9.2334 42.427 9.35882C42.2319 9.8947 42.1343 10.4648 42.1343 11.0349C42.1343 11.548 42.1587 12.2093 42.4636 12.6653C42.5368 12.7793 42.6344 12.882 42.7442 12.9504C42.9638 13.0872 43.1834 13.11 43.4029 13.1214C43.7323 13.1442 44.0617 13.0644 44.391 12.996L47.5993 12.3005ZM58.3098 7.53455C58.0414 7.02147 57.6999 6.554 57.2729 6.14354C57.2119 6.09793 57.1631 6.04092 57.0899 6.00672C57.0289 5.96111 56.9679 5.9269 56.9069 5.8927C56.8459 5.85849 56.7728 5.83569 56.7118 5.80148C56.5776 5.75588 56.4312 5.73307 56.2848 5.73307C56.1506 5.74448 56.0164 5.77868 55.8944 5.83569C55.7115 5.9269 55.5163 6.06372 55.2479 6.29176C55.2113 6.32596 55.1625 6.36017 55.1259 6.39437C54.9063 6.5882 54.6624 6.82764 54.3818 7.10128C53.9426 7.52315 53.5035 7.94501 53.0643 8.36687L52.2836 9.11939C52.1372 9.25621 52.0152 9.40443 51.8933 9.56405C51.7957 9.70087 51.7225 9.8491 51.6859 10.0087C51.6615 10.1341 51.6615 10.2596 51.6981 10.3736L51.7103 10.385C51.8323 10.9095 52.3812 11.2401 52.9424 11.1375C52.9789 11.1261 53.0155 11.1261 53.0399 11.1147L57.1875 10.214C57.5169 10.1455 57.8462 10.0771 58.139 9.91751C58.3342 9.81489 58.5294 9.70087 58.6514 9.48424C58.7245 9.37022 58.7611 9.2334 58.7733 9.10798C58.8343 8.59491 58.5416 8.00202 58.3098 7.53455ZM50.8808 9.16499C51.1857 8.81154 51.1857 8.28706 51.2101 7.85379C51.2955 6.41718 51.3931 4.98056 51.4663 3.53254C51.5029 2.99666 51.5639 2.44938 51.5273 1.90209C51.4907 1.44603 51.4907 0.932947 51.1857 0.55669C50.649 -0.093208 49.4901 -0.0361987 48.7094 0.0550151C48.4654 0.0892202 48.2214 0.123425 47.9897 0.180434C47.7457 0.237443 47.5139 0.294451 47.2821 0.362861C46.5258 0.590896 45.4645 1.01276 45.2816 1.82228C45.184 2.28975 45.4157 2.75722 45.6109 3.16769C45.8305 3.68076 46.1477 4.13683 46.4282 4.61571C47.1602 5.8927 47.9165 7.14689 48.6728 8.40108C48.9046 8.77733 49.1485 9.24481 49.5755 9.43863C49.6121 9.45004 49.6365 9.46144 49.6609 9.47284C49.8561 9.54125 50.0757 9.55265 50.2708 9.50704L50.3074 9.49564C50.4904 9.45004 50.6612 9.34742 50.7954 9.222C50.832 9.2106 50.8564 9.1878 50.8808 9.16499ZM50.5148 13.0188C50.2708 12.6995 49.8439 12.5627 49.4413 12.6881C49.3925 12.6995 49.3559 12.7223 49.3071 12.7337C49.2339 12.7679 49.1729 12.8021 49.1242 12.8478C48.9534 12.9618 48.807 13.1214 48.6728 13.281C48.6362 13.3152 48.6118 13.3722 48.563 13.4064L47.8921 14.2616C47.5139 14.7404 47.1358 15.2193 46.7698 15.7096C46.5258 16.0288 46.3184 16.2911 46.1477 16.5305C46.1111 16.5761 46.0867 16.6331 46.0501 16.6673C45.8549 16.9524 45.7451 17.1576 45.6841 17.34C45.6475 17.4654 45.6231 17.6023 45.6475 17.7277C45.6597 17.8645 45.7085 17.9899 45.7817 18.1039C45.8183 18.161 45.8671 18.218 45.9159 18.275C46.0135 18.3776 46.1233 18.4802 46.2574 18.56C46.721 18.8565 47.2211 19.0731 47.7579 19.2441C48.197 19.3809 48.6606 19.4608 49.1242 19.4836C49.2095 19.4836 49.2827 19.4836 49.3681 19.4836C49.4413 19.4722 49.5145 19.4722 49.5877 19.4493C49.6609 19.4379 49.7341 19.4151 49.7951 19.3923C50.0635 19.3011 50.283 19.1073 50.3806 18.8565C50.4538 18.674 50.5026 18.446 50.5392 18.1039C50.5392 18.0583 50.5514 18.0013 50.5514 17.9443C50.5758 17.6593 50.588 17.3286 50.6124 16.941C50.649 16.3481 50.6734 15.7552 50.6856 15.1509L50.7222 14.0905C50.7344 13.8397 50.7222 13.5775 50.649 13.3266C50.6368 13.224 50.588 13.1214 50.5148 13.0188ZM58.0536 14.672C57.9194 14.5238 57.712 14.387 57.4071 14.216C57.3583 14.1932 57.3095 14.1589 57.2607 14.1361C57.0045 13.9879 56.6874 13.8397 56.3214 13.6573C55.7603 13.3722 55.1991 13.0872 54.638 12.8135L53.6377 12.3233C53.5889 12.3119 53.5279 12.2777 53.4791 12.2549C53.2839 12.1636 53.0765 12.0952 52.8692 12.0496C52.796 12.0382 52.7228 12.0268 52.6496 12.0268C52.6008 12.0268 52.552 12.0268 52.5032 12.0382C52.0884 12.0952 51.7713 12.3917 51.6981 12.7793C51.6859 12.8934 51.6859 13.0188 51.7103 13.1328C51.7591 13.3836 51.8811 13.6231 52.003 13.8397L52.5398 14.7746C52.8326 15.3105 53.1375 15.8236 53.4425 16.3481C53.6377 16.6901 53.8085 16.9752 53.967 17.226C53.9914 17.2716 54.028 17.3172 54.0524 17.3628C54.2354 17.6593 54.394 17.8417 54.5526 17.9671C54.6502 18.0583 54.7722 18.1268 54.8941 18.1724C55.0283 18.218 55.1747 18.2294 55.3211 18.218C55.3943 18.2066 55.4675 18.1952 55.5407 18.1838C55.6139 18.161 55.6871 18.1496 55.7481 18.1267C55.8212 18.0925 55.8944 18.0697 55.9554 18.0355C56.3702 17.8189 56.7362 17.5567 57.0655 17.2602C57.4681 16.8954 57.8218 16.4963 58.0902 16.0288C58.1268 15.9604 58.1634 15.892 58.1878 15.8236C58.2122 15.7552 58.2366 15.6982 58.261 15.6298C58.2732 15.5614 58.2854 15.493 58.2976 15.4245C58.3098 15.2877 58.2976 15.1509 58.2488 15.0255C58.2244 14.8773 58.1512 14.7632 58.0536 14.672Z" fill="#FBF8ED"/>
<path fill-rule="evenodd" clip-rule="evenodd" d="M23.6043 5.57343C23.6043 4.79812 24.2752 4.17102 25.0926 4.17102C25.8977 4.17102 26.5442 4.79812 26.5808 5.58484V16.5191C26.5808 17.2944 25.9099 17.9215 25.0926 17.9215C24.2752 17.9215 23.6043 17.2944 23.6043 16.5191V5.57343ZM22.2259 12.3233C22.2137 12.5399 22.1527 12.939 21.8599 13.2354C21.5305 13.5546 21.0914 13.6231 20.8352 13.6231C19.7739 13.6345 18.7126 13.6345 17.6513 13.6345C16.5901 13.6345 15.5288 13.6345 14.4675 13.6459C14.5651 13.9195 14.7481 14.33 15.1628 14.7062C15.419 14.9343 15.663 15.0597 15.7605 15.1167C15.8825 15.1965 16.3339 15.4131 16.8706 15.4131C17.444 15.4131 17.9563 15.2421 18.4565 15.0027L18.4931 14.9799C18.8468 14.8088 19.2006 14.6378 19.5787 14.5808C19.9447 14.5238 20.3473 14.5922 20.64 14.8316C20.9938 15.1167 21.128 15.5271 20.9938 15.949C20.8474 16.4279 20.4205 16.8384 19.9569 17.0892C19.7007 17.226 19.4202 17.3514 19.1396 17.4426C18.4199 17.6821 17.6635 17.7961 16.9072 17.7733C16.7242 17.7733 16.5291 17.7733 16.3339 17.7505C16.1265 17.7277 15.9191 17.6935 15.7118 17.6365C15.3946 17.5681 15.0774 17.4768 14.7847 17.34C14.4919 17.2146 14.2113 17.0664 13.9429 16.8954C13.6746 16.7129 13.4306 16.5191 13.1988 16.2911C12.967 16.0744 12.7719 15.8236 12.5889 15.5728C11.9668 14.6834 11.674 13.5889 11.7228 12.5171C11.7716 11.4795 12.1375 10.4306 12.8207 9.58684C12.8939 9.48423 12.967 9.39302 13.0524 9.3018C13.089 9.2676 13.1256 9.23339 13.15 9.18778C13.9795 8.24144 15.0896 7.94499 15.5532 7.81958L15.5776 7.80818C16.5047 7.55734 17.4928 7.55734 18.4199 7.80818C18.6394 7.86518 19.8837 8.21864 20.8474 9.18778C20.8962 9.23339 21.0182 9.37021 21.189 9.57544C21.6037 10.0999 21.9087 10.6928 22.0795 11.3199C22.1649 11.605 22.2259 11.9242 22.2259 12.3233ZM15.419 10.5332C14.9676 10.8866 14.6383 11.3655 14.5163 11.9014H19.5665C19.4324 11.3655 19.1152 10.8752 18.6516 10.5332C18.1881 10.1911 17.627 9.99731 17.0292 9.99731C16.8218 9.99731 16.1021 10.0315 15.419 10.5332ZM34.6441 7.65995C33.3145 7.65995 32.119 8.20724 31.2529 9.10797V9.08517C31.2041 7.24949 28.2398 7.3179 28.3008 9.16498V19.609C28.3008 20.3729 28.9596 21 29.7891 21C30.6064 21 31.2651 20.3843 31.2651 19.609V16.3481C32.119 17.2374 33.3145 17.8075 34.6441 17.8075C37.2913 17.8075 39.4504 15.5614 39.4504 12.7565C39.4504 9.9403 37.2913 7.65995 34.6441 7.65995ZM33.9854 15.5157C32.485 15.5157 31.2529 14.2844 31.2529 12.7565C31.2529 11.2173 32.4728 9.98591 33.9854 9.98591C35.4981 9.98591 36.7179 11.2173 36.7179 12.7565C36.7179 14.2958 35.4981 15.5157 33.9854 15.5157ZM9.52701 13.4634L9.03906 14.4668C8.81949 14.9001 8.59991 15.3447 8.39253 15.7894C8.31934 15.9262 8.25834 16.063 8.19735 16.1999C7.27025 18.1267 6.17237 20.4185 3.76922 20.8974C2.61034 21.1368 0.85373 20.8062 0.207199 19.7914C-0.439333 18.7538 0.524365 17.5681 1.75643 17.8417C1.95161 17.8759 2.14679 17.9671 2.34197 18.0583C2.67134 18.2066 2.9885 18.3662 3.35446 18.2978C3.68383 18.2408 3.90341 18.0127 4.15958 17.7277C4.44015 17.4084 4.64753 17.0436 4.75732 16.6445C4.74512 16.6331 4.74512 16.6217 4.74512 16.6103C4.73292 16.5989 4.73292 16.5875 4.72072 16.5761C4.41575 16.0516 4.15958 15.5728 3.94 15.1851C3.79362 14.9343 3.67163 14.7062 3.56184 14.5238L3.0617 13.6345C2.69573 12.9732 2.63474 12.8705 2.46396 12.5855C2.1102 11.947 1.73204 11.3199 1.32948 10.7042C0.902525 10.0315 0.463371 9.279 0.817134 8.48088C1.0977 7.84238 1.85402 7.51173 2.54935 7.72836C3.29347 7.93359 3.62284 8.6063 3.94 9.22199C3.9888 9.33601 4.04979 9.45003 4.11078 9.55264C4.61093 10.4762 5.09888 11.3997 5.58683 12.3233C5.62342 12.4145 5.69662 12.5399 5.78201 12.6881C5.8552 12.8249 5.94059 12.9846 6.02598 13.1556C6.07478 13.2468 6.11137 13.3266 6.16017 13.4064C6.20896 13.4976 6.25776 13.5889 6.28215 13.6573C6.51393 13.1328 6.73351 12.6083 6.96528 12.0838C7.19706 11.5593 7.42883 11.0349 7.64841 10.5104C7.64841 10.4762 7.7094 10.3736 7.7826 10.2025C7.90458 9.9517 8.02657 9.70086 8.13636 9.45002C8.44132 8.76592 8.79509 7.945 9.6002 7.71696C10.1857 7.55734 10.8079 7.76257 11.1616 8.23004C11.3446 8.45807 11.4056 8.72031 11.4178 8.98255C11.43 9.56404 11.125 10.1797 10.8689 10.7042C10.8079 10.8296 10.7469 10.9551 10.6981 11.0805L10.6615 11.1489C10.5883 11.2971 10.3931 11.6962 10.0638 12.3689C9.94177 12.6083 9.83198 12.8477 9.70999 13.0872C9.6612 13.2012 9.588 13.338 9.52701 13.4634Z" fill="#FBF8ED"/>
</svg>
