<svg width="28" height="29" viewBox="0 0 28 29" fill="none" xmlns="http://www.w3.org/2000/svg">
<g clip-path="url(#clip0_1411_2332)">
<path d="M5.84631 13.6425L11.2943 16.3009C12.3443 16.815 12.1802 18.3522 11.0482 18.6366L5.16818 20.1028C4.99557 20.1462 4.81567 20.1521 4.64058 20.1202C4.46549 20.0882 4.29927 20.0192 4.1531 19.9176C4.00694 19.8161 3.88422 19.6844 3.7932 19.5314C3.70219 19.3785 3.64499 19.2078 3.62545 19.0309C3.44502 17.4583 3.61306 15.8653 4.11763 14.365C4.17424 14.1969 4.26603 14.0429 4.38689 13.9131C4.50774 13.7834 4.65488 13.6809 4.81849 13.6126C4.98209 13.5442 5.15839 13.5115 5.33563 13.5167C5.51287 13.5218 5.68697 13.5647 5.84631 13.6425V13.6425ZM8.25256 26.7265C9.55604 27.6195 11.038 28.2187 12.5958 28.4825C12.7711 28.5126 12.9509 28.5048 13.1229 28.4597C13.295 28.4145 13.4553 28.333 13.5933 28.2207C13.7312 28.1083 13.8434 27.9678 13.9225 27.8084C14.0016 27.6491 14.0456 27.4747 14.0516 27.2969L14.2649 21.2364C14.3032 20.0716 12.8704 19.4914 12.0878 20.356L8.02943 24.8622C7.91059 24.9945 7.82137 25.1506 7.76776 25.3201C7.71414 25.4896 7.69736 25.6686 7.71853 25.8451C7.73971 26.0216 7.79836 26.1916 7.89055 26.3436C7.98275 26.4956 8.10636 26.6262 8.2531 26.7265H8.25256ZM16.2008 20.7153L19.417 25.8559C19.5118 26.0068 19.6377 26.1358 19.7863 26.2343C19.9349 26.3327 20.1027 26.3984 20.2787 26.4268C20.4546 26.4553 20.6346 26.4459 20.8067 26.3993C20.9787 26.3528 21.1388 26.27 21.2764 26.1567C22.4953 25.1491 23.4791 23.8871 24.159 22.4593C24.2339 22.2985 24.2739 22.1237 24.2765 21.9464C24.2791 21.769 24.2442 21.5931 24.174 21.4302C24.1038 21.2674 24 21.1211 23.8693 21.0012C23.7386 20.8813 23.5841 20.7904 23.4158 20.7344L17.6506 18.8608C16.5399 18.5054 15.5829 19.7249 16.2008 20.7153ZM24.3126 13.4839C23.6823 12.0339 22.7412 10.7399 21.5558 9.69356C21.4225 9.57666 21.2657 9.4895 21.0961 9.43785C20.9264 9.38621 20.7477 9.37127 20.5718 9.39404C20.3959 9.4168 20.2269 9.47674 20.076 9.56987C19.9251 9.663 19.7957 9.78719 19.6965 9.93418L16.3058 14.9611C15.6551 15.929 16.5629 17.1819 17.684 16.8593L23.5158 15.1907C23.6868 15.1404 23.8451 15.0544 23.9802 14.9383C24.1154 14.8222 24.2244 14.6787 24.2999 14.5174C24.3754 14.356 24.4158 14.1804 24.4184 14.0023C24.421 13.8241 24.3857 13.6474 24.3148 13.4839H24.3126ZM6.89685 2.15051C6.74194 2.22507 6.60407 2.33077 6.49187 2.46102C6.37966 2.59127 6.29552 2.74326 6.2447 2.9075C6.19389 3.07174 6.1775 3.24469 6.19656 3.41555C6.21561 3.58641 6.2697 3.7515 6.35545 3.90051L12.0495 13.7683C12.6894 14.873 14.3797 14.4191 14.3797 13.1449V1.75129C14.3813 1.57911 14.347 1.4085 14.2789 1.25032C14.2109 1.09214 14.1107 0.949867 13.9846 0.832564C13.8586 0.715261 13.7095 0.625501 13.5468 0.569004C13.3842 0.512506 13.2115 0.49051 13.0399 0.504416C10.9089 0.673758 8.82697 1.23164 6.89685 2.15051V2.15051Z" fill="white"/>
</g>
<defs>
<clipPath id="clip0_1411_2332">
<rect width="28" height="28" fill="white" transform="translate(0 0.5)"/>
</clipPath>
</defs>
</svg>
