<svg width="127" height="16" viewBox="0 0 127 16" fill="none" xmlns="http://www.w3.org/2000/svg">
<path d="M7.1 15.2C5.63333 15.2 4.37333 14.9067 3.32 14.32C2.28 13.72 1.48 12.88 0.92 11.8C0.36 10.7067 0.08 9.42 0.08 7.94C0.08 6.46 0.36 5.18 0.92 4.1C1.48 3.02 2.28 2.18667 3.32 1.6C4.37333 0.999999 5.63333 0.699999 7.1 0.699999C7.83333 0.699999 8.55333 0.793333 9.26 0.979999C9.96667 1.16667 10.5867 1.43333 11.12 1.78C11.4667 2.00667 11.6733 2.28 11.74 2.6C11.8067 2.90667 11.7667 3.19333 11.62 3.46C11.4733 3.71333 11.2533 3.88667 10.96 3.98C10.6667 4.06 10.34 3.98 9.98 3.74C9.56667 3.47333 9.12 3.28 8.64 3.16C8.16 3.04 7.67333 2.98 7.18 2.98C5.75333 2.98 4.66667 3.41333 3.92 4.28C3.17333 5.13333 2.8 6.35333 2.8 7.94C2.8 9.52667 3.17333 10.7533 3.92 11.62C4.66667 12.4867 5.75333 12.92 7.18 12.92C7.68667 12.92 8.18667 12.86 8.68 12.74C9.17333 12.6067 9.64 12.4067 10.08 12.14C10.44 11.9133 10.76 11.84 11.04 11.92C11.32 12 11.5267 12.1667 11.66 12.42C11.8067 12.66 11.8533 12.9267 11.8 13.22C11.7467 13.5133 11.5667 13.7733 11.26 14C10.7267 14.3867 10.0867 14.6867 9.34 14.9C8.60667 15.1 7.86 15.2 7.1 15.2ZM19.985 15.2C18.625 15.2 17.4317 14.9 16.405 14.3C15.3917 13.7 14.605 12.86 14.045 11.78C13.485 10.6867 13.205 9.40667 13.205 7.94C13.205 6.46 13.485 5.18 14.045 4.1C14.605 3.02 15.3917 2.18667 16.405 1.6C17.4183 0.999999 18.6117 0.699999 19.985 0.699999C21.3583 0.699999 22.5517 0.999999 23.565 1.6C24.5783 2.18667 25.365 3.02 25.925 4.1C26.485 5.18 26.765 6.45333 26.765 7.92C26.765 9.4 26.485 10.6867 25.925 11.78C25.365 12.86 24.5783 13.7 23.565 14.3C22.5517 14.9 21.3583 15.2 19.985 15.2ZM19.985 13C21.2783 13 22.285 12.5533 23.005 11.66C23.725 10.7667 24.085 9.52667 24.085 7.94C24.085 6.34 23.725 5.1 23.005 4.22C22.2983 3.34 21.2917 2.9 19.985 2.9C18.6917 2.9 17.685 3.34 16.965 4.22C16.245 5.1 15.885 6.34 15.885 7.94C15.885 9.52667 16.245 10.7667 16.965 11.66C17.685 12.5533 18.6917 13 19.985 13ZM30.5681 15.16C29.7681 15.16 29.3681 14.7467 29.3681 13.92V2.02C29.3681 1.60667 29.4681 1.29333 29.6681 1.08C29.8815 0.853332 30.1548 0.739999 30.4881 0.739999C30.7948 0.739999 31.0215 0.799999 31.1681 0.919999C31.3281 1.02667 31.5148 1.21333 31.7281 1.48L38.8681 10.74V1.96C38.8681 1.14667 39.2681 0.739999 40.0681 0.739999C40.8548 0.739999 41.2481 1.14667 41.2481 1.96V13.96C41.2481 14.3333 41.1548 14.6267 40.9681 14.84C40.7815 15.0533 40.5281 15.16 40.2081 15.16C39.9015 15.16 39.6548 15.1 39.4681 14.98C39.2948 14.86 39.1015 14.6667 38.8881 14.4L31.7481 5.12V13.92C31.7481 14.7467 31.3548 15.16 30.5681 15.16ZM49.0091 15.16C48.1557 15.16 47.7291 14.72 47.7291 13.84V3.04H43.8291C43.0957 3.04 42.7291 2.68 42.7291 1.96C42.7291 1.25333 43.0957 0.899999 43.8291 0.899999H54.1891C54.9224 0.899999 55.2891 1.25333 55.2891 1.96C55.2891 2.68 54.9224 3.04 54.1891 3.04H50.2891V13.84C50.2891 14.72 49.8624 15.16 49.0091 15.16ZM55.3284 15.16C54.8618 15.16 54.5284 15 54.3284 14.68C54.1284 14.36 54.1351 13.9733 54.3484 13.52L59.6284 1.82C59.8018 1.43333 60.0084 1.16 60.2484 0.999999C60.5018 0.826666 60.7884 0.739999 61.1084 0.739999C61.4151 0.739999 61.6884 0.826666 61.9284 0.999999C62.1818 1.16 62.3951 1.43333 62.5684 1.82L67.8684 13.52C68.0818 13.9867 68.0951 14.38 67.9084 14.7C67.7218 15.0067 67.4018 15.16 66.9484 15.16C66.5751 15.16 66.2818 15.0733 66.0684 14.9C65.8684 14.7133 65.6884 14.4333 65.5284 14.06L64.5284 11.74H57.6484L56.6684 14.06C56.4951 14.4467 56.3151 14.7267 56.1284 14.9C55.9418 15.0733 55.6751 15.16 55.3284 15.16ZM61.0684 3.68L58.5284 9.7H63.6484L61.1084 3.68H61.0684ZM76.3383 15.2C74.8716 15.2 73.6116 14.9067 72.5583 14.32C71.5183 13.72 70.7183 12.88 70.1583 11.8C69.5983 10.7067 69.3183 9.42 69.3183 7.94C69.3183 6.46 69.5983 5.18 70.1583 4.1C70.7183 3.02 71.5183 2.18667 72.5583 1.6C73.6116 0.999999 74.8716 0.699999 76.3383 0.699999C77.0716 0.699999 77.7916 0.793333 78.4983 0.979999C79.2049 1.16667 79.8249 1.43333 80.3583 1.78C80.7049 2.00667 80.9116 2.28 80.9783 2.6C81.0449 2.90667 81.0049 3.19333 80.8583 3.46C80.7116 3.71333 80.4916 3.88667 80.1983 3.98C79.9049 4.06 79.5783 3.98 79.2183 3.74C78.8049 3.47333 78.3583 3.28 77.8783 3.16C77.3983 3.04 76.9116 2.98 76.4183 2.98C74.9916 2.98 73.9049 3.41333 73.1583 4.28C72.4116 5.13333 72.0383 6.35333 72.0383 7.94C72.0383 9.52667 72.4116 10.7533 73.1583 11.62C73.9049 12.4867 74.9916 12.92 76.4183 12.92C76.9249 12.92 77.4249 12.86 77.9183 12.74C78.4116 12.6067 78.8783 12.4067 79.3183 12.14C79.6783 11.9133 79.9983 11.84 80.2783 11.92C80.5583 12 80.7649 12.1667 80.8983 12.42C81.0449 12.66 81.0916 12.9267 81.0383 13.22C80.9849 13.5133 80.8049 13.7733 80.4983 14C79.9649 14.3867 79.3249 14.6867 78.5783 14.9C77.8449 15.1 77.0983 15.2 76.3383 15.2ZM87.8567 15.16C87.0034 15.16 86.5767 14.72 86.5767 13.84V3.04H82.6767C81.9434 3.04 81.5767 2.68 81.5767 1.96C81.5767 1.25333 81.9434 0.899999 82.6767 0.899999H93.0367C93.7701 0.899999 94.1367 1.25333 94.1367 1.96C94.1367 2.68 93.7701 3.04 93.0367 3.04H89.1367V13.84C89.1367 14.72 88.7101 15.16 87.8567 15.16ZM106.888 15.2C104.955 15.2 103.475 14.7 102.448 13.7C101.435 12.6867 100.928 11.1933 100.928 9.22V2.04C100.928 1.17333 101.355 0.739999 102.208 0.739999C103.062 0.739999 103.488 1.17333 103.488 2.04V9.2C103.488 10.4667 103.775 11.42 104.348 12.06C104.935 12.6867 105.782 13 106.888 13C109.142 13 110.268 11.7333 110.268 9.2V2.04C110.268 1.17333 110.695 0.739999 111.548 0.739999C112.388 0.739999 112.808 1.17333 112.808 2.04V9.22C112.808 11.1933 112.308 12.6867 111.308 13.7C110.308 14.7 108.835 15.2 106.888 15.2ZM120.654 15.2C119.761 15.2 118.887 15.1 118.034 14.9C117.194 14.7 116.461 14.4 115.834 14C115.527 13.8 115.341 13.5533 115.274 13.26C115.207 12.9667 115.227 12.6933 115.334 12.44C115.454 12.1733 115.634 11.9933 115.874 11.9C116.127 11.7933 116.414 11.84 116.734 12.04C117.321 12.3867 117.941 12.64 118.594 12.8C119.247 12.96 119.934 13.04 120.654 13.04C121.707 13.04 122.474 12.8667 122.954 12.52C123.434 12.16 123.674 11.7 123.674 11.14C123.674 10.6733 123.501 10.3067 123.154 10.04C122.821 9.77333 122.241 9.55333 121.414 9.38L119.214 8.92C116.707 8.38667 115.454 7.1 115.454 5.06C115.454 4.18 115.687 3.41333 116.154 2.76C116.621 2.10667 117.267 1.6 118.094 1.24C118.921 0.879999 119.874 0.699999 120.954 0.699999C121.754 0.699999 122.514 0.799999 123.234 0.999999C123.954 1.2 124.601 1.49333 125.174 1.88C125.441 2.06667 125.601 2.3 125.654 2.58C125.707 2.84667 125.674 3.1 125.554 3.34C125.434 3.56667 125.241 3.72667 124.974 3.82C124.721 3.9 124.421 3.84 124.074 3.64C123.581 3.36 123.081 3.16 122.574 3.04C122.067 2.92 121.521 2.86 120.934 2.86C120.014 2.86 119.294 3.05333 118.774 3.44C118.254 3.82667 117.994 4.33333 117.994 4.96C117.994 5.44 118.154 5.82667 118.474 6.12C118.794 6.4 119.341 6.62 120.114 6.78L122.294 7.24C123.614 7.52 124.594 7.96 125.234 8.56C125.887 9.16 126.214 9.96 126.214 10.96C126.214 11.8 125.987 12.54 125.534 13.18C125.081 13.82 124.434 14.32 123.594 14.68C122.767 15.0267 121.787 15.2 120.654 15.2Z" fill="white"/>
</svg>
