<svg width="313" height="29" viewBox="0 0 313 29" fill="none" xmlns="http://www.w3.org/2000/svg">
<path d="M48.9 21C47.9933 21 47.54 20.5467 47.54 19.64V8.26C47.54 7.35333 47.9933 6.9 48.9 6.9H56.04C56.7333 6.9 57.08 7.23333 57.08 7.9C57.08 8.59333 56.7333 8.94 56.04 8.94H50V12.82H55.6C56.2933 12.82 56.64 13.16 56.64 13.84C56.64 14.52 56.2933 14.86 55.6 14.86H50V18.96H56.04C56.7333 18.96 57.08 19.3 57.08 19.98C57.08 20.66 56.7333 21 56.04 21H48.9ZM60.5136 21.16C59.6869 21.16 59.2736 20.7333 59.2736 19.88V12.32C59.2736 11.48 59.6803 11.06 60.4936 11.06C61.3069 11.06 61.7136 11.48 61.7136 12.32V12.72C62.0069 12.1867 62.4136 11.7733 62.9336 11.48C63.4536 11.1733 64.0536 11.02 64.7336 11.02C66.2003 11.02 67.1603 11.66 67.6136 12.94C67.9203 12.34 68.3603 11.8733 68.9336 11.54C69.5069 11.1933 70.1603 11.02 70.8936 11.02C73.0936 11.02 74.1936 12.36 74.1936 15.04V19.88C74.1936 20.7333 73.7736 21.16 72.9336 21.16C72.1069 21.16 71.6936 20.7333 71.6936 19.88V15.14C71.6936 14.3933 71.5669 13.8467 71.3136 13.5C71.0736 13.1533 70.6603 12.98 70.0736 12.98C69.4203 12.98 68.9069 13.2133 68.5336 13.68C68.1603 14.1333 67.9736 14.7667 67.9736 15.58V19.88C67.9736 20.7333 67.5603 21.16 66.7336 21.16C65.8936 21.16 65.4736 20.7333 65.4736 19.88V15.14C65.4736 14.3933 65.3469 13.8467 65.0936 13.5C64.8536 13.1533 64.4469 12.98 63.8736 12.98C63.2203 12.98 62.7069 13.2133 62.3336 13.68C61.9603 14.1333 61.7736 14.7667 61.7736 15.58V19.88C61.7736 20.7333 61.3536 21.16 60.5136 21.16ZM79.9927 21.2C79.286 21.2 78.6527 21.0667 78.0927 20.8C77.546 20.52 77.1127 20.1467 76.7927 19.68C76.486 19.2133 76.3327 18.6867 76.3327 18.1C76.3327 17.38 76.5193 16.8133 76.8927 16.4C77.266 15.9733 77.8727 15.6667 78.7127 15.48C79.5527 15.2933 80.6793 15.2 82.0927 15.2H82.7927V14.78C82.7927 14.1133 82.646 13.6333 82.3527 13.34C82.0593 13.0467 81.566 12.9 80.8727 12.9C80.486 12.9 80.066 12.9467 79.6127 13.04C79.1727 13.1333 78.706 13.2933 78.2127 13.52C77.8927 13.6667 77.626 13.6867 77.4127 13.58C77.1993 13.46 77.0527 13.28 76.9727 13.04C76.906 12.7867 76.9193 12.5333 77.0127 12.28C77.1193 12.0267 77.326 11.84 77.6327 11.72C78.246 11.4667 78.8327 11.2867 79.3927 11.18C79.966 11.0733 80.486 11.02 80.9527 11.02C82.3793 11.02 83.4393 11.3533 84.1327 12.02C84.826 12.6733 85.1727 13.6933 85.1727 15.08V19.88C85.1727 20.7333 84.786 21.16 84.0127 21.16C83.226 21.16 82.8327 20.7333 82.8327 19.88V19.44C82.606 19.9867 82.246 20.42 81.7527 20.74C81.2593 21.0467 80.6727 21.2 79.9927 21.2ZM80.5127 19.48C81.166 19.48 81.706 19.2533 82.1327 18.8C82.5727 18.3467 82.7927 17.7733 82.7927 17.08V16.64H82.1127C80.8593 16.64 79.986 16.74 79.4927 16.94C79.0127 17.1267 78.7727 17.4733 78.7727 17.98C78.7727 18.42 78.926 18.78 79.2327 19.06C79.5393 19.34 79.966 19.48 80.5127 19.48ZM88.9502 9.22C88.4835 9.22 88.1168 9.10667 87.8502 8.88C87.5968 8.64 87.4702 8.31333 87.4702 7.9C87.4702 7.47333 87.5968 7.14667 87.8502 6.92C88.1168 6.69333 88.4835 6.58 88.9502 6.58C89.9368 6.58 90.4302 7.02 90.4302 7.9C90.4302 8.78 89.9368 9.22 88.9502 9.22ZM88.9502 21.14C88.5502 21.14 88.2435 21.02 88.0302 20.78C87.8168 20.54 87.7102 20.2067 87.7102 19.78V12.44C87.7102 11.5333 88.1235 11.08 88.9502 11.08C89.7902 11.08 90.2102 11.5333 90.2102 12.44V19.78C90.2102 20.2067 90.1035 20.54 89.8902 20.78C89.6768 21.02 89.3635 21.14 88.9502 21.14ZM96.1478 21.2C93.9211 21.2 92.8078 19.9533 92.8078 17.46V8C92.8078 7.16 93.2211 6.74 94.0478 6.74C94.8878 6.74 95.3078 7.16 95.3078 8V17.34C95.3078 18.54 95.8078 19.14 96.8078 19.14C96.9145 19.14 97.0145 19.14 97.1078 19.14C97.2011 19.1267 97.2945 19.1133 97.3878 19.1C97.5745 19.0733 97.7011 19.1267 97.7678 19.26C97.8345 19.38 97.8678 19.6333 97.8678 20.02C97.8678 20.3533 97.8011 20.6133 97.6678 20.8C97.5345 20.9867 97.3145 21.1 97.0078 21.14C96.7278 21.18 96.4411 21.2 96.1478 21.2Z" fill="white"/>
<path d="M128.32 8.94C127.613 8.94 127.26 8.60667 127.26 7.94C127.26 7.28667 127.613 6.96 128.32 6.96C129.027 6.96 129.38 7.28667 129.38 7.94C129.38 8.60667 129.027 8.94 128.32 8.94ZM128.32 21.1C127.787 21.1 127.52 20.8067 127.52 20.22V12.04C127.52 11.4667 127.787 11.18 128.32 11.18C128.867 11.18 129.14 11.4667 129.14 12.04V20.22C129.14 20.8067 128.867 21.1 128.32 21.1ZM132.968 21.14C132.435 21.14 132.168 20.86 132.168 20.3V11.96C132.168 11.4133 132.428 11.14 132.948 11.14C133.482 11.14 133.748 11.4133 133.748 11.96V12.94C134.068 12.3267 134.522 11.8667 135.108 11.56C135.695 11.2533 136.355 11.1 137.088 11.1C139.395 11.1 140.548 12.38 140.548 14.94V20.3C140.548 20.86 140.282 21.14 139.748 21.14C139.202 21.14 138.928 20.86 138.928 20.3V15.04C138.928 14.1333 138.748 13.4733 138.388 13.06C138.042 12.6333 137.482 12.42 136.708 12.42C135.815 12.42 135.102 12.7 134.568 13.26C134.048 13.8067 133.788 14.54 133.788 15.46V20.3C133.788 20.86 133.515 21.14 132.968 21.14ZM144.856 21.14C144.322 21.14 144.056 20.86 144.056 20.3V12.54H142.776C142.309 12.54 142.076 12.3267 142.076 11.9C142.076 11.4867 142.309 11.28 142.776 11.28H144.056V10.94C144.056 8.44667 145.276 7.09333 147.716 6.88L148.296 6.82C148.536 6.80667 148.709 6.86 148.816 6.98C148.922 7.1 148.976 7.24667 148.976 7.42C148.989 7.58 148.949 7.72667 148.856 7.86C148.762 7.99333 148.629 8.06667 148.456 8.08L147.996 8.12C147.182 8.18667 146.589 8.43333 146.216 8.86C145.856 9.28667 145.676 9.91333 145.676 10.74V11.28H147.836C148.302 11.28 148.536 11.4867 148.536 11.9C148.536 12.3267 148.302 12.54 147.836 12.54H145.676V20.3C145.676 20.86 145.402 21.14 144.856 21.14ZM153.962 21.18C153.016 21.18 152.196 20.9733 151.502 20.56C150.809 20.1467 150.269 19.5667 149.882 18.82C149.509 18.06 149.322 17.1667 149.322 16.14C149.322 15.1133 149.509 14.2267 149.882 13.48C150.269 12.72 150.809 12.1333 151.502 11.72C152.196 11.3067 153.016 11.1 153.962 11.1C154.896 11.1 155.709 11.3067 156.402 11.72C157.109 12.1333 157.649 12.72 158.022 13.48C158.409 14.2267 158.602 15.1133 158.602 16.14C158.602 17.1667 158.409 18.06 158.022 18.82C157.649 19.5667 157.109 20.1467 156.402 20.56C155.709 20.9733 154.896 21.18 153.962 21.18ZM153.962 19.88C154.869 19.88 155.596 19.56 156.142 18.92C156.689 18.2667 156.962 17.34 156.962 16.14C156.962 14.9267 156.689 14 156.142 13.36C155.596 12.72 154.869 12.4 153.962 12.4C153.042 12.4 152.309 12.72 151.762 13.36C151.229 14 150.962 14.9267 150.962 16.14C150.962 17.34 151.229 18.2667 151.762 18.92C152.309 19.56 153.042 19.88 153.962 19.88ZM169.216 24.26C167.522 24.26 166.036 23.9 164.756 23.18C163.489 22.4733 162.502 21.4667 161.796 20.16C161.089 18.8533 160.736 17.3133 160.736 15.54C160.736 14.2333 160.942 13.04 161.356 11.96C161.782 10.88 162.382 9.95333 163.156 9.18C163.942 8.39333 164.869 7.78667 165.936 7.36C167.002 6.93333 168.182 6.72 169.476 6.72C171.022 6.72 172.376 7.03333 173.536 7.66C174.696 8.27333 175.596 9.13333 176.236 10.24C176.889 11.3467 177.216 12.64 177.216 14.12C177.216 15.28 177.056 16.2867 176.736 17.14C176.429 17.9933 175.989 18.6533 175.416 19.12C174.842 19.5867 174.176 19.82 173.416 19.82C172.762 19.82 172.236 19.6667 171.836 19.36C171.436 19.04 171.196 18.6 171.116 18.04C170.742 18.6267 170.289 19.0733 169.756 19.38C169.236 19.6733 168.682 19.82 168.096 19.82C167.069 19.82 166.269 19.5 165.696 18.86C165.136 18.2067 164.856 17.3133 164.856 16.18C164.856 15.2067 165.042 14.34 165.416 13.58C165.789 12.8067 166.302 12.2 166.956 11.76C167.609 11.32 168.349 11.1 169.176 11.1C170.456 11.1 171.302 11.62 171.716 12.66L171.856 11.82C171.922 11.3933 172.169 11.18 172.596 11.18C173.062 11.18 173.256 11.4267 173.176 11.92L172.376 16.46C172.322 16.8067 172.296 17.12 172.296 17.4C172.296 18.2933 172.696 18.74 173.496 18.74C174.256 18.74 174.876 18.32 175.356 17.48C175.836 16.6267 176.076 15.5067 176.076 14.12C176.076 12.8533 175.796 11.7533 175.236 10.82C174.689 9.88667 173.922 9.16 172.936 8.64C171.949 8.12 170.789 7.86 169.456 7.86C167.976 7.86 166.676 8.18 165.556 8.82C164.436 9.46 163.562 10.36 162.936 11.52C162.309 12.6667 161.996 14.0067 161.996 15.54C161.996 17.1267 162.289 18.4867 162.876 19.62C163.462 20.7533 164.296 21.62 165.376 22.22C166.456 22.8333 167.736 23.14 169.216 23.14C170.189 23.14 171.069 23 171.856 22.72C172.656 22.44 173.336 22.06 173.896 21.58C174.136 21.3933 174.356 21.34 174.556 21.42C174.756 21.5 174.876 21.6467 174.916 21.86C174.956 22.0867 174.856 22.3 174.616 22.5C174.002 23.0333 173.229 23.46 172.296 23.78C171.376 24.1 170.349 24.26 169.216 24.26ZM168.276 18.66C168.876 18.66 169.402 18.4867 169.856 18.14C170.322 17.78 170.689 17.2867 170.956 16.66C171.222 16.0333 171.356 15.3133 171.356 14.5C171.356 13.0067 170.676 12.26 169.316 12.26C168.729 12.26 168.202 12.4333 167.736 12.78C167.269 13.1133 166.896 13.5733 166.616 14.16C166.349 14.7467 166.216 15.42 166.216 16.18C166.216 16.98 166.396 17.5933 166.756 18.02C167.116 18.4467 167.622 18.66 168.276 18.66ZM180.781 21.14C180.235 21.14 179.961 20.86 179.961 20.3V11.96C179.961 11.4133 180.221 11.14 180.741 11.14C181.275 11.14 181.541 11.4133 181.541 11.96V13.02C181.808 12.4067 182.221 11.94 182.781 11.62C183.341 11.2867 184.008 11.1067 184.781 11.08C185.208 11.04 185.435 11.2533 185.461 11.72C185.501 12.1867 185.261 12.4467 184.741 12.5L184.421 12.54C183.501 12.62 182.801 12.9133 182.321 13.42C181.841 13.9133 181.601 14.5933 181.601 15.46V20.3C181.601 20.86 181.328 21.14 180.781 21.14ZM191.052 21.18C190.106 21.18 189.286 20.9733 188.592 20.56C187.899 20.1467 187.359 19.5667 186.972 18.82C186.599 18.06 186.412 17.1667 186.412 16.14C186.412 15.1133 186.599 14.2267 186.972 13.48C187.359 12.72 187.899 12.1333 188.592 11.72C189.286 11.3067 190.106 11.1 191.052 11.1C191.986 11.1 192.799 11.3067 193.492 11.72C194.199 12.1333 194.739 12.72 195.112 13.48C195.499 14.2267 195.692 15.1133 195.692 16.14C195.692 17.1667 195.499 18.06 195.112 18.82C194.739 19.5667 194.199 20.1467 193.492 20.56C192.799 20.9733 191.986 21.18 191.052 21.18ZM191.052 19.88C191.959 19.88 192.686 19.56 193.232 18.92C193.779 18.2667 194.052 17.34 194.052 16.14C194.052 14.9267 193.779 14 193.232 13.36C192.686 12.72 191.959 12.4 191.052 12.4C190.132 12.4 189.399 12.72 188.852 13.36C188.319 14 188.052 14.9267 188.052 16.14C188.052 17.34 188.319 18.2667 188.852 18.92C189.399 19.56 190.132 19.88 191.052 19.88ZM201.085 21.18C200.125 21.18 199.392 20.8933 198.885 20.32C198.379 19.7333 198.125 18.8867 198.125 17.78V7.58C198.125 7.03333 198.392 6.76 198.925 6.76C199.472 6.76 199.745 7.03333 199.745 7.58V17.66C199.745 19.0867 200.312 19.8 201.445 19.8C201.565 19.8 201.672 19.7933 201.765 19.78C201.859 19.7667 201.952 19.76 202.045 19.76C202.192 19.7467 202.292 19.78 202.345 19.86C202.412 19.94 202.445 20.1 202.445 20.34C202.445 20.7933 202.219 21.0533 201.765 21.12C201.659 21.1467 201.545 21.16 201.425 21.16C201.305 21.1733 201.192 21.18 201.085 21.18ZM207.003 21.18C206.043 21.18 205.31 20.8933 204.803 20.32C204.297 19.7333 204.043 18.8867 204.043 17.78V7.58C204.043 7.03333 204.31 6.76 204.843 6.76C205.39 6.76 205.663 7.03333 205.663 7.58V17.66C205.663 19.0867 206.23 19.8 207.363 19.8C207.483 19.8 207.59 19.7933 207.683 19.78C207.777 19.7667 207.87 19.76 207.963 19.76C208.11 19.7467 208.21 19.78 208.263 19.86C208.33 19.94 208.363 20.1 208.363 20.34C208.363 20.7933 208.137 21.0533 207.683 21.12C207.577 21.1467 207.463 21.16 207.343 21.16C207.223 21.1733 207.11 21.18 207.003 21.18ZM210.761 8.94C210.055 8.94 209.701 8.60667 209.701 7.94C209.701 7.28667 210.055 6.96 210.761 6.96C211.468 6.96 211.821 7.28667 211.821 7.94C211.821 8.60667 211.468 8.94 210.761 8.94ZM210.761 21.1C210.228 21.1 209.961 20.8067 209.961 20.22V12.04C209.961 11.4667 210.228 11.18 210.761 11.18C211.308 11.18 211.581 11.4667 211.581 12.04V20.22C211.581 20.8067 211.308 21.1 210.761 21.1ZM215.41 21.14C214.877 21.14 214.61 20.86 214.61 20.3V11.96C214.61 11.4133 214.87 11.14 215.39 11.14C215.923 11.14 216.19 11.4133 216.19 11.96V12.94C216.51 12.3267 216.963 11.8667 217.55 11.56C218.137 11.2533 218.797 11.1 219.53 11.1C221.837 11.1 222.99 12.38 222.99 14.94V20.3C222.99 20.86 222.723 21.14 222.19 21.14C221.643 21.14 221.37 20.86 221.37 20.3V15.04C221.37 14.1333 221.19 13.4733 220.83 13.06C220.483 12.6333 219.923 12.42 219.15 12.42C218.257 12.42 217.543 12.7 217.01 13.26C216.49 13.8067 216.23 14.54 216.23 15.46V20.3C216.23 20.86 215.957 21.14 215.41 21.14ZM229.257 21.18C228.657 21.18 228.05 21.1067 227.437 20.96C226.837 20.8 226.277 20.5467 225.757 20.2C225.517 20.0533 225.397 19.8667 225.397 19.64C225.41 19.4 225.504 19.2133 225.677 19.08C225.85 18.9467 226.07 18.9467 226.337 19.08C226.857 19.4 227.357 19.6267 227.837 19.76C228.33 19.88 228.817 19.94 229.297 19.94C230.057 19.94 230.63 19.8 231.017 19.52C231.404 19.24 231.597 18.86 231.597 18.38C231.597 18.0067 231.47 17.7133 231.217 17.5C230.964 17.2733 230.564 17.1 230.017 16.98L228.197 16.58C226.544 16.22 225.717 15.3667 225.717 14.02C225.717 13.14 226.064 12.4333 226.757 11.9C227.464 11.3667 228.384 11.1 229.517 11.1C230.09 11.1 230.644 11.18 231.177 11.34C231.71 11.4867 232.19 11.7267 232.617 12.06C232.844 12.22 232.944 12.4133 232.917 12.64C232.89 12.8667 232.784 13.0467 232.597 13.18C232.424 13.3 232.21 13.28 231.957 13.12C231.557 12.8533 231.15 12.66 230.737 12.54C230.324 12.4067 229.917 12.34 229.517 12.34C228.77 12.34 228.204 12.4867 227.817 12.78C227.43 13.0733 227.237 13.46 227.237 13.94C227.237 14.6867 227.73 15.1667 228.717 15.38L230.537 15.76C231.39 15.9467 232.037 16.2467 232.477 16.66C232.917 17.06 233.137 17.6067 233.137 18.3C233.137 19.1933 232.784 19.9 232.077 20.42C231.37 20.9267 230.43 21.18 229.257 21.18ZM239.046 21.18C236.713 21.18 235.546 19.8933 235.546 17.32V11.96C235.546 11.4133 235.813 11.14 236.346 11.14C236.893 11.14 237.166 11.4133 237.166 11.96V17.3C237.166 18.1667 237.339 18.8067 237.686 19.22C238.046 19.6333 238.606 19.84 239.366 19.84C240.193 19.84 240.866 19.5667 241.386 19.02C241.906 18.46 242.166 17.72 242.166 16.8V11.96C242.166 11.4133 242.439 11.14 242.986 11.14C243.519 11.14 243.786 11.4133 243.786 11.96V20.3C243.786 20.86 243.526 21.14 243.006 21.14C242.473 21.14 242.206 20.86 242.206 20.3V19.36C241.899 19.9467 241.466 20.4 240.906 20.72C240.359 21.0267 239.739 21.18 239.046 21.18ZM250.097 21.18C249.497 21.18 248.89 21.1067 248.277 20.96C247.677 20.8 247.117 20.5467 246.597 20.2C246.357 20.0533 246.237 19.8667 246.237 19.64C246.25 19.4 246.344 19.2133 246.517 19.08C246.69 18.9467 246.91 18.9467 247.177 19.08C247.697 19.4 248.197 19.6267 248.677 19.76C249.17 19.88 249.657 19.94 250.137 19.94C250.897 19.94 251.47 19.8 251.857 19.52C252.244 19.24 252.437 18.86 252.437 18.38C252.437 18.0067 252.31 17.7133 252.057 17.5C251.804 17.2733 251.404 17.1 250.857 16.98L249.037 16.58C247.384 16.22 246.557 15.3667 246.557 14.02C246.557 13.14 246.904 12.4333 247.597 11.9C248.304 11.3667 249.224 11.1 250.357 11.1C250.93 11.1 251.484 11.18 252.017 11.34C252.55 11.4867 253.03 11.7267 253.457 12.06C253.684 12.22 253.784 12.4133 253.757 12.64C253.73 12.8667 253.624 13.0467 253.437 13.18C253.264 13.3 253.05 13.28 252.797 13.12C252.397 12.8533 251.99 12.66 251.577 12.54C251.164 12.4067 250.757 12.34 250.357 12.34C249.61 12.34 249.044 12.4867 248.657 12.78C248.27 13.0733 248.077 13.46 248.077 13.94C248.077 14.6867 248.57 15.1667 249.557 15.38L251.377 15.76C252.23 15.9467 252.877 16.2467 253.317 16.66C253.757 17.06 253.977 17.6067 253.977 18.3C253.977 19.1933 253.624 19.9 252.917 20.42C252.21 20.9267 251.27 21.18 250.097 21.18ZM257.246 21.14C256.712 21.14 256.446 20.86 256.446 20.3V7.58C256.446 7.03333 256.712 6.76 257.246 6.76C257.792 6.76 258.066 7.03333 258.066 7.58V12.88C258.386 12.2933 258.832 11.8533 259.406 11.56C259.992 11.2533 260.646 11.1 261.366 11.1C263.672 11.1 264.826 12.38 264.826 14.94V20.3C264.826 20.86 264.559 21.14 264.026 21.14C263.479 21.14 263.206 20.86 263.206 20.3V15.04C263.206 14.1333 263.026 13.4733 262.666 13.06C262.319 12.6333 261.759 12.42 260.986 12.42C260.092 12.42 259.379 12.7 258.846 13.26C258.326 13.8067 258.066 14.54 258.066 15.46V20.3C258.066 20.86 257.792 21.14 257.246 21.14ZM268.613 8.94C267.906 8.94 267.553 8.60667 267.553 7.94C267.553 7.28667 267.906 6.96 268.613 6.96C269.32 6.96 269.673 7.28667 269.673 7.94C269.673 8.60667 269.32 8.94 268.613 8.94ZM268.613 21.1C268.08 21.1 267.813 20.8067 267.813 20.22V12.04C267.813 11.4667 268.08 11.18 268.613 11.18C269.16 11.18 269.433 11.4667 269.433 12.04V20.22C269.433 20.8067 269.16 21.1 268.613 21.1ZM273.241 21.08C272.908 21.08 272.641 20.98 272.441 20.78C272.241 20.5667 272.141 20.3 272.141 19.98C272.141 19.66 272.241 19.4 272.441 19.2C272.641 18.9867 272.908 18.88 273.241 18.88C273.575 18.88 273.835 18.9867 274.021 19.2C274.221 19.4 274.321 19.66 274.321 19.98C274.321 20.3 274.221 20.5667 274.021 20.78C273.835 20.98 273.575 21.08 273.241 21.08ZM280.683 21.18C279.71 21.18 278.87 20.9733 278.163 20.56C277.456 20.1333 276.91 19.54 276.523 18.78C276.15 18.0067 275.963 17.1067 275.963 16.08C275.963 14.5333 276.383 13.32 277.223 12.44C278.063 11.5467 279.216 11.1 280.683 11.1C281.163 11.1 281.663 11.18 282.183 11.34C282.703 11.4867 283.176 11.7333 283.603 12.08C283.83 12.24 283.923 12.44 283.883 12.68C283.856 12.92 283.743 13.1 283.543 13.22C283.356 13.34 283.136 13.3133 282.883 13.14C282.523 12.8733 282.163 12.6867 281.803 12.58C281.456 12.4733 281.116 12.42 280.783 12.42C279.77 12.42 278.99 12.74 278.443 13.38C277.896 14.0067 277.623 14.9133 277.623 16.1C277.623 17.26 277.896 18.18 278.443 18.86C278.99 19.5267 279.77 19.86 280.783 19.86C281.116 19.86 281.456 19.8067 281.803 19.7C282.163 19.5933 282.523 19.4067 282.883 19.14C283.136 18.9667 283.356 18.9467 283.543 19.08C283.73 19.2 283.83 19.38 283.843 19.62C283.87 19.86 283.776 20.0533 283.563 20.2C283.136 20.5467 282.67 20.8 282.163 20.96C281.656 21.1067 281.163 21.18 280.683 21.18ZM289.665 21.18C288.719 21.18 287.899 20.9733 287.205 20.56C286.512 20.1467 285.972 19.5667 285.585 18.82C285.212 18.06 285.025 17.1667 285.025 16.14C285.025 15.1133 285.212 14.2267 285.585 13.48C285.972 12.72 286.512 12.1333 287.205 11.72C287.899 11.3067 288.719 11.1 289.665 11.1C290.599 11.1 291.412 11.3067 292.105 11.72C292.812 12.1333 293.352 12.72 293.725 13.48C294.112 14.2267 294.305 15.1133 294.305 16.14C294.305 17.1667 294.112 18.06 293.725 18.82C293.352 19.5667 292.812 20.1467 292.105 20.56C291.412 20.9733 290.599 21.18 289.665 21.18ZM289.665 19.88C290.572 19.88 291.299 19.56 291.845 18.92C292.392 18.2667 292.665 17.34 292.665 16.14C292.665 14.9267 292.392 14 291.845 13.36C291.299 12.72 290.572 12.4 289.665 12.4C288.745 12.4 288.012 12.72 287.465 13.36C286.932 14 286.665 14.9267 286.665 16.14C286.665 17.34 286.932 18.2667 287.465 18.92C288.012 19.56 288.745 19.88 289.665 19.88ZM297.579 21.14C297.045 21.14 296.779 20.86 296.779 20.3V11.96C296.779 11.4133 297.039 11.14 297.559 11.14C298.092 11.14 298.359 11.4133 298.359 11.96V12.92C298.652 12.3333 299.059 11.8867 299.579 11.58C300.099 11.26 300.705 11.1 301.399 11.1C302.919 11.1 303.892 11.76 304.319 13.08C304.612 12.4667 305.045 11.9867 305.619 11.64C306.192 11.28 306.852 11.1 307.599 11.1C309.759 11.1 310.839 12.38 310.839 14.94V20.3C310.839 20.86 310.565 21.14 310.019 21.14C309.485 21.14 309.219 20.86 309.219 20.3V15.02C309.219 14.1267 309.059 13.4733 308.739 13.06C308.432 12.6333 307.919 12.42 307.199 12.42C306.412 12.42 305.785 12.7 305.319 13.26C304.852 13.82 304.619 14.5667 304.619 15.5V20.3C304.619 20.86 304.345 21.14 303.799 21.14C303.265 21.14 302.999 20.86 302.999 20.3V15.02C302.999 14.1267 302.839 13.4733 302.519 13.06C302.212 12.6333 301.699 12.42 300.979 12.42C300.179 12.42 299.545 12.7 299.079 13.26C298.625 13.82 298.399 14.5667 298.399 15.5V20.3C298.399 20.86 298.125 21.14 297.579 21.14Z" fill="white"/>
<path d="M4.83317 4.83325H24.1665C25.4957 4.83325 26.5832 5.92075 26.5832 7.24992V21.7499C26.5832 23.0791 25.4957 24.1666 24.1665 24.1666H4.83317C3.504 24.1666 2.4165 23.0791 2.4165 21.7499V7.24992C2.4165 5.92075 3.504 4.83325 4.83317 4.83325Z" stroke="white" stroke-width="2" stroke-linecap="round" stroke-linejoin="round"/>
<path d="M26.5832 7.25L14.4998 15.7083L2.4165 7.25" stroke="white" stroke-width="2" stroke-linecap="round" stroke-linejoin="round"/>
</svg>
