<svg width="114" height="16" viewBox="0 0 114 16" fill="none" xmlns="http://www.w3.org/2000/svg">
<path d="M1.86 15.16C0.98 15.16 0.54 14.7067 0.54 13.8V2.26C0.54 1.35333 0.993333 0.899999 1.9 0.899999H8.88C9.57333 0.899999 9.92 1.23333 9.92 1.9C9.92 2.59333 9.57333 2.94 8.88 2.94H3.1V6.92H8.46C9.15333 6.92 9.5 7.25333 9.5 7.92C9.5 8.61333 9.15333 8.96 8.46 8.96H3.1V13.8C3.1 14.7067 2.68667 15.16 1.86 15.16ZM13.0505 15.16C12.1971 15.16 11.7705 14.72 11.7705 13.84V2.06C11.7705 1.18 12.1971 0.739999 13.0505 0.739999C13.9038 0.739999 14.3305 1.18 14.3305 2.06V13.84C14.3305 14.72 13.9038 15.16 13.0505 15.16ZM18.615 15.16C17.815 15.16 17.415 14.7467 17.415 13.92V2.02C17.415 1.60667 17.515 1.29333 17.715 1.08C17.9283 0.853332 18.2017 0.739999 18.535 0.739999C18.8417 0.739999 19.0683 0.799999 19.215 0.919999C19.375 1.02667 19.5617 1.21333 19.775 1.48L26.915 10.74V1.96C26.915 1.14667 27.315 0.739999 28.115 0.739999C28.9017 0.739999 29.295 1.14667 29.295 1.96V13.96C29.295 14.3333 29.2017 14.6267 29.015 14.84C28.8283 15.0533 28.575 15.16 28.255 15.16C27.9483 15.16 27.7017 15.1 27.515 14.98C27.3417 14.86 27.1483 14.6667 26.935 14.4L19.795 5.12V13.92C19.795 14.7467 19.4017 15.16 18.615 15.16ZM33.7359 15C32.8293 15 32.3759 14.5467 32.3759 13.64V2.26C32.3759 1.35333 32.8293 0.899999 33.7359 0.899999H37.6159C39.9759 0.899999 41.7959 1.50667 43.0759 2.72C44.3693 3.93333 45.0159 5.67333 45.0159 7.94C45.0159 10.1933 44.3693 11.9333 43.0759 13.16C41.7959 14.3867 39.9759 15 37.6159 15H33.7359ZM34.9359 12.88H37.4559C40.7093 12.88 42.3359 11.2333 42.3359 7.94C42.3359 4.66 40.7093 3.02 37.4559 3.02H34.9359V12.88ZM58.9 15.2C56.9667 15.2 55.4867 14.7 54.46 13.7C53.4467 12.6867 52.94 11.1933 52.94 9.22V2.04C52.94 1.17333 53.3667 0.739999 54.22 0.739999C55.0733 0.739999 55.5 1.17333 55.5 2.04V9.2C55.5 10.4667 55.7867 11.42 56.36 12.06C56.9467 12.6867 57.7933 13 58.9 13C61.1533 13 62.28 11.7333 62.28 9.2V2.04C62.28 1.17333 62.7067 0.739999 63.56 0.739999C64.4 0.739999 64.82 1.17333 64.82 2.04V9.22C64.82 11.1933 64.32 12.6867 63.32 13.7C62.32 14.7 60.8467 15.2 58.9 15.2ZM72.6656 15.2C71.7723 15.2 70.899 15.1 70.0456 14.9C69.2056 14.7 68.4723 14.4 67.8456 14C67.539 13.8 67.3523 13.5533 67.2856 13.26C67.219 12.9667 67.239 12.6933 67.3456 12.44C67.4656 12.1733 67.6456 11.9933 67.8856 11.9C68.139 11.7933 68.4256 11.84 68.7456 12.04C69.3323 12.3867 69.9523 12.64 70.6056 12.8C71.259 12.96 71.9456 13.04 72.6656 13.04C73.719 13.04 74.4856 12.8667 74.9656 12.52C75.4456 12.16 75.6856 11.7 75.6856 11.14C75.6856 10.6733 75.5123 10.3067 75.1656 10.04C74.8323 9.77333 74.2523 9.55333 73.4256 9.38L71.2256 8.92C68.719 8.38667 67.4656 7.1 67.4656 5.06C67.4656 4.18 67.699 3.41333 68.1656 2.76C68.6323 2.10667 69.279 1.6 70.1056 1.24C70.9323 0.879999 71.8856 0.699999 72.9656 0.699999C73.7656 0.699999 74.5256 0.799999 75.2456 0.999999C75.9656 1.2 76.6123 1.49333 77.1856 1.88C77.4523 2.06667 77.6123 2.3 77.6656 2.58C77.719 2.84667 77.6856 3.1 77.5656 3.34C77.4456 3.56667 77.2523 3.72667 76.9856 3.82C76.7323 3.9 76.4323 3.84 76.0856 3.64C75.5923 3.36 75.0923 3.16 74.5856 3.04C74.079 2.92 73.5323 2.86 72.9456 2.86C72.0256 2.86 71.3056 3.05333 70.7856 3.44C70.2656 3.82667 70.0056 4.33333 70.0056 4.96C70.0056 5.44 70.1656 5.82667 70.4856 6.12C70.8056 6.4 71.3523 6.62 72.1256 6.78L74.3056 7.24C75.6256 7.52 76.6056 7.96 77.2456 8.56C77.899 9.16 78.2256 9.96 78.2256 10.96C78.2256 11.8 77.999 12.54 77.5456 13.18C77.0923 13.82 76.4456 14.32 75.6056 14.68C74.779 15.0267 73.799 15.2 72.6656 15.2ZM92.1725 15.2C90.8125 15.2 89.6192 14.9 88.5925 14.3C87.5792 13.7 86.7925 12.86 86.2325 11.78C85.6725 10.6867 85.3925 9.40667 85.3925 7.94C85.3925 6.46 85.6725 5.18 86.2325 4.1C86.7925 3.02 87.5792 2.18667 88.5925 1.6C89.6058 0.999999 90.7992 0.699999 92.1725 0.699999C93.5458 0.699999 94.7392 0.999999 95.7525 1.6C96.7658 2.18667 97.5525 3.02 98.1125 4.1C98.6725 5.18 98.9525 6.45333 98.9525 7.92C98.9525 9.4 98.6725 10.6867 98.1125 11.78C97.5525 12.86 96.7658 13.7 95.7525 14.3C94.7392 14.9 93.5458 15.2 92.1725 15.2ZM92.1725 13C93.4658 13 94.4725 12.5533 95.1925 11.66C95.9125 10.7667 96.2725 9.52667 96.2725 7.94C96.2725 6.34 95.9125 5.1 95.1925 4.22C94.4858 3.34 93.4792 2.9 92.1725 2.9C90.8792 2.9 89.8725 3.34 89.1525 4.22C88.4325 5.1 88.0725 6.34 88.0725 7.94C88.0725 9.52667 88.4325 10.7667 89.1525 11.66C89.8725 12.5533 90.8792 13 92.1725 13ZM102.756 15.16C101.956 15.16 101.556 14.7467 101.556 13.92V2.02C101.556 1.60667 101.656 1.29333 101.856 1.08C102.069 0.853332 102.342 0.739999 102.676 0.739999C102.982 0.739999 103.209 0.799999 103.356 0.919999C103.516 1.02667 103.702 1.21333 103.916 1.48L111.056 10.74V1.96C111.056 1.14667 111.456 0.739999 112.256 0.739999C113.042 0.739999 113.436 1.14667 113.436 1.96V13.96C113.436 14.3333 113.342 14.6267 113.156 14.84C112.969 15.0533 112.716 15.16 112.396 15.16C112.089 15.16 111.842 15.1 111.656 14.98C111.482 14.86 111.289 14.6667 111.076 14.4L103.936 5.12V13.92C103.936 14.7467 103.542 15.16 102.756 15.16Z" fill="white"/>
</svg>
