<svg width="205" height="35" viewBox="0 0 205 35" fill="none" xmlns="http://www.w3.org/2000/svg">
<path fill-rule="evenodd" clip-rule="evenodd" d="M154.158 13.714C156.945 13.714 159.192 11.4947 159.192 8.71615C159.192 5.86922 156.945 3.6499 154.158 3.6499C151.327 3.6499 149.08 5.86922 149.08 8.71615C149.08 11.4947 151.327 13.714 154.158 13.714Z" fill="white"/>
<path fill-rule="evenodd" clip-rule="evenodd" d="M164.109 28.7961V6.74367C164.109 5.4439 164.829 4.72481 166.131 4.72481H170.897C172.199 4.72481 172.919 5.4439 172.919 6.74367V8.5589C174.381 6.11526 177.167 3.65015 181.325 3.65015C188.921 3.65015 190.943 8.80549 190.943 17.2763V28.7961C190.943 30.5882 189.73 31.6191 188.245 31.6191H184.38C182.897 31.6191 182.133 30.5882 182.133 28.7961V17.2301C182.133 12.7947 180.92 10.9564 177.908 10.9564C174.761 10.9564 172.919 14.2726 172.919 16.6049V28.7961C172.919 30.5882 172.155 31.6191 170.671 31.6191H166.581C165.099 31.6191 164.109 30.5882 164.109 28.7961Z" fill="white"/>
<path fill-rule="evenodd" clip-rule="evenodd" d="M197.525 16.4696L196.781 15.7967C196.086 15.1683 196.041 14.7435 197.075 13.6689L198.963 11.7176C196.939 11.3604 195.501 9.63431 195.501 7.77453C195.501 5.15192 197.682 3.15771 200.176 3.15771C202.76 3.15771 204.806 5.21794 204.806 7.77453C204.806 9.34237 204.063 10.6652 203.547 11.3143C201.951 13.3093 201.029 14.4293 199.524 15.9311C198.625 16.8276 197.973 16.8729 197.525 16.4696Z" fill="white"/>
<path fill-rule="evenodd" clip-rule="evenodd" d="M13.3455 10.0972C15.0589 10.0972 16.3918 11.4471 16.3918 13.3665C16.3918 15.2661 15.0589 16.616 13.3455 16.616C11.6313 16.616 10.2777 15.2661 10.2777 13.3665C10.2777 11.4471 11.6313 10.0972 13.3455 10.0972ZM24.1738 13.7014V12.7851C24.1738 7.64882 21.9587 3.72803 16.0847 3.72803C12.5845 3.72803 10.3918 5.48598 9.17214 7.58041V6.61235C9.17214 5.30621 8.44946 4.58314 7.13969 4.58314L2.34971 4.58314C1.03995 4.58314 0.316467 5.30621 0.316467 6.61235V28.7809C0.316467 30.5826 1.08382 31.6191 2.57545 31.6191H6.91316C8.40479 31.6191 9.17214 30.5826 9.17214 28.7809V20.9258L10.4532 23.0798L14.5269 30.3567C15.0238 31.2508 15.7465 31.6191 16.742 31.6191H22.5697C24.1068 31.6191 24.6261 30.6717 23.7447 29.2518L19.3862 22.2375C22.8098 21.0109 24.1738 17.7304 24.1738 13.7014Z" fill="white"/>
<path fill-rule="evenodd" clip-rule="evenodd" d="M156.626 15.7859H151.646C149.953 15.7859 149.08 16.8168 149.08 18.609V20.7973V21.2705V23.9671V25.2629V28.7963C149.08 30.5885 149.953 31.6194 151.646 31.6194H156.626C158.318 31.6194 159.192 30.5885 159.192 28.7963V25.2629V23.9671V21.2705V20.7973V18.609C159.192 16.8168 158.318 15.7859 156.626 15.7859Z" fill="white"/>
<path fill-rule="evenodd" clip-rule="evenodd" d="M142.366 3.65015L137.557 3.65015C136.253 3.65015 135.533 4.36765 135.533 5.66662V13.7142V15.5128V18.6492V20.4151V28.7961C135.533 30.5882 136.523 31.6191 138.005 31.6191H142.141C143.625 31.6191 144.388 30.5882 144.388 28.7961V20.4151V18.6492V15.5128V13.7142V5.66662C144.388 4.36765 143.669 3.65015 142.366 3.65015Z" fill="white"/>
<path fill-rule="evenodd" clip-rule="evenodd" d="M128.819 3.65039L124.01 3.65039C122.706 3.65039 121.986 4.36789 121.986 5.66687V13.7145V15.5122V18.6495V20.4154V28.7963C121.986 30.5885 122.976 31.6194 124.458 31.6194H128.594C130.078 31.6194 130.841 30.5885 130.841 28.7963V20.4154V18.6495V15.5122V13.7145V5.66687C130.841 4.36789 130.122 3.65039 128.819 3.65039Z" fill="white"/>
<path fill-rule="evenodd" clip-rule="evenodd" d="M45.6667 31.0772C38.1966 31.0772 31.7826 25.5226 31.7826 17.6945C31.7826 9.82508 38.1966 4.27042 45.6667 4.27042C53.0938 4.27042 59.5509 9.82508 59.5509 17.6945C59.5509 25.5226 53.0938 31.0772 45.6667 31.0772ZM99.9813 0.466553L80.9849 0.466553L78.5991 0.466553L45.6667 0.466553C36.0764 0.466553 27.8429 7.5978 27.8429 17.7001C27.8429 27.7498 36.0764 34.8811 45.6667 34.8811L78.5991 34.8811H80.9849H99.9813C109.516 34.8811 117.805 27.7498 117.805 17.7001C117.805 7.5978 109.516 0.466553 99.9813 0.466553Z" fill="white"/>
<path fill-rule="evenodd" clip-rule="evenodd" d="M52.5869 17.6738C52.5869 21.4968 49.4792 24.5967 45.6448 24.5967C41.8113 24.5967 38.7036 21.4968 38.7036 17.6738C38.7036 13.8509 41.8113 10.751 45.6448 10.751C49.4792 10.751 52.5869 13.8509 52.5869 17.6738Z" fill="#F48A88"/>
</svg>
