<svg width="258" height="28" viewBox="0 0 258 28" fill="none" xmlns="http://www.w3.org/2000/svg">
<path d="M14.0057 7.71099C10.5275 7.71099 7.72207 10.5165 7.72207 13.9946C7.72207 17.4727 10.5275 20.2782 14.0057 20.2782C17.4838 20.2782 20.2893 17.4727 20.2893 13.9946C20.2893 10.5165 17.4838 7.71099 14.0057 7.71099ZM14.0057 18.0797C11.758 18.0797 9.92051 16.2477 9.92051 13.9946C9.92051 11.7415 11.7525 9.90942 14.0057 9.90942C16.2588 9.90942 18.0908 11.7415 18.0908 13.9946C18.0908 16.2477 16.2533 18.0797 14.0057 18.0797ZM22.0119 7.45396C22.0119 8.2688 21.3557 8.91958 20.5463 8.91958C19.7314 8.91958 19.0807 8.26333 19.0807 7.45396C19.0807 6.64458 19.7369 5.98833 20.5463 5.98833C21.3557 5.98833 22.0119 6.64458 22.0119 7.45396ZM26.1736 8.94146C26.0807 6.97817 25.6322 5.23911 24.1939 3.8063C22.7611 2.37349 21.0221 1.92505 19.0588 1.82661C17.0354 1.71177 10.9705 1.71177 8.94707 1.82661C6.98926 1.91958 5.2502 2.36802 3.81191 3.80083C2.37363 5.23364 1.93066 6.9727 1.83223 8.93599C1.71738 10.9594 1.71738 17.0243 1.83223 19.0477C1.9252 21.011 2.37363 22.75 3.81191 24.1829C5.2502 25.6157 6.98379 26.0641 8.94707 26.1625C10.9705 26.2774 17.0354 26.2774 19.0588 26.1625C21.0221 26.0696 22.7611 25.6211 24.1939 24.1829C25.6268 22.75 26.0752 21.011 26.1736 19.0477C26.2885 17.0243 26.2885 10.9649 26.1736 8.94146ZM23.5596 21.2188C23.133 22.2907 22.3072 23.1165 21.2299 23.5485C19.6166 24.1883 15.7885 24.0407 14.0057 24.0407C12.2229 24.0407 8.38926 24.1829 6.78145 23.5485C5.70957 23.1219 4.88379 22.2961 4.45176 21.2188C3.81191 19.6055 3.95957 15.7774 3.95957 13.9946C3.95957 12.2118 3.81738 8.37817 4.45176 6.77036C4.87832 5.69849 5.7041 4.8727 6.78145 4.44067C8.39473 3.80083 12.2229 3.94849 14.0057 3.94849C15.7885 3.94849 19.6221 3.8063 21.2299 4.44067C22.3018 4.86724 23.1275 5.69302 23.5596 6.77036C24.1994 8.38364 24.0518 12.2118 24.0518 13.9946C24.0518 15.7774 24.1994 19.611 23.5596 21.2188Z" fill="white"/>
<path d="M50.4 20.7C49.5067 20.7 48.6333 20.6 47.78 20.4C46.94 20.2 46.2067 19.9 45.58 19.5C45.2733 19.3 45.0867 19.0533 45.02 18.76C44.9533 18.4667 44.9733 18.1933 45.08 17.94C45.2 17.6733 45.38 17.4933 45.62 17.4C45.8733 17.2933 46.16 17.34 46.48 17.54C47.0667 17.8867 47.6867 18.14 48.34 18.3C48.9933 18.46 49.68 18.54 50.4 18.54C51.4533 18.54 52.22 18.3667 52.7 18.02C53.18 17.66 53.42 17.2 53.42 16.64C53.42 16.1733 53.2467 15.8067 52.9 15.54C52.5667 15.2733 51.9867 15.0533 51.16 14.88L48.96 14.42C46.4533 13.8867 45.2 12.6 45.2 10.56C45.2 9.68 45.4333 8.91333 45.9 8.26C46.3667 7.60667 47.0133 7.1 47.84 6.74C48.6667 6.38 49.62 6.2 50.7 6.2C51.5 6.2 52.26 6.3 52.98 6.5C53.7 6.7 54.3467 6.99333 54.92 7.38C55.1867 7.56667 55.3467 7.8 55.4 8.08C55.4533 8.34667 55.42 8.6 55.3 8.84C55.18 9.06667 54.9867 9.22667 54.72 9.32C54.4667 9.4 54.1667 9.34 53.82 9.14C53.3267 8.86 52.8267 8.66 52.32 8.54C51.8133 8.42 51.2667 8.36 50.68 8.36C49.76 8.36 49.04 8.55333 48.52 8.94C48 9.32667 47.74 9.83333 47.74 10.46C47.74 10.94 47.9 11.3267 48.22 11.62C48.54 11.9 49.0867 12.12 49.86 12.28L52.04 12.74C53.36 13.02 54.34 13.46 54.98 14.06C55.6333 14.66 55.96 15.46 55.96 16.46C55.96 17.3 55.7333 18.04 55.28 18.68C54.8267 19.32 54.18 19.82 53.34 20.18C52.5133 20.5267 51.5333 20.7 50.4 20.7ZM61.4572 20.7C59.0572 20.7 57.8572 19.3533 57.8572 16.66V11.82C57.8572 10.98 58.2705 10.56 59.0972 10.56C59.9372 10.56 60.3572 10.98 60.3572 11.82V16.7C60.3572 17.3933 60.4972 17.9067 60.7772 18.24C61.0572 18.5733 61.5039 18.74 62.1172 18.74C62.7839 18.74 63.3305 18.5133 63.7572 18.06C64.1839 17.5933 64.3972 16.98 64.3972 16.22V11.82C64.3972 10.98 64.8105 10.56 65.6372 10.56C66.4772 10.56 66.8972 10.98 66.8972 11.82V19.38C66.8972 20.2333 66.4905 20.66 65.6772 20.66C64.8639 20.66 64.4572 20.2333 64.4572 19.38V19.04C63.8039 20.1467 62.8039 20.7 61.4572 20.7ZM73.0792 20.7C72.5059 20.7 71.8992 20.64 71.2592 20.52C70.6192 20.4 70.0459 20.1933 69.5392 19.9C69.2592 19.74 69.0859 19.5467 69.0192 19.32C68.9526 19.08 68.9592 18.86 69.0392 18.66C69.1326 18.4467 69.2792 18.2933 69.4792 18.2C69.6926 18.1067 69.9392 18.1267 70.2192 18.26C70.7526 18.5133 71.2526 18.6933 71.7192 18.8C72.1859 18.8933 72.6459 18.94 73.0992 18.94C73.7392 18.94 74.2126 18.8333 74.5192 18.62C74.8392 18.3933 74.9992 18.1 74.9992 17.74C74.9992 17.18 74.5859 16.82 73.7592 16.66L71.7592 16.28C70.0659 15.96 69.2192 15.08 69.2192 13.64C69.2192 13 69.3926 12.4467 69.7392 11.98C70.0992 11.5133 70.5926 11.1533 71.2192 10.9C71.8459 10.6467 72.5659 10.52 73.3792 10.52C74.5526 10.52 75.5992 10.78 76.5192 11.3C76.7726 11.4333 76.9192 11.62 76.9592 11.86C77.0126 12.0867 76.9859 12.3067 76.8792 12.52C76.7859 12.72 76.6326 12.8667 76.4192 12.96C76.2059 13.04 75.9592 13.0133 75.6792 12.88C75.2659 12.6667 74.8659 12.5133 74.4792 12.42C74.1059 12.3267 73.7459 12.28 73.3992 12.28C72.7459 12.28 72.2592 12.3933 71.9392 12.62C71.6326 12.8467 71.4792 13.1467 71.4792 13.52C71.4792 14.1067 71.8592 14.4667 72.6192 14.6L74.6192 14.98C75.4859 15.14 76.1392 15.4333 76.5792 15.86C77.0326 16.2867 77.2592 16.86 77.2592 17.58C77.2592 18.5533 76.8792 19.32 76.1192 19.88C75.3592 20.4267 74.3459 20.7 73.0792 20.7ZM80.5048 20.66C79.6782 20.66 79.2648 20.2333 79.2648 19.38V7.5C79.2648 6.66 79.6782 6.24 80.5048 6.24C81.3448 6.24 81.7648 6.66 81.7648 7.5V12.14C82.0982 11.6067 82.5448 11.2067 83.1048 10.94C83.6648 10.66 84.2848 10.52 84.9648 10.52C87.2715 10.52 88.4248 11.86 88.4248 14.54V19.38C88.4248 20.2333 88.0115 20.66 87.1848 20.66C86.3448 20.66 85.9248 20.2333 85.9248 19.38V14.66C85.9248 13.9 85.7782 13.3467 85.4848 13C85.2048 12.6533 84.7648 12.48 84.1648 12.48C83.4315 12.48 82.8448 12.7133 82.4048 13.18C81.9782 13.6333 81.7648 14.24 81.7648 15V19.38C81.7648 20.2333 81.3448 20.66 80.5048 20.66ZM92.2041 8.72C91.7374 8.72 91.3707 8.60667 91.1041 8.38C90.8507 8.14 90.7241 7.81333 90.7241 7.4C90.7241 6.97333 90.8507 6.64667 91.1041 6.42C91.3707 6.19333 91.7374 6.08 92.2041 6.08C93.1907 6.08 93.6841 6.52 93.6841 7.4C93.6841 8.28 93.1907 8.72 92.2041 8.72ZM92.2041 20.64C91.8041 20.64 91.4974 20.52 91.2841 20.28C91.0707 20.04 90.9641 19.7067 90.9641 19.28V11.94C90.9641 11.0333 91.3774 10.58 92.2041 10.58C93.0441 10.58 93.4641 11.0333 93.4641 11.94V19.28C93.4641 19.7067 93.3574 20.04 93.1441 20.28C92.9307 20.52 92.6174 20.64 92.2041 20.64ZM103.011 20.66C102.158 20.66 101.731 20.22 101.731 19.34V7.7C101.731 6.83333 102.165 6.4 103.031 6.4H107.851C109.398 6.4 110.591 6.77333 111.431 7.52C112.271 8.25333 112.691 9.28667 112.691 10.62C112.691 11.6733 112.418 12.5467 111.871 13.24C111.325 13.92 110.538 14.38 109.511 14.62C110.191 14.8333 110.751 15.3467 111.191 16.16L112.691 18.94C112.918 19.3667 112.958 19.76 112.811 20.12C112.678 20.48 112.338 20.66 111.791 20.66C111.431 20.66 111.138 20.5867 110.911 20.44C110.685 20.28 110.485 20.04 110.311 19.72L108.291 16C108.051 15.5467 107.765 15.2467 107.431 15.1C107.111 14.94 106.698 14.86 106.191 14.86H104.291V19.34C104.291 20.22 103.865 20.66 103.011 20.66ZM104.291 12.96H107.411C109.278 12.96 110.211 12.2 110.211 10.68C110.211 9.17333 109.278 8.42 107.411 8.42H104.291V12.96ZM119.408 20.7C118.395 20.7 117.515 20.4933 116.768 20.08C116.022 19.6667 115.442 19.08 115.028 18.32C114.615 17.5467 114.408 16.64 114.408 15.6C114.408 14.56 114.615 13.66 115.028 12.9C115.442 12.14 116.022 11.5533 116.768 11.14C117.515 10.7267 118.395 10.52 119.408 10.52C120.422 10.52 121.302 10.7267 122.048 11.14C122.795 11.5533 123.375 12.14 123.788 12.9C124.202 13.66 124.408 14.56 124.408 15.6C124.408 16.64 124.202 17.5467 123.788 18.32C123.375 19.08 122.795 19.6667 122.048 20.08C121.302 20.4933 120.422 20.7 119.408 20.7ZM119.408 18.8C120.155 18.8 120.755 18.5333 121.208 18C121.662 17.4533 121.888 16.6533 121.888 15.6C121.888 14.5333 121.662 13.74 121.208 13.22C120.755 12.6867 120.155 12.42 119.408 12.42C118.662 12.42 118.062 12.6867 117.608 13.22C117.155 13.74 116.928 14.5333 116.928 15.6C116.928 16.6533 117.155 17.4533 117.608 18C118.062 18.5333 118.662 18.8 119.408 18.8ZM129.812 20.7C127.585 20.7 126.472 19.4533 126.472 16.96V7.5C126.472 6.66 126.885 6.24 127.712 6.24C128.552 6.24 128.972 6.66 128.972 7.5V16.84C128.972 18.04 129.472 18.64 130.472 18.64C130.579 18.64 130.679 18.64 130.772 18.64C130.865 18.6267 130.959 18.6133 131.052 18.6C131.239 18.5733 131.365 18.6267 131.432 18.76C131.499 18.88 131.532 19.1333 131.532 19.52C131.532 19.8533 131.465 20.1133 131.332 20.3C131.199 20.4867 130.979 20.6 130.672 20.64C130.392 20.68 130.105 20.7 129.812 20.7ZM136.199 20.7C133.972 20.7 132.859 19.4533 132.859 16.96V7.5C132.859 6.66 133.272 6.24 134.099 6.24C134.939 6.24 135.359 6.66 135.359 7.5V16.84C135.359 18.04 135.859 18.64 136.859 18.64C136.965 18.64 137.065 18.64 137.159 18.64C137.252 18.6267 137.345 18.6133 137.439 18.6C137.625 18.5733 137.752 18.6267 137.819 18.76C137.885 18.88 137.919 19.1333 137.919 19.52C137.919 19.8533 137.852 20.1133 137.719 20.3C137.585 20.4867 137.365 20.6 137.059 20.64C136.779 20.68 136.492 20.7 136.199 20.7ZM140.485 8.72C140.019 8.72 139.652 8.60667 139.385 8.38C139.132 8.14 139.005 7.81333 139.005 7.4C139.005 6.97333 139.132 6.64667 139.385 6.42C139.652 6.19333 140.019 6.08 140.485 6.08C141.472 6.08 141.965 6.52 141.965 7.4C141.965 8.28 141.472 8.72 140.485 8.72ZM140.485 20.64C140.085 20.64 139.779 20.52 139.565 20.28C139.352 20.04 139.245 19.7067 139.245 19.28V11.94C139.245 11.0333 139.659 10.58 140.485 10.58C141.325 10.58 141.745 11.0333 141.745 11.94V19.28C141.745 19.7067 141.639 20.04 141.425 20.28C141.212 20.52 140.899 20.64 140.485 20.64ZM145.583 20.66C144.756 20.66 144.343 20.2333 144.343 19.38V11.82C144.343 10.98 144.75 10.56 145.563 10.56C146.376 10.56 146.783 10.98 146.783 11.82V12.24C147.116 11.68 147.563 11.2533 148.123 10.96C148.696 10.6667 149.336 10.52 150.043 10.52C152.35 10.52 153.503 11.86 153.503 14.54V19.38C153.503 20.2333 153.09 20.66 152.263 20.66C151.423 20.66 151.003 20.2333 151.003 19.38V14.66C151.003 13.9 150.856 13.3467 150.563 13C150.283 12.6533 149.843 12.48 149.243 12.48C148.51 12.48 147.923 12.7133 147.483 13.18C147.056 13.6333 146.843 14.24 146.843 15V19.38C146.843 20.2333 146.423 20.66 145.583 20.66ZM157.211 11.3C157.037 11.5133 156.851 11.6333 156.651 11.66C156.464 11.6867 156.297 11.6533 156.151 11.56C156.004 11.4533 155.924 11.3067 155.911 11.12C155.897 10.92 155.984 10.7067 156.171 10.48C156.331 10.28 156.457 10.0733 156.551 9.86C156.657 9.64667 156.731 9.44667 156.771 9.26C156.357 9.22 156.024 9.07333 155.771 8.82C155.517 8.55333 155.391 8.20667 155.391 7.78C155.391 7.34 155.524 6.98667 155.791 6.72C156.057 6.44 156.417 6.3 156.871 6.3C157.337 6.3 157.704 6.46 157.971 6.78C158.237 7.08667 158.371 7.53333 158.371 8.12C158.371 8.6 158.291 9.10667 158.131 9.64C157.984 10.16 157.677 10.7133 157.211 11.3ZM167.621 20.5C166.755 20.5 166.321 20.06 166.321 19.18V7.64C166.321 6.77333 166.748 6.34 167.601 6.34C168.455 6.34 168.881 6.77333 168.881 7.64V18.32H174.681C175.428 18.32 175.801 18.68 175.801 19.4C175.801 20.1333 175.428 20.5 174.681 20.5H167.621ZM182.034 20.7C180.927 20.7 179.974 20.4933 179.174 20.08C178.374 19.6667 177.754 19.08 177.314 18.32C176.887 17.56 176.674 16.66 176.674 15.62C176.674 14.6067 176.881 13.72 177.294 12.96C177.721 12.2 178.301 11.6067 179.034 11.18C179.781 10.74 180.627 10.52 181.574 10.52C182.961 10.52 184.054 10.96 184.854 11.84C185.667 12.72 186.074 13.92 186.074 15.44C186.074 15.9333 185.754 16.18 185.114 16.18H179.074C179.261 17.9267 180.261 18.8 182.074 18.8C182.421 18.8 182.807 18.76 183.234 18.68C183.674 18.5867 184.087 18.4333 184.474 18.22C184.821 18.02 185.114 17.96 185.354 18.04C185.594 18.1067 185.761 18.2467 185.854 18.46C185.961 18.6733 185.974 18.9133 185.894 19.18C185.827 19.4333 185.641 19.6533 185.334 19.84C184.867 20.1333 184.327 20.3533 183.714 20.5C183.114 20.6333 182.554 20.7 182.034 20.7ZM181.674 12.22C180.941 12.22 180.347 12.4467 179.894 12.9C179.441 13.3533 179.167 13.9667 179.074 14.74H183.994C183.941 13.9267 183.714 13.3067 183.314 12.88C182.927 12.44 182.381 12.22 181.674 12.22ZM191.678 20.66C190.984 20.66 190.504 20.3133 190.238 19.62L187.338 12.22C187.164 11.7533 187.171 11.36 187.358 11.04C187.558 10.72 187.904 10.56 188.398 10.56C188.691 10.56 188.931 10.6333 189.118 10.78C189.304 10.9133 189.464 11.1733 189.598 11.56L191.798 17.58L194.058 11.4C194.271 10.84 194.651 10.56 195.198 10.56C195.758 10.56 196.138 10.84 196.338 11.4L198.598 17.64L200.818 11.5C200.951 11.14 201.118 10.8933 201.318 10.76C201.531 10.6267 201.764 10.56 202.018 10.56C202.498 10.56 202.811 10.7333 202.958 11.08C203.104 11.4133 203.091 11.7933 202.918 12.22L200.038 19.62C199.758 20.3133 199.278 20.66 198.598 20.66C197.891 20.66 197.411 20.3133 197.158 19.62L195.118 14.2L193.118 19.6C192.864 20.3067 192.384 20.66 191.678 20.66ZM206.188 8.72C205.722 8.72 205.355 8.60667 205.088 8.38C204.835 8.14 204.708 7.81333 204.708 7.4C204.708 6.97333 204.835 6.64667 205.088 6.42C205.355 6.19333 205.722 6.08 206.188 6.08C207.175 6.08 207.668 6.52 207.668 7.4C207.668 8.28 207.175 8.72 206.188 8.72ZM206.188 20.64C205.788 20.64 205.482 20.52 205.268 20.28C205.055 20.04 204.948 19.7067 204.948 19.28V11.94C204.948 11.0333 205.362 10.58 206.188 10.58C207.028 10.58 207.448 11.0333 207.448 11.94V19.28C207.448 19.7067 207.342 20.04 207.128 20.28C206.915 20.52 206.602 20.64 206.188 20.64ZM213.626 20.7C213.053 20.7 212.446 20.64 211.806 20.52C211.166 20.4 210.593 20.1933 210.086 19.9C209.806 19.74 209.633 19.5467 209.566 19.32C209.499 19.08 209.506 18.86 209.586 18.66C209.679 18.4467 209.826 18.2933 210.026 18.2C210.239 18.1067 210.486 18.1267 210.766 18.26C211.299 18.5133 211.799 18.6933 212.266 18.8C212.733 18.8933 213.193 18.94 213.646 18.94C214.286 18.94 214.759 18.8333 215.066 18.62C215.386 18.3933 215.546 18.1 215.546 17.74C215.546 17.18 215.133 16.82 214.306 16.66L212.306 16.28C210.613 15.96 209.766 15.08 209.766 13.64C209.766 13 209.939 12.4467 210.286 11.98C210.646 11.5133 211.139 11.1533 211.766 10.9C212.393 10.6467 213.113 10.52 213.926 10.52C215.099 10.52 216.146 10.78 217.066 11.3C217.319 11.4333 217.466 11.62 217.506 11.86C217.559 12.0867 217.533 12.3067 217.426 12.52C217.333 12.72 217.179 12.8667 216.966 12.96C216.753 13.04 216.506 13.0133 216.226 12.88C215.813 12.6667 215.413 12.5133 215.026 12.42C214.653 12.3267 214.293 12.28 213.946 12.28C213.293 12.28 212.806 12.3933 212.486 12.62C212.179 12.8467 212.026 13.1467 212.026 13.52C212.026 14.1067 212.406 14.4667 213.166 14.6L215.166 14.98C216.033 15.14 216.686 15.4333 217.126 15.86C217.579 16.2867 217.806 16.86 217.806 17.58C217.806 18.5533 217.426 19.32 216.666 19.88C215.906 20.4267 214.893 20.7 213.626 20.7ZM223.576 20.66C222.91 20.66 222.416 20.3067 222.096 19.6L218.916 12.22C218.73 11.78 218.723 11.3933 218.896 11.06C219.083 10.7267 219.45 10.56 219.996 10.56C220.303 10.56 220.55 10.6333 220.736 10.78C220.923 10.9133 221.09 11.1733 221.236 11.56L223.636 17.56L226.116 11.54C226.263 11.1667 226.43 10.9133 226.616 10.78C226.816 10.6333 227.083 10.56 227.416 10.56C227.843 10.56 228.143 10.7267 228.316 11.06C228.49 11.3933 228.483 11.7733 228.296 12.2L225.056 19.6C224.763 20.3067 224.27 20.66 223.576 20.66ZM231.403 8.72C230.937 8.72 230.57 8.60667 230.303 8.38C230.05 8.14 229.923 7.81333 229.923 7.4C229.923 6.97333 230.05 6.64667 230.303 6.42C230.57 6.19333 230.937 6.08 231.403 6.08C232.39 6.08 232.883 6.52 232.883 7.4C232.883 8.28 232.39 8.72 231.403 8.72ZM231.403 20.64C231.003 20.64 230.697 20.52 230.483 20.28C230.27 20.04 230.163 19.7067 230.163 19.28V11.94C230.163 11.0333 230.577 10.58 231.403 10.58C232.243 10.58 232.663 11.0333 232.663 11.94V19.28C232.663 19.7067 232.557 20.04 232.343 20.28C232.13 20.52 231.817 20.64 231.403 20.64ZM238.601 20.7C236.374 20.7 235.261 19.4533 235.261 16.96V7.5C235.261 6.66 235.674 6.24 236.501 6.24C237.341 6.24 237.761 6.66 237.761 7.5V16.84C237.761 18.04 238.261 18.64 239.261 18.64C239.368 18.64 239.468 18.64 239.561 18.64C239.654 18.6267 239.748 18.6133 239.841 18.6C240.028 18.5733 240.154 18.6267 240.221 18.76C240.288 18.88 240.321 19.1333 240.321 19.52C240.321 19.8533 240.254 20.1133 240.121 20.3C239.988 20.4867 239.768 20.6 239.461 20.64C239.181 20.68 238.894 20.7 238.601 20.7ZM244.988 20.7C242.761 20.7 241.648 19.4533 241.648 16.96V7.5C241.648 6.66 242.061 6.24 242.888 6.24C243.728 6.24 244.148 6.66 244.148 7.5V16.84C244.148 18.04 244.648 18.64 245.648 18.64C245.754 18.64 245.854 18.64 245.948 18.64C246.041 18.6267 246.134 18.6133 246.228 18.6C246.414 18.5733 246.541 18.6267 246.608 18.76C246.674 18.88 246.708 19.1333 246.708 19.52C246.708 19.8533 246.641 20.1133 246.508 20.3C246.374 20.4867 246.154 20.6 245.848 20.64C245.568 20.68 245.281 20.7 244.988 20.7ZM252.757 20.7C251.65 20.7 250.697 20.4933 249.897 20.08C249.097 19.6667 248.477 19.08 248.037 18.32C247.61 17.56 247.397 16.66 247.397 15.62C247.397 14.6067 247.603 13.72 248.017 12.96C248.443 12.2 249.023 11.6067 249.757 11.18C250.503 10.74 251.35 10.52 252.297 10.52C253.683 10.52 254.777 10.96 255.577 11.84C256.39 12.72 256.797 13.92 256.797 15.44C256.797 15.9333 256.477 16.18 255.837 16.18H249.797C249.983 17.9267 250.983 18.8 252.797 18.8C253.143 18.8 253.53 18.76 253.957 18.68C254.397 18.5867 254.81 18.4333 255.197 18.22C255.543 18.02 255.837 17.96 256.077 18.04C256.317 18.1067 256.483 18.2467 256.577 18.46C256.683 18.6733 256.697 18.9133 256.617 19.18C256.55 19.4333 256.363 19.6533 256.057 19.84C255.59 20.1333 255.05 20.3533 254.437 20.5C253.837 20.6333 253.277 20.7 252.757 20.7ZM252.397 12.22C251.663 12.22 251.07 12.4467 250.617 12.9C250.163 13.3533 249.89 13.9667 249.797 14.74H254.717C254.663 13.9267 254.437 13.3067 254.037 12.88C253.65 12.44 253.103 12.22 252.397 12.22Z" fill="white"/>
</svg>
