<svg width="240" height="28" viewBox="0 0 240 28" fill="none" xmlns="http://www.w3.org/2000/svg">
<path d="M14.0057 7.71099C10.5275 7.71099 7.72207 10.5165 7.72207 13.9946C7.72207 17.4727 10.5275 20.2782 14.0057 20.2782C17.4838 20.2782 20.2893 17.4727 20.2893 13.9946C20.2893 10.5165 17.4838 7.71099 14.0057 7.71099ZM14.0057 18.0797C11.758 18.0797 9.92051 16.2477 9.92051 13.9946C9.92051 11.7415 11.7525 9.90942 14.0057 9.90942C16.2588 9.90942 18.0908 11.7415 18.0908 13.9946C18.0908 16.2477 16.2533 18.0797 14.0057 18.0797ZM22.0119 7.45396C22.0119 8.2688 21.3557 8.91958 20.5463 8.91958C19.7314 8.91958 19.0807 8.26333 19.0807 7.45396C19.0807 6.64458 19.7369 5.98833 20.5463 5.98833C21.3557 5.98833 22.0119 6.64458 22.0119 7.45396ZM26.1736 8.94146C26.0807 6.97817 25.6322 5.23911 24.1939 3.8063C22.7611 2.37349 21.0221 1.92505 19.0588 1.82661C17.0354 1.71177 10.9705 1.71177 8.94707 1.82661C6.98926 1.91958 5.2502 2.36802 3.81191 3.80083C2.37363 5.23364 1.93066 6.9727 1.83223 8.93599C1.71738 10.9594 1.71738 17.0243 1.83223 19.0477C1.9252 21.011 2.37363 22.75 3.81191 24.1829C5.2502 25.6157 6.98379 26.0641 8.94707 26.1625C10.9705 26.2774 17.0354 26.2774 19.0588 26.1625C21.0221 26.0696 22.7611 25.6211 24.1939 24.1829C25.6268 22.75 26.0752 21.011 26.1736 19.0477C26.2885 17.0243 26.2885 10.9649 26.1736 8.94146ZM23.5596 21.2188C23.133 22.2907 22.3072 23.1165 21.2299 23.5485C19.6166 24.1883 15.7885 24.0407 14.0057 24.0407C12.2229 24.0407 8.38926 24.1829 6.78145 23.5485C5.70957 23.1219 4.88379 22.2961 4.45176 21.2188C3.81191 19.6055 3.95957 15.7774 3.95957 13.9946C3.95957 12.2118 3.81738 8.37817 4.45176 6.77036C4.87832 5.69849 5.7041 4.8727 6.78145 4.44067C8.39473 3.80083 12.2229 3.94849 14.0057 3.94849C15.7885 3.94849 19.6221 3.8063 21.2299 4.44067C22.3018 4.86724 23.1275 5.69302 23.5596 6.77036C24.1994 8.38364 24.0518 12.2118 24.0518 13.9946C24.0518 15.7774 24.1994 19.611 23.5596 21.2188Z" fill="white"/>
<path d="M50.4 20.7C49.5067 20.7 48.6333 20.6 47.78 20.4C46.94 20.2 46.2067 19.9 45.58 19.5C45.2733 19.3 45.0867 19.0533 45.02 18.76C44.9533 18.4667 44.9733 18.1933 45.08 17.94C45.2 17.6733 45.38 17.4933 45.62 17.4C45.8733 17.2933 46.16 17.34 46.48 17.54C47.0667 17.8867 47.6867 18.14 48.34 18.3C48.9933 18.46 49.68 18.54 50.4 18.54C51.4533 18.54 52.22 18.3667 52.7 18.02C53.18 17.66 53.42 17.2 53.42 16.64C53.42 16.1733 53.2467 15.8067 52.9 15.54C52.5667 15.2733 51.9867 15.0533 51.16 14.88L48.96 14.42C46.4533 13.8867 45.2 12.6 45.2 10.56C45.2 9.68 45.4333 8.91333 45.9 8.26C46.3667 7.60667 47.0133 7.1 47.84 6.74C48.6667 6.38 49.62 6.2 50.7 6.2C51.5 6.2 52.26 6.3 52.98 6.5C53.7 6.7 54.3467 6.99333 54.92 7.38C55.1867 7.56667 55.3467 7.8 55.4 8.08C55.4533 8.34667 55.42 8.6 55.3 8.84C55.18 9.06667 54.9867 9.22667 54.72 9.32C54.4667 9.4 54.1667 9.34 53.82 9.14C53.3267 8.86 52.8267 8.66 52.32 8.54C51.8133 8.42 51.2667 8.36 50.68 8.36C49.76 8.36 49.04 8.55333 48.52 8.94C48 9.32667 47.74 9.83333 47.74 10.46C47.74 10.94 47.9 11.3267 48.22 11.62C48.54 11.9 49.0867 12.12 49.86 12.28L52.04 12.74C53.36 13.02 54.34 13.46 54.98 14.06C55.6333 14.66 55.96 15.46 55.96 16.46C55.96 17.3 55.7333 18.04 55.28 18.68C54.8267 19.32 54.18 19.82 53.34 20.18C52.5133 20.5267 51.5333 20.7 50.4 20.7ZM61.4572 20.7C59.0572 20.7 57.8572 19.3533 57.8572 16.66V11.82C57.8572 10.98 58.2705 10.56 59.0972 10.56C59.9372 10.56 60.3572 10.98 60.3572 11.82V16.7C60.3572 17.3933 60.4972 17.9067 60.7772 18.24C61.0572 18.5733 61.5039 18.74 62.1172 18.74C62.7839 18.74 63.3305 18.5133 63.7572 18.06C64.1839 17.5933 64.3972 16.98 64.3972 16.22V11.82C64.3972 10.98 64.8105 10.56 65.6372 10.56C66.4772 10.56 66.8972 10.98 66.8972 11.82V19.38C66.8972 20.2333 66.4905 20.66 65.6772 20.66C64.8639 20.66 64.4572 20.2333 64.4572 19.38V19.04C63.8039 20.1467 62.8039 20.7 61.4572 20.7ZM73.0792 20.7C72.5059 20.7 71.8992 20.64 71.2592 20.52C70.6192 20.4 70.0459 20.1933 69.5392 19.9C69.2592 19.74 69.0859 19.5467 69.0192 19.32C68.9526 19.08 68.9592 18.86 69.0392 18.66C69.1326 18.4467 69.2792 18.2933 69.4792 18.2C69.6926 18.1067 69.9392 18.1267 70.2192 18.26C70.7526 18.5133 71.2526 18.6933 71.7192 18.8C72.1859 18.8933 72.6459 18.94 73.0992 18.94C73.7392 18.94 74.2126 18.8333 74.5192 18.62C74.8392 18.3933 74.9992 18.1 74.9992 17.74C74.9992 17.18 74.5859 16.82 73.7592 16.66L71.7592 16.28C70.0659 15.96 69.2192 15.08 69.2192 13.64C69.2192 13 69.3926 12.4467 69.7392 11.98C70.0992 11.5133 70.5926 11.1533 71.2192 10.9C71.8459 10.6467 72.5659 10.52 73.3792 10.52C74.5526 10.52 75.5992 10.78 76.5192 11.3C76.7726 11.4333 76.9192 11.62 76.9592 11.86C77.0126 12.0867 76.9859 12.3067 76.8792 12.52C76.7859 12.72 76.6326 12.8667 76.4192 12.96C76.2059 13.04 75.9592 13.0133 75.6792 12.88C75.2659 12.6667 74.8659 12.5133 74.4792 12.42C74.1059 12.3267 73.7459 12.28 73.3992 12.28C72.7459 12.28 72.2592 12.3933 71.9392 12.62C71.6326 12.8467 71.4792 13.1467 71.4792 13.52C71.4792 14.1067 71.8592 14.4667 72.6192 14.6L74.6192 14.98C75.4859 15.14 76.1392 15.4333 76.5792 15.86C77.0326 16.2867 77.2592 16.86 77.2592 17.58C77.2592 18.5533 76.8792 19.32 76.1192 19.88C75.3592 20.4267 74.3459 20.7 73.0792 20.7ZM80.5048 20.66C79.6782 20.66 79.2648 20.2333 79.2648 19.38V7.5C79.2648 6.66 79.6782 6.24 80.5048 6.24C81.3448 6.24 81.7648 6.66 81.7648 7.5V12.14C82.0982 11.6067 82.5448 11.2067 83.1048 10.94C83.6648 10.66 84.2848 10.52 84.9648 10.52C87.2715 10.52 88.4248 11.86 88.4248 14.54V19.38C88.4248 20.2333 88.0115 20.66 87.1848 20.66C86.3448 20.66 85.9248 20.2333 85.9248 19.38V14.66C85.9248 13.9 85.7782 13.3467 85.4848 13C85.2048 12.6533 84.7648 12.48 84.1648 12.48C83.4315 12.48 82.8448 12.7133 82.4048 13.18C81.9782 13.6333 81.7648 14.24 81.7648 15V19.38C81.7648 20.2333 81.3448 20.66 80.5048 20.66ZM92.2041 8.72C91.7374 8.72 91.3707 8.60667 91.1041 8.38C90.8507 8.14 90.7241 7.81333 90.7241 7.4C90.7241 6.97333 90.8507 6.64667 91.1041 6.42C91.3707 6.19333 91.7374 6.08 92.2041 6.08C93.1907 6.08 93.6841 6.52 93.6841 7.4C93.6841 8.28 93.1907 8.72 92.2041 8.72ZM92.2041 20.64C91.8041 20.64 91.4974 20.52 91.2841 20.28C91.0707 20.04 90.9641 19.7067 90.9641 19.28V11.94C90.9641 11.0333 91.3774 10.58 92.2041 10.58C93.0441 10.58 93.4641 11.0333 93.4641 11.94V19.28C93.4641 19.7067 93.3574 20.04 93.1441 20.28C92.9307 20.52 92.6174 20.64 92.2041 20.64ZM103.011 20.66C102.158 20.66 101.731 20.22 101.731 19.34V7.7C101.731 6.83333 102.165 6.4 103.031 6.4H107.851C109.398 6.4 110.591 6.77333 111.431 7.52C112.271 8.25333 112.691 9.28667 112.691 10.62C112.691 11.6733 112.418 12.5467 111.871 13.24C111.325 13.92 110.538 14.38 109.511 14.62C110.191 14.8333 110.751 15.3467 111.191 16.16L112.691 18.94C112.918 19.3667 112.958 19.76 112.811 20.12C112.678 20.48 112.338 20.66 111.791 20.66C111.431 20.66 111.138 20.5867 110.911 20.44C110.685 20.28 110.485 20.04 110.311 19.72L108.291 16C108.051 15.5467 107.765 15.2467 107.431 15.1C107.111 14.94 106.698 14.86 106.191 14.86H104.291V19.34C104.291 20.22 103.865 20.66 103.011 20.66ZM104.291 12.96H107.411C109.278 12.96 110.211 12.2 110.211 10.68C110.211 9.17333 109.278 8.42 107.411 8.42H104.291V12.96ZM119.408 20.7C118.395 20.7 117.515 20.4933 116.768 20.08C116.022 19.6667 115.442 19.08 115.028 18.32C114.615 17.5467 114.408 16.64 114.408 15.6C114.408 14.56 114.615 13.66 115.028 12.9C115.442 12.14 116.022 11.5533 116.768 11.14C117.515 10.7267 118.395 10.52 119.408 10.52C120.422 10.52 121.302 10.7267 122.048 11.14C122.795 11.5533 123.375 12.14 123.788 12.9C124.202 13.66 124.408 14.56 124.408 15.6C124.408 16.64 124.202 17.5467 123.788 18.32C123.375 19.08 122.795 19.6667 122.048 20.08C121.302 20.4933 120.422 20.7 119.408 20.7ZM119.408 18.8C120.155 18.8 120.755 18.5333 121.208 18C121.662 17.4533 121.888 16.6533 121.888 15.6C121.888 14.5333 121.662 13.74 121.208 13.22C120.755 12.6867 120.155 12.42 119.408 12.42C118.662 12.42 118.062 12.6867 117.608 13.22C117.155 13.74 116.928 14.5333 116.928 15.6C116.928 16.6533 117.155 17.4533 117.608 18C118.062 18.5333 118.662 18.8 119.408 18.8ZM129.812 20.7C127.585 20.7 126.472 19.4533 126.472 16.96V7.5C126.472 6.66 126.885 6.24 127.712 6.24C128.552 6.24 128.972 6.66 128.972 7.5V16.84C128.972 18.04 129.472 18.64 130.472 18.64C130.579 18.64 130.679 18.64 130.772 18.64C130.865 18.6267 130.959 18.6133 131.052 18.6C131.239 18.5733 131.365 18.6267 131.432 18.76C131.499 18.88 131.532 19.1333 131.532 19.52C131.532 19.8533 131.465 20.1133 131.332 20.3C131.199 20.4867 130.979 20.6 130.672 20.64C130.392 20.68 130.105 20.7 129.812 20.7ZM136.199 20.7C133.972 20.7 132.859 19.4533 132.859 16.96V7.5C132.859 6.66 133.272 6.24 134.099 6.24C134.939 6.24 135.359 6.66 135.359 7.5V16.84C135.359 18.04 135.859 18.64 136.859 18.64C136.965 18.64 137.065 18.64 137.159 18.64C137.252 18.6267 137.345 18.6133 137.439 18.6C137.625 18.5733 137.752 18.6267 137.819 18.76C137.885 18.88 137.919 19.1333 137.919 19.52C137.919 19.8533 137.852 20.1133 137.719 20.3C137.585 20.4867 137.365 20.6 137.059 20.64C136.779 20.68 136.492 20.7 136.199 20.7ZM140.485 8.72C140.019 8.72 139.652 8.60667 139.385 8.38C139.132 8.14 139.005 7.81333 139.005 7.4C139.005 6.97333 139.132 6.64667 139.385 6.42C139.652 6.19333 140.019 6.08 140.485 6.08C141.472 6.08 141.965 6.52 141.965 7.4C141.965 8.28 141.472 8.72 140.485 8.72ZM140.485 20.64C140.085 20.64 139.779 20.52 139.565 20.28C139.352 20.04 139.245 19.7067 139.245 19.28V11.94C139.245 11.0333 139.659 10.58 140.485 10.58C141.325 10.58 141.745 11.0333 141.745 11.94V19.28C141.745 19.7067 141.639 20.04 141.425 20.28C141.212 20.52 140.899 20.64 140.485 20.64ZM145.583 20.66C144.756 20.66 144.343 20.2333 144.343 19.38V11.82C144.343 10.98 144.75 10.56 145.563 10.56C146.376 10.56 146.783 10.98 146.783 11.82V12.24C147.116 11.68 147.563 11.2533 148.123 10.96C148.696 10.6667 149.336 10.52 150.043 10.52C152.35 10.52 153.503 11.86 153.503 14.54V19.38C153.503 20.2333 153.09 20.66 152.263 20.66C151.423 20.66 151.003 20.2333 151.003 19.38V14.66C151.003 13.9 150.856 13.3467 150.563 13C150.283 12.6533 149.843 12.48 149.243 12.48C148.51 12.48 147.923 12.7133 147.483 13.18C147.056 13.6333 146.843 14.24 146.843 15V19.38C146.843 20.2333 146.423 20.66 145.583 20.66ZM157.211 11.3C157.037 11.5133 156.851 11.6333 156.651 11.66C156.464 11.6867 156.297 11.6533 156.151 11.56C156.004 11.4533 155.924 11.3067 155.911 11.12C155.897 10.92 155.984 10.7067 156.171 10.48C156.331 10.28 156.457 10.0733 156.551 9.86C156.657 9.64667 156.731 9.44667 156.771 9.26C156.357 9.22 156.024 9.07333 155.771 8.82C155.517 8.55333 155.391 8.20667 155.391 7.78C155.391 7.34 155.524 6.98667 155.791 6.72C156.057 6.44 156.417 6.3 156.871 6.3C157.337 6.3 157.704 6.46 157.971 6.78C158.237 7.08667 158.371 7.53333 158.371 8.12C158.371 8.6 158.291 9.10667 158.131 9.64C157.984 10.16 157.677 10.7133 157.211 11.3ZM173.101 20.7C171.541 20.7 170.221 20.4067 169.141 19.82C168.075 19.2333 167.261 18.4 166.701 17.32C166.141 16.24 165.861 14.96 165.861 13.48C165.861 11.9867 166.148 10.7 166.721 9.62C167.295 8.52667 168.121 7.68667 169.201 7.1C170.281 6.5 171.575 6.2 173.081 6.2C173.828 6.2 174.575 6.29333 175.321 6.48C176.081 6.65333 176.795 6.95333 177.461 7.38C177.755 7.55333 177.921 7.78667 177.961 8.08C178.015 8.36 177.975 8.62667 177.841 8.88C177.708 9.13333 177.508 9.31333 177.241 9.42C176.975 9.51333 176.681 9.46667 176.361 9.28C175.855 8.98667 175.341 8.77333 174.821 8.64C174.301 8.50667 173.721 8.44 173.081 8.44C171.588 8.44 170.455 8.87333 169.681 9.74C168.921 10.6067 168.541 11.8533 168.541 13.48C168.541 15.12 168.935 16.3667 169.721 17.22C170.508 18.0733 171.675 18.5 173.221 18.5C173.661 18.5 174.108 18.4667 174.561 18.4C175.028 18.32 175.488 18.2067 175.941 18.06V14.78H173.741C173.048 14.78 172.701 14.46 172.701 13.82C172.701 13.1933 173.048 12.88 173.741 12.88H177.041C177.735 12.88 178.081 13.2267 178.081 13.92V18.78C178.081 19.3933 177.841 19.7867 177.361 19.96C176.775 20.1733 176.101 20.3533 175.341 20.5C174.581 20.6333 173.835 20.7 173.101 20.7ZM184.028 20.7C183.321 20.7 182.688 20.5667 182.128 20.3C181.581 20.02 181.148 19.6467 180.828 19.18C180.521 18.7133 180.368 18.1867 180.368 17.6C180.368 16.88 180.554 16.3133 180.928 15.9C181.301 15.4733 181.908 15.1667 182.748 14.98C183.588 14.7933 184.714 14.7 186.128 14.7H186.828V14.28C186.828 13.6133 186.681 13.1333 186.388 12.84C186.094 12.5467 185.601 12.4 184.908 12.4C184.521 12.4 184.101 12.4467 183.648 12.54C183.208 12.6333 182.741 12.7933 182.248 13.02C181.928 13.1667 181.661 13.1867 181.448 13.08C181.234 12.96 181.088 12.78 181.008 12.54C180.941 12.2867 180.954 12.0333 181.048 11.78C181.154 11.5267 181.361 11.34 181.668 11.22C182.281 10.9667 182.868 10.7867 183.428 10.68C184.001 10.5733 184.521 10.52 184.988 10.52C186.414 10.52 187.474 10.8533 188.168 11.52C188.861 12.1733 189.208 13.1933 189.208 14.58V19.38C189.208 20.2333 188.821 20.66 188.048 20.66C187.261 20.66 186.868 20.2333 186.868 19.38V18.94C186.641 19.4867 186.281 19.92 185.788 20.24C185.294 20.5467 184.708 20.7 184.028 20.7ZM184.548 18.98C185.201 18.98 185.741 18.7533 186.168 18.3C186.608 17.8467 186.828 17.2733 186.828 16.58V16.14H186.148C184.894 16.14 184.021 16.24 183.528 16.44C183.048 16.6267 182.808 16.9733 182.808 17.48C182.808 17.92 182.961 18.28 183.268 18.56C183.574 18.84 184.001 18.98 184.548 18.98ZM193.025 20.66C192.172 20.66 191.745 20.2333 191.745 19.38V11.82C191.745 10.98 192.152 10.56 192.965 10.56C193.779 10.56 194.185 10.98 194.185 11.82V12.44C194.665 11.2933 195.692 10.6533 197.265 10.52C197.839 10.4533 198.159 10.78 198.225 11.5C198.292 12.2067 197.945 12.6 197.185 12.68L196.745 12.72C195.105 12.88 194.285 13.72 194.285 15.24V19.38C194.285 20.2333 193.865 20.66 193.025 20.66ZM202.917 20.7C200.691 20.7 199.577 19.4533 199.577 16.96V7.5C199.577 6.66 199.991 6.24 200.817 6.24C201.657 6.24 202.077 6.66 202.077 7.5V16.84C202.077 18.04 202.577 18.64 203.577 18.64C203.684 18.64 203.784 18.64 203.877 18.64C203.971 18.6267 204.064 18.6133 204.157 18.6C204.344 18.5733 204.471 18.6267 204.537 18.76C204.604 18.88 204.637 19.1333 204.637 19.52C204.637 19.8533 204.571 20.1133 204.437 20.3C204.304 20.4867 204.084 20.6 203.777 20.64C203.497 20.68 203.211 20.7 202.917 20.7ZM209.184 20.7C208.477 20.7 207.844 20.5667 207.284 20.3C206.737 20.02 206.304 19.6467 205.984 19.18C205.677 18.7133 205.524 18.1867 205.524 17.6C205.524 16.88 205.711 16.3133 206.084 15.9C206.457 15.4733 207.064 15.1667 207.904 14.98C208.744 14.7933 209.871 14.7 211.284 14.7H211.984V14.28C211.984 13.6133 211.837 13.1333 211.544 12.84C211.251 12.5467 210.757 12.4 210.064 12.4C209.677 12.4 209.257 12.4467 208.804 12.54C208.364 12.6333 207.897 12.7933 207.404 13.02C207.084 13.1667 206.817 13.1867 206.604 13.08C206.391 12.96 206.244 12.78 206.164 12.54C206.097 12.2867 206.111 12.0333 206.204 11.78C206.311 11.5267 206.517 11.34 206.824 11.22C207.437 10.9667 208.024 10.7867 208.584 10.68C209.157 10.5733 209.677 10.52 210.144 10.52C211.571 10.52 212.631 10.8533 213.324 11.52C214.017 12.1733 214.364 13.1933 214.364 14.58V19.38C214.364 20.2333 213.977 20.66 213.204 20.66C212.417 20.66 212.024 20.2333 212.024 19.38V18.94C211.797 19.4867 211.437 19.92 210.944 20.24C210.451 20.5467 209.864 20.7 209.184 20.7ZM209.704 18.98C210.357 18.98 210.897 18.7533 211.324 18.3C211.764 17.8467 211.984 17.2733 211.984 16.58V16.14H211.304C210.051 16.14 209.177 16.24 208.684 16.44C208.204 16.6267 207.964 16.9733 207.964 17.48C207.964 17.92 208.117 18.28 208.424 18.56C208.731 18.84 209.157 18.98 209.704 18.98ZM218.142 20.66C217.315 20.66 216.902 20.2333 216.902 19.38V11.82C216.902 10.98 217.308 10.56 218.122 10.56C218.935 10.56 219.342 10.98 219.342 11.82V12.24C219.675 11.68 220.122 11.2533 220.682 10.96C221.255 10.6667 221.895 10.52 222.602 10.52C224.908 10.52 226.062 11.86 226.062 14.54V19.38C226.062 20.2333 225.648 20.66 224.822 20.66C223.982 20.66 223.562 20.2333 223.562 19.38V14.66C223.562 13.9 223.415 13.3467 223.122 13C222.842 12.6533 222.402 12.48 221.802 12.48C221.068 12.48 220.482 12.7133 220.042 13.18C219.615 13.6333 219.402 14.24 219.402 15V19.38C219.402 20.2333 218.982 20.66 218.142 20.66ZM232.361 20.7C231.507 20.7 230.754 20.4933 230.101 20.08C229.461 19.6667 228.961 19.08 228.601 18.32C228.241 17.5467 228.061 16.64 228.061 15.6C228.061 14.5467 228.241 13.6467 228.601 12.9C228.961 12.14 229.461 11.5533 230.101 11.14C230.754 10.7267 231.507 10.52 232.361 10.52C233.054 10.52 233.681 10.6733 234.241 10.98C234.801 11.2867 235.221 11.6933 235.501 12.2V7.5C235.501 6.66 235.914 6.24 236.741 6.24C237.581 6.24 238.001 6.66 238.001 7.5V19.38C238.001 20.2333 237.587 20.66 236.761 20.66C235.934 20.66 235.521 20.2333 235.521 19.38V18.96C235.241 19.4933 234.821 19.92 234.261 20.24C233.701 20.5467 233.067 20.7 232.361 20.7ZM233.061 18.8C233.807 18.8 234.407 18.5333 234.861 18C235.314 17.4533 235.541 16.6533 235.541 15.6C235.541 14.5333 235.314 13.74 234.861 13.22C234.407 12.6867 233.807 12.42 233.061 12.42C232.314 12.42 231.714 12.6867 231.261 13.22C230.807 13.74 230.581 14.5333 230.581 15.6C230.581 16.6533 230.807 17.4533 231.261 18C231.714 18.5333 232.314 18.8 233.061 18.8Z" fill="white"/>
</svg>
