<svg width="28" height="28" viewBox="0 0 28 28" fill="none" xmlns="http://www.w3.org/2000/svg">
<g clip-path="url(#clip0_1964_581)">
<path fill-rule="evenodd" clip-rule="evenodd" d="M11.6195 10.8093C9.00283 12.32 12.9953 19.8047 15.8586 18.1516C16.3671 19.0323 18.0049 21.8691 18.5134 22.7498C17.3053 23.4473 16.2827 23.887 14.8821 23.0864C10.9933 20.8633 6.71255 13.452 6.83458 9.03112C6.87688 7.49568 7.78149 6.8941 8.96478 6.21094C9.47325 7.09165 11.1111 9.92845 11.6196 10.8092L11.6195 10.8093Z" fill="white"/>
<path fill-rule="evenodd" clip-rule="evenodd" d="M12.7169 10.6845C12.4342 10.8477 12.0704 10.7503 11.9071 10.4675L9.40437 6.13258C9.2411 5.8498 9.33853 5.48598 9.62129 5.32273L10.9367 4.56328C11.2194 4.40002 11.5833 4.49754 11.7466 4.78029L14.2493 9.11519C14.4126 9.39792 14.3151 9.76174 14.0324 9.92499L12.717 10.6844L12.7169 10.6845Z" fill="white"/>
<path fill-rule="evenodd" clip-rule="evenodd" d="M19.5543 22.527C19.2716 22.6902 18.9078 22.5928 18.7445 22.31L16.2418 17.975C16.0785 17.6923 16.1759 17.3284 16.4587 17.1652L17.7741 16.4058C18.0568 16.2426 18.4207 16.3401 18.584 16.6228L21.0867 20.9577C21.25 21.2405 21.1525 21.6043 20.8698 21.7675L19.5544 22.527L19.5543 22.527Z" fill="white"/>
<path d="M14.0001 0H14.0004V0.00326063C17.8678 0.00331991 21.3676 1.56944 23.899 4.10107C26.4305 6.63257 27.9966 10.1323 27.9967 13.9997H27.9999V14.0004H27.9967C27.9966 17.8678 26.4305 21.3676 23.8988 23.899C21.3673 26.4305 17.8676 27.9966 14.0002 27.9967V27.9999H13.9996V27.9967C10.1322 27.9966 6.63228 26.4305 4.10093 23.8988C1.56944 21.3673 0.00335671 17.8676 0.00326063 14.0002H0V13.9996H0.00326063C0.00331991 10.1322 1.56944 6.63228 4.10107 4.10093C6.63257 1.56944 10.1323 0.00335671 13.9997 0.00326063V0H14.0001V0ZM14.0004 1.66985V1.67311H13.9997V1.66985C10.5987 1.66994 7.51688 3.05121 5.28436 5.28388C3.0515 7.51669 1.67018 10.5988 1.67018 13.9997H1.67344V14.0004H1.67018C1.67027 17.4014 3.05154 20.4832 5.28421 22.7157C7.51702 24.9486 10.5991 26.3299 14 26.3299V26.3266H14.0007V26.3299C17.4017 26.3298 20.4835 24.9485 22.716 22.7159C24.9489 20.483 26.3302 17.4009 26.3302 14H26.327V13.9994H26.3302C26.3301 10.5984 24.9489 7.51655 22.7162 5.28403C20.4834 3.05117 17.4013 1.66985 14.0004 1.66985Z" fill="white"/>
</g>
<defs>
<clipPath id="clip0_1964_581">
<rect width="28" height="28" fill="white"/>
</clipPath>
</defs>
</svg>
