<svg width="29" height="29" viewBox="0 0 29 29" fill="none" xmlns="http://www.w3.org/2000/svg">
<g clip-path="url(#clip0_677_312)">
<path fill-rule="evenodd" clip-rule="evenodd" d="M12.0346 11.1954C9.32449 12.7601 13.4595 20.5121 16.4251 18.8C16.9518 19.7121 18.6481 22.6503 19.1748 23.5624C17.9235 24.2848 16.8644 24.7402 15.4138 23.911C11.3861 21.6085 6.95243 13.9325 7.07881 9.35376C7.12262 7.76349 8.05954 7.14042 9.28509 6.43286C9.81172 7.34503 11.5081 10.2831 12.0347 11.1953L12.0346 11.1954Z" fill="white"/>
<path fill-rule="evenodd" clip-rule="evenodd" d="M13.1711 11.0661C12.8783 11.2351 12.5014 11.1342 12.3324 10.8414L9.7402 6.35161C9.57111 6.05873 9.67202 5.68192 9.96487 5.51284L11.3272 4.72627C11.6201 4.55717 11.997 4.65817 12.1661 4.95102L14.7582 9.44074C14.9273 9.73356 14.8263 10.1104 14.5335 10.2795L13.1711 11.066L13.1711 11.0661Z" fill="white"/>
<path fill-rule="evenodd" clip-rule="evenodd" d="M20.2526 23.3314C19.9598 23.5005 19.583 23.3996 19.4139 23.1067L16.8217 18.6169C16.6527 18.3241 16.7536 17.9472 17.0464 17.7782L18.4088 16.9916C18.7016 16.8226 19.0785 16.9236 19.2476 17.2164L21.8398 21.7061C22.0088 21.999 21.9079 22.3758 21.6151 22.5448L20.2527 23.3314L20.2526 23.3314Z" fill="white"/>
<path d="M14.5002 0H14.5004V0.00337708C18.5059 0.00343848 22.1308 1.62549 24.7525 4.24754C27.3744 6.86944 28.9964 10.4942 28.9965 14.4997H28.9999V14.5004H28.9965C28.9965 18.5059 27.3744 22.1308 24.7524 24.7525C22.1304 27.3744 18.5057 28.9964 14.5002 28.9965V28.9999H14.4995V28.9965C10.494 28.9965 6.86915 27.3744 4.24739 24.7524C1.62549 22.1304 0.0034766 18.5057 0.00337708 14.5002H0V14.4995H0.00337708C0.00343848 10.494 1.62549 6.86915 4.24754 4.24739C6.86944 1.62549 10.4942 0.0034766 14.4997 0.00337708V0H14.5002V0ZM14.5004 1.72949V1.73287H14.4997V1.72949C10.9772 1.72958 7.78534 3.16019 5.47308 5.47259C3.16048 7.78515 1.72983 10.9773 1.72983 14.4997H1.73321V14.5004H1.72983C1.72993 18.0229 3.16053 21.2147 5.47293 23.527C7.78549 25.8396 10.9777 27.2702 14.5 27.2702V27.2669H14.5007V27.2702C18.0232 27.2701 21.2151 25.8395 23.5273 23.5271C25.8399 21.2146 27.2706 18.0224 27.2706 14.5H27.2672V14.4994H27.2706C27.2705 10.9769 25.8399 7.785 23.5275 5.47274C21.2149 3.16014 18.0227 1.72949 14.5004 1.72949V1.72949Z" fill="white"/>
</g>
<defs>
<clipPath id="clip0_677_312">
<rect width="29" height="29" fill="white"/>
</clipPath>
</defs>
</svg>
