<svg width="263" height="29" viewBox="0 0 263 29" fill="none" xmlns="http://www.w3.org/2000/svg">
<g clip-path="url(#clip0_677_311)">
<path fill-rule="evenodd" clip-rule="evenodd" d="M12.0346 11.1954C9.32449 12.7601 13.4595 20.5121 16.4251 18.8C16.9518 19.7121 18.6481 22.6503 19.1748 23.5624C17.9235 24.2848 16.8644 24.7402 15.4138 23.911C11.3861 21.6085 6.95243 13.9325 7.07881 9.35376C7.12262 7.76349 8.05954 7.14042 9.28509 6.43286C9.81172 7.34503 11.5081 10.2831 12.0347 11.1953L12.0346 11.1954Z" fill="white"/>
<path fill-rule="evenodd" clip-rule="evenodd" d="M13.1711 11.0661C12.8783 11.2351 12.5014 11.1342 12.3324 10.8414L9.7402 6.35161C9.57111 6.05873 9.67202 5.68192 9.96487 5.51284L11.3272 4.72627C11.6201 4.55717 11.997 4.65817 12.1661 4.95102L14.7582 9.44074C14.9273 9.73356 14.8263 10.1104 14.5335 10.2795L13.1711 11.066L13.1711 11.0661Z" fill="white"/>
<path fill-rule="evenodd" clip-rule="evenodd" d="M20.2526 23.3314C19.9598 23.5005 19.583 23.3996 19.4139 23.1067L16.8217 18.6169C16.6527 18.3241 16.7536 17.9472 17.0464 17.7782L18.4088 16.9916C18.7016 16.8226 19.0785 16.9236 19.2476 17.2164L21.8398 21.7061C22.0088 21.999 21.9079 22.3758 21.6151 22.5448L20.2527 23.3314L20.2526 23.3314Z" fill="white"/>
<path d="M14.5002 0H14.5004V0.00337708C18.5059 0.00343848 22.1308 1.62549 24.7525 4.24754C27.3744 6.86944 28.9964 10.4942 28.9965 14.4997H28.9999V14.5004H28.9965C28.9965 18.5059 27.3744 22.1308 24.7524 24.7525C22.1304 27.3744 18.5057 28.9964 14.5002 28.9965V28.9999H14.4995V28.9965C10.494 28.9965 6.86915 27.3744 4.24739 24.7524C1.62549 22.1304 0.0034766 18.5057 0.00337708 14.5002H0V14.4995H0.00337708C0.00343848 10.494 1.62549 6.86915 4.24754 4.24739C6.86944 1.62549 10.4942 0.0034766 14.4997 0.00337708V0H14.5002V0ZM14.5004 1.72949V1.73287H14.4997V1.72949C10.9772 1.72958 7.78534 3.16019 5.47308 5.47259C3.16048 7.78515 1.72983 10.9773 1.72983 14.4997H1.73321V14.5004H1.72983C1.72993 18.0229 3.16053 21.2147 5.47293 23.527C7.78549 25.8396 10.9777 27.2702 14.5 27.2702V27.2669H14.5007V27.2702C18.0232 27.2701 21.2151 25.8395 23.5273 23.5271C25.8399 21.2146 27.2706 18.0224 27.2706 14.5H27.2672V14.4994H27.2706C27.2705 10.9769 25.8399 7.785 23.5275 5.47274C21.2149 3.16014 18.0227 1.72949 14.5004 1.72949V1.72949Z" fill="white"/>
</g>
<path d="M48.82 21.16C47.9667 21.16 47.54 20.72 47.54 19.84V8.2C47.54 7.33333 47.9733 6.9 48.84 6.9H53.66C55.2067 6.9 56.4 7.28667 57.24 8.06C58.08 8.83333 58.5 9.91333 58.5 11.3C58.5 12.6867 58.08 13.7733 57.24 14.56C56.4 15.3333 55.2067 15.72 53.66 15.72H50.1V19.84C50.1 20.72 49.6733 21.16 48.82 21.16ZM50.1 13.7H53.26C55.1 13.7 56.02 12.9 56.02 11.3C56.02 9.71333 55.1 8.92 53.26 8.92H50.1V13.7ZM61.5869 21.16C60.7602 21.16 60.3469 20.7333 60.3469 19.88V8C60.3469 7.16 60.7602 6.74 61.5869 6.74C62.4269 6.74 62.8469 7.16 62.8469 8V12.64C63.1802 12.1067 63.6269 11.7067 64.1869 11.44C64.7469 11.16 65.3669 11.02 66.0469 11.02C68.3535 11.02 69.5069 12.36 69.5069 15.04V19.88C69.5069 20.7333 69.0935 21.16 68.2669 21.16C67.4269 21.16 67.0069 20.7333 67.0069 19.88V15.16C67.0069 14.4 66.8602 13.8467 66.5669 13.5C66.2869 13.1533 65.8469 12.98 65.2469 12.98C64.5135 12.98 63.9269 13.2133 63.4869 13.68C63.0602 14.1333 62.8469 14.74 62.8469 15.5V19.88C62.8469 20.7333 62.4269 21.16 61.5869 21.16ZM76.5061 21.2C75.4928 21.2 74.6128 20.9933 73.8661 20.58C73.1194 20.1667 72.5394 19.58 72.1261 18.82C71.7128 18.0467 71.5061 17.14 71.5061 16.1C71.5061 15.06 71.7128 14.16 72.1261 13.4C72.5394 12.64 73.1194 12.0533 73.8661 11.64C74.6128 11.2267 75.4928 11.02 76.5061 11.02C77.5194 11.02 78.3994 11.2267 79.1461 11.64C79.8928 12.0533 80.4728 12.64 80.8861 13.4C81.2994 14.16 81.5061 15.06 81.5061 16.1C81.5061 17.14 81.2994 18.0467 80.8861 18.82C80.4728 19.58 79.8928 20.1667 79.1461 20.58C78.3994 20.9933 77.5194 21.2 76.5061 21.2ZM76.5061 19.3C77.2528 19.3 77.8528 19.0333 78.3061 18.5C78.7594 17.9533 78.9861 17.1533 78.9861 16.1C78.9861 15.0333 78.7594 14.24 78.3061 13.72C77.8528 13.1867 77.2528 12.92 76.5061 12.92C75.7594 12.92 75.1594 13.1867 74.7061 13.72C74.2528 14.24 74.0261 15.0333 74.0261 16.1C74.0261 17.1533 74.2528 17.9533 74.7061 18.5C75.1594 19.0333 75.7594 19.3 76.5061 19.3ZM84.8095 21.16C83.9829 21.16 83.5695 20.7333 83.5695 19.88V12.32C83.5695 11.48 83.9762 11.06 84.7895 11.06C85.6029 11.06 86.0095 11.48 86.0095 12.32V12.74C86.3429 12.18 86.7895 11.7533 87.3495 11.46C87.9229 11.1667 88.5629 11.02 89.2695 11.02C91.5762 11.02 92.7295 12.36 92.7295 15.04V19.88C92.7295 20.7333 92.3162 21.16 91.4895 21.16C90.6495 21.16 90.2295 20.7333 90.2295 19.88V15.16C90.2295 14.4 90.0829 13.8467 89.7895 13.5C89.5095 13.1533 89.0695 12.98 88.4695 12.98C87.7362 12.98 87.1495 13.2133 86.7095 13.68C86.2829 14.1333 86.0695 14.74 86.0695 15.5V19.88C86.0695 20.7333 85.6495 21.16 84.8095 21.16ZM100.089 21.2C98.9821 21.2 98.0288 20.9933 97.2288 20.58C96.4288 20.1667 95.8088 19.58 95.3688 18.82C94.9421 18.06 94.7288 17.16 94.7288 16.12C94.7288 15.1067 94.9354 14.22 95.3488 13.46C95.7754 12.7 96.3554 12.1067 97.0888 11.68C97.8354 11.24 98.6821 11.02 99.6288 11.02C101.015 11.02 102.109 11.46 102.909 12.34C103.722 13.22 104.129 14.42 104.129 15.94C104.129 16.4333 103.809 16.68 103.169 16.68H97.1288C97.3154 18.4267 98.3154 19.3 100.129 19.3C100.475 19.3 100.862 19.26 101.289 19.18C101.729 19.0867 102.142 18.9333 102.529 18.72C102.875 18.52 103.169 18.46 103.409 18.54C103.649 18.6067 103.815 18.7467 103.909 18.96C104.015 19.1733 104.029 19.4133 103.949 19.68C103.882 19.9333 103.695 20.1533 103.389 20.34C102.922 20.6333 102.382 20.8533 101.769 21C101.169 21.1333 100.609 21.2 100.089 21.2ZM99.7288 12.72C98.9954 12.72 98.4021 12.9467 97.9488 13.4C97.4954 13.8533 97.2221 14.4667 97.1288 15.24H102.049C101.995 14.4267 101.769 13.8067 101.369 13.38C100.982 12.94 100.435 12.72 99.7288 12.72Z" fill="white"/>
<path d="M131.02 21.18C130.407 21.18 129.773 21.06 129.12 20.82C128.48 20.58 127.913 20.2333 127.42 19.78C127.247 19.6467 127.147 19.4867 127.12 19.3C127.107 19.1 127.147 18.9267 127.24 18.78C127.333 18.62 127.46 18.52 127.62 18.48C127.793 18.4267 127.987 18.4733 128.2 18.62C128.653 19.0067 129.12 19.2867 129.6 19.46C130.08 19.6333 130.567 19.72 131.06 19.72C132.367 19.72 133.367 19.2333 134.06 18.26C134.767 17.2867 135.12 15.84 135.12 13.92V12.94C134.867 13.82 134.393 14.5067 133.7 15C133.02 15.4933 132.213 15.74 131.28 15.74C130.453 15.74 129.72 15.5533 129.08 15.18C128.44 14.7933 127.94 14.2667 127.58 13.6C127.22 12.9333 127.04 12.1667 127.04 11.3C127.04 10.4067 127.227 9.62 127.6 8.94C127.987 8.24667 128.513 7.70667 129.18 7.32C129.86 6.92 130.64 6.72 131.52 6.72C133.187 6.72 134.467 7.32667 135.36 8.54C136.267 9.74 136.72 11.4267 136.72 13.6C136.72 16.04 136.22 17.9133 135.22 19.22C134.22 20.5267 132.82 21.18 131.02 21.18ZM131.62 14.36C132.513 14.36 133.24 14.0733 133.8 13.5C134.36 12.9133 134.64 12.1533 134.64 11.22C134.64 10.3 134.36 9.55333 133.8 8.98C133.24 8.39333 132.513 8.1 131.62 8.1C130.74 8.1 130.02 8.39333 129.46 8.98C128.9 9.55333 128.62 10.3 128.62 11.22C128.62 12.1533 128.9 12.9133 129.46 13.5C130.02 14.0733 130.74 14.36 131.62 14.36ZM144.292 21.18C143.519 21.18 142.752 21.0667 141.992 20.84C141.246 20.6133 140.572 20.26 139.972 19.78C139.772 19.6467 139.652 19.4867 139.612 19.3C139.586 19.1 139.619 18.92 139.712 18.76C139.806 18.6 139.939 18.4933 140.112 18.44C140.299 18.3867 140.506 18.4333 140.732 18.58C141.786 19.34 142.966 19.72 144.272 19.72C145.246 19.72 146.012 19.4467 146.572 18.9C147.132 18.3533 147.412 17.6333 147.412 16.74C147.412 15.82 147.146 15.0667 146.612 14.48C146.079 13.8933 145.346 13.6 144.412 13.6C143.839 13.6 143.306 13.7067 142.812 13.92C142.332 14.1333 141.899 14.4733 141.512 14.94C141.419 15.0467 141.306 15.14 141.172 15.22C141.052 15.2867 140.912 15.32 140.752 15.32C140.272 15.32 140.032 15.0867 140.032 14.62V7.66C140.032 7.15333 140.286 6.9 140.792 6.9H147.592C148.099 6.9 148.352 7.13333 148.352 7.6C148.352 8.06667 148.099 8.3 147.592 8.3H141.652V13.34C142.426 12.5667 143.446 12.18 144.712 12.18C145.592 12.18 146.359 12.3667 147.012 12.74C147.666 13.1133 148.166 13.64 148.512 14.32C148.872 14.9867 149.052 15.7667 149.052 16.66C149.052 17.54 148.859 18.32 148.472 19C148.086 19.68 147.532 20.2133 146.812 20.6C146.106 20.9867 145.266 21.18 144.292 21.18ZM156.464 21.18C154.798 21.18 153.511 20.58 152.604 19.38C151.711 18.1667 151.264 16.4733 151.264 14.3C151.264 11.86 151.764 9.98667 152.764 8.68C153.764 7.37333 155.164 6.72 156.964 6.72C157.578 6.72 158.204 6.84 158.844 7.08C159.498 7.32 160.071 7.66 160.564 8.1C160.738 8.24667 160.831 8.41333 160.844 8.6C160.871 8.78667 160.838 8.96 160.744 9.12C160.651 9.28 160.518 9.38667 160.344 9.44C160.184 9.48 159.998 9.42 159.784 9.26C159.331 8.87333 158.864 8.6 158.384 8.44C157.904 8.26667 157.418 8.18 156.924 8.18C155.618 8.18 154.611 8.66667 153.904 9.64C153.211 10.6133 152.864 12.06 152.864 13.98V14.96C153.118 14.08 153.584 13.3933 154.264 12.9C154.958 12.4067 155.771 12.16 156.704 12.16C157.531 12.16 158.264 12.3533 158.904 12.74C159.544 13.1133 160.044 13.6333 160.404 14.3C160.764 14.9667 160.944 15.7333 160.944 16.6C160.944 17.4933 160.751 18.2867 160.364 18.98C159.991 19.66 159.464 20.2 158.784 20.6C158.118 20.9867 157.344 21.18 156.464 21.18ZM156.364 19.78C157.258 19.78 157.978 19.4933 158.524 18.92C159.084 18.3467 159.364 17.5933 159.364 16.66C159.364 15.74 159.084 14.9933 158.524 14.42C157.978 13.8333 157.258 13.54 156.364 13.54C155.471 13.54 154.744 13.8333 154.184 14.42C153.638 14.9933 153.364 15.74 153.364 16.66C153.364 17.5933 153.638 18.3467 154.184 18.92C154.744 19.4933 155.471 19.78 156.364 19.78ZM163.977 16.34C163.777 16.34 163.61 16.28 163.477 16.16C163.343 16.0267 163.277 15.8667 163.277 15.68C163.277 15.48 163.343 15.32 163.477 15.2C163.61 15.0667 163.777 15 163.977 15H168.477C168.663 15 168.823 15.0667 168.957 15.2C169.09 15.32 169.157 15.48 169.157 15.68C169.157 15.8667 169.09 16.0267 168.957 16.16C168.823 16.28 168.663 16.34 168.477 16.34H163.977ZM173.033 21C172.726 21 172.506 20.9333 172.373 20.8C172.24 20.6533 172.173 20.46 172.173 20.22C172.173 19.94 172.313 19.6533 172.593 19.36L177.073 14.56C177.753 13.8267 178.24 13.1533 178.533 12.54C178.84 11.9133 178.993 11.28 178.993 10.64C178.993 9 178.04 8.18 176.133 8.18C174.946 8.18 173.866 8.56 172.893 9.32C172.68 9.48 172.486 9.54 172.313 9.5C172.14 9.44667 172.006 9.34 171.913 9.18C171.833 9.02 171.8 8.84667 171.813 8.66C171.84 8.46 171.953 8.28667 172.153 8.14C172.673 7.71333 173.3 7.37333 174.033 7.12C174.766 6.85333 175.513 6.72 176.273 6.72C177.686 6.72 178.766 7.05333 179.513 7.72C180.273 8.37333 180.653 9.30667 180.653 10.52C180.653 11.36 180.446 12.1867 180.033 13C179.633 13.8 179 14.6533 178.133 15.56L174.333 19.6H180.613C181.12 19.6 181.373 19.8267 181.373 20.28C181.373 20.76 181.12 21 180.613 21H173.033ZM190.805 21.14C190.259 21.14 189.985 20.86 189.985 20.3V17.98H184.245C183.979 17.98 183.765 17.92 183.605 17.8C183.459 17.6667 183.385 17.48 183.385 17.24C183.385 17 183.539 16.6533 183.845 16.2L189.945 7.32C190.185 6.94667 190.492 6.76 190.865 6.76C191.079 6.76 191.259 6.83333 191.405 6.98C191.565 7.11333 191.645 7.32 191.645 7.6V16.58H193.105C193.625 16.58 193.885 16.8133 193.885 17.28C193.885 17.7467 193.625 17.98 193.105 17.98H191.645V20.3C191.645 20.86 191.365 21.14 190.805 21.14ZM189.985 16.58V9.54L185.165 16.58H189.985ZM199.458 21.18C198.844 21.18 198.211 21.06 197.558 20.82C196.918 20.58 196.351 20.2333 195.858 19.78C195.684 19.6467 195.584 19.4867 195.558 19.3C195.544 19.1 195.584 18.9267 195.678 18.78C195.771 18.62 195.898 18.52 196.058 18.48C196.231 18.4267 196.424 18.4733 196.638 18.62C197.091 19.0067 197.558 19.2867 198.038 19.46C198.518 19.6333 199.004 19.72 199.498 19.72C200.804 19.72 201.804 19.2333 202.498 18.26C203.204 17.2867 203.558 15.84 203.558 13.92V12.94C203.304 13.82 202.831 14.5067 202.138 15C201.458 15.4933 200.651 15.74 199.717 15.74C198.891 15.74 198.158 15.5533 197.518 15.18C196.878 14.7933 196.378 14.2667 196.018 13.6C195.658 12.9333 195.478 12.1667 195.478 11.3C195.478 10.4067 195.664 9.62 196.038 8.94C196.424 8.24667 196.951 7.70667 197.618 7.32C198.298 6.92 199.078 6.72 199.958 6.72C201.624 6.72 202.904 7.32667 203.798 8.54C204.704 9.74 205.158 11.4267 205.158 13.6C205.158 16.04 204.658 17.9133 203.658 19.22C202.658 20.5267 201.258 21.18 199.458 21.18ZM200.058 14.36C200.951 14.36 201.678 14.0733 202.238 13.5C202.798 12.9133 203.078 12.1533 203.078 11.22C203.078 10.3 202.798 9.55333 202.238 8.98C201.678 8.39333 200.951 8.1 200.058 8.1C199.178 8.1 198.458 8.39333 197.898 8.98C197.338 9.55333 197.058 10.3 197.058 11.22C197.058 12.1533 197.338 12.9133 197.898 13.5C198.458 14.0733 199.178 14.36 200.058 14.36ZM208.43 16.34C208.23 16.34 208.063 16.28 207.93 16.16C207.796 16.0267 207.73 15.8667 207.73 15.68C207.73 15.48 207.796 15.32 207.93 15.2C208.063 15.0667 208.23 15 208.43 15H212.93C213.116 15 213.276 15.0667 213.41 15.2C213.543 15.32 213.61 15.48 213.61 15.68C213.61 15.8667 213.543 16.0267 213.41 16.16C213.276 16.28 213.116 16.34 212.93 16.34H208.43ZM220.906 21.18C219.293 21.18 218.066 20.56 217.226 19.32C216.386 18.08 215.966 16.2867 215.966 13.94C215.966 11.58 216.386 9.78667 217.226 8.56C218.066 7.33333 219.293 6.72 220.906 6.72C222.533 6.72 223.76 7.33333 224.586 8.56C225.426 9.77333 225.846 11.56 225.846 13.92C225.846 16.28 225.42 18.08 224.566 19.32C223.726 20.56 222.506 21.18 220.906 21.18ZM220.906 19.76C222.026 19.76 222.853 19.2867 223.386 18.34C223.933 17.38 224.206 15.9067 224.206 13.92C224.206 11.92 223.94 10.46 223.406 9.54C222.873 8.60667 222.04 8.14 220.906 8.14C219.786 8.14 218.953 8.60667 218.406 9.54C217.873 10.4733 217.606 11.9333 217.606 13.92C217.606 15.9067 217.873 17.38 218.406 18.34C218.953 19.2867 219.786 19.76 220.906 19.76ZM229.998 21C229.492 21 229.238 20.76 229.238 20.28C229.238 19.8267 229.492 19.6 229.998 19.6H232.598V8.82L230.558 10.18C230.345 10.3133 230.145 10.3533 229.958 10.3C229.785 10.2333 229.652 10.12 229.558 9.96C229.465 9.8 229.432 9.62667 229.458 9.44C229.498 9.25333 229.625 9.08667 229.838 8.94L232.598 7.12C232.772 7.01333 232.938 6.92667 233.098 6.86C233.258 6.79333 233.418 6.76 233.578 6.76C233.765 6.76 233.918 6.82 234.038 6.94C234.172 7.04667 234.238 7.22 234.238 7.46V19.6H236.638C237.145 19.6 237.398 19.8267 237.398 20.28C237.398 20.76 237.145 21 236.638 21H229.998ZM245.371 21.18C243.704 21.18 242.417 20.58 241.511 19.38C240.617 18.1667 240.171 16.4733 240.171 14.3C240.171 11.86 240.671 9.98667 241.671 8.68C242.671 7.37333 244.071 6.72 245.871 6.72C246.484 6.72 247.111 6.84 247.751 7.08C248.404 7.32 248.977 7.66 249.471 8.1C249.644 8.24667 249.737 8.41333 249.751 8.6C249.777 8.78667 249.744 8.96 249.651 9.12C249.557 9.28 249.424 9.38667 249.251 9.44C249.091 9.48 248.904 9.42 248.691 9.26C248.237 8.87333 247.771 8.6 247.291 8.44C246.811 8.26667 246.324 8.18 245.831 8.18C244.524 8.18 243.517 8.66667 242.811 9.64C242.117 10.6133 241.771 12.06 241.771 13.98V14.96C242.024 14.08 242.491 13.3933 243.171 12.9C243.864 12.4067 244.677 12.16 245.611 12.16C246.437 12.16 247.171 12.3533 247.811 12.74C248.451 13.1133 248.951 13.6333 249.311 14.3C249.671 14.9667 249.851 15.7333 249.851 16.6C249.851 17.4933 249.657 18.2867 249.271 18.98C248.897 19.66 248.371 20.2 247.691 20.6C247.024 20.9867 246.251 21.18 245.371 21.18ZM245.271 19.78C246.164 19.78 246.884 19.4933 247.431 18.92C247.991 18.3467 248.271 17.5933 248.271 16.66C248.271 15.74 247.991 14.9933 247.431 14.42C246.884 13.8333 246.164 13.54 245.271 13.54C244.377 13.54 243.651 13.8333 243.091 14.42C242.544 14.9933 242.271 15.74 242.271 16.66C242.271 17.5933 242.544 18.3467 243.091 18.92C243.651 19.4933 244.377 19.78 245.271 19.78ZM254.243 21.14C253.949 21.14 253.729 21.04 253.583 20.84C253.449 20.6267 253.463 20.3667 253.623 20.06L259.683 8.32H252.843C252.336 8.32 252.083 8.08 252.083 7.6C252.083 7.13333 252.336 6.9 252.843 6.9H260.783C261.023 6.9 261.216 6.96667 261.363 7.1C261.509 7.22 261.583 7.38667 261.583 7.6C261.583 7.8 261.556 7.97333 261.503 8.12C261.463 8.25333 261.403 8.4 261.323 8.56L255.163 20.58C254.976 20.9533 254.669 21.14 254.243 21.14Z" fill="white"/>
<defs>
<clipPath id="clip0_677_311">
<rect width="29" height="29" fill="white"/>
</clipPath>
</defs>
</svg>
