<svg width="29" height="29" viewBox="0 0 29 29" fill="none" xmlns="http://www.w3.org/2000/svg">
<path d="M14.5002 0H14.5004V0.00337708C18.5059 0.00343848 22.1308 1.62549 24.7525 4.24754C27.3744 6.86944 28.9964 10.4942 28.9965 14.4997H28.9999V14.5004H28.9965C28.9965 18.5059 27.3744 22.1308 24.7524 24.7525C22.1304 27.3744 18.5057 28.9964 14.5002 28.9965V28.9999H14.4995V28.9965C10.494 28.9965 6.86915 27.3744 4.24739 24.7524C1.62549 22.1304 0.0034766 18.5057 0.00337708 14.5002H0V14.4995H0.00337708C0.00343848 10.494 1.62549 6.86915 4.24754 4.24739C6.86944 1.62549 10.4942 0.0034766 14.4997 0.00337708V0H14.5002V0ZM14.5004 1.72949V1.73287H14.4997V1.72949C10.9772 1.72958 7.78534 3.16019 5.47308 5.47259C3.16048 7.78515 1.72983 10.9773 1.72983 14.4997H1.73321V14.5004H1.72983C1.72993 18.0229 3.16053 21.2147 5.47293 23.527C7.78549 25.8396 10.9777 27.2702 14.5 27.2702V27.2669H14.5007V27.2702C18.0232 27.2701 21.2151 25.8395 23.5273 23.5271C25.8399 21.2146 27.2706 18.0224 27.2706 14.5H27.2672V14.4994H27.2706C27.2705 10.9769 25.8399 7.785 23.5275 5.47274C21.2149 3.16014 18.0227 1.72949 14.5004 1.72949Z" fill="white"/>
</svg>
