<svg width="155" height="18" viewBox="0 0 155 18" fill="none" xmlns="http://www.w3.org/2000/svg">
<g clip-path="url(#clip0_1958_3762)">
<path d="M44.9392 5.07399V12.939H46.9002C47.4007 12.9316 47.8945 12.8238 48.3526 12.6222C48.8107 12.4205 49.2237 12.1291 49.5672 11.765C50.2722 11.0186 50.6579 10.0265 50.6422 8.99999C50.6571 8.49011 50.5712 7.98229 50.3893 7.50572C50.2074 7.02916 49.9331 6.59323 49.5822 6.22299C49.2373 5.85842 48.8214 5.56832 48.3602 5.37054C47.8989 5.17276 47.4021 5.0715 46.9002 5.07299H44.9402L44.9392 5.07399ZM46.9002 2.60799C50.5552 2.60799 53.3202 5.43999 53.3202 8.99999C53.3202 12.56 50.5552 15.408 46.9002 15.408H42.5752C42.534 15.4075 42.4932 15.3988 42.4553 15.3826C42.4174 15.3663 42.3831 15.3427 42.3543 15.3132C42.3255 15.2837 42.3029 15.2488 42.2876 15.2105C42.2723 15.1722 42.2647 15.1312 42.2652 15.09V2.93899C42.2652 2.76299 42.4042 2.61999 42.5752 2.61999L46.9002 2.60799ZM62.7412 13.213C64.4012 13.218 65.9002 12.197 66.5392 10.626C66.8522 9.85842 66.9359 9.01653 66.78 8.20236C66.6242 7.3882 66.2355 6.63671 65.6612 6.03899C65.0969 5.45109 64.3675 5.04821 63.5694 4.88359C62.7713 4.71897 61.9421 4.80035 61.1912 5.11699C59.6572 5.76499 58.6552 7.29799 58.6522 8.99999C58.6522 11.32 60.4802 13.202 62.7422 13.213H62.7412ZM62.7422 2.31799C66.5892 2.31799 69.5302 5.34999 69.5302 8.99999C69.5302 12.65 66.5892 15.682 62.7412 15.682C58.8942 15.682 55.9782 12.665 55.9782 8.99999C55.9782 5.33499 58.9192 2.31799 62.7412 2.31799H62.7422ZM78.8752 13.213C81.1382 13.207 82.9692 11.323 82.9672 9.00299C82.9642 6.68099 81.1292 4.80099 78.8672 4.79999C76.6032 4.79999 74.7672 6.67899 74.7642 8.99999C74.7642 10.118 75.1972 11.19 75.9682 11.98C76.3456 12.3693 76.7972 12.679 77.2963 12.8908C77.7955 13.1026 78.332 13.2121 78.8742 13.213H78.8752ZM78.8742 2.31799C82.7092 2.31799 85.6502 5.33499 85.6502 8.99999C85.6502 12.665 82.6972 15.682 78.8742 15.682C75.0522 15.682 72.0862 12.665 72.0862 8.99999C72.0862 5.33499 75.0272 2.31799 78.8742 2.31799ZM94.6202 5.07399H91.8552V8.45899H94.6202C94.8387 8.46868 95.0568 8.43348 95.2611 8.35556C95.4655 8.27765 95.6516 8.15868 95.8082 8.00599C96.1282 7.69599 96.3102 7.26599 96.3142 6.81399C96.3223 6.58468 96.2839 6.3561 96.2014 6.14199C96.1189 5.92787 95.994 5.73263 95.8342 5.56799C95.6773 5.40597 95.4882 5.27857 95.2792 5.19401C95.0701 5.10945 94.8456 5.06959 94.6202 5.07699V5.07399ZM89.1802 2.93899C89.1802 2.76299 89.3202 2.61999 89.4912 2.61999H94.6972C97.1792 2.61999 98.9752 4.48499 98.9752 6.82699C98.9942 8.41099 98.1292 9.86599 96.7482 10.575L99.1492 14.928C99.1824 14.978 99.2011 15.0363 99.2032 15.0963C99.2054 15.1563 99.1908 15.2157 99.1612 15.268C99.1323 15.3194 99.0892 15.3615 99.0371 15.3891C98.985 15.4168 98.926 15.4289 98.8672 15.424H96.7602C96.7018 15.4248 96.6443 15.4091 96.5944 15.3787C96.5445 15.3482 96.5042 15.3043 96.4782 15.252L94.1642 10.944H91.8452V15.08C91.8459 15.1213 91.8384 15.1624 91.8231 15.2008C91.8079 15.2392 91.7852 15.2742 91.7564 15.3038C91.7276 15.3335 91.6933 15.3571 91.6553 15.3735C91.6173 15.3898 91.5765 15.3985 91.5352 15.399H89.5052C89.4639 15.3985 89.4231 15.3898 89.3851 15.3735C89.3471 15.3571 89.3128 15.3335 89.284 15.3038C89.2552 15.2742 89.2325 15.2392 89.2173 15.2008C89.202 15.1624 89.1945 15.1213 89.1952 15.08L89.1812 2.93999L89.1802 2.93899ZM105.947 5.13399V13H107.907C108.408 12.9932 108.901 12.8862 109.36 12.6852C109.818 12.4843 110.231 12.1934 110.575 11.83C111.281 11.0845 111.667 10.0931 111.652 9.06699C111.668 8.55648 111.583 8.04785 111.402 7.57039C111.22 7.09293 110.946 6.65607 110.595 6.28499C110.25 5.91981 109.833 5.62934 109.371 5.43155C108.909 5.23375 108.411 5.13282 107.908 5.13499L105.947 5.13399ZM107.907 2.66499C111.562 2.66499 114.327 5.49999 114.327 9.06699C114.327 12.634 111.562 15.469 107.907 15.469H103.595C103.554 15.4685 103.513 15.4598 103.475 15.4435C103.437 15.4271 103.403 15.4035 103.374 15.3738C103.345 15.3442 103.323 15.3092 103.307 15.2708C103.292 15.2324 103.285 15.1913 103.285 15.15V2.99999C103.285 2.82299 103.424 2.67999 103.595 2.67999L107.908 2.66499H107.907ZM122.483 5.79299L120.966 9.99899H123.997L122.483 5.79299ZM120.076 12.376L119.083 15.176C119.063 15.2419 119.022 15.2993 118.966 15.3391C118.91 15.3789 118.842 15.3989 118.773 15.396H116.619C116.564 15.4011 116.509 15.3914 116.459 15.3678C116.41 15.3442 116.367 15.3077 116.336 15.262C116.305 15.2158 116.286 15.1622 116.281 15.1065C116.276 15.0508 116.286 14.9948 116.309 14.944L120.963 2.80499C120.985 2.74098 121.027 2.68581 121.083 2.6479C121.139 2.60999 121.206 2.59141 121.273 2.59499H123.683C123.751 2.59119 123.818 2.60966 123.874 2.64759C123.93 2.68552 123.972 2.74081 123.994 2.80499L128.648 14.944C128.671 14.9949 128.681 15.051 128.676 15.1067C128.671 15.1624 128.652 15.2159 128.62 15.262C128.589 15.3075 128.547 15.3438 128.497 15.3672C128.447 15.3906 128.392 15.4002 128.337 15.395H126.184C126.115 15.3979 126.048 15.3779 125.992 15.3381C125.935 15.2983 125.894 15.2409 125.874 15.175L124.881 12.375H120.076V12.376ZM131.145 6.06599C131.145 4.05599 132.839 2.31799 135.514 2.31799C136.955 2.28582 138.349 2.82468 139.394 3.81699C139.426 3.84709 139.451 3.88336 139.469 3.9236C139.486 3.96383 139.495 4.00718 139.495 4.05099C139.495 4.0948 139.486 4.13815 139.469 4.17839C139.451 4.21862 139.426 4.2549 139.394 4.28499L138.201 5.49999C138.173 5.52951 138.138 5.55298 138.101 5.56901C138.063 5.58504 138.022 5.5933 137.981 5.5933C137.94 5.5933 137.9 5.58504 137.862 5.56901C137.824 5.55298 137.79 5.52951 137.761 5.49999C137.199 4.97331 136.461 4.6749 135.691 4.66299C134.621 4.66299 133.83 5.29999 133.83 6.03499C133.83 8.41099 140.153 7.03999 140.153 11.612C140.15 13.929 138.443 15.682 135.425 15.682C134.587 15.6906 133.756 15.5305 132.981 15.2113C132.206 14.8921 131.503 14.4203 130.914 13.824C130.882 13.7939 130.857 13.7576 130.84 13.7174C130.822 13.6772 130.813 13.6338 130.813 13.59C130.813 13.5462 130.822 13.5028 130.84 13.4626C130.857 13.4224 130.882 13.3861 130.914 13.356L132.068 12.172C132.097 12.141 132.132 12.1163 132.17 12.0995C132.209 12.0826 132.251 12.0739 132.293 12.0739C132.335 12.0739 132.377 12.0826 132.416 12.0995C132.455 12.1163 132.489 12.141 132.518 12.172C133.245 12.8919 134.223 13.3008 135.245 13.312C136.582 13.312 137.463 12.58 137.463 11.663C137.463 9.28599 131.143 10.658 131.143 6.08499L131.145 6.06599ZM151.619 2.92299V7.72699H146.267V2.92299C146.268 2.88176 146.26 2.84082 146.245 2.80252C146.23 2.76422 146.207 2.72931 146.178 2.69978C146.149 2.67025 146.115 2.64668 146.077 2.63042C146.039 2.61415 145.998 2.60551 145.957 2.60499H143.927C143.886 2.60551 143.845 2.61415 143.807 2.63042C143.769 2.64668 143.735 2.67025 143.706 2.69978C143.678 2.72931 143.655 2.76422 143.64 2.80252C143.624 2.84082 143.617 2.88176 143.617 2.92299V15.06C143.617 15.236 143.757 15.379 143.927 15.379H145.957C146.127 15.379 146.267 15.236 146.267 15.06V10.18H151.615V15.06C151.615 15.236 151.755 15.379 151.925 15.379H153.955C154.126 15.379 154.265 15.236 154.265 15.06V2.92299C154.266 2.88176 154.258 2.84082 154.243 2.80252C154.228 2.76422 154.205 2.72931 154.176 2.69978C154.147 2.67025 154.113 2.64668 154.075 2.63042C154.037 2.61415 153.996 2.60551 153.955 2.60499H151.925C151.843 2.60709 151.764 2.64165 151.707 2.70117C151.65 2.76069 151.618 2.84039 151.619 2.92299ZM30.8702 4.22499C29.4622 1.61499 26.7072 -0.0100075 23.7112 -7.5156e-06H1.04319C0.890111 0.00061387 0.740595 0.0462678 0.613276 0.131266C0.485957 0.216264 0.386464 0.336848 0.327194 0.477992C0.268791 0.618232 0.25358 0.772714 0.28351 0.921652C0.31344 1.07059 0.387148 1.2072 0.495194 1.31399L5.43319 6.21399C5.86919 6.64799 6.46319 6.89099 7.08119 6.89099H23.0612C24.2002 6.87899 25.1312 7.78099 25.1432 8.90399C25.1552 10.027 24.2422 10.947 23.1032 10.958H12.0862C11.933 10.9581 11.7832 11.0032 11.6555 11.0879C11.5278 11.1725 11.4279 11.2929 11.3682 11.434C11.3092 11.5744 11.2936 11.7292 11.3234 11.8786C11.3531 12.0279 11.4269 12.1649 11.5352 12.272L16.4762 17.176C16.9149 17.6098 17.5072 17.8527 18.1242 17.852H23.1072C29.5902 17.852 34.4922 11.012 30.8702 4.22199" fill="#40464D"/>
</g>
<defs>
<clipPath id="clip0_1958_3762">
<rect width="154" height="18" fill="white" transform="translate(0.265625)"/>
</clipPath>
</defs>
</svg>
