<svg width="154" height="18" viewBox="0 0 154 18" fill="none" xmlns="http://www.w3.org/2000/svg">
<path d="M44.6741 5.07398V12.939H46.6351C47.1355 12.9316 47.6294 12.8238 48.0875 12.6222C48.5456 12.4205 48.9586 12.129 49.3021 11.765C50.007 11.0186 50.3927 10.0265 50.3771 8.99998C50.392 8.4901 50.3061 7.98228 50.1241 7.50572C49.9422 7.02915 49.668 6.59322 49.3171 6.22298C48.9722 5.85842 48.5563 5.56831 48.095 5.37053C47.6338 5.17276 47.1369 5.07149 46.6351 5.07298H44.6751L44.6741 5.07398ZM46.6351 2.60798C50.2901 2.60798 53.0551 5.43998 53.0551 8.99998C53.0551 12.56 50.2901 15.408 46.6351 15.408H42.3101C42.2688 15.4075 42.2281 15.3988 42.1902 15.3826C42.1523 15.3663 42.118 15.3427 42.0892 15.3132C42.0604 15.2837 42.0377 15.2488 42.0224 15.2105C42.0071 15.1722 41.9995 15.1312 42.0001 15.09V2.93898C42.0001 2.76298 42.1391 2.61998 42.3101 2.61998L46.6351 2.60798ZM62.4761 13.213C64.1361 13.218 65.6351 12.197 66.2741 10.626C66.5871 9.85841 66.6707 9.01652 66.5149 8.20236C66.3591 7.38819 65.9704 6.63671 65.3961 6.03898C64.8318 5.45108 64.1024 5.0482 63.3043 4.88358C62.5062 4.71896 61.6769 4.80035 60.9261 5.11698C59.3921 5.76499 58.3901 7.29798 58.3871 8.99998C58.3871 11.32 60.2151 13.202 62.4771 13.213H62.4761ZM62.4771 2.31798C66.3241 2.31798 69.2651 5.34998 69.2651 8.99998C69.2651 12.65 66.3241 15.682 62.4761 15.682C58.6291 15.682 55.7131 12.665 55.7131 8.99998C55.7131 5.33498 58.6541 2.31798 62.4761 2.31798H62.4771ZM78.6101 13.213C80.8731 13.207 82.7041 11.323 82.7021 9.00299C82.6991 6.68098 80.8641 4.80098 78.6021 4.79998C76.3381 4.79998 74.5021 6.67898 74.4991 8.99998C74.4991 10.118 74.9321 11.19 75.7031 11.98C76.0804 12.3693 76.532 12.679 77.0312 12.8908C77.5303 13.1026 78.0669 13.2121 78.6091 13.213H78.6101ZM78.6091 2.31798C82.4441 2.31798 85.3851 5.33498 85.3851 8.99998C85.3851 12.665 82.4321 15.682 78.6091 15.682C74.7871 15.682 71.8211 12.665 71.8211 8.99998C71.8211 5.33498 74.7621 2.31798 78.6091 2.31798ZM94.3551 5.07398H91.5901V8.45898H94.3551C94.5735 8.46867 94.7917 8.43347 94.996 8.35556C95.2003 8.27764 95.3865 8.15867 95.5431 8.00598C95.8631 7.69598 96.0451 7.26599 96.0491 6.81398C96.0571 6.58467 96.0188 6.3561 95.9363 6.14198C95.8538 5.92786 95.7289 5.73262 95.5691 5.56798C95.4122 5.40596 95.2231 5.27857 95.014 5.194C94.8049 5.10944 94.5805 5.06958 94.3551 5.07698V5.07398ZM88.9151 2.93898C88.9151 2.76298 89.0551 2.61998 89.2261 2.61998H94.4321C96.9141 2.61998 98.7101 4.48498 98.7101 6.82698C98.7291 8.41098 97.8641 9.86598 96.4831 10.575L98.8841 14.928C98.9173 14.978 98.936 15.0363 98.9381 15.0963C98.9402 15.1563 98.9257 15.2157 98.8961 15.268C98.8671 15.3194 98.8241 15.3615 98.7719 15.3891C98.7198 15.4168 98.6609 15.4289 98.6021 15.424H96.4951C96.4366 15.4248 96.3791 15.4091 96.3292 15.3787C96.2794 15.3482 96.2391 15.3043 96.2131 15.252L93.8991 10.944H91.5801V15.08C91.5807 15.1213 91.5732 15.1623 91.558 15.2008C91.5427 15.2392 91.5201 15.2742 91.4913 15.3038C91.4625 15.3335 91.4281 15.3571 91.3902 15.3735C91.3522 15.3898 91.3114 15.3985 91.2701 15.399H89.2401C89.1987 15.3985 89.1579 15.3898 89.12 15.3735C89.082 15.3571 89.0476 15.3335 89.0188 15.3038C88.99 15.2742 88.9674 15.2392 88.9521 15.2008C88.9369 15.1623 88.9294 15.1213 88.9301 15.08L88.9161 2.93998L88.9151 2.93898ZM105.682 5.13398V13H107.642C108.142 12.9932 108.636 12.8862 109.095 12.6852C109.553 12.4842 109.966 12.1934 110.31 11.83C111.015 11.0845 111.402 10.0931 111.387 9.06699C111.403 8.55647 111.318 8.04784 111.137 7.57038C110.955 7.09292 110.681 6.65606 110.33 6.28498C109.985 5.9198 109.568 5.62934 109.106 5.43154C108.644 5.23374 108.146 5.13281 107.643 5.13498L105.682 5.13398ZM107.642 2.66498C111.297 2.66498 114.062 5.49999 114.062 9.06699C114.062 12.634 111.297 15.469 107.642 15.469H103.33C103.289 15.4685 103.248 15.4598 103.21 15.4435C103.172 15.4271 103.138 15.4035 103.109 15.3738C103.08 15.3442 103.057 15.3092 103.042 15.2708C103.027 15.2323 103.019 15.1913 103.02 15.15V2.99998C103.02 2.82298 103.159 2.67998 103.33 2.67998L107.643 2.66498H107.642ZM122.218 5.79298L120.701 9.99898H123.732L122.218 5.79298ZM119.811 12.376L118.818 15.176C118.798 15.2419 118.757 15.2992 118.701 15.3391C118.645 15.3789 118.577 15.3989 118.508 15.396H116.354C116.299 15.4011 116.244 15.3914 116.194 15.3678C116.144 15.3442 116.102 15.3077 116.071 15.262C116.04 15.2158 116.021 15.1622 116.016 15.1065C116.011 15.0508 116.021 14.9948 116.044 14.944L120.698 2.80498C120.72 2.74097 120.762 2.68581 120.818 2.64789C120.874 2.60998 120.941 2.5914 121.008 2.59498H123.418C123.486 2.59118 123.553 2.60965 123.609 2.64758C123.665 2.68551 123.707 2.7408 123.729 2.80498L128.383 14.944C128.406 14.9949 128.416 15.051 128.411 15.1067C128.406 15.1624 128.387 15.2159 128.355 15.262C128.324 15.3075 128.282 15.3438 128.232 15.3672C128.182 15.3906 128.127 15.4002 128.072 15.395H125.919C125.85 15.3979 125.783 15.3779 125.726 15.3381C125.67 15.2982 125.629 15.2409 125.609 15.175L124.616 12.375H119.811V12.376ZM130.88 6.06598C130.88 4.05598 132.574 2.31798 135.249 2.31798C136.69 2.28582 138.084 2.82467 139.129 3.81698C139.161 3.84708 139.186 3.88336 139.204 3.92359C139.221 3.96383 139.23 4.00717 139.23 4.05098C139.23 4.09479 139.221 4.13814 139.204 4.17838C139.186 4.21861 139.161 4.25489 139.129 4.28498L137.936 5.49998C137.908 5.5295 137.873 5.55297 137.836 5.56901C137.798 5.58504 137.757 5.5933 137.716 5.5933C137.675 5.5933 137.634 5.58504 137.597 5.56901C137.559 5.55297 137.525 5.5295 137.496 5.49998C136.934 4.97331 136.196 4.6749 135.426 4.66298C134.356 4.66298 133.565 5.29998 133.565 6.03498C133.565 8.41098 139.888 7.03999 139.888 11.612C139.885 13.929 138.178 15.682 135.16 15.682C134.322 15.6906 133.491 15.5305 132.716 15.2113C131.941 14.8921 131.238 14.4203 130.649 13.824C130.617 13.7939 130.592 13.7576 130.575 13.7174C130.557 13.6771 130.548 13.6338 130.548 13.59C130.548 13.5462 130.557 13.5028 130.575 13.4626C130.592 13.4224 130.617 13.3861 130.649 13.356L131.803 12.172C131.832 12.141 131.867 12.1163 131.905 12.0995C131.944 12.0826 131.986 12.0738 132.028 12.0738C132.07 12.0738 132.112 12.0826 132.151 12.0995C132.19 12.1163 132.224 12.141 132.253 12.172C132.979 12.8919 133.957 13.3008 134.98 13.312C136.317 13.312 137.198 12.58 137.198 11.663C137.198 9.28598 130.878 10.658 130.878 6.08498L130.88 6.06598ZM151.354 2.92298V7.72698H146.002V2.92298C146.003 2.88175 145.995 2.84081 145.98 2.80251C145.964 2.76421 145.942 2.7293 145.913 2.69977C145.884 2.67024 145.85 2.64667 145.812 2.63041C145.774 2.61415 145.733 2.60551 145.692 2.60498H143.662C143.621 2.60551 143.58 2.61415 143.542 2.63041C143.504 2.64667 143.47 2.67024 143.441 2.69977C143.412 2.7293 143.39 2.76421 143.374 2.80251C143.359 2.84081 143.352 2.88175 143.352 2.92298V15.06C143.352 15.236 143.492 15.379 143.662 15.379H145.692C145.862 15.379 146.002 15.236 146.002 15.06V10.18H151.35V15.06C151.35 15.236 151.49 15.379 151.66 15.379H153.69C153.861 15.379 154 15.236 154 15.06V2.92298C154.001 2.88175 153.993 2.84081 153.978 2.80251C153.962 2.76421 153.94 2.7293 153.911 2.69977C153.882 2.67024 153.848 2.64667 153.81 2.63041C153.772 2.61415 153.731 2.60551 153.69 2.60498H151.66C151.577 2.60708 151.499 2.64164 151.442 2.70116C151.384 2.76069 151.353 2.84038 151.354 2.92298ZM30.6051 4.22498C29.1971 1.61498 26.4421 -0.0100151 23.4461 -1.5145e-05H0.778058C0.624975 0.00060624 0.475459 0.0462602 0.348139 0.131258C0.22082 0.216256 0.121327 0.33684 0.0620576 0.477985C0.00365406 0.618225 -0.0115568 0.772706 0.0183732 0.921644C0.0483033 1.07058 0.122012 1.20719 0.230058 1.31398L5.16806 6.21398C5.60406 6.64798 6.19806 6.89098 6.81606 6.89098H22.7961C23.9351 6.87898 24.8661 7.78098 24.8781 8.90399C24.8901 10.027 23.9771 10.947 22.8381 10.958H11.8211C11.6679 10.958 11.5181 11.0032 11.3904 11.0879C11.2627 11.1725 11.1628 11.2929 11.1031 11.434C11.0441 11.5744 11.0285 11.7292 11.0582 11.8786C11.088 12.0279 11.1618 12.1649 11.2701 12.272L16.2111 17.176C16.6498 17.6098 17.2421 17.8527 17.8591 17.852H22.8421C29.3251 17.852 34.2271 11.012 30.6051 4.22198" fill="#40464D"/>
</svg>
