<svg width="96" height="20" viewBox="0 0 96 20" fill="none" xmlns="http://www.w3.org/2000/svg">
<g clip-path="url(#clip0_1958_3767)">
<path d="M80.6679 0.299917H77.3329C77.1449 0.299917 77.051 0.393912 77.051 0.581826V13.7811C77.051 14.4388 76.8397 14.9319 76.5577 15.3079C76.276 15.6837 75.9003 15.7776 75.4304 15.7776C74.9607 15.7776 74.5614 15.5896 74.2796 15.3079C73.9978 14.9319 73.81 14.4388 73.81 13.7811V0.581826C73.81 0.393912 73.6218 0.299917 73.528 0.299917H70.1693C69.9814 0.299917 69.8876 0.393912 69.8876 0.581826V13.8752C69.8876 15.5897 70.2634 17.2103 71.3202 18.2671C72.3536 19.3241 73.7864 19.8877 75.4303 19.8877C77.1448 19.8877 78.5775 19.3241 79.5404 18.2671C80.5739 17.2339 80.9732 15.7073 80.9732 13.8752V0.581826C81.0671 0.487982 80.8793 0.299917 80.6679 0.299917ZM93.4682 9.67122C94.0318 9.1074 95.0888 7.76871 95.0888 6.03075C95.0888 4.01102 94.3138 2.78969 93.7266 2.10843C92.6697 0.981098 91.2604 0.393912 89.6165 0.393912H84.3554C84.1441 0.393912 84.05 0.581826 84.05 0.675671V19.3241C84.05 19.5119 84.2379 19.606 84.3554 19.606H89.9217C91.6362 19.606 93.2567 18.9483 94.3138 17.5861C94.8774 16.8345 95.5584 15.5661 95.5584 13.6639C95.3705 11.3857 93.9613 10.0469 93.4682 9.67122ZM87.9253 4.22215H89.64C90.1096 4.22215 90.4853 4.316 90.7673 4.6919C91.0725 4.99718 91.1666 5.467 91.1666 6.05411C91.1666 6.64122 91.0725 7.08738 90.7673 7.48688C90.4853 7.76864 90.1096 7.95655 89.7338 7.95655H88.0194V4.22215H87.9253ZM90.9786 15.2138C90.6967 15.5897 90.3209 15.6837 89.7337 15.6837H87.8315V11.6438H89.7337C90.2036 11.6438 90.5793 11.8552 90.8611 12.1373C91.1665 12.5129 91.3544 12.9826 91.3544 13.5698C91.4483 14.3448 91.284 14.8146 90.9786 15.2138ZM22.9615 11.2916C23.3372 11.0098 23.6426 10.8219 23.9244 10.4227C24.582 9.67115 25.4509 8.33223 25.4509 6.21851C25.4509 4.19864 24.6759 2.88346 23.9244 2.10843C22.9615 0.981098 21.5287 0.393912 19.9082 0.299917H14.3653C14.1774 0.299917 14.0835 0.487982 14.0835 0.581826V19.2068C14.0835 19.3946 14.2714 19.4885 14.3653 19.4885H17.7004C17.8883 19.4885 17.9823 19.3005 17.9823 19.2068V12.3251H19.1331L21.2234 19.3946C21.2234 19.4885 21.4348 19.5825 21.5288 19.5825H25.0517C25.1457 19.5825 25.2397 19.4885 25.3336 19.4885C25.4275 19.4885 25.4275 19.3005 25.4275 19.2068L22.9615 11.2916ZM20.8476 7.83896C20.5658 8.21502 20.096 8.42615 19.5088 8.42615H17.8882V4.22215H19.5088C20.0725 4.22215 20.5422 4.41007 20.8476 4.78582C21.2233 5.18524 21.3408 5.65492 21.3408 6.31258C21.3408 6.99361 21.2469 7.46321 20.8476 7.83896ZM51.2158 9.67122C51.803 9.1074 52.8365 7.76871 52.8365 6.03075C52.8365 4.01102 52.0849 2.78969 51.4977 2.10843C50.4408 0.981098 49.008 0.393912 47.3875 0.393912H42.1499C41.962 0.393912 41.8681 0.581826 41.8681 0.675671V19.3241C41.8681 19.5119 42.056 19.606 42.1499 19.606H47.6928C49.4073 19.606 51.0279 18.9483 52.1082 17.5861C52.672 16.8345 53.3531 15.5661 53.3531 13.6639C53.2357 11.3857 51.803 10.0469 51.2158 9.67122ZM45.6964 4.22215H47.411C47.8807 4.22215 48.2566 4.316 48.5384 4.6919C48.8201 4.99718 48.9142 5.467 48.9142 6.05411C48.9142 6.64122 48.8201 7.08738 48.5384 7.48688C48.2565 7.76864 47.8807 7.95655 47.5049 7.95655H45.7903V4.22215H45.6964ZM48.8436 15.2138C48.5619 15.5897 48.1859 15.6837 47.5988 15.6837H45.6964V11.6438H47.5988C48.0685 11.6438 48.4443 11.8552 48.7262 12.1373C49.0079 12.5129 49.2193 12.9826 49.2193 13.5698C49.2429 14.3448 49.149 14.8146 48.8436 15.2138ZM5.83972 0.018158C4.12512 0.018158 2.6925 0.581826 1.72956 1.63861C0.696067 2.69555 0.320312 4.19864 0.320312 6.03067V13.969C0.320312 15.6837 0.696067 17.304 1.72956 18.3611C2.78642 19.4181 4.21911 19.9818 5.83972 19.9818C7.55417 19.9818 9.0103 19.4182 9.97325 18.3611C11.0067 17.3276 11.3825 15.801 11.3825 13.969V9.60045C11.3825 9.38924 11.1946 9.2014 11.0067 9.2014H6.145C5.93371 9.2014 5.7458 9.38924 5.7458 9.60045V12.8417C5.7458 13.0296 5.93371 13.2176 6.145 13.2176H7.38985V13.9926C7.38985 14.6502 7.20193 15.2374 6.92017 15.6133C6.63819 15.9891 6.23907 16.0829 5.76924 16.0829C5.29957 16.0829 4.92374 15.8951 4.61846 15.6133C4.33663 15.2374 4.14879 14.6503 4.14879 13.9926V6.14826C4.14879 5.467 4.33663 4.87982 4.61846 4.52736C4.92381 4.1516 5.29957 4.05776 5.76924 4.05776C6.23907 4.05776 6.63826 4.24567 6.92017 4.52736C7.20201 4.90318 7.38985 5.467 7.38985 6.14826V6.89977C7.38985 7.08746 7.57769 7.20497 7.67168 7.20497H11.0068C11.1947 7.20497 11.2886 7.08746 11.2886 6.89977V6.14826C11.2886 4.43351 10.9129 2.81298 9.85603 1.75612C9.01038 0.581826 7.46025 0.018158 5.83972 0.018158ZM38.5331 0.299917H35.1979C35.01 0.299917 34.916 0.393912 34.916 0.581826V13.7811C34.916 14.4388 34.7047 14.9319 34.4229 15.3079C34.141 15.6837 33.7652 15.7776 33.2955 15.7776C32.8258 15.7776 32.4265 15.5896 32.1447 15.3079C31.8629 14.9319 31.675 14.4388 31.675 13.7811V0.581826C31.675 0.393912 31.4636 0.299917 31.3697 0.299917H28.0346C27.8467 0.299917 27.7528 0.393912 27.7528 0.581826V13.8752C27.7528 15.5897 28.1521 17.2103 29.1854 18.2671C30.2423 19.3241 31.675 19.8877 33.2956 19.8877C35.0102 19.8877 36.4663 19.3241 37.4057 18.2671C38.4626 17.2339 38.8383 15.7073 38.8383 13.8752V0.581826C38.8149 0.487982 38.7209 0.299917 38.5331 0.299917ZM66.6229 0.299917H63.2879C63.1 0.299917 63.0061 0.487982 63.0061 0.581826V7.83896H59.671V0.581826C59.671 0.393912 59.4831 0.299917 59.3891 0.299917H56.054C55.8661 0.299917 55.7722 0.487982 55.7722 0.581826V19.2068C55.7722 19.3946 55.9602 19.4885 56.054 19.4885H59.3891C59.577 19.4885 59.671 19.3005 59.671 19.2068V11.7615H63.0061V19.2068C63.0061 19.3946 63.194 19.4885 63.2879 19.4885H66.6229C66.8109 19.4885 66.9049 19.3005 66.9049 19.2068V0.581826C66.9049 0.487982 66.8109 0.299917 66.6229 0.299917Z" fill="#40464D"/>
</g>
<defs>
<clipPath id="clip0_1958_3767">
<rect width="95.2381" height="20" fill="white" transform="translate(0.320312)"/>
</clipPath>
</defs>
</svg>
