<svg width="96" height="20" viewBox="0 0 96 20" fill="none" xmlns="http://www.w3.org/2000/svg">
<path d="M80.3475 0.299337H77.0126C76.8246 0.299337 76.7307 0.393332 76.7307 0.581247V13.7806C76.7307 14.4382 76.5194 14.9313 76.2374 15.3073C75.9557 15.6832 75.5799 15.777 75.11 15.777C74.6404 15.777 74.2411 15.589 73.9593 15.3073C73.6775 14.9313 73.4897 14.4382 73.4897 13.7806V0.581247C73.4897 0.393332 73.3015 0.299337 73.2077 0.299337H69.849C69.6611 0.299337 69.5673 0.393332 69.5673 0.581247V13.8746C69.5673 15.5891 69.9431 17.2097 70.9999 18.2665C72.0333 19.3235 73.4661 19.8872 75.11 19.8872C76.8245 19.8872 78.2572 19.3236 79.2201 18.2665C80.2536 17.2333 80.6529 15.7067 80.6529 13.8746V0.581247C80.7468 0.487402 80.559 0.299337 80.3475 0.299337ZM93.1479 9.67064C93.7115 9.10682 94.7685 7.76813 94.7685 6.03017C94.7685 4.01044 93.9935 2.78911 93.4063 2.10785C92.3494 0.980518 90.94 0.393332 89.2961 0.393332H84.0351C83.8238 0.393332 83.7297 0.581246 83.7297 0.675091V19.3235C83.7297 19.5113 83.9176 19.6054 84.0351 19.6054H89.6013C91.3159 19.6054 92.9364 18.9477 93.9935 17.5855C94.5571 16.8339 95.2381 15.5655 95.2381 13.6633C95.0502 11.3851 93.641 10.0463 93.1479 9.67064ZM87.605 4.22157H89.3197C89.7893 4.22157 90.165 4.31542 90.447 4.69132C90.7522 4.9966 90.8463 5.46642 90.8463 6.05353C90.8463 6.64065 90.7522 7.0868 90.447 7.4863C90.165 7.76806 89.7893 7.95597 89.4135 7.95597H87.6991V4.22157H87.605ZM90.6583 15.2133C90.3764 15.5891 90.0006 15.6831 89.4134 15.6831H87.5111V11.6433H89.4134C89.8833 11.6433 90.259 11.8546 90.5408 12.1367C90.8462 12.5124 91.0341 12.982 91.0341 13.5692C91.128 14.3442 90.9636 14.8141 90.6583 15.2133ZM22.6411 11.291C23.0169 11.0093 23.3223 10.8213 23.6041 10.4221C24.2617 9.67057 25.1306 8.33165 25.1306 6.21793C25.1306 4.19806 24.3556 2.88288 23.6041 2.10785C22.6411 0.980518 21.2084 0.393332 19.5878 0.299337H14.045C13.8571 0.299337 13.7632 0.487402 13.7632 0.581247V19.2062C13.7632 19.394 13.9511 19.488 14.045 19.488H17.3801C17.568 19.488 17.662 19.3 17.662 19.2062V12.3245H18.8128L20.9031 19.394C20.9031 19.488 21.1145 19.5819 21.2085 19.5819H24.7314C24.8253 19.5819 24.9193 19.488 25.0133 19.488C25.1072 19.488 25.1072 19.3 25.1072 19.2062L22.6411 11.291ZM20.5273 7.83838C20.2454 8.21444 19.7757 8.42557 19.1885 8.42557H17.5679V4.22157H19.1885C19.7522 4.22157 20.2218 4.40949 20.5273 4.78524C20.903 5.18466 21.0205 5.65434 21.0205 6.312C21.0205 6.99303 20.9265 7.46263 20.5273 7.83838ZM50.8955 9.67064C51.4827 9.10682 52.5162 7.76813 52.5162 6.03017C52.5162 4.01044 51.7646 2.78911 51.1774 2.10785C50.1205 0.980518 48.6877 0.393332 47.0672 0.393332H41.8296C41.6417 0.393332 41.5477 0.581246 41.5477 0.675091V19.3235C41.5477 19.5113 41.7357 19.6054 41.8296 19.6054H47.3725C49.087 19.6054 50.7076 18.9477 51.7879 17.5855C52.3517 16.8339 53.0328 15.5655 53.0328 13.6633C52.9154 11.3851 51.4827 10.0463 50.8955 9.67064ZM45.3761 4.22157H47.0907C47.5604 4.22157 47.9362 4.31542 48.2181 4.69132C48.4998 4.9966 48.5939 5.46642 48.5939 6.05353C48.5939 6.64065 48.4998 7.0868 48.2181 7.4863C47.9362 7.76806 47.5604 7.95597 47.1846 7.95597H45.47V4.22157H45.3761ZM48.5233 15.2133C48.2416 15.5891 47.8656 15.6831 47.2785 15.6831H45.3761V11.6433H47.2785C47.7482 11.6433 48.124 11.8546 48.4058 12.1367C48.6876 12.5124 48.899 12.982 48.899 13.5692C48.9226 14.3442 48.8287 14.8141 48.5233 15.2133ZM5.51941 0.0175781C3.80481 0.0175781 2.37219 0.581247 1.40925 1.63803C0.375755 2.69497 0 4.19806 0 6.03009V13.9684C0 15.6832 0.375755 17.3035 1.40925 18.3605C2.46611 19.4176 3.8988 19.9812 5.51941 19.9812C7.23386 19.9812 8.68999 19.4176 9.65293 18.3605C10.6864 17.3271 11.0622 15.8004 11.0622 13.9684V9.59987C11.0622 9.38866 10.8743 9.20082 10.6864 9.20082H5.82468C5.6134 9.20082 5.42549 9.38866 5.42549 9.59987V12.8411C5.42549 13.029 5.6134 13.217 5.82468 13.217H7.06954V13.992C7.06954 14.6497 6.88162 15.2368 6.59986 15.6127C6.31788 15.9885 5.91875 16.0824 5.44893 16.0824C4.97926 16.0824 4.60343 15.8945 4.29815 15.6127C4.01631 15.2368 3.82847 14.6497 3.82847 13.992V6.14768C3.82847 5.46642 4.01631 4.87924 4.29815 4.52678C4.6035 4.15102 4.97926 4.05718 5.44893 4.05718C5.91875 4.05718 6.31795 4.24509 6.59986 4.52678C6.8817 4.9026 7.06954 5.46642 7.06954 6.14768V6.89919C7.06954 7.08688 7.25737 7.20439 7.35137 7.20439H10.6865C10.8743 7.20439 10.9683 7.08688 10.9683 6.89919V6.14768C10.9683 4.43293 10.5926 2.8124 9.53572 1.75554C8.69007 0.581247 7.13994 0.0175781 5.51941 0.0175781ZM38.2128 0.299337H34.8776C34.6897 0.299337 34.5957 0.393332 34.5957 0.581247V13.7806C34.5957 14.4382 34.3844 14.9313 34.1026 15.3073C33.8207 15.6832 33.4449 15.777 32.9752 15.777C32.5055 15.777 32.1062 15.589 31.8244 15.3073C31.5426 14.9313 31.3547 14.4382 31.3547 13.7806V0.581247C31.3547 0.393332 31.1433 0.299337 31.0494 0.299337H27.7143C27.5264 0.299337 27.4325 0.393332 27.4325 0.581247V13.8746C27.4325 15.5891 27.8318 17.2097 28.8651 18.2665C29.922 19.3235 31.3547 19.8872 32.9753 19.8872C34.6899 19.8872 36.146 19.3236 37.0854 18.2665C38.1423 17.2333 38.518 15.7067 38.518 13.8746V0.581247C38.4946 0.487402 38.4006 0.299337 38.2128 0.299337ZM66.3026 0.299337H62.9676C62.7797 0.299337 62.6858 0.487402 62.6858 0.581247V7.83838H59.3507V0.581247C59.3507 0.393332 59.1628 0.299337 59.0688 0.299337H55.7337C55.5458 0.299337 55.4519 0.487402 55.4519 0.581247V19.2062C55.4519 19.394 55.6398 19.488 55.7337 19.488H59.0688C59.2567 19.488 59.3507 19.3 59.3507 19.2062V11.7609H62.6858V19.2062C62.6858 19.394 62.8737 19.488 62.9676 19.488H66.3026C66.4906 19.488 66.5846 19.3 66.5846 19.2062V0.581247C66.5846 0.487402 66.4906 0.299337 66.3026 0.299337Z" fill="#333333"/>
</svg>
