<svg width="154" height="20" viewBox="0 0 154 20" fill="none" xmlns="http://www.w3.org/2000/svg">
<path d="M129.922 0.282272H124.529C124.225 0.282272 124.074 0.376438 124.074 0.564695V13.7881C124.074 14.4469 123.732 14.9409 123.276 15.3176C122.82 15.6941 122.213 15.7881 121.453 15.7881C120.694 15.7881 120.048 15.5998 119.592 15.3176C119.136 14.9409 118.833 14.4469 118.833 13.7881V0.564695C118.833 0.376438 118.529 0.282272 118.377 0.282272H112.946C112.642 0.282272 112.49 0.376438 112.49 0.564695V13.8823C112.49 15.5999 113.098 17.2234 114.807 18.2821C116.478 19.3411 118.795 19.9058 121.453 19.9058C124.225 19.9058 126.542 19.3411 128.099 18.2821C129.77 17.2471 130.416 15.7177 130.416 13.8823V0.564695C130.568 0.470679 130.264 0.282272 129.922 0.282272ZM150.62 9.67064C151.531 9.1058 153.241 7.76467 153.241 6.02354C153.241 4.00014 151.987 2.77658 151.038 2.09408C149.329 0.964694 147.05 0.376438 144.392 0.376438H135.885C135.543 0.376438 135.391 0.564695 135.391 0.658711V19.3411C135.391 19.5292 135.695 19.6235 135.885 19.6235H144.885C147.658 19.6235 150.278 18.9646 151.987 17.5999C152.899 16.847 154 15.5762 154 13.6706C153.696 11.3882 151.418 10.047 150.62 9.67064ZM141.657 4.21165H144.43C145.189 4.21165 145.797 4.30567 146.253 4.68226C146.746 4.98809 146.898 5.45877 146.898 6.04695C146.898 6.63513 146.746 7.0821 146.253 7.48232C145.797 7.76459 145.189 7.95285 144.582 7.95285H141.809V4.21165H141.657ZM146.594 15.2234C146.139 15.5999 145.531 15.694 144.581 15.694H141.505V11.6469H144.581C145.341 11.6469 145.949 11.8586 146.404 12.1412C146.898 12.5175 147.202 12.9881 147.202 13.5763C147.354 14.3528 147.088 14.8234 146.594 15.2234ZM36.6107 11.294C37.2183 11.0117 37.7121 10.8234 38.1678 10.4234C39.2311 9.67057 40.6362 8.32921 40.6362 6.21165C40.6362 4.18809 39.383 2.87052 38.1678 2.09408C36.6107 0.964694 34.2939 0.376438 31.6735 0.282272H22.7108C22.4069 0.282272 22.255 0.470679 22.255 0.564695V19.2236C22.255 19.4117 22.5589 19.5058 22.7108 19.5058H28.1035C28.4074 19.5058 28.5594 19.3175 28.5594 19.2236V12.3293H30.4203L33.8003 19.4117C33.8003 19.5058 34.1421 19.5999 34.2941 19.5999H39.9907C40.1426 19.5999 40.2946 19.5058 40.4464 19.5058C40.5983 19.5058 40.5983 19.3175 40.5983 19.2236L36.6107 11.294ZM33.1926 7.83505C32.7369 8.21179 31.9773 8.4233 31.0278 8.4233H28.4073V4.21165H31.0278C31.9393 4.21165 32.6987 4.39991 33.1926 4.77635C33.8002 5.1765 33.9901 5.64702 33.9901 6.30589C33.9901 6.98816 33.8382 7.45861 33.1926 7.83505ZM82.298 9.67064C83.2474 9.1058 84.9186 7.76467 84.9186 6.02354C84.9186 4.00014 83.7033 2.77658 82.7538 2.09408C81.0449 0.964694 78.728 0.376438 76.1077 0.376438H67.6384C67.3347 0.376438 67.1827 0.564695 67.1827 0.658711V19.3411C67.1827 19.5292 67.4867 19.6235 67.6384 19.6235H76.6013C79.3737 19.6235 81.9942 18.9646 83.7411 17.5999C84.6526 16.847 85.754 15.5762 85.754 13.6706C85.5642 11.3882 83.2474 10.047 82.298 9.67064ZM73.3731 4.21165H76.1456C76.9052 4.21165 77.5129 4.30567 77.9686 4.68226C78.4242 4.98809 78.5763 5.45877 78.5763 6.04695C78.5763 6.63513 78.4242 7.0821 77.9686 7.48232C77.5128 7.76459 76.9052 7.95285 76.2974 7.95285H73.5249V4.21165H73.3731ZM78.4621 15.2234C78.0066 15.5999 77.3987 15.694 76.4493 15.694H73.3731V11.6469H76.4493C77.2088 11.6469 77.8165 11.8586 78.2722 12.1412C78.7278 12.5175 79.0697 12.9881 79.0697 13.5763C79.1077 14.3528 78.956 14.8234 78.4621 15.2234ZM8.92488 0C6.15237 0 3.83583 0.564695 2.27875 1.6234C0.607595 2.68226 0 4.18809 0 6.02346V13.9762C0 15.6941 0.607595 17.3174 2.27875 18.3764C3.9877 19.4353 6.30436 20 8.92488 20C11.6971 20 14.0517 19.4354 15.6088 18.3764C17.2799 17.341 17.8875 15.8116 17.8875 13.9762V9.59974C17.8875 9.38815 17.5837 9.19997 17.2799 9.19997H9.41851C9.07687 9.19997 8.77301 9.38815 8.77301 9.59974V12.8469C8.77301 13.0351 9.07687 13.2234 9.41851 13.2234H11.4314V13.9999C11.4314 14.6587 11.1276 15.247 10.672 15.6235C10.216 16 9.57062 16.094 8.81092 16.094C8.05145 16.094 7.44374 15.9058 6.9501 15.6235C6.49438 15.247 6.19064 14.6588 6.19064 13.9999V6.14126C6.19064 5.45877 6.49438 4.87051 6.9501 4.51741C7.44386 4.14097 8.05145 4.04696 8.81092 4.04696C9.57062 4.04696 10.2161 4.23521 10.672 4.51741C11.1277 4.89392 11.4314 5.45877 11.4314 6.14126V6.89414C11.4314 7.08217 11.7352 7.1999 11.8872 7.1999H17.2801C17.5838 7.1999 17.7358 7.08217 17.7358 6.89414V6.14126C17.7358 4.42339 17.1282 2.79991 15.4193 1.74113C14.0518 0.564695 11.5453 0 8.92488 0ZM61.79 0.282272H56.3971C56.0932 0.282272 55.9413 0.376438 55.9413 0.564695V13.7881C55.9413 14.4469 55.5996 14.9409 55.1439 15.3176C54.688 15.6941 54.0803 15.7881 53.3209 15.7881C52.5614 15.7881 51.9157 15.5998 51.46 15.3176C51.0043 14.9409 50.7006 14.4469 50.7006 13.7881V0.564695C50.7006 0.376438 50.3587 0.282272 50.2068 0.282272H44.814C44.5102 0.282272 44.3583 0.376438 44.3583 0.564695V13.8823C44.3583 15.5999 45.0039 17.2234 46.6749 18.2821C48.3838 19.3411 50.7006 19.9058 53.321 19.9058C56.0935 19.9058 58.4481 19.3411 59.9671 18.2821C61.6761 17.2471 62.2836 15.7177 62.2836 13.8823V0.564695C62.2457 0.470679 62.0937 0.282272 61.79 0.282272ZM107.211 0.282272H101.819C101.515 0.282272 101.363 0.470679 101.363 0.564695V7.83505H95.9701V0.564695C95.9701 0.376438 95.6663 0.282272 95.5143 0.282272H90.1214C89.8175 0.282272 89.6658 0.470679 89.6658 0.564695V19.2236C89.6658 19.4117 89.9696 19.5058 90.1214 19.5058H95.5143C95.818 19.5058 95.9701 19.3175 95.9701 19.2236V11.7647H101.363V19.2236C101.363 19.4117 101.667 19.5058 101.819 19.5058H107.211C107.515 19.5058 107.667 19.3175 107.667 19.2236V0.564695C107.667 0.470679 107.515 0.282272 107.211 0.282272Z" fill="#40464D"/>
</svg>
