<svg width="28" height="28" viewBox="0 0 28 28" fill="none" xmlns="http://www.w3.org/2000/svg">
<path d="M14.0057 7.71099C10.5275 7.71099 7.72207 10.5165 7.72207 13.9946C7.72207 17.4727 10.5275 20.2782 14.0057 20.2782C17.4838 20.2782 20.2893 17.4727 20.2893 13.9946C20.2893 10.5165 17.4838 7.71099 14.0057 7.71099ZM14.0057 18.0797C11.758 18.0797 9.92051 16.2477 9.92051 13.9946C9.92051 11.7415 11.7525 9.90942 14.0057 9.90942C16.2588 9.90942 18.0908 11.7415 18.0908 13.9946C18.0908 16.2477 16.2533 18.0797 14.0057 18.0797ZM22.0119 7.45396C22.0119 8.2688 21.3557 8.91958 20.5463 8.91958C19.7314 8.91958 19.0807 8.26333 19.0807 7.45396C19.0807 6.64458 19.7369 5.98833 20.5463 5.98833C21.3557 5.98833 22.0119 6.64458 22.0119 7.45396ZM26.1736 8.94146C26.0807 6.97817 25.6322 5.23911 24.1939 3.8063C22.7611 2.37349 21.0221 1.92505 19.0588 1.82661C17.0354 1.71177 10.9705 1.71177 8.94707 1.82661C6.98926 1.91958 5.2502 2.36802 3.81191 3.80083C2.37363 5.23364 1.93066 6.9727 1.83223 8.93599C1.71738 10.9594 1.71738 17.0243 1.83223 19.0477C1.9252 21.011 2.37363 22.75 3.81191 24.1829C5.2502 25.6157 6.98379 26.0641 8.94707 26.1625C10.9705 26.2774 17.0354 26.2774 19.0588 26.1625C21.0221 26.0696 22.7611 25.6211 24.1939 24.1829C25.6268 22.75 26.0752 21.011 26.1736 19.0477C26.2885 17.0243 26.2885 10.9649 26.1736 8.94146ZM23.5596 21.2188C23.133 22.2907 22.3072 23.1165 21.2299 23.5485C19.6166 24.1883 15.7885 24.0407 14.0057 24.0407C12.2229 24.0407 8.38926 24.1829 6.78145 23.5485C5.70957 23.1219 4.88379 22.2961 4.45176 21.2188C3.81191 19.6055 3.95957 15.7774 3.95957 13.9946C3.95957 12.2118 3.81738 8.37817 4.45176 6.77036C4.87832 5.69849 5.7041 4.8727 6.78145 4.44067C8.39473 3.80083 12.2229 3.94849 14.0057 3.94849C15.7885 3.94849 19.6221 3.8063 21.2299 4.44067C22.3018 4.86724 23.1275 5.69302 23.5596 6.77036C24.1994 8.38364 24.0518 12.2118 24.0518 13.9946C24.0518 15.7774 24.1994 19.611 23.5596 21.2188Z" fill="white"/>
</svg>
