<svg width="100" height="16" viewBox="0 0 100 16" fill="none" xmlns="http://www.w3.org/2000/svg">
<path d="M52.5957 -7.62939e-06H63.6128V2.69564H55.5717V6.52345H63.3891V9.12745H55.5717V13.02H63.6128V15.7156H52.5957V-7.62939e-06ZM94.0385 15.9986C97.4162 15.9986 99.3193 14.3813 99.3193 12.16C99.3193 10.5777 98.1925 9.39701 95.8338 8.88484L93.3404 8.37536C91.8928 8.1058 91.4372 7.83623 91.4372 7.2971C91.4372 6.59893 92.1354 6.17032 93.4212 6.17032C94.8149 6.17032 95.8473 6.54502 96.1169 7.83354H99.039C98.8799 5.40746 97.1358 3.80624 93.5992 3.80624C90.5423 3.80624 88.3966 5.0678 88.3966 7.51275C88.3966 9.20292 89.5773 10.3027 92.1246 10.8392L94.9119 11.4834C96.0118 11.6991 96.3056 11.9956 96.3056 12.4512C96.3056 13.1763 95.4753 13.6319 94.1329 13.6319C92.4454 13.6319 91.4804 13.2572 91.1057 11.9687H88.1674C88.596 14.3893 90.3913 15.9986 94.0385 15.9986ZM87.3183 15.7048H84.1563C82.1723 15.7048 81.0725 14.4702 81.0725 12.9121V6.7391H78.8486V4.10815H81.0833V0.80599H84.0215V4.10815H87.3183V6.7391H84.0215V12.16C84.0215 12.7773 84.4501 13.0739 85.1214 13.0739H87.3183V15.7048ZM74.6488 4.11355V5.15946C73.6143 4.28495 72.3023 3.80717 70.9476 3.81163C70.1367 3.79458 69.3304 3.93958 68.5762 4.23814C67.822 4.53671 67.1349 4.98282 66.5553 5.55035C65.9757 6.11787 65.5153 6.79538 65.2009 7.54317C64.8866 8.29095 64.7246 9.09396 64.7246 9.90514C64.7246 10.7163 64.8866 11.5193 65.2009 12.2671C65.5153 13.0149 65.9757 13.6924 66.5553 14.2599C67.1349 14.8275 67.822 15.2736 68.5762 15.5721C69.3304 15.8707 70.1367 16.0157 70.9476 15.9986C72.3025 16.0045 73.615 15.5266 74.6488 14.6508V15.6994H77.5789V4.10815L74.6488 4.11355ZM71.1903 13.454C70.4874 13.462 69.798 13.2608 69.2097 12.8761C68.6214 12.4914 68.1608 11.9405 67.8864 11.2933C67.6119 10.6462 67.5361 9.93209 67.6685 9.24176C67.8009 8.55142 68.1355 7.91603 68.6299 7.41634C69.1243 6.91665 69.756 6.57522 70.4449 6.43544C71.1338 6.29565 71.8487 6.36384 72.4987 6.63132C73.1488 6.8988 73.7046 7.3535 74.0956 7.93763C74.4866 8.52177 74.6951 9.20896 74.6946 9.91188C74.6989 10.3752 74.6112 10.8349 74.4367 11.2641C74.2621 11.6934 74.0042 12.0838 73.6778 12.4127C73.3514 12.7416 72.963 13.0025 72.5351 13.1803C72.1072 13.3581 71.6483 13.4493 71.1849 13.4486L71.1903 13.454Z" fill="#40464D"/>
<path d="M46.0565 6.28354C44.582 6.28354 43.5361 7.43728 43.5361 9.20832V15.7048H41.2853V4.26989H43.5092V5.66624C43.7835 5.20344 44.1766 4.82242 44.6477 4.56268C45.1188 4.30294 45.6509 4.17393 46.1886 4.18902H46.9973V6.28354H46.0565ZM39.7299 9.98736C39.7299 6.57737 37.3038 4.02729 34.0205 4.02729C33.2447 4.03255 32.4777 4.19116 31.7634 4.49398C31.0492 4.79679 30.4019 5.23785 29.8587 5.79177C29.3156 6.34568 28.8873 7.00153 28.5986 7.72157C28.3099 8.44162 28.1664 9.21164 28.1763 9.98736C28.1763 13.3947 30.8046 15.9717 34.2334 15.9717C35.1912 15.9898 36.1394 15.7774 36.9979 15.3523C37.8564 14.9273 38.6002 14.3021 39.1665 13.5294L37.5329 12.3326C37.1581 12.8556 36.6622 13.2801 36.0876 13.5698C35.5131 13.8594 34.8768 14.0056 34.2334 13.9958C33.3171 13.9915 32.4326 13.659 31.7403 13.0586C31.0479 12.4583 30.5936 11.6298 30.4595 10.7233H39.7353L39.7299 9.98736ZM30.5081 8.93875C30.9097 7.19467 32.3034 6.01398 33.9935 6.01398C35.6837 6.01398 37.0747 7.19467 37.452 8.93875H30.5081ZM21.0464 4.02729C20.2941 4.02792 19.5495 4.17761 18.8555 4.46771C18.1614 4.75782 17.5318 5.18258 17.0029 5.71746V-7.62939e-06H14.752V15.7048H16.9759V14.2546C18.0533 15.3445 19.5193 15.9621 21.0517 15.9717C21.8467 15.9886 22.637 15.8466 23.3764 15.554C24.1158 15.2615 24.7893 14.8243 25.3575 14.2681C25.9257 13.7118 26.3771 13.0477 26.6853 12.3147C26.9934 11.5818 27.1522 10.7946 27.1522 9.99949C27.1522 9.20435 26.9934 8.41722 26.6853 7.68423C26.3771 6.95125 25.9257 6.28717 25.3575 5.73092C24.7893 5.17468 24.1158 4.73747 23.3764 4.44493C22.637 4.15239 21.8467 4.0104 21.0517 4.02729H21.0464ZM20.8846 13.9607C20.1001 13.9645 19.3321 13.7351 18.6781 13.3016C18.0241 12.8682 17.5136 12.2502 17.2114 11.5262C16.9092 10.8022 16.8289 10.0047 16.9806 9.23495C17.1324 8.4652 17.5094 7.75787 18.0638 7.20272C18.6182 6.64757 19.325 6.26961 20.0945 6.11681C20.8641 5.964 21.6617 6.04324 22.3861 6.34446C23.1105 6.64569 23.7292 7.15532 24.1635 7.8087C24.5979 8.46208 24.8283 9.22975 24.8256 10.0143C24.8264 10.5318 24.7249 11.0443 24.527 11.5225C24.3291 12.0007 24.0388 12.4351 23.6726 12.8007C23.3064 13.1664 22.8717 13.4562 22.3932 13.6534C21.9148 13.8506 21.4021 13.9514 20.8846 13.95V13.9607ZM6.46291 13.8529C8.6356 13.8529 10.3231 12.187 10.3231 9.69084V-7.62939e-06H12.6548V15.7048H10.35V14.2195C9.81156 14.776 9.16579 15.2175 8.45179 15.5173C7.73779 15.8171 6.9704 15.9689 6.19604 15.9636C2.84536 15.9636 0.265625 13.5213 0.265625 9.81753V-7.62939e-06H2.64049V9.70431C2.64049 12.214 4.25787 13.8529 6.46291 13.8529Z" fill="#40464D"/>
</svg>
