<svg width="22" height="28" viewBox="0 0 22 28" fill="none" xmlns="http://www.w3.org/2000/svg">
<path d="M3.08459 13.1422L8.53256 15.8005C9.58256 16.3146 9.41849 17.8519 8.28646 18.1362L2.40646 19.6024C2.23386 19.6458 2.05395 19.6517 1.87886 19.6198C1.70377 19.5879 1.53755 19.5188 1.39138 19.4172C1.24522 19.3157 1.1225 19.184 1.03149 19.0311C0.940469 18.8781 0.883267 18.7074 0.863728 18.5305C0.683305 16.9579 0.851346 15.3649 1.35592 13.8646C1.41252 13.6966 1.50431 13.5425 1.62517 13.4128C1.74603 13.283 1.89316 13.1806 2.05677 13.1122C2.22037 13.0438 2.39667 13.0111 2.57391 13.0163C2.75115 13.0215 2.92525 13.0644 3.08459 13.1422ZM5.49084 26.2262C6.79432 27.1192 8.27626 27.7183 9.83412 27.9822C10.0094 28.0123 10.1892 28.0045 10.3612 27.9593C10.5332 27.9141 10.6936 27.8326 10.8315 27.7203C10.9695 27.608 11.0817 27.4674 11.1608 27.3081C11.2398 27.1487 11.2839 26.9743 11.2899 26.7965L11.5032 20.7361C11.5415 19.5712 10.1087 18.991 9.32607 19.8556L5.26771 24.3619C5.14887 24.4941 5.05965 24.6502 5.00604 24.8197C4.95242 24.9892 4.93564 25.1682 4.95681 25.3447C4.97799 25.5212 5.03664 25.6912 5.12884 25.8432C5.22103 25.9952 5.34464 26.1258 5.49138 26.2262H5.49084ZM13.4391 20.2149L16.6553 25.3555C16.7501 25.5065 16.876 25.6355 17.0246 25.7339C17.1731 25.8324 17.341 25.898 17.5169 25.9265C17.6929 25.9549 17.8729 25.9456 18.0449 25.899C18.217 25.8524 18.3771 25.7697 18.5147 25.6563C19.7336 24.6487 20.7174 23.3868 21.3972 21.9589C21.4722 21.7981 21.5122 21.6233 21.5148 21.446C21.5174 21.2686 21.4825 21.0928 21.4123 20.9299C21.3421 20.767 21.2383 20.6208 21.1076 20.5009C20.9769 20.3809 20.8223 20.29 20.654 20.234L14.8889 18.3605C13.7782 18.005 12.8212 19.2245 13.4391 20.2149ZM21.5509 12.9836C20.9206 11.5335 19.9795 10.2396 18.7941 9.19319C18.6607 9.0763 18.504 8.98913 18.3344 8.93749C18.1647 8.88585 17.986 8.87091 17.8101 8.89367C17.6342 8.91643 17.4652 8.97637 17.3143 9.0695C17.1633 9.16263 17.034 9.28682 16.9347 9.43382L13.5441 14.4607C12.8933 15.4287 13.8011 16.6816 14.9222 16.3589L20.7541 14.6904C20.925 14.6401 21.0833 14.554 21.2185 14.4379C21.3537 14.3219 21.4626 14.1784 21.5382 14.017C21.6137 13.8556 21.6541 13.6801 21.6567 13.5019C21.6593 13.3237 21.624 13.1471 21.5531 12.9836H21.5509ZM4.13513 1.65014C3.98022 1.7247 3.84236 1.83041 3.73015 1.96065C3.61794 2.0909 3.5338 2.2429 3.48299 2.40713C3.43217 2.57137 3.41578 2.74432 3.43484 2.91518C3.45389 3.08604 3.50798 3.25114 3.59373 3.40014L9.28779 13.268C9.92764 14.3726 11.618 13.9187 11.618 12.6445V1.25093C11.6196 1.07875 11.5852 0.908131 11.5172 0.749952C11.4492 0.591774 11.349 0.4495 11.2229 0.332198C11.0969 0.214895 10.9478 0.125135 10.7851 0.0686375C10.6224 0.01214 10.4498 -0.00985637 10.2782 0.00405011C8.14723 0.173391 6.06525 0.731279 4.13513 1.65014Z" fill="#333333"/>
</svg>
