<svg width="68" height="24" viewBox="0 0 68 24" fill="none" xmlns="http://www.w3.org/2000/svg">
<path d="M54.9547 14.0577L56.0561 13.8231C56.0979 13.8101 56.1258 13.8101 56.1676 13.7971C56.795 13.6407 57.1854 13.0413 57.032 12.4549L57.0181 12.4419C56.9762 12.3116 56.9205 12.1682 56.8368 12.064C56.7114 11.9207 56.558 11.8034 56.3907 11.6992C56.1816 11.5949 55.9725 11.5037 55.7494 11.4255L54.5504 11.0085C53.8812 10.774 53.1981 10.5525 52.515 10.3309C52.0689 10.1876 51.6924 10.0573 51.3718 9.95306C51.316 9.94003 51.2463 9.91397 51.1906 9.90094C50.8002 9.78366 50.5214 9.74457 50.2844 9.74457C50.131 9.74457 49.9777 9.77063 49.8243 9.82275C49.6709 9.8879 49.5315 9.97912 49.42 10.0834C49.3642 10.1355 49.3085 10.2006 49.2666 10.2658C49.1691 10.3961 49.0993 10.5525 49.0436 10.6958C48.8205 11.3082 48.709 11.9598 48.709 12.6113C48.709 13.1977 48.7369 13.9534 49.0854 14.4747C49.1691 14.605 49.2806 14.7222 49.4061 14.8004C49.657 14.9568 49.9079 14.9828 50.1589 14.9959C50.5353 15.0219 50.9117 14.9307 51.2881 14.8525L54.9547 14.0577ZM67.1953 8.61091C66.8886 8.02454 66.4982 7.49028 66.0103 7.02118C65.9406 6.96906 65.8848 6.90391 65.8011 6.86482C65.7314 6.8127 65.6617 6.7736 65.592 6.73451C65.5223 6.69542 65.4387 6.66936 65.369 6.63027C65.2156 6.57815 65.0483 6.55209 64.881 6.55209C64.7277 6.56512 64.5743 6.60421 64.4349 6.66936C64.2258 6.7736 64.0027 6.92997 63.696 7.19058C63.6542 7.22967 63.5984 7.26876 63.5566 7.30786C63.3056 7.52937 63.0268 7.80302 62.7062 8.11575C62.2043 8.59788 61.7024 9.08001 61.2005 9.56214L60.3082 10.4222C60.1409 10.5785 60.0015 10.7479 59.8621 10.9303C59.7506 11.0867 59.6669 11.2561 59.6251 11.4385C59.5972 11.5819 59.5972 11.7252 59.639 11.8555L59.653 11.8685C59.7924 12.468 60.4198 12.8458 61.0611 12.7286C61.1029 12.7155 61.1447 12.7155 61.1726 12.7025L65.9127 11.6731C66.2891 11.5949 66.6655 11.5167 67.0001 11.3343C67.2232 11.217 67.4462 11.0867 67.5856 10.8391C67.6693 10.7088 67.7111 10.5525 67.7251 10.4091C67.7948 9.82275 67.4602 9.14516 67.1953 8.61091ZM58.705 10.4743C59.0535 10.0703 59.0535 9.47093 59.0814 8.97577C59.179 7.33392 59.2905 5.69207 59.3742 4.03719C59.416 3.42475 59.4857 2.79929 59.4439 2.17382C59.402 1.6526 59.402 1.06623 59.0535 0.636218C58.4401 -0.106523 57.1156 -0.04137 56.2234 0.0628744C55.9446 0.101966 55.6657 0.141057 55.4009 0.20621C55.122 0.271363 54.8571 0.336515 54.5923 0.414699C53.7279 0.67531 52.515 1.15744 52.3059 2.08261C52.1943 2.61686 52.4592 3.15111 52.6823 3.62021C52.9332 4.20659 53.2957 4.72781 53.6164 5.27509C54.4528 6.73451 55.3172 8.16787 56.1816 9.60123C56.4465 10.0312 56.7253 10.5655 57.2132 10.787C57.2551 10.8 57.2829 10.8131 57.3108 10.8261C57.5339 10.9043 57.7848 10.9173 58.0079 10.8652L58.0497 10.8522C58.2588 10.8 58.454 10.6828 58.6074 10.5394C58.6492 10.5264 58.6771 10.5003 58.705 10.4743ZM58.2867 14.8786C58.0079 14.5137 57.5199 14.3574 57.0599 14.5007C57.0041 14.5137 56.9623 14.5398 56.9065 14.5528C56.8229 14.5919 56.7532 14.631 56.6974 14.6831C56.5022 14.8134 56.3349 14.9959 56.1816 15.1783C56.1398 15.2174 56.1119 15.2825 56.0561 15.3216L55.2893 16.2989C54.8571 16.8462 54.425 17.3935 54.0067 17.9538C53.7279 18.3187 53.4909 18.6184 53.2957 18.892C53.2539 18.9441 53.226 19.0093 53.1842 19.0484C52.9611 19.3741 52.8356 19.6087 52.7659 19.8172C52.7241 19.9605 52.6962 20.1169 52.7241 20.2602C52.7381 20.4166 52.7938 20.5599 52.8775 20.6902C52.9193 20.7554 52.9751 20.8205 53.0308 20.8857C53.1424 21.003 53.2678 21.1202 53.4212 21.2114C53.951 21.5502 54.5226 21.7978 55.136 21.9933C55.6379 22.1496 56.1676 22.2409 56.6974 22.2669C56.795 22.2669 56.8786 22.2669 56.9762 22.2669C57.0599 22.2539 57.1435 22.2539 57.2272 22.2278C57.3108 22.2148 57.3945 22.1887 57.4642 22.1627C57.7709 22.0584 58.0218 21.8369 58.1334 21.5502C58.217 21.3418 58.2728 21.0811 58.3146 20.6902C58.3146 20.6381 58.3286 20.573 58.3286 20.5078C58.3564 20.182 58.3704 19.8041 58.3983 19.3611C58.4401 18.6835 58.468 18.0059 58.4819 17.3153L58.5237 16.1035C58.5377 15.8168 58.5237 15.5171 58.4401 15.2304C58.4261 15.1132 58.3704 14.9959 58.2867 14.8786ZM66.9025 16.768C66.7492 16.5986 66.5122 16.4423 66.1636 16.2468C66.1079 16.2207 66.0521 16.1817 65.9963 16.1556C65.7036 15.9862 65.3411 15.8168 64.9228 15.6083C64.2815 15.2825 63.6402 14.9568 62.9989 14.6441L61.8557 14.0837C61.8 14.0707 61.7303 14.0316 61.6745 14.0056C61.4514 13.9013 61.2144 13.8231 60.9774 13.771C60.8938 13.758 60.8101 13.7449 60.7265 13.7449C60.6707 13.7449 60.6149 13.7449 60.5592 13.758C60.0852 13.8231 59.7227 14.1619 59.639 14.605C59.6251 14.7353 59.6251 14.8786 59.653 15.0089C59.7088 15.2956 59.8482 15.5692 59.9876 15.8168L60.601 16.8853C60.9356 17.4977 61.2841 18.0841 61.6327 18.6835C61.8557 19.0744 62.0509 19.4002 62.2321 19.6869C62.26 19.739 62.3019 19.7911 62.3297 19.8432C62.5389 20.182 62.7201 20.3905 62.9013 20.5339C63.0129 20.6381 63.1523 20.7163 63.2917 20.7684C63.445 20.8205 63.6123 20.8336 63.7796 20.8205C63.8633 20.8075 63.9469 20.7945 64.0306 20.7814C64.1142 20.7554 64.1979 20.7423 64.2676 20.7163C64.3512 20.6772 64.4349 20.6511 64.5046 20.612C64.9786 20.3645 65.3968 20.0648 65.7733 19.726C66.2333 19.309 66.6376 18.8529 66.9443 18.3187C66.9862 18.2405 67.028 18.1623 67.0559 18.0841C67.0838 18.0059 67.1116 17.9408 67.1395 17.8626C67.1535 17.7844 67.1674 17.7062 67.1813 17.628C67.1953 17.4717 67.1813 17.3153 67.1256 17.172C67.0977 17.0026 67.014 16.8723 66.9025 16.768Z" fill="#40464D"/>
<path fill-rule="evenodd" clip-rule="evenodd" d="M27.533 6.36964C27.533 5.48356 28.2998 4.76688 29.2339 4.76688C30.154 4.76688 30.8929 5.48357 30.9347 6.38267V18.879C30.9347 19.7651 30.1679 20.4817 29.2339 20.4817C28.2998 20.4817 27.533 19.7651 27.533 18.879V6.36964ZM25.9576 14.0837C25.9437 14.3313 25.874 14.7874 25.5394 15.1262C25.163 15.491 24.6611 15.5692 24.3683 15.5692C23.1554 15.5822 21.9425 15.5822 20.7296 15.5822C19.5167 15.5822 18.3038 15.5822 17.0909 15.5953C17.2024 15.908 17.4116 16.3771 17.8856 16.8071C18.1783 17.0677 18.4572 17.2111 18.5687 17.2762C18.7081 17.3674 19.2239 17.615 19.8374 17.615C20.4926 17.615 21.0781 17.4196 21.6497 17.1459L21.6916 17.1199C22.0959 16.9244 22.5002 16.7289 22.9324 16.6638C23.3506 16.5986 23.8107 16.6768 24.1452 16.9505C24.5495 17.2762 24.7029 17.7453 24.5496 18.2274C24.3823 18.7747 23.8943 19.2438 23.3645 19.5305C23.0718 19.6869 22.7511 19.8302 22.4305 19.9344C21.6079 20.2081 20.7436 20.3384 19.8792 20.3123C19.6701 20.3123 19.447 20.3123 19.2239 20.2863C18.9869 20.2602 18.7499 20.2211 18.5129 20.156C18.1505 20.0778 17.788 19.9735 17.4534 19.8172C17.1188 19.6738 16.7981 19.5044 16.4914 19.309C16.1847 19.1005 15.9059 18.879 15.641 18.6184C15.3761 18.3708 15.1531 18.0841 14.9439 17.7974C14.2329 16.7811 13.8983 15.5301 13.9541 14.3053C14.0099 13.1195 14.4281 11.9207 15.2088 10.9564C15.2925 10.8391 15.3761 10.7349 15.4737 10.6306C15.5155 10.5915 15.5574 10.5525 15.5852 10.5003C16.5333 9.41879 17.8019 9.08 18.3317 8.93666L18.3596 8.92363C19.4191 8.63696 20.5484 8.63696 21.6079 8.92363C21.8589 8.98878 23.2809 9.39273 24.3823 10.5003C24.438 10.5525 24.5774 10.7088 24.7726 10.9434C25.2466 11.5428 25.5952 12.2204 25.7903 12.937C25.8879 13.2628 25.9576 13.6277 25.9576 14.0837ZM18.1783 12.0379C17.6625 12.4419 17.2861 12.9892 17.1467 13.6016H22.9184C22.7651 12.9892 22.4026 12.4289 21.8728 12.0379C21.343 11.647 20.7017 11.4255 20.0186 11.4255C19.7816 11.4255 18.9591 11.4646 18.1783 12.0379ZM40.15 8.75423C38.6303 8.75423 37.2641 9.3797 36.2743 10.4091V10.3831C36.2185 8.28513 32.8307 8.36332 32.9004 10.4743V22.4103C32.9004 23.2833 33.6533 24 34.6013 24C35.5354 24 36.2882 23.2963 36.2882 22.4103V18.6835C37.2641 19.6999 38.6303 20.3514 40.15 20.3514C43.1752 20.3514 45.6429 17.7844 45.6429 14.5789C45.6429 11.3603 43.1752 8.75423 40.15 8.75423ZM39.3971 17.7323C37.6823 17.7323 36.2743 16.325 36.2743 14.5789C36.2743 12.8198 37.6684 11.4125 39.3971 11.4125C41.1259 11.4125 42.52 12.8198 42.52 14.5789C42.52 16.338 41.1259 17.7323 39.3971 17.7323ZM11.4447 15.3868L10.887 16.5335C10.6361 17.0286 10.3851 17.5368 10.1481 18.045C10.0645 18.2014 9.99475 18.3578 9.92504 18.5141C8.8655 20.7163 7.61077 23.3354 4.86432 23.8827C3.53989 24.1564 1.53233 23.7785 0.793439 22.6187C0.0545459 21.433 1.15591 20.0778 2.56399 20.3905C2.78706 20.4296 3.01012 20.5339 3.23318 20.6381C3.6096 20.8075 3.97207 20.9899 4.39031 20.9117C4.76673 20.8466 5.01768 20.586 5.31045 20.2602C5.6311 19.8954 5.8681 19.4784 5.99357 19.0223C5.97963 19.0093 5.97963 18.9963 5.97963 18.9832C5.96569 18.9702 5.96569 18.9572 5.95175 18.9441C5.60321 18.3447 5.31045 17.7974 5.0595 17.3544C4.8922 17.0677 4.75279 16.8071 4.62732 16.5986L4.05572 15.5822C3.63748 14.8265 3.56777 14.7092 3.37259 14.3834C2.96829 13.6537 2.53611 12.937 2.07605 12.2334C1.5881 11.4646 1.08621 10.6046 1.49051 9.69243C1.81116 8.96272 2.67553 8.58484 3.47018 8.83242C4.32061 9.06697 4.69703 9.83577 5.0595 10.5394C5.11527 10.6697 5.18497 10.8 5.25468 10.9173C5.82628 11.9728 6.38393 13.0283 6.94159 14.0837C6.98341 14.188 7.06706 14.3313 7.16465 14.5007C7.2483 14.6571 7.34589 14.8395 7.44348 15.035C7.49924 15.1392 7.54107 15.2304 7.59683 15.3216C7.6526 15.4259 7.70836 15.5301 7.73625 15.6083C8.00113 15.0089 8.25208 14.4095 8.51696 13.8101C8.78185 13.2107 9.04673 12.6113 9.29768 12.0119C9.29768 11.9728 9.36739 11.8555 9.45104 11.66C9.59045 11.3734 9.72986 11.0867 9.85533 10.8C10.2039 10.0182 10.6082 9.08 11.5283 8.81939C12.1975 8.63696 12.9085 8.87151 13.3128 9.40576C13.5219 9.66637 13.5916 9.96608 13.6056 10.2658C13.6195 10.9303 13.271 11.634 12.9782 12.2334C12.9085 12.3767 12.8388 12.5201 12.783 12.6634L12.7412 12.7416C12.6576 12.911 12.4345 13.3671 12.0581 14.1359C11.9187 14.4095 11.7932 14.6831 11.6538 14.9568C11.598 15.0871 11.5144 15.2434 11.4447 15.3868Z" fill="#40464D"/>
</svg>
