<svg width="85" height="34" viewBox="0 0 85 34" fill="none" xmlns="http://www.w3.org/2000/svg">
<path d="M68.8303 19.915L70.2238 19.5828C70.2767 19.5643 70.312 19.5643 70.3649 19.5458C71.1587 19.3243 71.6526 18.4752 71.4586 17.6445L71.4409 17.626C71.388 17.4414 71.3175 17.2384 71.2116 17.0907C71.0529 16.8876 70.8588 16.7215 70.6472 16.5738C70.3826 16.4261 70.118 16.2969 69.8357 16.1861L68.3187 15.5954C67.472 15.2631 66.6076 14.9493 65.7433 14.6355C65.1788 14.4324 64.7025 14.2478 64.2968 14.1002C64.2263 14.0817 64.1381 14.0448 64.0675 14.0263C63.5736 13.8602 63.2208 13.8048 62.9209 13.8048C62.7269 13.8048 62.5328 13.8417 62.3388 13.9156C62.1448 14.0079 61.9684 14.1371 61.8272 14.2848C61.7567 14.3586 61.6861 14.4509 61.6332 14.5432C61.5097 14.7278 61.4215 14.9493 61.351 15.1524C61.0687 16.02 60.9276 16.943 60.9276 17.866C60.9276 18.6967 60.9629 19.7674 61.4039 20.5058C61.5097 20.6904 61.6508 20.8565 61.8096 20.9673C62.1271 21.1888 62.4446 21.2257 62.7622 21.2442C63.2384 21.2811 63.7147 21.1519 64.191 21.0411L68.8303 19.915ZM84.318 12.1988C83.9299 11.3681 83.436 10.6112 82.8186 9.94668C82.7304 9.87284 82.6599 9.78054 82.554 9.72516C82.4658 9.65132 82.3776 9.59594 82.2894 9.54056C82.2012 9.48518 82.0954 9.44826 82.0072 9.39288C81.8132 9.31904 81.6015 9.28212 81.3898 9.28212C81.1958 9.30058 81.0017 9.35596 80.8253 9.44826C80.5607 9.59594 80.2785 9.81746 79.8904 10.1867C79.8375 10.242 79.7669 10.2974 79.714 10.3528C79.3965 10.6666 79.0437 11.0543 78.638 11.4973C78.003 12.1803 77.3679 12.8633 76.7329 13.5464L75.6039 14.7647C75.3923 14.9862 75.2159 15.2262 75.0395 15.4847C74.8984 15.7062 74.7925 15.9462 74.7396 16.2046C74.7043 16.4077 74.7043 16.6107 74.7572 16.7953L74.7749 16.8138C74.9513 17.6629 75.7451 18.1983 76.5565 18.0321C76.6094 18.0137 76.6623 18.0137 76.6976 17.9952L82.6952 16.5369C83.1714 16.4261 83.6477 16.3154 84.0711 16.0569C84.3533 15.8908 84.6355 15.7062 84.8119 15.3554C84.9178 15.1708 84.9707 14.9493 84.9883 14.7463C85.0765 13.9156 84.6532 12.9556 84.318 12.1988ZM73.5754 14.8386C74.0164 14.2663 74.0164 13.4171 74.0516 12.7157C74.1751 10.3897 74.3162 8.06376 74.4221 5.71935C74.475 4.85174 74.5632 3.96566 74.5103 3.07958C74.4574 2.34118 74.4574 1.51049 74.0164 0.901308C73.2402 -0.150908 71.5644 -0.0586075 70.4355 0.089072C70.0827 0.144452 69.7299 0.199831 69.3947 0.292131C69.0419 0.384431 68.7068 0.47673 68.3716 0.58749C67.278 0.956689 65.7433 1.63971 65.4787 2.95036C65.3376 3.70722 65.6727 4.46408 65.955 5.12864C66.2725 5.95933 66.7311 6.69773 67.1368 7.47305C68.1952 9.54056 69.2889 11.5712 70.3826 13.6017C70.7177 14.2109 71.0705 14.9678 71.6879 15.2816C71.7408 15.3001 71.7761 15.3185 71.8114 15.337C72.0936 15.4477 72.4111 15.4662 72.6934 15.3924L72.7463 15.3739C73.0109 15.3001 73.2579 15.1339 73.4519 14.9309C73.5048 14.9124 73.5401 14.8755 73.5754 14.8386ZM73.0462 21.078C72.6934 20.5611 72.076 20.3396 71.4939 20.5427C71.4233 20.5611 71.3704 20.5981 71.2998 20.6165C71.194 20.6719 71.1058 20.7273 71.0352 20.8011C70.7883 20.9857 70.5766 21.2442 70.3826 21.5026C70.3296 21.558 70.2944 21.6503 70.2238 21.7057L69.2536 23.0902C68.7068 23.8655 68.1599 24.6408 67.6307 25.4346C67.2779 25.9514 66.9781 26.376 66.7311 26.7637C66.6782 26.8375 66.6429 26.9298 66.59 26.9852C66.3078 27.4467 66.149 27.779 66.0608 28.0743C66.0079 28.2774 65.9726 28.4989 66.0079 28.702C66.0255 28.9235 66.0961 29.1266 66.2019 29.3112C66.2548 29.4035 66.3254 29.4958 66.396 29.5881C66.5371 29.7542 66.6958 29.9203 66.8899 30.0495C67.5602 30.5295 68.2834 30.8802 69.0596 31.1571C69.6946 31.3787 70.3649 31.5079 71.0352 31.5448C71.1587 31.5448 71.2646 31.5448 71.388 31.5448C71.4939 31.5263 71.5997 31.5263 71.7055 31.4894C71.8114 31.471 71.9172 31.434 72.0054 31.3971C72.3935 31.2494 72.711 30.9356 72.8521 30.5295C72.958 30.2342 73.0285 29.865 73.0815 29.3112C73.0815 29.2373 73.0991 29.145 73.0991 29.0527C73.1344 28.5912 73.152 28.0559 73.1873 27.4282C73.2402 26.4683 73.2755 25.5084 73.2931 24.53L73.346 22.8133C73.3637 22.4071 73.3461 21.9826 73.2402 21.5764C73.2226 21.4103 73.152 21.2442 73.0462 21.078ZM83.9476 23.7547C83.7536 23.5147 83.4537 23.2932 83.0127 23.0163C82.9421 22.9794 82.8716 22.924 82.801 22.8871C82.4306 22.6471 81.9719 22.4071 81.4427 22.1118C80.6313 21.6503 79.8199 21.1888 79.0084 20.7457L77.562 19.952C77.4914 19.9335 77.4032 19.8781 77.3327 19.8412C77.0504 19.6935 76.7505 19.5828 76.4507 19.5089C76.3448 19.4905 76.239 19.472 76.1331 19.472C76.0626 19.472 75.992 19.472 75.9215 19.4905C75.3217 19.5828 74.8631 20.0627 74.7572 20.6904C74.7396 20.875 74.7396 21.078 74.7749 21.2626C74.8454 21.6687 75.0218 22.0564 75.1982 22.4071L75.9744 23.9208C76.3977 24.7885 76.8387 25.6192 77.2797 26.4683C77.562 27.0221 77.8089 27.4836 78.0382 27.8897C78.0735 27.9636 78.1264 28.0374 78.1617 28.1113C78.4263 28.5912 78.6556 28.8866 78.885 29.0896C79.0261 29.2373 79.2025 29.3481 79.3789 29.4219C79.5729 29.4958 79.7846 29.5142 79.9963 29.4958C80.1021 29.4773 80.2079 29.4588 80.3138 29.4404C80.4196 29.4034 80.5255 29.385 80.6137 29.3481C80.7195 29.2927 80.8253 29.2558 80.9135 29.2004C81.5133 28.8497 82.0425 28.4251 82.5188 27.9451C83.1009 27.3544 83.6124 26.7083 84.0005 25.9514C84.0534 25.8407 84.1063 25.7299 84.1416 25.6192C84.1769 25.5084 84.2122 25.4161 84.2475 25.3053C84.2651 25.1946 84.2827 25.0838 84.3004 24.9731C84.318 24.7515 84.3004 24.53 84.2298 24.327C84.1945 24.087 84.0887 23.9024 83.9476 23.7547Z" fill="#40464D"/>
<path fill-rule="evenodd" clip-rule="evenodd" d="M34.1327 9.02372C34.1327 7.76844 35.1029 6.75314 36.2848 6.75314C37.449 6.75314 38.3839 7.76844 38.4369 9.04218V26.7453C38.4369 28.0005 37.4667 29.0158 36.2848 29.0158C35.1029 29.0158 34.1327 28.0005 34.1327 26.7453V9.02372ZM32.1395 19.952C32.1218 20.3027 32.0336 20.9488 31.6103 21.4288C31.134 21.9457 30.499 22.0564 30.1285 22.0564C28.5939 22.0749 27.0592 22.0749 25.5245 22.0749C23.9899 22.0749 22.4552 22.0749 20.9205 22.0934C21.0617 22.5364 21.3263 23.201 21.926 23.8101C22.2964 24.1793 22.6492 24.3824 22.7904 24.4747C22.9668 24.6039 23.6194 24.9547 24.3956 24.9547C25.2247 24.9547 25.9655 24.6778 26.6888 24.2901L26.7417 24.2532C27.2532 23.9763 27.7648 23.6994 28.3116 23.6071C28.8408 23.5148 29.4229 23.6255 29.8463 24.0132C30.3578 24.4747 30.5519 25.1393 30.3578 25.8223C30.1462 26.5976 29.5288 27.2622 28.8584 27.6683C28.488 27.8898 28.0823 28.0928 27.6766 28.2405C26.6358 28.6282 25.5422 28.8128 24.4485 28.7759C24.1839 28.7759 23.9017 28.7759 23.6194 28.7389C23.3196 28.702 23.0197 28.6466 22.7198 28.5543C22.2612 28.4436 21.8025 28.2959 21.3792 28.0744C20.9558 27.8713 20.5501 27.6314 20.162 27.3545C19.774 27.0591 19.4212 26.7453 19.086 26.3761C18.7508 26.0253 18.4686 25.6192 18.204 25.2131C17.3044 23.7732 16.881 22.0011 16.9516 20.2658C17.0221 18.586 17.5513 16.8877 18.5392 15.5216C18.645 15.3555 18.7508 15.2078 18.8743 15.0601C18.9272 15.0047 18.9802 14.9494 19.0154 14.8755C20.2149 13.3433 21.8202 12.8634 22.4905 12.6603L22.5258 12.6419C23.8664 12.2358 25.2952 12.2358 26.6358 12.6419C26.9534 12.7342 28.7526 13.3064 30.1462 14.8755C30.2167 14.9494 30.3931 15.1709 30.6401 15.5032C31.2398 16.3523 31.6808 17.3122 31.9278 18.3275C32.0513 18.789 32.1395 19.3059 32.1395 19.952ZM22.2964 17.0538C21.6438 17.6261 21.1675 18.4014 20.9911 19.269H28.294C28.0999 18.4014 27.6413 17.6076 26.971 17.0538C26.3007 16.5 25.4892 16.1862 24.6249 16.1862C24.325 16.1862 23.2843 16.2416 22.2964 17.0538ZM50.0968 12.4019C48.174 12.4019 46.4453 13.288 45.1929 14.7463V14.7094C45.1223 11.7373 40.8359 11.8481 40.9241 14.8386V31.7479C40.9241 32.9847 41.8766 34 43.0761 34C44.258 34 45.2105 33.0032 45.2105 31.7479V26.4684C46.4453 27.9082 48.174 28.8312 50.0968 28.8312C53.9246 28.8312 57.0468 25.1946 57.0468 20.6535C57.0468 16.0939 53.9246 12.4019 50.0968 12.4019ZM49.1442 25.1208C46.9745 25.1208 45.1929 23.1271 45.1929 20.6535C45.1929 18.1614 46.9569 16.1677 49.1442 16.1677C51.3316 16.1677 53.0955 18.1614 53.0955 20.6535C53.0955 23.1456 51.3316 25.1208 49.1442 25.1208ZM13.7764 21.798L13.0708 23.4225C12.7533 24.124 12.4358 24.8439 12.1359 25.5638C12.0301 25.7854 11.9419 26.0069 11.8537 26.2284C10.5131 29.3481 8.92548 33.0586 5.45044 33.8339C3.77466 34.2216 1.23453 33.6862 0.299617 32.0433C-0.635292 30.3634 0.758252 28.4436 2.53987 28.8866C2.82211 28.942 3.10434 29.0897 3.38658 29.2374C3.86286 29.4773 4.32149 29.7358 4.85068 29.625C5.32696 29.5327 5.64447 29.1635 6.01491 28.702C6.42063 28.1851 6.7205 27.5944 6.87926 26.9483C6.86162 26.9299 6.86162 26.9114 6.86162 26.893C6.84398 26.8745 6.84398 26.856 6.82634 26.8376C6.38535 25.9884 6.01491 25.2131 5.6974 24.5855C5.48572 24.1793 5.30932 23.8101 5.15056 23.5148L4.42733 22.0749C3.89814 21.0042 3.80994 20.8381 3.56298 20.3766C3.05142 19.3428 2.50459 18.3275 1.92248 17.3307C1.30509 16.2416 0.670053 15.0232 1.18161 13.731C1.58732 12.6972 2.68099 12.1619 3.68646 12.5127C4.76249 12.8449 5.23876 13.9341 5.6974 14.9309C5.76795 15.1155 5.85615 15.3001 5.94435 15.4662C6.66758 16.9615 7.37318 18.4568 8.07877 19.952C8.13169 20.0997 8.23753 20.3028 8.361 20.5427C8.46684 20.7642 8.59032 21.0227 8.7138 21.2996C8.78436 21.4473 8.83728 21.5765 8.90784 21.7057C8.9784 21.8534 9.04896 22.0011 9.08424 22.1118C9.41939 21.2627 9.73691 20.4135 10.0721 19.5644C10.4072 18.7152 10.7424 17.866 11.0599 17.0169C11.0599 16.9615 11.1481 16.7954 11.2539 16.5185C11.4303 16.1123 11.6067 15.7062 11.7655 15.3001C12.2065 14.1925 12.718 12.8634 13.8823 12.4942C14.729 12.2358 15.6286 12.568 16.1402 13.3249C16.4048 13.6941 16.493 14.1187 16.5106 14.5432C16.5282 15.4847 16.0872 16.4815 15.7168 17.3307C15.6286 17.5338 15.5404 17.7368 15.4698 17.9399L15.4169 18.0506C15.3111 18.2906 15.0288 18.9367 14.5526 20.0259C14.3762 20.4135 14.2174 20.8012 14.041 21.1888C13.9705 21.3734 13.8646 21.5949 13.7764 21.798Z" fill="#40464D"/>
</svg>
