<svg width="59" height="21" viewBox="0 0 59 21" fill="none" xmlns="http://www.w3.org/2000/svg">
<path d="M47.5992 12.3005L48.5629 12.0952C48.5995 12.0838 48.6239 12.0838 48.6605 12.0724C49.2094 11.9356 49.551 11.4111 49.4168 10.8981L49.4046 10.8867C49.368 10.7726 49.3192 10.6472 49.246 10.556C49.1362 10.4306 49.002 10.328 48.8557 10.2368C48.6727 10.1455 48.4897 10.0657 48.2945 9.99732L47.2454 9.63246C46.6599 9.42723 46.0621 9.2334 45.4644 9.03957C45.0741 8.91416 44.7447 8.80014 44.4641 8.70892C44.4153 8.69752 44.3543 8.67472 44.3055 8.66332C43.964 8.5607 43.72 8.5265 43.5126 8.5265C43.3784 8.5265 43.2442 8.5493 43.1101 8.59491C42.9759 8.65192 42.8539 8.73173 42.7563 8.82294C42.7075 8.86855 42.6587 8.92556 42.6221 8.98257C42.5367 9.09658 42.4757 9.2334 42.4269 9.35882C42.2317 9.8947 42.1342 10.4648 42.1342 11.0349C42.1342 11.548 42.1586 12.2093 42.4635 12.6653C42.5367 12.7793 42.6343 12.882 42.7441 12.9504C42.9637 13.0872 43.1832 13.11 43.4028 13.1214C43.7322 13.1442 44.0616 13.0644 44.3909 12.996L47.5992 12.3005ZM58.3097 7.53455C58.0413 7.02147 57.6997 6.554 57.2728 6.14354C57.2118 6.09793 57.163 6.04092 57.0898 6.00672C57.0288 5.96111 56.9678 5.9269 56.9068 5.8927C56.8458 5.85849 56.7726 5.83569 56.7116 5.80148C56.5775 5.75588 56.4311 5.73307 56.2847 5.73307C56.1505 5.74448 56.0163 5.77868 55.8943 5.83569C55.7113 5.9269 55.5162 6.06372 55.2478 6.29176C55.2112 6.32596 55.1624 6.36017 55.1258 6.39437C54.9062 6.5882 54.6622 6.82764 54.3817 7.10128C53.9425 7.52315 53.5034 7.94501 53.0642 8.36687L52.2835 9.11939C52.1371 9.25621 52.0151 9.40443 51.8931 9.56405C51.7955 9.70087 51.7224 9.8491 51.6858 10.0087C51.6614 10.1341 51.6614 10.2596 51.698 10.3736L51.7102 10.385C51.8321 10.9095 52.3811 11.2401 52.9422 11.1375C52.9788 11.1261 53.0154 11.1261 53.0398 11.1147L57.1874 10.214C57.5167 10.1455 57.8461 10.0771 58.1389 9.91751C58.3341 9.81489 58.5292 9.70087 58.6512 9.48424C58.7244 9.37022 58.761 9.2334 58.7732 9.10798C58.8342 8.59491 58.5414 8.00202 58.3097 7.53455ZM50.8806 9.16499C51.1856 8.81154 51.1856 8.28706 51.21 7.85379C51.2954 6.41718 51.393 4.98056 51.4662 3.53254C51.5028 2.99666 51.5638 2.44938 51.5272 1.90209C51.4906 1.44603 51.4906 0.932947 51.1856 0.55669C50.6489 -0.093208 49.49 -0.0361987 48.7093 0.0550151C48.4653 0.0892202 48.2213 0.123425 47.9895 0.180434C47.7456 0.237443 47.5138 0.294451 47.282 0.362861C46.5257 0.590896 45.4644 1.01276 45.2814 1.82228C45.1838 2.28975 45.4156 2.75722 45.6108 3.16769C45.8304 3.68076 46.1475 4.13683 46.4281 4.61571C47.16 5.8927 47.9164 7.14689 48.6727 8.40108C48.9044 8.77733 49.1484 9.24481 49.5754 9.43863C49.612 9.45004 49.6364 9.46144 49.6608 9.47284C49.856 9.54125 50.0755 9.55265 50.2707 9.50704L50.3073 9.49564C50.4903 9.45004 50.6611 9.34742 50.7953 9.222C50.8318 9.2106 50.8562 9.1878 50.8806 9.16499ZM50.5147 13.0188C50.2707 12.6995 49.8438 12.5627 49.4412 12.6881C49.3924 12.6995 49.3558 12.7223 49.307 12.7337C49.2338 12.7679 49.1728 12.8021 49.124 12.8478C48.9532 12.9618 48.8069 13.1214 48.6727 13.281C48.6361 13.3152 48.6117 13.3722 48.5629 13.4064L47.892 14.2616C47.5138 14.7404 47.1356 15.2193 46.7697 15.7096C46.5257 16.0288 46.3183 16.2911 46.1475 16.5305C46.1109 16.5761 46.0865 16.6331 46.0499 16.6673C45.8548 16.9524 45.745 17.1576 45.684 17.34C45.6474 17.4654 45.623 17.6023 45.6474 17.7277C45.6596 17.8645 45.7084 17.9899 45.7816 18.1039C45.8182 18.161 45.867 18.218 45.9158 18.275C46.0134 18.3776 46.1231 18.4802 46.2573 18.56C46.7209 18.8565 47.221 19.0731 47.7578 19.2441C48.1969 19.3809 48.6605 19.4608 49.124 19.4836C49.2094 19.4836 49.2826 19.4836 49.368 19.4836C49.4412 19.4722 49.5144 19.4722 49.5876 19.4493C49.6608 19.4379 49.734 19.4151 49.795 19.3923C50.0633 19.3011 50.2829 19.1073 50.3805 18.8565C50.4537 18.674 50.5025 18.446 50.5391 18.1039C50.5391 18.0583 50.5513 18.0013 50.5513 17.9443C50.5757 17.6593 50.5879 17.3286 50.6123 16.941C50.6489 16.3481 50.6733 15.7552 50.6855 15.1509L50.7221 14.0905C50.7343 13.8397 50.7221 13.5775 50.6489 13.3266C50.6367 13.224 50.5879 13.1214 50.5147 13.0188ZM58.0535 14.672C57.9193 14.5238 57.7119 14.387 57.407 14.216C57.3582 14.1932 57.3094 14.1589 57.2606 14.1361C57.0044 13.9879 56.6872 13.8397 56.3213 13.6573C55.7601 13.3722 55.199 13.0872 54.6378 12.8135L53.6376 12.3233C53.5888 12.3119 53.5278 12.2777 53.479 12.2549C53.2838 12.1636 53.0764 12.0952 52.869 12.0496C52.7958 12.0382 52.7227 12.0268 52.6495 12.0268C52.6007 12.0268 52.5519 12.0268 52.5031 12.0382C52.0883 12.0952 51.7711 12.3917 51.698 12.7793C51.6858 12.8934 51.6858 13.0188 51.7102 13.1328C51.759 13.3836 51.8809 13.6231 52.0029 13.8397L52.5397 14.7746C52.8324 15.3105 53.1374 15.8236 53.4424 16.3481C53.6376 16.6901 53.8083 16.9752 53.9669 17.226C53.9913 17.2716 54.0279 17.3172 54.0523 17.3628C54.2353 17.6593 54.3939 17.8417 54.5525 17.9671C54.6501 18.0583 54.772 18.1268 54.894 18.1724C55.0282 18.218 55.1746 18.2294 55.321 18.218C55.3942 18.2066 55.4674 18.1952 55.5406 18.1838C55.6137 18.161 55.6869 18.1496 55.7479 18.1267C55.8211 18.0925 55.8943 18.0697 55.9553 18.0355C56.3701 17.8189 56.736 17.5567 57.0654 17.2602C57.468 16.8954 57.8217 16.4963 58.0901 16.0288C58.1267 15.9604 58.1633 15.892 58.1877 15.8236C58.2121 15.7552 58.2365 15.6982 58.2609 15.6298C58.2731 15.5614 58.2853 15.493 58.2975 15.4245C58.3097 15.2877 58.2975 15.1509 58.2487 15.0255C58.2243 14.8773 58.1511 14.7632 58.0535 14.672Z" fill="#40464D"/>
<path fill-rule="evenodd" clip-rule="evenodd" d="M23.6043 5.57346C23.6043 4.79815 24.2752 4.17105 25.0926 4.17105C25.8977 4.17105 26.5442 4.79815 26.5808 5.58487V16.5191C26.5808 17.2944 25.9099 17.9215 25.0926 17.9215C24.2752 17.9215 23.6043 17.2944 23.6043 16.5191V5.57346ZM22.2259 12.3233C22.2137 12.5399 22.1527 12.939 21.8599 13.2354C21.5305 13.5547 21.0914 13.6231 20.8352 13.6231C19.7739 13.6345 18.7126 13.6345 17.6513 13.6345C16.5901 13.6345 15.5288 13.6345 14.4675 13.6459C14.5651 13.9195 14.7481 14.33 15.1628 14.7063C15.419 14.9343 15.663 15.0597 15.7605 15.1167C15.8825 15.1965 16.3339 15.4132 16.8706 15.4132C17.444 15.4132 17.9563 15.2421 18.4565 15.0027L18.4931 14.9799C18.8468 14.8089 19.2006 14.6378 19.5787 14.5808C19.9447 14.5238 20.3473 14.5922 20.64 14.8317C20.9938 15.1167 21.128 15.5272 20.9938 15.949C20.8474 16.4279 20.4205 16.8384 19.9569 17.0892C19.7007 17.226 19.4202 17.3515 19.1396 17.4427C18.4199 17.6821 17.6635 17.7961 16.9072 17.7733C16.7242 17.7733 16.5291 17.7733 16.3339 17.7505C16.1265 17.7277 15.9191 17.6935 15.7118 17.6365C15.3946 17.5681 15.0774 17.4769 14.7847 17.3401C14.4919 17.2146 14.2113 17.0664 13.9429 16.8954C13.6746 16.713 13.4306 16.5191 13.1988 16.2911C12.967 16.0745 12.7719 15.8236 12.5889 15.5728C11.9668 14.6835 11.674 13.5889 11.7228 12.5171C11.7716 11.4796 12.1375 10.4306 12.8207 9.58688C12.8939 9.48426 12.967 9.39305 13.0524 9.30183C13.089 9.26763 13.1256 9.23342 13.15 9.18781C13.9795 8.24147 15.0896 7.94503 15.5532 7.81961L15.5776 7.80821C16.5047 7.55737 17.4928 7.55737 18.4199 7.80821C18.6394 7.86521 19.8837 8.21867 20.8474 9.18781C20.8962 9.23342 21.0182 9.37024 21.189 9.57547C21.6037 10.1 21.9087 10.6928 22.0795 11.3199C22.1649 11.605 22.2259 11.9242 22.2259 12.3233ZM15.419 10.5332C14.9676 10.8867 14.6383 11.3655 14.5163 11.9014H19.5665C19.4324 11.3655 19.1152 10.8753 18.6516 10.5332C18.1881 10.1912 17.627 9.99734 17.0292 9.99734C16.8218 9.99734 16.1021 10.0315 15.419 10.5332ZM34.6441 7.65998C33.3145 7.65998 32.119 8.20727 31.2529 9.108V9.0852C31.2041 7.24952 28.2398 7.31793 28.3008 9.16501V19.609C28.3008 20.3729 28.9596 21 29.7891 21C30.6064 21 31.2651 20.3843 31.2651 19.609V16.3481C32.119 17.2374 33.3145 17.8075 34.6441 17.8075C37.2913 17.8075 39.4504 15.5614 39.4504 12.7566C39.4504 9.94033 37.2913 7.65998 34.6441 7.65998ZM33.9854 15.5158C32.485 15.5158 31.2529 14.2844 31.2529 12.7566C31.2529 11.2173 32.4728 9.98594 33.9854 9.98594C35.4981 9.98594 36.7179 11.2173 36.7179 12.7566C36.7179 14.2958 35.4981 15.5158 33.9854 15.5158ZM9.52701 13.4635L9.03906 14.4668C8.81949 14.9001 8.59991 15.3448 8.39253 15.7894C8.31934 15.9262 8.25834 16.0631 8.19735 16.1999C7.27025 18.1268 6.17237 20.4185 3.76922 20.8974C2.61034 21.1368 0.85373 20.8062 0.207199 19.7914C-0.439333 18.7539 0.524365 17.5681 1.75643 17.8417C1.95161 17.8759 2.14679 17.9672 2.34197 18.0584C2.67134 18.2066 2.9885 18.3662 3.35446 18.2978C3.68383 18.2408 3.90341 18.0128 4.15958 17.7277C4.44015 17.4085 4.64753 17.0436 4.75732 16.6446C4.74512 16.6331 4.74512 16.6217 4.74512 16.6103C4.73292 16.5989 4.73292 16.5875 4.72072 16.5761C4.41575 16.0517 4.15958 15.5728 3.94 15.1851C3.79362 14.9343 3.67163 14.7063 3.56184 14.5238L3.0617 13.6345C2.69573 12.9732 2.63474 12.8706 2.46396 12.5855C2.1102 11.947 1.73204 11.3199 1.32948 10.7042C0.902525 10.0315 0.463371 9.27903 0.817134 8.48091C1.0977 7.84241 1.85402 7.51176 2.54935 7.72839C3.29347 7.93362 3.62284 8.60633 3.94 9.22202C3.9888 9.33604 4.04979 9.45006 4.11078 9.55267C4.61093 10.4762 5.09888 11.3998 5.58683 12.3233C5.62342 12.4145 5.69662 12.5399 5.78201 12.6881C5.8552 12.825 5.94059 12.9846 6.02598 13.1556C6.07478 13.2468 6.11137 13.3266 6.16017 13.4065C6.20896 13.4977 6.25776 13.5889 6.28215 13.6573C6.51393 13.1328 6.73351 12.6083 6.96528 12.0839C7.19706 11.5594 7.42883 11.0349 7.64841 10.5104C7.64841 10.4762 7.7094 10.3736 7.7826 10.2026C7.90458 9.95173 8.02657 9.70089 8.13636 9.45005C8.44132 8.76595 8.79509 7.94503 9.6002 7.71699C10.1857 7.55737 10.8079 7.7626 11.1616 8.23007C11.3446 8.4581 11.4056 8.72035 11.4178 8.98258C11.43 9.56407 11.125 10.1798 10.8689 10.7042C10.8079 10.8297 10.7469 10.9551 10.6981 11.0805L10.6615 11.1489C10.5883 11.2971 10.3931 11.6962 10.0638 12.3689C9.94177 12.6083 9.83198 12.8478 9.70999 13.0872C9.6612 13.2012 9.588 13.338 9.52701 13.4635Z" fill="#40464D"/>
</svg>
