<svg max-width="257"
                    width="55%"
                    max-height="44"
                    height="100%" viewBox="0 0 257 44" fill="none" xmlns="http://www.w3.org/2000/svg">
<g clip-path="url(#clip0_124_3062)">
<path fill-rule="evenodd" clip-rule="evenodd" d="M193.262 17.2405C196.756 17.2405 199.573 14.4505 199.573 10.9575C199.573 7.3785 196.756 4.5885 193.262 4.5885C189.713 4.5885 186.896 7.3785 186.896 10.9575C186.896 14.4505 189.713 17.2405 193.262 17.2405Z" fill="white"/>
<path fill-rule="evenodd" clip-rule="evenodd" d="M205.737 36.2008V8.47781C205.737 6.84381 206.639 5.93981 208.272 5.93981H214.246C215.879 5.93981 216.781 6.84381 216.781 8.47781V10.7598C218.614 7.68781 222.107 4.58881 227.319 4.58881C236.842 4.58881 239.377 11.0698 239.377 21.7188V36.2008C239.377 38.4538 237.856 39.7498 235.995 39.7498H231.15C229.29 39.7498 228.333 38.4538 228.333 36.2008V21.6608C228.333 16.0848 226.812 13.7738 223.036 13.7738C219.091 13.7738 216.781 17.9428 216.781 20.8748V36.2008C216.781 38.4538 215.824 39.7498 213.963 39.7498H208.836C206.978 39.7498 205.737 38.4538 205.737 36.2008Z" fill="white"/>
<path fill-rule="evenodd" clip-rule="evenodd" d="M247.629 20.7048L246.697 19.8588C245.826 19.0688 245.769 18.5348 247.065 17.1838L249.432 14.7308C246.895 14.2818 245.092 12.1118 245.092 9.77379C245.092 6.47679 247.826 3.96979 250.953 3.96979C254.192 3.96979 256.757 6.55979 256.757 9.77379C256.757 11.7448 255.826 13.4078 255.179 14.2238C253.178 16.7318 252.022 18.1398 250.136 20.0278C249.008 21.1548 248.191 21.2118 247.629 20.7048Z" fill="white"/>
<path fill-rule="evenodd" clip-rule="evenodd" d="M16.7312 12.6937C18.8792 12.6937 20.5502 14.3907 20.5502 16.8037C20.5502 19.1917 18.8792 20.8887 16.7312 20.8887C14.5822 20.8887 12.8851 19.1917 12.8851 16.8037C12.8851 14.3907 14.5822 12.6937 16.7312 12.6937ZM30.3062 17.2247V16.0727C30.3062 9.61571 27.5291 4.68671 20.1651 4.68671C15.7771 4.68671 13.0281 6.89671 11.4991 9.52971V8.31271C11.4991 6.67071 10.5932 5.76171 8.95116 5.76171H2.94615C1.30415 5.76171 0.397156 6.67071 0.397156 8.31271L0.397156 36.1817C0.397156 38.4467 1.35916 39.7497 3.22916 39.7497H8.66716C10.5372 39.7497 11.4991 38.4467 11.4991 36.1817L11.4991 26.3067L13.1051 29.0147L18.2122 38.1627C18.8352 39.2867 19.7412 39.7497 20.9892 39.7497H28.2952C30.2222 39.7497 30.8732 38.5587 29.7682 36.7737L24.3042 27.9557C28.5962 26.4137 30.3062 22.2897 30.3062 17.2247Z" fill="white"/>
<path fill-rule="evenodd" clip-rule="evenodd" d="M196.356 19.845H190.113C187.991 19.845 186.896 21.141 186.896 23.394V26.145V26.74V30.13V31.759V36.201C186.896 38.454 187.991 39.75 190.113 39.75H196.356C198.478 39.75 199.573 38.454 199.573 36.201V31.759V30.13V26.74V26.145V23.394C199.573 21.141 198.478 19.845 196.356 19.845Z" fill="white"/>
<path fill-rule="evenodd" clip-rule="evenodd" d="M178.478 4.58881L172.449 4.58881C170.814 4.58881 169.912 5.49081 169.912 7.12381V17.2408V19.5018V23.4448V25.6648V36.2008C169.912 38.4538 171.153 39.7498 173.011 39.7498H178.196C180.056 39.7498 181.013 38.4538 181.013 36.2008V25.6648V23.4448V19.5018V17.2408V7.12381C181.013 5.49081 180.111 4.58881 178.478 4.58881Z" fill="white"/>
<path fill-rule="evenodd" clip-rule="evenodd" d="M161.495 4.58887L155.466 4.58887C153.831 4.58887 152.929 5.49087 152.929 7.12387V17.2409V19.5009V23.4449V25.6649V36.2009C152.929 38.4539 154.17 39.7499 156.028 39.7499H161.213C163.073 39.7499 164.03 38.4539 164.03 36.2009V25.6649V23.4449V19.5009V17.2409V7.12387C164.03 5.49087 163.128 4.58887 161.495 4.58887Z" fill="white"/>
<path fill-rule="evenodd" clip-rule="evenodd" d="M57.2507 39.0685C47.8857 39.0685 39.8447 32.0855 39.8447 22.2445C39.8447 12.3515 47.8857 5.36849 57.2507 5.36849C66.5617 5.36849 74.6567 12.3515 74.6567 22.2445C74.6567 32.0855 66.5617 39.0685 57.2507 39.0685ZM125.343 0.586487L101.528 0.586487L98.5368 0.586487L57.2507 0.586487C45.2277 0.586487 34.9057 9.55149 34.9057 22.2515C34.9057 34.8855 45.2277 43.8505 57.2507 43.8505L98.5368 43.8505H101.528H125.343C137.296 43.8505 147.688 34.8855 147.688 22.2515C147.688 9.55149 137.296 0.586487 125.343 0.586487Z" fill="white"/>
<path fill-rule="evenodd" clip-rule="evenodd" d="M65.9263 22.2184C65.9263 27.0244 62.0303 30.9214 57.2233 30.9214C52.4173 30.9214 48.5213 27.0244 48.5213 22.2184C48.5213 17.4124 52.4173 13.5154 57.2233 13.5154C62.0303 13.5154 65.9263 17.4124 65.9263 22.2184Z" fill="#F48A88"/>
</g>
<defs>
<clipPath id="clip0_124_3062">
<rect width="44" height="257" fill="white" transform="translate(257) rotate(90)"/>
</clipPath>
</defs>
</svg>
