<svg width="205.2" height="35.2" viewBox="0 0 257 44" fill="none" xmlns="http://www.w3.org/2000/svg">
<g clip-path="url(#clip0_2145_533)">
<path fill-rule="evenodd" clip-rule="evenodd" d="M193.261 17.2405C196.755 17.2405 199.572 14.4505 199.572 10.9575C199.572 7.3785 196.755 4.5885 193.261 4.5885C189.712 4.5885 186.895 7.3785 186.895 10.9575C186.895 14.4505 189.712 17.2405 193.261 17.2405Z" fill="#40464D"/>
<path fill-rule="evenodd" clip-rule="evenodd" d="M205.737 36.2009V8.47787C205.737 6.84387 206.639 5.93987 208.272 5.93987H214.246C215.879 5.93987 216.781 6.84387 216.781 8.47787V10.7599C218.614 7.68787 222.107 4.58887 227.319 4.58887C236.842 4.58887 239.377 11.0699 239.377 21.7189V36.2009C239.377 38.4539 237.856 39.7499 235.995 39.7499H231.15C229.29 39.7499 228.333 38.4539 228.333 36.2009V21.6609C228.333 16.0849 226.812 13.7739 223.036 13.7739C219.091 13.7739 216.781 17.9429 216.781 20.8749V36.2009C216.781 38.4539 215.824 39.7499 213.963 39.7499H208.836C206.978 39.7499 205.737 38.4539 205.737 36.2009Z" fill="#40464D"/>
<path fill-rule="evenodd" clip-rule="evenodd" d="M247.628 20.7048L246.696 19.8588C245.825 19.0688 245.768 18.5348 247.064 17.1838L249.431 14.7308C246.894 14.2818 245.091 12.1118 245.091 9.77385C245.091 6.47685 247.825 3.96985 250.952 3.96985C254.191 3.96985 256.756 6.55985 256.756 9.77385C256.756 11.7448 255.825 13.4078 255.178 14.2238C253.177 16.7318 252.021 18.1398 250.135 20.0278C249.007 21.1548 248.19 21.2118 247.628 20.7048Z" fill="#40464D"/>
<path fill-rule="evenodd" clip-rule="evenodd" d="M16.7307 12.6938C18.8787 12.6938 20.5497 14.3908 20.5497 16.8038C20.5497 19.1918 18.8787 20.8888 16.7307 20.8888C14.5817 20.8888 12.8847 19.1918 12.8847 16.8038C12.8847 14.3908 14.5817 12.6938 16.7307 12.6938ZM30.3057 17.2248V16.0728C30.3057 9.61577 27.5287 4.68677 20.1647 4.68677C15.7767 4.68677 13.0277 6.89677 11.4987 9.52977V8.31277C11.4987 6.67077 10.5927 5.76177 8.95067 5.76177H2.94566C1.30366 5.76177 0.396667 6.67077 0.396667 8.31277L0.396667 36.1818C0.396667 38.4468 1.35867 39.7498 3.22867 39.7498H8.66667C10.5367 39.7498 11.4987 38.4468 11.4987 36.1818L11.4987 26.3068L13.1047 29.0148L18.2117 38.1628C18.8347 39.2868 19.7407 39.7498 20.9887 39.7498H28.2947C30.2217 39.7498 30.8727 38.5588 29.7677 36.7738L24.3037 27.9558C28.5957 26.4138 30.3057 22.2898 30.3057 17.2248Z" fill="#40464D"/>
<path fill-rule="evenodd" clip-rule="evenodd" d="M196.355 19.8451H190.112C187.99 19.8451 186.895 21.1411 186.895 23.3941V26.1451V26.7401V30.1301V31.7591V36.2011C186.895 38.4541 187.99 39.7501 190.112 39.7501H196.355C198.477 39.7501 199.572 38.4541 199.572 36.2011V31.7591V30.1301V26.7401V26.1451V23.3941C199.572 21.1411 198.477 19.8451 196.355 19.8451Z" fill="#40464D"/>
<path fill-rule="evenodd" clip-rule="evenodd" d="M178.478 4.58887L172.449 4.58887C170.814 4.58887 169.912 5.49087 169.912 7.12387V17.2409V19.5019V23.4449V25.6649V36.2009C169.912 38.4539 171.153 39.7499 173.011 39.7499H178.196C180.056 39.7499 181.013 38.4539 181.013 36.2009V25.6649V23.4449V19.5019V17.2409V7.12387C181.013 5.49087 180.111 4.58887 178.478 4.58887Z" fill="#40464D"/>
<path fill-rule="evenodd" clip-rule="evenodd" d="M161.495 4.58899L155.466 4.58899C153.831 4.58899 152.929 5.49099 152.929 7.12399V17.241V19.501V23.445V25.665V36.201C152.929 38.454 154.17 39.75 156.028 39.75H161.213C163.073 39.75 164.03 38.454 164.03 36.201V25.665V23.445V19.501V17.241V7.12399C164.03 5.49099 163.128 4.58899 161.495 4.58899Z" fill="#40464D"/>
<path fill-rule="evenodd" clip-rule="evenodd" d="M57.2505 39.0685C47.8855 39.0685 39.8445 32.0855 39.8445 22.2445C39.8445 12.3515 47.8855 5.36855 57.2505 5.36855C66.5615 5.36855 74.6565 12.3515 74.6565 22.2445C74.6565 32.0855 66.5615 39.0685 57.2505 39.0685ZM125.343 0.586548L101.528 0.586548L98.5365 0.586548L57.2505 0.586548C45.2275 0.586548 34.9055 9.55155 34.9055 22.2515C34.9055 34.8855 45.2275 43.8505 57.2505 43.8505L98.5365 43.8505H101.528H125.343C137.296 43.8505 147.688 34.8855 147.688 22.2515C147.688 9.55155 137.296 0.586548 125.343 0.586548Z" fill="#40464D"/>
<path fill-rule="evenodd" clip-rule="evenodd" d="M65.9263 22.2185C65.9263 27.0245 62.0303 30.9215 57.2233 30.9215C52.4173 30.9215 48.5213 27.0245 48.5213 22.2185C48.5213 17.4125 52.4173 13.5155 57.2233 13.5155C62.0303 13.5155 65.9263 17.4125 65.9263 22.2185Z" fill="#F48A88"/>
</g>
<defs>
<clipPath id="clip0_2145_533">
<rect width="44" height="257" fill="white" transform="translate(257) rotate(90)"/>
</clipPath>
</defs>
</svg>
