<svg width="280" height="280" viewBox="0 0 280 280" fill="none" xmlns="http://www.w3.org/2000/svg">
<path opacity="0.2" d="M79.2711 216.16C76.9244 216.16 75.0044 215.36 73.5111 213.76C72.0178 212.267 71.2711 210.4 71.2711 208.16V193.92L74.9511 197.44C67.5911 197.227 61.0311 196.267 55.2711 194.56C49.6178 192.853 44.8178 190.88 40.8711 188.64C38.9511 187.467 37.6178 186.027 36.8711 184.32C36.1244 182.507 35.8578 180.693 36.0711 178.88C36.2844 177.067 36.9244 175.52 37.9911 174.24C39.1644 172.853 40.6044 172 42.3111 171.68C44.0178 171.253 45.9911 171.68 48.2311 172.96C51.2178 174.667 55.1111 176.32 59.9111 177.92C64.8178 179.413 70.6844 180.16 77.5111 180.16C82.8444 180.16 87.1644 179.52 90.4711 178.24C93.7778 176.96 96.1778 175.2 97.6711 172.96C99.2711 170.72 100.071 168.16 100.071 165.28C100.071 162.933 99.5378 160.907 98.4711 159.2C97.4044 157.387 95.6444 155.84 93.1911 154.56C90.7378 153.173 87.4311 152.053 83.2711 151.2L66.3111 147.52C56.6044 145.387 49.3511 141.813 44.5511 136.8C39.7511 131.787 37.3511 125.227 37.3511 117.12C37.3511 110.827 38.8978 105.227 41.9911 100.32C45.0844 95.3067 49.4044 91.3067 54.9511 88.32C60.4978 85.3333 67.0044 83.5733 74.4711 83.04L71.2711 85.44V72C71.2711 69.76 72.0178 67.8933 73.5111 66.4C75.0044 64.8 76.9244 64 79.2711 64C81.5111 64 83.3778 64.8 84.8711 66.4C86.4711 67.8933 87.2711 69.76 87.2711 72V85.44L83.9111 82.88C88.4978 82.9867 93.5111 83.8933 98.9511 85.6C104.498 87.3067 109.244 89.7067 113.191 92.8C114.791 94.08 115.858 95.5733 116.391 97.28C116.924 98.88 116.978 100.48 116.551 102.08C116.124 103.573 115.324 104.853 114.151 105.92C112.978 106.987 111.484 107.627 109.671 107.84C107.964 107.947 105.991 107.36 103.751 106.08C100.658 104.267 97.1911 102.827 93.3511 101.76C89.5111 100.587 84.9244 100 79.5911 100C72.7644 100 67.3778 101.547 63.4311 104.64C59.5911 107.627 57.6711 111.573 57.6711 116.48C57.6711 120.107 58.8444 123.04 61.1911 125.28C63.5378 127.413 67.5378 129.12 73.1911 130.4L90.6311 134.24C100.871 136.48 108.391 140.053 113.191 144.96C117.991 149.76 120.391 156.107 120.391 164C120.391 170.187 118.844 175.68 115.751 180.48C112.658 185.173 108.391 188.96 102.951 191.84C97.6178 194.613 91.3778 196.373 84.2311 197.12L87.2711 193.76V208.16C87.2711 210.4 86.5244 212.267 85.0311 213.76C83.5378 215.36 81.6178 216.16 79.2711 216.16Z" fill="#F48A88"/>
</svg>
