<svg width="325" height="325" viewBox="0 0 325 325" fill="none" xmlns="http://www.w3.org/2000/svg">
<path d="M22.9707 275.535V291.85H26.7342C26.5369 290.133 26.5369 288.399 26.7342 286.683C27.0917 284.765 31.1802 279.812 31.0567 275.561L22.9707 275.535Z" fill="#EBEBEB"/>
<path d="M53.0791 275.535V291.85H56.8426C56.6453 290.133 56.6453 288.399 56.8426 286.683C57.2001 284.765 61.2886 279.812 61.1651 275.561L53.0791 275.535Z" fill="#E0E0E0"/>
<path d="M82.5497 275.535V291.85H78.7797C78.9735 290.133 78.9735 288.4 78.7797 286.683C78.4157 284.765 74.3337 279.812 74.4507 275.561L82.5497 275.535Z" fill="#EBEBEB"/>
<path d="M108.602 275.535V291.85H104.839C105.033 290.133 105.033 288.4 104.839 286.683C104.481 284.765 100.393 279.812 100.516 275.561L108.602 275.535Z" fill="#E0E0E0"/>
<path d="M110.578 195.084H20.4102V276.055H110.578V195.084Z" fill="#F5F5F5"/>
<path d="M86.2881 195.084L86.9576 276.055H110.579V195.084H86.2881Z" fill="#E0E0E0"/>
<path d="M82.3548 201.045H24.4658V221.65H82.3548V201.045Z" fill="#EBEBEB"/>
<path d="M82.3548 225.752H24.4658V246.357H82.3548V225.752Z" fill="#EBEBEB"/>
<path d="M82.3548 250.464H24.4658V271.07H82.3548V250.464Z" fill="#EBEBEB"/>
<path d="M46.6571 171.821L44.1611 194.993H76.1541L78.8061 171.821H46.6571Z" fill="#E0E0E0"/>
<path d="M47.9769 173.485L45.5459 193.758H74.4189L76.7524 173.485H47.9769Z" fill="white"/>
<path d="M52.8319 176.897L51.3369 190.352H69.5564L70.4924 176.897H52.8319Z" fill="#EBEBEB"/>
<path d="M77.6623 181.798L84.2728 195.084L76.1543 194.993L77.6623 181.798Z" fill="#EBEBEB"/>
<path d="M55.53 212.42C55.5313 212.839 55.4081 213.25 55.176 213.599C54.944 213.948 54.6135 214.221 54.2264 214.382C53.8393 214.544 53.4131 214.587 53.0016 214.506C52.5901 214.425 52.2119 214.223 51.9149 213.927C51.6179 213.631 51.4155 213.254 51.3332 212.842C51.2509 212.431 51.2925 212.005 51.4527 211.617C51.6129 211.23 51.8844 210.898 52.2331 210.665C52.5817 210.432 52.9916 210.307 53.411 210.307C53.9719 210.307 54.5099 210.53 54.9071 210.926C55.3043 211.322 55.5283 211.859 55.53 212.42Z" fill="#E0E0E0"/>
<path d="M55.53 237.38C55.53 237.799 55.4057 238.209 55.1729 238.557C54.94 238.906 54.6091 239.177 54.2219 239.338C53.8347 239.498 53.4086 239.54 52.9976 239.458C52.5866 239.377 52.209 239.175 51.9126 238.878C51.6163 238.582 51.4145 238.204 51.3327 237.793C51.2509 237.382 51.2929 236.956 51.4533 236.569C51.6137 236.182 51.8853 235.851 52.2337 235.618C52.5822 235.385 52.9919 235.261 53.411 235.261C53.6895 235.26 53.9654 235.314 54.2229 235.421C54.4804 235.527 54.7143 235.683 54.9113 235.88C55.1082 236.077 55.2643 236.311 55.3704 236.568C55.4766 236.826 55.5309 237.101 55.53 237.38Z" fill="#E0E0E0"/>
<path d="M55.53 262.333C55.53 262.753 55.4057 263.162 55.1729 263.511C54.94 263.859 54.6091 264.131 54.2219 264.291C53.8347 264.452 53.4086 264.494 52.9976 264.412C52.5866 264.33 52.209 264.128 51.9126 263.832C51.6163 263.536 51.4145 263.158 51.3327 262.747C51.2509 262.336 51.2929 261.91 51.4533 261.523C51.6137 261.135 51.8853 260.804 52.2337 260.572C52.5822 260.339 52.9919 260.214 53.411 260.214C53.973 260.214 54.512 260.438 54.9094 260.835C55.3067 261.233 55.53 261.772 55.53 262.333Z" fill="#E0E0E0"/>
<path d="M82.2641 63.4595L31.1416 62.9655L32.5651 129.591L83.6876 129.779L82.2641 63.4595Z" fill="#E0E0E0"/>
<path d="M78.9683 66.43L34.2158 65.273L35.5093 125.697L80.2488 126.25L78.9683 66.43Z" fill="#FAFAFA"/>
<path d="M71.3313 75.4585L41.6328 74.9645L42.5428 117.201L72.2088 116.564L71.3313 75.4585Z" fill="#EBEBEB"/>
<path d="M42.5428 117.201L71.7473 94.8675L41.6328 74.9645L42.5428 117.201Z" fill="#F5F5F5"/>
<path d="M302.257 28.73L257.4 28.2945L258.655 86.749L303.498 86.9115L302.257 28.73Z" fill="#E0E0E0"/>
<path d="M299.358 31.343L260.098 30.3225L261.235 83.33L300.482 83.811L299.358 31.343Z" fill="#FAFAFA"/>
<path d="M292.656 39.26L266.61 38.8245L267.403 75.8745L293.429 75.322L292.656 39.26Z" fill="#EBEBEB"/>
<path d="M267.403 75.8745L293.026 56.2835L266.61 38.8245L267.403 75.8745Z" fill="#F5F5F5"/>
<path d="M252.012 248.495C251.823 249.067 258.512 274.495 258.512 274.495L263.101 273.539L256.789 248.495H252.012Z" fill="#EBEBEB"/>
<path d="M287.574 244.862L278.396 274.495H283.752L292.546 246.968L287.574 244.862Z" fill="#F5F5F5"/>
<path d="M295.984 240.273L285.467 274.495H290.823L300.956 242.379L295.984 240.273Z" fill="#EBEBEB"/>
<path d="M255.262 272.396L260.618 290.94H287.573L292.546 272.396H255.262Z" fill="#E0E0E0"/>
<path d="M269.165 272.395C269.142 272.332 269.122 272.267 269.107 272.2L268.964 271.635C268.84 271.115 268.671 270.38 268.45 269.444L266.598 261.345L260.546 234.338L260.709 234.474H255.99L256.152 234.266C258.551 244.894 260.702 254.416 262.243 261.293C262.997 264.719 263.608 267.481 264.037 269.418C264.232 270.361 264.394 271.095 264.505 271.622C264.55 271.862 264.589 272.051 264.615 272.194C264.626 272.261 264.626 272.329 264.615 272.395C264.592 272.332 264.572 272.267 264.557 272.2C264.518 272.057 264.472 271.869 264.414 271.635C264.284 271.115 264.108 270.38 263.881 269.444C263.432 267.494 262.789 264.758 261.989 261.345C260.41 254.468 258.232 244.959 255.801 234.338L255.749 234.136H260.819L260.852 234.266C263.185 244.894 265.285 254.416 266.799 261.293C267.534 264.719 268.132 267.481 268.548 269.418C268.743 270.361 268.892 271.095 269.003 271.622L269.113 272.194C269.141 272.258 269.159 272.326 269.165 272.395Z" fill="#E0E0E0"/>
<path d="M295.509 291.713C295.509 291.804 233.798 291.882 157.709 291.882C81.6202 291.882 19.9092 291.804 19.9092 291.713C19.9092 291.622 81.6072 291.544 157.742 291.544C233.876 291.544 295.509 291.622 295.509 291.713Z" fill="#263238"/>
<path d="M277.765 114.302C277.617 114.24 277.462 114.192 277.304 114.159C276.84 114.055 276.358 114.055 275.893 114.159C275.141 114.353 274.441 114.713 273.846 115.212C273.036 115.913 272.335 116.73 271.766 117.637C270.433 119.678 269.387 122.499 268.165 125.788C266.751 129.544 265.527 133.368 264.499 137.247C264.308 137.605 264.052 137.925 263.745 138.19C263.586 138.334 263.399 138.443 263.195 138.508C262.99 138.573 262.775 138.593 262.562 138.567C262.144 138.461 261.767 138.235 261.476 137.917C261.171 137.637 260.885 137.338 260.599 137.033C260.034 136.412 259.433 135.826 258.798 135.278C258.185 134.688 257.368 134.355 256.517 134.348C256.091 134.421 255.685 134.582 255.326 134.822C254.966 135.062 254.661 135.374 254.43 135.739C253.969 136.529 253.72 137.425 253.709 138.339C253.598 140.198 254.138 142.077 254.463 144.02C254.788 145.964 255.197 147.959 255.574 149.994C255.769 151.014 255.958 152.041 256.153 153.081L256.445 154.654C256.535 154.929 256.564 155.22 256.532 155.507C256.499 155.794 256.405 156.071 256.257 156.318C256.159 156.449 256.024 156.547 255.87 156.599C255.716 156.651 255.549 156.655 255.392 156.611C255.112 156.529 254.849 156.395 254.619 156.214L253.319 155.226C252.434 154.558 251.514 153.937 250.563 153.367C249.611 152.775 248.571 152.336 247.482 152.067C246.943 151.941 246.383 151.941 245.844 152.067C245.307 152.203 244.834 152.52 244.505 152.964C243.879 153.929 243.572 155.066 243.627 156.214C243.629 157.397 243.745 158.577 243.972 159.737C244.441 162.123 245.104 164.467 245.954 166.744C246.202 167.327 246.391 167.932 246.52 168.551C246.551 168.727 246.546 168.907 246.504 169.08C246.463 169.254 246.386 169.416 246.279 169.559C246.222 169.627 246.158 169.69 246.091 169.747C246.017 169.814 245.931 169.865 245.837 169.897C245.639 169.927 245.437 169.88 245.272 169.767C244.732 169.421 244.229 169.02 243.77 168.571L242.379 167.271C241.468 166.389 240.478 165.593 239.422 164.892C238.895 164.546 238.319 164.283 237.712 164.112C237.424 164.023 237.121 163.995 236.822 164.032C236.522 164.069 236.234 164.17 235.977 164.326C235.475 164.691 235.125 165.228 234.995 165.834C234.839 166.455 234.76 167.093 234.761 167.732C234.767 169.047 234.931 170.357 235.249 171.632C235.891 174.226 236.84 176.733 238.076 179.101C239.307 181.529 240.712 183.864 242.282 186.088C243.067 187.217 243.914 188.302 244.817 189.338C245.688 190.417 246.572 191.49 247.456 192.588V192.627L247.3 192.562L251.434 191.964C252.804 191.801 254.164 191.567 255.509 191.262C258.162 190.666 260.768 189.882 263.309 188.916C265.817 187.989 268.206 186.769 270.427 185.282C271.518 184.56 272.515 183.707 273.397 182.741C273.832 182.268 274.206 181.741 274.509 181.174C274.819 180.638 274.921 180.007 274.795 179.4C274.711 179.11 274.566 178.84 274.37 178.611C274.174 178.381 273.931 178.196 273.657 178.067C273.092 177.791 272.49 177.599 271.87 177.495C270.616 177.306 269.348 177.23 268.08 177.268H266.182C265.53 177.293 264.876 177.252 264.232 177.144C264.033 177.119 263.851 177.016 263.725 176.858C263.678 176.77 263.649 176.673 263.641 176.572C263.631 176.484 263.631 176.395 263.641 176.306C263.661 176.13 263.715 175.959 263.801 175.804C263.887 175.649 264.003 175.513 264.141 175.402C264.653 175.032 265.199 174.712 265.773 174.447C267.936 173.335 270.004 172.045 271.954 170.592C272.898 169.888 273.77 169.091 274.554 168.213C275.366 167.402 275.902 166.356 276.088 165.223C276.143 164.672 276.005 164.119 275.698 163.657C275.388 163.199 274.973 162.82 274.489 162.552C273.509 162.013 272.449 161.633 271.35 161.427C270.263 161.208 269.165 161.05 268.061 160.953L266.423 160.797C266.131 160.78 265.845 160.703 265.584 160.569C265.439 160.495 265.32 160.377 265.242 160.234C265.165 160.09 265.132 159.926 265.149 159.763C265.209 159.482 265.327 159.216 265.496 158.983C265.665 158.75 265.881 158.555 266.13 158.411L267.43 157.449L269.933 155.545L274.769 151.872C276.322 150.657 277.98 149.63 279.15 148.174C279.749 147.493 280.161 146.669 280.346 145.782C280.421 145.356 280.406 144.918 280.301 144.498C280.195 144.078 280.003 143.685 279.735 143.344C279.451 143.031 279.083 142.805 278.675 142.694C278.268 142.573 277.846 142.503 277.421 142.486C276.583 142.464 275.746 142.495 274.912 142.577C274.496 142.577 274.08 142.636 273.67 142.642C273.244 142.674 272.817 142.582 272.442 142.376C272.263 142.255 272.112 142.096 272 141.911C271.887 141.726 271.817 141.519 271.792 141.303C271.744 140.899 271.768 140.49 271.863 140.094C273.724 136.57 275.405 132.953 276.901 129.259C278.201 126.009 279.325 123.214 279.728 120.809C279.925 119.759 279.969 118.686 279.858 117.624C279.774 116.852 279.514 116.109 279.098 115.453C278.846 115.052 278.503 114.715 278.097 114.471C277.959 114.387 277.813 114.315 277.661 114.257C277.819 114.299 277.97 114.363 278.11 114.445C278.528 114.685 278.884 115.018 279.15 115.42C279.574 116.082 279.843 116.831 279.936 117.611C280.063 118.682 280.03 119.767 279.839 120.828C279.449 123.24 278.344 126.028 277.05 129.278C275.586 133.015 273.933 136.675 272.097 140.244C272.007 140.61 271.985 140.988 272.032 141.362C272.05 141.546 272.107 141.724 272.199 141.884C272.291 142.044 272.416 142.183 272.565 142.291C272.905 142.471 273.288 142.55 273.67 142.519C274.073 142.519 274.483 142.48 274.899 142.447C275.743 142.362 276.592 142.33 277.44 142.35C277.881 142.367 278.318 142.439 278.74 142.564C279.187 142.683 279.592 142.924 279.91 143.26C280.194 143.624 280.398 144.044 280.51 144.491C280.622 144.939 280.639 145.405 280.56 145.86C280.371 146.791 279.941 147.656 279.312 148.369C278.11 149.864 276.439 150.904 274.899 152.126L270.069 155.805L267.573 157.703L266.306 158.671C266.092 158.815 265.897 158.985 265.727 159.178C265.571 159.364 265.468 159.589 265.428 159.828C265.417 159.937 265.439 160.045 265.491 160.141C265.543 160.236 265.624 160.313 265.721 160.361C265.951 160.473 266.2 160.537 266.455 160.55L268.093 160.706C269.207 160.801 270.313 160.959 271.408 161.18C272.546 161.39 273.643 161.778 274.658 162.331C275.177 162.629 275.621 163.04 275.958 163.533C276.297 164.05 276.453 164.666 276.4 165.282C276.207 166.48 275.646 167.589 274.795 168.454C273.988 169.347 273.095 170.159 272.13 170.878C270.166 172.346 268.086 173.65 265.909 174.778C265.356 175.029 264.829 175.334 264.336 175.688C264.228 175.771 264.138 175.875 264.071 175.993C264.004 176.112 263.962 176.242 263.946 176.377C263.94 176.442 263.94 176.508 263.946 176.572C263.946 176.624 263.946 176.748 263.992 176.741C264.075 176.816 264.18 176.864 264.291 176.878C264.901 176.977 265.519 177.016 266.137 176.995H268.035C269.322 176.948 270.61 177.024 271.883 177.222C272.539 177.325 273.175 177.529 273.768 177.827C274.081 177.977 274.359 178.192 274.584 178.457C274.808 178.723 274.973 179.033 275.068 179.367C275.215 180.05 275.104 180.764 274.756 181.369C274.442 181.961 274.053 182.509 273.599 183.001C272.7 183.988 271.682 184.862 270.57 185.601C268.329 187.108 265.915 188.341 263.381 189.273C260.82 190.25 258.191 191.041 255.516 191.639C254.166 191.945 252.802 192.18 251.427 192.341L247.287 192.946H247.189L247.131 192.868H247.098L244.459 189.618C243.557 188.579 242.708 187.495 241.918 186.368C240.336 184.127 238.92 181.775 237.68 179.328C236.438 176.934 235.484 174.401 234.839 171.782C234.511 170.488 234.342 169.159 234.339 167.823C234.34 167.153 234.423 166.485 234.586 165.834C234.739 165.153 235.137 164.552 235.704 164.144C236 163.961 236.332 163.844 236.677 163.799C237.022 163.754 237.373 163.783 237.706 163.884C238.342 164.065 238.947 164.341 239.5 164.703C240.574 165.414 241.58 166.223 242.503 167.121L243.894 168.421C244.336 168.851 244.82 169.236 245.337 169.572C245.43 169.639 245.541 169.675 245.655 169.676C245.655 169.676 245.753 169.617 245.798 169.585L245.941 169.442C246.02 169.332 246.076 169.208 246.105 169.076C246.134 168.944 246.136 168.808 246.11 168.675C245.987 168.08 245.804 167.498 245.564 166.939C244.71 164.645 244.045 162.284 243.575 159.88C243.345 158.701 243.229 157.501 243.231 156.299C243.179 155.084 243.511 153.883 244.18 152.867C244.55 152.374 245.078 152.021 245.675 151.866C246.259 151.73 246.866 151.73 247.449 151.866C248.566 152.13 249.635 152.569 250.615 153.166C251.578 153.738 252.507 154.365 253.397 155.044L254.697 156.032C254.891 156.189 255.111 156.31 255.347 156.39C255.452 156.421 255.563 156.418 255.667 156.383C255.77 156.349 255.861 156.283 255.925 156.195C256.054 156.001 256.128 155.777 256.14 155.545C256.146 155.287 256.118 155.029 256.055 154.778C255.958 154.251 255.867 153.731 255.769 153.211C255.574 152.171 255.386 151.138 255.197 150.124C254.827 148.083 254.456 146.094 254.099 144.15C253.741 142.207 253.241 140.322 253.351 138.404C253.37 137.454 253.635 136.525 254.118 135.707C254.369 135.311 254.701 134.973 255.092 134.715C255.483 134.458 255.924 134.286 256.387 134.212C256.847 134.174 257.309 134.266 257.719 134.478C258.118 134.672 258.492 134.914 258.831 135.2C259.474 135.755 260.082 136.35 260.651 136.981C260.928 137.284 261.214 137.577 261.509 137.858C261.773 138.139 262.111 138.339 262.484 138.437C262.668 138.458 262.854 138.439 263.03 138.381C263.206 138.324 263.368 138.23 263.504 138.105C263.789 137.86 264.027 137.565 264.206 137.234C265.248 133.349 266.489 129.52 267.924 125.762C269.159 122.479 270.225 119.652 271.584 117.611C272.165 116.699 272.879 115.88 273.703 115.18C274.309 114.678 275.023 114.322 275.789 114.14C276.26 114.029 276.749 114.029 277.219 114.14C277.409 114.163 277.594 114.218 277.765 114.302Z" fill="#263238"/>
<path d="M274.352 123.142C274.341 123.217 274.319 123.289 274.287 123.357L274.066 123.968C273.852 124.52 273.553 125.307 273.176 126.301C272.383 128.349 271.258 131.28 269.867 134.888L259.071 163.254C254.872 174.304 251.024 184.359 248.177 191.587C246.76 195.201 245.577 198.12 244.771 200.135C244.368 201.123 244.049 201.896 243.822 202.442C243.711 202.696 243.633 202.891 243.568 203.047L243.471 203.242C243.483 203.17 243.504 203.1 243.536 203.034C243.588 202.878 243.666 202.676 243.757 202.423C243.971 201.864 244.27 201.084 244.647 200.083C245.44 198.035 246.565 195.11 247.956 191.503L258.752 163.15C262.951 152.067 266.793 142.051 269.646 134.823C271.063 131.209 272.246 128.284 273.052 126.275C273.455 125.287 273.774 124.507 274.001 123.961C274.112 123.714 274.19 123.513 274.255 123.363L274.352 123.142Z" fill="#263238"/>
<path d="M274.704 145.6C274.19 145.968 273.647 146.292 273.079 146.568L269.101 148.778C267.541 149.643 266.124 150.416 265.077 150.943C264.527 151.255 263.945 151.508 263.342 151.697C263.86 151.336 264.403 151.012 264.967 150.728L268.932 148.486C270.492 147.621 271.915 146.867 272.968 146.354C273.521 146.048 274.103 145.795 274.704 145.6Z" fill="#263238"/>
<path d="M262.815 151.281C262.73 151.32 261.183 148.369 259.363 144.69C257.543 141.011 256.113 137.995 256.211 137.949C256.308 137.904 257.842 140.861 259.669 144.54C261.495 148.219 262.899 151.235 262.815 151.281Z" fill="#263238"/>
<path d="M257.134 168.59C256.615 168.207 256.136 167.771 255.704 167.29C254.859 166.445 253.754 165.243 252.552 163.852C251.349 162.461 250.374 161.148 249.685 160.173C249.28 159.67 248.929 159.125 248.639 158.548C249.085 159.012 249.498 159.507 249.874 160.03C250.615 160.966 251.635 162.246 252.812 163.631C253.988 165.015 255.08 166.231 255.873 167.121C256.33 167.579 256.751 168.07 257.134 168.59Z" fill="#263238"/>
<path d="M269.023 165.795C268.468 166.017 267.893 166.187 267.307 166.302C266.241 166.569 264.759 166.913 263.121 167.277C261.483 167.641 259.988 167.927 258.909 168.161C258.329 168.307 257.737 168.397 257.141 168.428C257.696 168.208 258.27 168.04 258.857 167.927C259.923 167.661 261.405 167.277 263.049 166.946C264.694 166.614 266.176 166.296 267.255 166.068C267.834 165.923 268.426 165.832 269.023 165.795Z" fill="#263238"/>
<path d="M265.948 181.72C265.226 181.97 264.488 182.168 263.738 182.312C262.36 182.63 260.488 183.053 258.356 183.495C256.224 183.937 254.332 184.327 252.948 184.587C252.206 184.764 251.452 184.884 250.692 184.944C251.413 184.692 252.152 184.495 252.902 184.353C254.274 184.034 256.152 183.612 258.284 183.17C260.416 182.728 262.301 182.338 263.686 182.078C264.43 181.901 265.186 181.781 265.948 181.72Z" fill="#263238"/>
<path d="M251.031 184.762C250.849 184.637 250.686 184.488 250.543 184.32C250.244 184.021 249.828 183.579 249.314 183.02C248.294 181.902 246.922 180.323 245.479 178.522C244.036 176.722 242.795 175.032 241.93 173.79C241.495 173.173 241.157 172.666 240.929 172.308C240.794 172.132 240.684 171.937 240.604 171.73C240.767 171.879 240.911 172.047 241.033 172.23L242.125 173.654C243.035 174.856 244.303 176.514 245.746 178.308C247.189 180.102 248.521 181.707 249.496 182.858C250.049 183.458 250.562 184.095 251.031 184.762Z" fill="#263238"/>
<path d="M244.53 228.306C233.246 219.206 231.608 203.651 233.025 189.865C233.266 187.564 233.175 185.113 234.41 183.163C235.645 181.213 238.31 180.011 240.305 181.122C241.963 182.045 242.567 184.093 243.412 185.802C244.543 188.088 246.296 190.007 248.469 191.34C249.886 192.205 251.674 192.796 253.175 192.094C255.242 191.132 255.665 188.402 255.808 186.108L256.607 173.277C256.75 170.976 256.906 168.636 257.771 166.51C258.635 164.385 260.371 162.467 262.574 161.999C264.778 161.531 267.41 162.987 267.716 165.249C267.737 166.205 267.694 167.16 267.586 168.109C267.586 169.065 267.956 170.15 268.84 170.475C269.724 170.8 270.699 170.222 271.44 169.598C273.969 167.446 275.776 164.573 277.485 161.707C279.195 158.84 280.852 155.902 283.179 153.523C285.506 151.144 288.607 149.344 291.909 149.383C295.211 149.422 298.565 151.69 299.176 154.973C299.787 158.255 297.674 161.421 295.438 163.897C292.119 167.579 288.283 170.761 284.05 173.342C283.224 173.715 282.541 174.344 282.1 175.136C281.496 176.631 282.841 178.249 284.317 178.86C285.987 179.543 287.859 179.51 289.634 179.829C291.408 180.147 293.293 181.083 293.852 182.819C294.632 185.23 292.5 187.551 290.459 189.033C286.392 191.99 281.847 194.228 277.024 195.65C275.288 196.15 273.475 196.566 272.032 197.658C270.589 198.75 269.627 200.759 270.342 202.429C271.057 204.1 273.13 204.769 274.892 204.561C276.653 204.353 278.33 203.502 280.059 202.982C283.309 202.007 287.352 202.507 289.159 205.367C290.362 207.252 290.31 209.755 289.491 211.867C288.577 213.919 287.262 215.766 285.623 217.301C280.215 222.962 273.401 227.085 265.876 229.248C258.388 231.283 251.576 231.504 244.478 228.345" fill="#FF725E"/>
<g opacity="0.1">
<path opacity="0.1" d="M244.53 228.306C233.246 219.206 231.608 203.651 233.025 189.865C233.266 187.564 233.175 185.113 234.41 183.163C235.645 181.213 238.31 180.011 240.305 181.122C241.963 182.045 242.567 184.093 243.412 185.802C244.543 188.088 246.296 190.007 248.469 191.34C249.886 192.205 251.674 192.796 253.175 192.094C255.242 191.132 255.665 188.402 255.808 186.108L256.607 173.277C256.75 170.976 256.906 168.636 257.771 166.51C258.635 164.385 260.371 162.467 262.574 161.999C264.778 161.531 267.41 162.987 267.716 165.249C267.737 166.205 267.694 167.16 267.586 168.109C267.586 169.065 267.956 170.15 268.84 170.475C269.724 170.8 270.699 170.222 271.44 169.598C273.969 167.446 275.776 164.573 277.485 161.707C279.195 158.84 280.852 155.902 283.179 153.523C285.506 151.144 288.607 149.344 291.909 149.383C295.211 149.422 298.565 151.69 299.176 154.973C299.787 158.255 297.674 161.421 295.438 163.897C292.119 167.579 288.283 170.761 284.05 173.342C283.224 173.715 282.541 174.344 282.1 175.136C281.496 176.631 282.841 178.249 284.317 178.86C285.987 179.543 287.859 179.51 289.634 179.829C291.408 180.147 293.293 181.083 293.852 182.819C294.632 185.23 292.5 187.551 290.459 189.033C286.392 191.99 281.847 194.228 277.024 195.65C275.288 196.15 273.475 196.566 272.032 197.658C270.589 198.75 269.627 200.759 270.342 202.429C271.057 204.1 273.13 204.769 274.892 204.561C276.653 204.353 278.33 203.502 280.059 202.982C283.309 202.007 287.352 202.507 289.159 205.367C290.362 207.252 290.31 209.755 289.491 211.867C288.577 213.919 287.262 215.766 285.623 217.301C280.215 222.962 273.401 227.085 265.876 229.248C258.388 231.283 251.576 231.504 244.478 228.345" fill="black"/>
</g>
<path d="M243.646 238.55C244.729 232.187 246.419 225.943 248.69 219.901C251.502 212.531 254.734 205.328 258.369 198.328L261.196 192.803C262.132 190.989 263.055 189.195 264.069 187.492C266.021 184.233 268.15 181.082 270.446 178.054C272.623 175.149 274.788 172.471 276.835 169.981C278.883 167.492 280.846 165.217 282.718 163.215C285.658 160.041 288.844 157.105 292.247 154.433C293.449 153.491 294.405 152.789 295.061 152.321L295.809 151.794C295.891 151.732 295.978 151.675 296.069 151.625C296.001 151.703 295.922 151.771 295.835 151.827L295.113 152.392C294.463 152.88 293.534 153.601 292.351 154.57C288.996 157.281 285.85 160.24 282.939 163.423C281.086 165.431 279.143 167.719 277.089 170.209C275.035 172.698 272.896 175.409 270.738 178.295C268.455 181.312 266.341 184.454 264.407 187.707C263.4 189.403 262.457 191.184 261.554 192.998L258.726 198.523C255.101 205.51 251.865 212.693 249.035 220.038C246.756 226.053 245.043 232.268 243.919 238.602" fill="#263238"/>
<path d="M264.193 187.473C264.102 187.149 264.047 186.815 264.031 186.478C263.959 185.828 263.875 184.905 263.79 183.748C263.628 181.447 263.504 178.249 263.381 174.733C263.257 171.216 263.088 168.025 262.887 165.724C262.789 164.58 262.705 163.65 262.633 163.007C262.575 162.675 262.555 162.336 262.575 161.999C262.681 162.319 262.755 162.647 262.796 162.981C262.913 163.631 263.049 164.547 263.186 165.698C263.465 167.992 263.68 171.184 263.836 174.713C263.992 178.243 264.05 181.33 264.122 183.735C264.167 184.821 264.2 185.731 264.232 186.465C264.251 186.802 264.238 187.139 264.193 187.473Z" fill="#263238"/>
<path d="M294.067 183.982C293.674 184.044 293.275 184.066 292.877 184.047C292.117 184.047 291.018 184.047 289.627 184.138C286.91 184.249 283.127 184.522 279.026 185.016C274.924 185.51 271.18 186.114 268.502 186.634C267.163 186.881 266.084 187.115 265.337 187.284C264.954 187.386 264.562 187.453 264.167 187.486C264.533 187.332 264.911 187.21 265.298 187.122C266.032 186.914 267.105 186.641 268.444 186.348C271.109 185.757 274.833 185.1 278.974 184.6C282.508 184.169 286.062 183.919 289.621 183.852C290.986 183.852 292.091 183.852 292.871 183.891C293.272 183.886 293.672 183.917 294.067 183.982Z" fill="#263238"/>
<path d="M249.094 219.368C249.016 219.255 248.957 219.13 248.918 218.998L248.483 217.893C248.112 216.937 247.612 215.533 247.02 213.798C245.831 210.32 244.336 205.465 242.756 200.089C241.177 194.714 239.734 189.845 238.616 186.348C238.07 184.645 237.615 183.248 237.283 182.208L236.926 181.083C236.875 180.954 236.842 180.819 236.828 180.68C236.902 180.796 236.961 180.921 237.004 181.051C237.121 181.35 237.264 181.701 237.433 182.156C237.803 183.111 238.304 184.515 238.902 186.251C240.091 189.728 241.586 194.584 243.159 199.966C244.732 205.348 246.188 210.203 247.306 213.7C247.852 215.403 248.301 216.801 248.606 217.841L248.964 218.965C249.025 219.093 249.069 219.229 249.094 219.368Z" fill="#263238"/>
<path d="M289.16 209.423C289.034 209.491 288.898 209.537 288.757 209.56L287.593 209.865L283.303 210.938C279.676 211.841 274.691 213.148 269.179 214.604C263.667 216.06 258.662 217.321 255.015 218.153C253.195 218.569 251.72 218.894 250.693 219.095L249.51 219.323C249.374 219.357 249.234 219.372 249.094 219.368C249.22 219.308 249.353 219.265 249.49 219.238L250.66 218.933L254.95 217.86C258.571 216.957 263.563 215.644 269.075 214.188C274.587 212.732 279.592 211.471 283.232 210.639C285.052 210.223 286.534 209.904 287.554 209.703L288.737 209.475C288.876 209.442 289.017 209.424 289.16 209.423Z" fill="#263238"/>
<path d="M247.156 48.8735H89.5244V264.868H247.156V48.8735Z" fill="#455A64"/>
<path d="M240.922 252.024H211.731H102.654V57.603H240.922V227.838V252.024Z" fill="#E0E0E0"/>
<path d="M238.738 248.417H209.807H101.712V55.0355H238.738V224.36V248.417Z" fill="#EBEBEB"/>
<path d="M224.016 233.369L208.234 246.22H99.1572V55.5229H237.425V222.495L224.016 233.369Z" fill="#FAFAFA"/>
<path d="M224.016 233.35C224.016 233.35 224.295 233.109 224.861 232.648L227.389 230.581L237.393 222.436V222.475C237.393 195.045 237.341 134.075 237.295 55.5035L237.445 55.6595H100.379H99.1768L99.3458 55.4905C99.3458 127.185 99.3458 193.323 99.3068 246.187L99.1768 246.051L208.253 246.129H208.214L220.07 236.515L223.041 234.117C223.691 233.584 224.035 233.324 224.035 233.324L223.06 234.136L220.09 236.6L208.273 246.259L99.1573 246.35H99.0208V246.213C99.0208 193.349 99.0208 127.211 98.9883 55.5165V55.3475H100.36H237.425H237.581V55.497C237.536 134.095 237.497 195.039 237.484 222.469L227.441 230.574L224.9 232.7L224.016 233.35Z" fill="#263238"/>
<path d="M149.636 42.198H187.433C189.873 42.198 192.212 43.167 193.937 44.8919C195.662 46.6167 196.631 48.9562 196.631 51.3955V61.594H140.042V51.7855C140.044 49.2421 141.055 46.8035 142.854 45.0057C144.653 43.2079 147.093 42.198 149.636 42.198Z" fill="#FF725E"/>
<path d="M153.907 42.198L151.84 31.733H184.424L182.611 42.198H153.907Z" fill="#FF725E"/>
<path d="M136.91 109.2H113.62V85.904H136.91V109.2ZM114.27 108.55H136.26V86.554H114.27V108.55Z" fill="#FF725E"/>
<path d="M219.232 91.533C219.232 91.624 203.015 91.702 183.021 91.702C163.027 91.702 146.803 91.624 146.803 91.533C146.803 91.442 163.014 91.364 183.021 91.364C203.028 91.364 219.232 91.4355 219.232 91.533Z" fill="#263238"/>
<path d="M219.232 96.3689C219.232 96.4664 203.015 96.5379 183.021 96.5379C163.027 96.5379 146.803 96.4664 146.803 96.3689C146.803 96.2714 163.014 96.2 183.021 96.2C203.028 96.2 219.232 96.2779 219.232 96.3689Z" fill="#263238"/>
<path d="M219.232 101.211C219.232 101.302 203.015 101.38 183.021 101.38C163.027 101.38 146.803 101.302 146.803 101.211C146.803 101.12 163.014 101.042 183.021 101.042C203.028 101.042 219.232 101.12 219.232 101.211Z" fill="#263238"/>
<path d="M219.232 106.054C219.232 106.145 203.015 106.223 183.021 106.223C163.027 106.223 146.803 106.145 146.803 106.054C146.803 105.963 163.014 105.885 183.021 105.885C203.028 105.885 219.232 105.95 219.232 106.054Z" fill="#263238"/>
<path d="M136.91 145.099H113.62V121.803H136.91V145.099ZM114.27 144.449H136.26V122.453H114.27V144.449Z" fill="#FF725E"/>
<path d="M118.248 133.932L121.342 130.611L126.497 134.732L138.294 123.279L141.122 126.613L126.269 141.264L118.248 133.932Z" fill="#FF725E"/>
<path d="M219.232 127.433C219.232 127.524 203.015 127.602 183.021 127.602C163.027 127.602 146.803 127.524 146.803 127.433C146.803 127.341 163.014 127.263 183.021 127.263C203.028 127.263 219.232 127.341 219.232 127.433Z" fill="#263238"/>
<path d="M219.232 132.275C219.232 132.366 203.015 132.444 183.021 132.444C163.027 132.444 146.803 132.366 146.803 132.275C146.803 132.184 163.014 132.106 183.021 132.106C203.028 132.106 219.232 132.177 219.232 132.275Z" fill="#263238"/>
<path d="M219.232 137.111C219.232 137.208 203.015 137.28 183.021 137.28C163.027 137.28 146.803 137.208 146.803 137.111C146.803 137.013 163.014 136.942 183.021 136.942C203.028 136.942 219.232 137.02 219.232 137.111Z" fill="#263238"/>
<path d="M219.232 141.953C219.232 142.044 203.015 142.122 183.021 142.122C163.027 142.122 146.803 142.044 146.803 141.953C146.803 141.862 163.014 141.784 183.021 141.784C203.028 141.784 219.232 141.862 219.232 141.953Z" fill="#263238"/>
<path d="M136.91 179.842H113.62V156.546H136.91V179.842ZM114.27 179.192H136.26V157.196H114.27V179.192Z" fill="#FF725E"/>
<path d="M118.248 168.675L121.342 165.353L126.497 169.474L138.294 158.021L141.122 161.356L126.269 176.007L118.248 168.675Z" fill="#FF725E"/>
<path d="M219.232 162.175C219.232 162.266 203.015 162.344 183.021 162.344C163.027 162.344 146.803 162.266 146.803 162.175C146.803 162.084 163.014 162.006 183.021 162.006C203.028 162.006 219.232 162.077 219.232 162.175Z" fill="#263238"/>
<path d="M219.232 167.011C219.232 167.108 203.015 167.18 183.021 167.18C163.027 167.18 146.803 167.108 146.803 167.011C146.803 166.913 163.014 166.842 183.021 166.842C203.028 166.842 219.232 166.92 219.232 167.011Z" fill="#263238"/>
<path d="M219.232 171.853C219.232 171.951 203.015 172.022 183.021 172.022C163.027 172.022 146.803 171.951 146.803 171.853C146.803 171.756 163.014 171.684 183.021 171.684C203.028 171.684 219.232 171.762 219.232 171.853Z" fill="#263238"/>
<path d="M219.232 176.696C219.232 176.787 203.015 176.865 183.021 176.865C163.027 176.865 146.803 176.787 146.803 176.696C146.803 176.605 163.014 176.527 183.021 176.527C203.028 176.527 219.232 176.605 219.232 176.696Z" fill="#263238"/>
<path d="M136.91 213.388H113.62V190.092H136.91V213.388ZM114.27 212.738H136.26V190.742H114.27V212.738Z" fill="#FF725E"/>
<path d="M118.248 202.221L121.342 198.9L126.497 203.021L138.294 191.568L141.122 194.896L126.269 209.547L118.248 202.221Z" fill="#FF725E"/>
<path d="M219.232 195.715C219.232 195.812 203.015 195.884 183.021 195.884C163.027 195.884 146.803 195.812 146.803 195.715C146.803 195.617 163.014 195.546 183.021 195.546C203.028 195.546 219.232 195.65 219.232 195.715Z" fill="#263238"/>
<path d="M219.232 200.557C219.232 200.648 203.015 200.726 183.021 200.726C163.027 200.726 146.803 200.648 146.803 200.557C146.803 200.466 163.014 200.388 183.021 200.388C203.028 200.388 219.232 200.466 219.232 200.557Z" fill="#263238"/>
<path d="M219.232 205.4C219.232 205.491 203.015 205.569 183.021 205.569C163.027 205.569 146.803 205.491 146.803 205.4C146.803 205.309 163.014 205.231 183.021 205.231C203.028 205.231 219.232 205.302 219.232 205.4Z" fill="#263238"/>
<path d="M219.232 210.236C219.232 210.333 203.015 210.405 183.021 210.405C163.027 210.405 146.803 210.333 146.803 210.236C146.803 210.138 163.014 210.067 183.021 210.067C203.028 210.067 219.232 210.145 219.232 210.236Z" fill="#263238"/>
<path d="M212.569 214.649L197.411 246.044H208.234L212.569 214.649Z" fill="#E0E0E0"/>
<path d="M208.234 246.22L212.57 214.825L237.426 222.495L208.234 246.22Z" fill="#FAFAFA"/>
<path d="M208.234 246.22L216.593 239.336L237.322 222.365L237.38 222.651L227.78 219.7L212.55 214.975L212.752 214.844C211.452 223.944 210.34 231.777 209.554 237.328C208.767 242.729 208.364 245.518 208.254 246.22C208.251 246.172 208.251 246.125 208.254 246.077L208.312 245.648C208.364 245.238 208.436 244.666 208.533 243.938C208.735 242.411 209.021 240.22 209.385 237.438C210.139 231.842 211.192 223.97 212.42 214.773V214.591L212.596 214.643L227.864 219.349L237.458 222.313L237.757 222.404L237.517 222.599C229.125 229.365 221.787 235.28 216.535 239.499L210.405 244.419L208.767 245.719L208.351 246.051L208.234 246.22Z" fill="#263238"/>
<g opacity="0.3">
<path opacity="0.3" d="M182.169 31.733L180.375 42.198H182.611L184.424 31.733H181.571" fill="black"/>
</g>
<path d="M86.7291 142.103C87.5128 142.162 88.3004 142.063 89.0448 141.811C89.7892 141.559 90.4752 141.159 91.0619 140.636C91.6485 140.113 92.1238 139.478 92.4593 138.767C92.7948 138.056 92.9837 137.285 93.0146 136.5C93.1381 133.315 93.2486 130.097 93.2486 130.097C93.2486 130.097 98.0716 129.649 98.4486 124.897C98.8256 120.146 98.6371 109.109 98.6371 109.109C95.9933 107.775 93.041 107.172 90.0858 107.361C87.1306 107.551 84.2797 108.527 81.8281 110.188L82.1206 126.984V136.025C82.1271 139.028 83.7066 141.875 86.7291 142.103Z" fill="#FFBE9D"/>
<path d="M93.6648 119.047C93.3126 118.541 92.7823 118.186 92.1798 118.054C91.5774 117.921 90.9471 118.021 90.4148 118.332C89.8746 118.708 89.4853 119.263 89.3162 119.899C89.1472 120.534 89.2094 121.209 89.4918 121.803C89.7379 122.244 90.0731 122.629 90.4759 122.934C90.8787 123.238 91.3405 123.455 91.8318 123.571C92.2675 123.666 92.6536 123.917 92.918 124.275C93.1824 124.634 93.307 125.077 93.2683 125.521C93.0683 126.776 92.4821 127.937 91.5913 128.843C90.119 130.341 88.1593 131.263 86.0663 131.443C84.0318 131.683 81.7048 131.261 80.5218 129.59C79.6573 128.375 79.5988 126.782 79.5663 125.294C79.4927 121.775 79.419 118.257 79.3453 114.738C79.2688 113.47 79.3496 112.197 79.5858 110.948C79.8348 109.689 80.5498 108.57 81.5878 107.815C82.7513 107.048 84.2203 106.983 85.5398 106.561C87.1973 106.021 88.6013 104.929 90.1483 104.136C91.6953 103.343 93.5868 102.869 95.1403 103.649C96.2583 104.208 97.0058 105.319 98.0848 105.937C99.6318 106.814 101.731 106.587 102.479 108.888C102.742 109.675 102.742 110.526 102.479 111.312C101.432 114.4 97.6103 115.648 94.8543 114.315C94.8023 114.835 95.3158 115.999 94.7633 117.65C94.5878 118.183 94.5293 118.982 93.7038 119.002" fill="#263238"/>
<path d="M80.4891 109.2C81.2467 107.69 81.7642 106.072 82.0231 104.403C82.1457 103.567 82.074 102.714 81.8136 101.91C81.5532 101.107 81.1111 100.374 80.5216 99.7685C79.6516 99.013 78.5272 98.6157 77.3756 98.657C76.2817 98.7193 75.2337 99.118 74.375 99.7987C73.5164 100.479 72.889 101.409 72.5786 102.459C72.3109 103.519 72.3522 104.633 72.6978 105.67C73.0434 106.706 73.6787 107.623 74.5286 108.309C75.3977 108.977 76.4276 109.403 77.5143 109.545C78.6009 109.686 79.7056 109.538 80.7166 109.115" fill="#263238"/>
<path d="M81.4251 107.478C81.39 108.061 81.1389 108.611 80.7207 109.019C80.3026 109.428 79.7473 109.666 79.1631 109.688C79.1631 109.59 79.8651 109.402 80.4631 108.778C81.0611 108.154 81.3341 107.452 81.4251 107.478Z" fill="#FF725E"/>
<path d="M79.8588 108.647C79.4862 109.038 79.0457 109.357 78.5588 109.59C78.0384 109.887 77.4543 110.054 76.8558 110.077C76.4757 110.098 76.0963 110.027 75.7491 109.871C75.402 109.715 75.0972 109.478 74.8603 109.18C74.6506 108.867 74.5107 108.512 74.4502 108.14C74.3896 107.767 74.4098 107.386 74.5093 107.022C74.6601 106.445 74.9327 105.906 75.3088 105.443C75.62 105.004 76.0023 104.619 76.4398 104.305C76.1505 104.755 75.8381 105.189 75.5038 105.605C75.1775 106.058 74.9434 106.571 74.8148 107.113C74.7337 107.434 74.7201 107.767 74.775 108.093C74.8298 108.418 74.9518 108.729 75.1333 109.005C75.3411 109.259 75.6046 109.461 75.9033 109.596C76.2021 109.732 76.528 109.796 76.8558 109.785C77.4112 109.776 77.9576 109.643 78.4548 109.395C79.2998 108.959 79.8263 108.595 79.8588 108.647Z" fill="#263238"/>
<path d="M71.747 114.036C71.845 114.201 71.9214 114.378 71.9745 114.562C72.143 115.05 72.3817 115.509 72.683 115.927C72.8833 116.23 73.1641 116.47 73.4936 116.622C73.8232 116.773 74.1885 116.83 74.5485 116.785C74.9793 116.664 75.3715 116.433 75.6869 116.115C76.0023 115.798 76.2304 115.404 76.349 114.972C76.5825 114.063 76.7455 113.137 76.8365 112.203C76.9282 111.402 77.2436 110.643 77.7465 110.012C78.1066 109.598 78.5972 109.318 79.1375 109.219C79.3329 109.172 79.5386 109.19 79.7225 109.271C79.7225 109.271 79.508 109.271 79.1635 109.349C78.6753 109.484 78.2427 109.771 77.9285 110.168C77.4855 110.779 77.214 111.497 77.142 112.248C77.067 113.205 76.9082 114.154 76.6675 115.082C76.5334 115.57 76.2718 116.013 75.9096 116.366C75.5475 116.719 75.0979 116.969 74.607 117.091C74.1581 117.163 73.6983 117.075 73.307 116.844C72.9823 116.647 72.7032 116.383 72.488 116.07C72.1899 115.623 71.9701 115.129 71.838 114.608C71.7713 114.425 71.7404 114.231 71.747 114.036Z" fill="#263238"/>
<path d="M69.3997 154.134C69.3997 154.134 66.9622 171.957 69.3997 174.219C71.8372 176.481 74.1707 175.727 74.1707 175.727L78.8052 171.827L79.7152 154.108L69.3997 154.134Z" fill="#FFBE9D"/>
<path d="M119.742 104.104L122.836 100.782L127.991 104.903L139.788 93.4505L142.616 96.785L127.763 111.436L119.742 104.104Z" fill="#FF725E"/>
<path d="M134.276 105.008L129.791 107.887C129.59 106.113 128.238 104.358 128.303 105.248C128.368 106.139 128.303 110.76 128.303 110.76L120.314 127.589C119.229 130.254 117.025 131.931 115.381 132.327L107.899 134.55L110.818 144.424L121.218 140.979C122.545 140.539 123.751 139.794 124.739 138.804C125.727 137.814 126.469 136.606 126.905 135.278L134.055 113.49C134.53 112.087 134.912 110.653 135.199 109.2C135.511 107.374 134.276 105.008 134.276 105.008Z" fill="#FFBE9D"/>
<path d="M97.5324 289.068L97.4154 284.082L88.0684 284.232L88.1529 291.532L88.7379 291.564C91.3379 291.661 101.874 291.896 103.59 291.35C105.501 290.732 97.5324 289.068 97.5324 289.068Z" fill="#FF725E"/>
<g opacity="0.5">
<path opacity="0.5" d="M91.5456 291.408C91.3881 290.63 90.9511 289.936 90.3171 289.458C89.6928 288.972 88.9082 288.74 88.1201 288.808L88.1591 291.408H91.5456Z" fill="white"/>
</g>
<g opacity="0.4">
<path opacity="0.4" d="M101.4 290.023C101.4 290.023 104.195 290.777 103.857 291.245C103.519 291.713 92.846 291.895 88.127 291.531V291.323L100.581 291.239C100.581 291.239 100.886 290.056 101.4 290.023Z" fill="white"/>
</g>
<path d="M88.0166 291.317H88.1791H88.6406L90.3436 291.363C91.7801 291.395 93.7626 291.408 95.9531 291.363C98.1436 291.317 100.133 291.259 101.563 291.187L103.266 291.089L103.727 291.057H103.883H103.721H103.259L101.563 291.122C100.126 291.168 98.1436 291.233 95.9531 291.265C93.7626 291.298 91.7801 291.265 90.3436 291.265H88.6471H87.9971L88.0166 291.317Z" fill="#263238"/>
<path d="M100.619 291.382C100.687 291.099 100.79 290.827 100.925 290.569C101.089 290.332 101.278 290.114 101.49 289.919C101.214 290.049 100.983 290.26 100.827 290.523C100.672 290.786 100.6 291.09 100.619 291.395V291.382Z" fill="#263238"/>
<path d="M97.8375 290.023C97.8375 290.023 97.9934 289.881 98.1299 289.666C98.2664 289.452 98.3444 289.256 98.3184 289.243C98.2924 289.23 98.1624 289.387 98.0325 289.601C97.9025 289.816 97.8115 290.01 97.8375 290.023Z" fill="#263238"/>
<path d="M97.0769 289.64C97.0769 289.64 97.2394 289.562 97.4019 289.412C97.5644 289.263 97.6684 289.126 97.6489 289.107C97.6294 289.087 97.4799 289.185 97.3239 289.328C97.1679 289.471 97.0509 289.614 97.0769 289.64Z" fill="#263238"/>
<path d="M96.583 288.763C96.7389 288.819 96.9062 288.837 97.0705 288.815C97.2353 288.834 97.4024 288.814 97.558 288.756C97.4007 288.706 97.2349 288.688 97.0705 288.704C96.9057 288.686 96.7388 288.706 96.583 288.763Z" fill="#263238"/>
<path d="M96.4072 288.145C96.5713 288.246 96.7607 288.298 96.9532 288.294C97.1459 288.322 97.3426 288.293 97.5187 288.21C97.3328 288.192 97.1456 288.192 96.9597 288.21C96.7779 288.171 96.593 288.15 96.4072 288.145Z" fill="#263238"/>
<path d="M98.1494 289.205C98.3471 289.241 98.5497 289.241 98.7474 289.205C98.9683 289.175 99.1859 289.125 99.3974 289.055C99.5237 289.016 99.6457 288.963 99.7614 288.899C99.798 288.88 99.8302 288.853 99.856 288.82C99.8817 288.788 99.9004 288.751 99.9109 288.711C99.9186 288.665 99.9135 288.619 99.8963 288.576C99.8791 288.534 99.8504 288.497 99.8134 288.47C99.5818 288.363 99.3204 288.338 99.073 288.401C98.8256 288.464 98.6074 288.61 98.4549 288.815C98.3674 288.936 98.3035 289.073 98.2664 289.218C98.255 289.271 98.255 289.326 98.2664 289.38C98.3286 289.196 98.4184 289.023 98.5329 288.867C98.667 288.707 98.8424 288.588 99.0399 288.522C99.2762 288.44 99.5353 288.454 99.7614 288.561C99.8524 288.633 99.8199 288.743 99.7159 288.808C99.6082 288.868 99.4951 288.918 99.3779 288.958C99.166 289.031 98.9487 289.087 98.7279 289.127C98.3704 289.185 98.1494 289.185 98.1494 289.205Z" fill="#263238"/>
<path d="M98.2994 289.25C98.3726 289.124 98.3958 288.976 98.3644 288.834C98.3399 288.677 98.2798 288.528 98.1889 288.398C98.1375 288.31 98.0646 288.237 97.9771 288.185C97.8896 288.132 97.7903 288.103 97.6884 288.099C97.658 288.106 97.6291 288.118 97.6034 288.135C97.5778 288.153 97.5558 288.175 97.5389 288.201C97.522 288.227 97.5104 288.256 97.5048 288.287C97.4992 288.317 97.4998 288.349 97.5064 288.379C97.5209 288.474 97.5564 288.565 97.6104 288.645C97.6894 288.779 97.788 288.899 97.9029 289.003C97.9957 289.111 98.1142 289.194 98.2474 289.243C98.2474 289.243 98.1304 289.14 97.9614 288.951C97.8641 288.84 97.777 288.72 97.7014 288.593C97.6169 288.47 97.5584 288.242 97.7014 288.21C97.8444 288.177 98.0069 288.34 98.0979 288.457C98.1849 288.573 98.2469 288.706 98.2799 288.847C98.2978 288.981 98.3044 289.115 98.2994 289.25Z" fill="#263238"/>
<path d="M88.1719 288.756C88.1719 288.756 88.4384 288.756 88.8609 288.756C89.412 288.808 89.9371 289.015 90.3753 289.354C90.8136 289.692 91.1471 290.147 91.3374 290.667C91.4869 291.063 91.5064 291.317 91.5259 291.317C91.5387 291.255 91.5387 291.191 91.5259 291.129C91.5047 290.959 91.4677 290.791 91.4154 290.628C91.2351 290.085 90.8958 289.609 90.4414 289.261C89.987 288.913 89.4386 288.71 88.8674 288.678C88.6967 288.659 88.5245 288.659 88.3539 288.678C88.2886 288.692 88.2267 288.718 88.1719 288.756Z" fill="#263238"/>
<path d="M89.0817 284.856C89.0235 285.493 89.0062 286.134 89.0297 286.774C89.0089 287.424 89.0285 288.075 89.0882 288.724C89.1473 288.075 89.1647 287.424 89.1402 286.774C89.1558 286.134 89.1363 285.494 89.0817 284.856Z" fill="#263238"/>
<path d="M92.7021 290.479C93.1531 290.571 93.6137 290.608 94.0737 290.589C94.5325 290.608 94.9918 290.565 95.4387 290.459C95.4387 290.427 94.7887 290.459 94.0737 290.459C93.3587 290.459 92.7086 290.446 92.7021 290.479Z" fill="#263238"/>
<path d="M90.876 290.498C90.876 290.498 90.928 290.628 90.9865 290.771C91.045 290.914 91.0905 291.031 91.123 291.031C91.1555 291.031 91.1685 290.882 91.0905 290.719C91.0125 290.557 90.8955 290.479 90.876 290.498Z" fill="#263238"/>
<path d="M90.168 289.653C90.168 289.653 90.207 289.77 90.311 289.867C90.415 289.965 90.506 290.023 90.5255 290.004C90.545 289.984 90.4865 289.88 90.389 289.789C90.2915 289.698 90.194 289.627 90.168 289.653Z" fill="#263238"/>
<path d="M89.1731 289.25C89.1731 289.25 89.3096 289.25 89.4461 289.321C89.5826 289.393 89.6801 289.438 89.7061 289.419C89.7321 289.399 89.6541 289.269 89.4786 289.217C89.3031 289.165 89.1666 289.25 89.1731 289.25Z" fill="#263238"/>
<path d="M88.4707 289.1C88.4707 289.1 88.5097 289.178 88.5877 289.204C88.6657 289.23 88.7372 289.237 88.7502 289.204C88.7632 289.172 88.7047 289.126 88.6267 289.1C88.5487 289.074 88.4772 289.068 88.4707 289.1Z" fill="#263238"/>
<path d="M64.5381 287.475L67.7101 283.621L60.5211 277.635L55.8281 283.225L56.2441 283.628C58.1356 285.389 65.9941 292.448 67.6451 293.15C69.4976 293.936 64.5381 287.475 64.5381 287.475Z" fill="#FF725E"/>
<g opacity="0.5">
<path opacity="0.5" d="M58.4994 285.35C58.8971 284.655 59.0244 283.838 58.8569 283.056C58.6975 282.282 58.2518 281.597 57.6089 281.138L55.8994 283.134L58.4994 285.35Z" fill="white"/>
</g>
<g opacity="0.4">
<path opacity="0.4" d="M66.8716 290.739C66.8716 290.739 68.4966 293.137 67.9376 293.267C67.3786 293.397 59.1496 286.559 55.8281 283.225L55.9711 283.075L65.4676 291.135C65.4676 291.135 66.4361 290.407 66.8716 290.739Z" fill="white"/>
</g>
<path d="M55.8604 282.977L55.9709 283.094L56.3088 283.413L57.5698 284.557C58.6358 285.512 60.1308 286.819 61.8143 288.223C63.4978 289.627 65.0643 290.869 66.1823 291.753L67.5343 292.786L67.9048 293.059L68.0413 293.15L67.9178 293.04L67.5603 292.747L66.2603 291.688C65.1358 290.791 63.5953 289.543 61.9118 288.139C60.2283 286.734 58.7269 285.441 57.6479 284.498L56.3479 283.38L55.9969 283.075L55.8604 282.977Z" fill="#263238"/>
<path d="M65.3701 291.246C65.607 291.073 65.8647 290.931 66.1371 290.823C66.4182 290.752 66.7056 290.708 66.9951 290.693C66.7056 290.587 66.3876 290.587 66.0981 290.693C65.7966 290.783 65.5379 290.979 65.3701 291.246Z" fill="#263238"/>
<path d="M64.1484 288.399C64.1484 288.431 64.3629 288.399 64.6034 288.314C64.8439 288.23 65.0389 288.152 65.0259 288.119C65.0129 288.087 64.8114 288.119 64.5709 288.204C64.4177 288.237 64.2736 288.304 64.1484 288.399Z" fill="#263238"/>
<path d="M63.8232 287.606C63.8232 287.606 63.9987 287.658 64.2197 287.651C64.4407 287.645 64.6097 287.612 64.6097 287.58C64.6097 287.547 64.4277 287.528 64.2132 287.534C64.0795 287.528 63.946 287.552 63.8232 287.606Z" fill="#263238"/>
<path d="M64.0186 286.65C64.0186 286.65 64.1486 286.832 64.3566 287.007C64.4739 287.126 64.6129 287.221 64.7661 287.287C64.7661 287.287 64.6361 287.099 64.4281 286.923C64.2201 286.748 64.0446 286.598 64.0186 286.65Z" fill="#263238"/>
<path d="M64.291 286.039C64.3618 286.217 64.4697 286.378 64.6075 286.512C64.7454 286.645 64.91 286.748 65.0905 286.813C64.9646 286.676 64.83 286.548 64.6875 286.429C64.473 286.221 64.3495 286 64.291 286.039Z" fill="#263238"/>
<path d="M64.915 287.95C65.0439 288.105 65.2003 288.235 65.3765 288.333C65.5609 288.453 65.7569 288.553 65.9615 288.632C66.0823 288.687 66.2087 288.729 66.3385 288.756C66.4203 288.77 66.5042 288.751 66.5725 288.704C66.6083 288.676 66.6354 288.639 66.6503 288.596C66.6653 288.554 66.6677 288.507 66.657 288.464C66.5567 288.226 66.3763 288.031 66.1472 287.912C65.918 287.793 65.6546 287.758 65.4025 287.813C65.254 287.843 65.1141 287.905 64.993 287.995C64.9475 288.025 64.9078 288.062 64.876 288.106C65.0425 288.005 65.2249 287.932 65.4155 287.891C65.6218 287.856 65.834 287.881 66.0265 287.963C66.2581 288.053 66.445 288.23 66.5465 288.457C66.5465 288.574 66.475 288.639 66.3515 288.619C66.2316 288.593 66.1142 288.556 66.0005 288.509C65.8002 288.435 65.6067 288.343 65.422 288.236C65.1035 288.112 64.928 287.95 64.915 287.95Z" fill="#263238"/>
<path d="M65 288.099C65 288.099 65.169 288.047 65.325 287.826C65.4088 287.692 65.4621 287.541 65.481 287.384C65.4959 287.283 65.4866 287.18 65.4539 287.082C65.4211 286.985 65.3658 286.897 65.2925 286.825C65.2365 286.795 65.1708 286.789 65.1099 286.807C65.049 286.825 64.9978 286.867 64.9675 286.923C64.9181 287.004 64.887 287.095 64.8765 287.189C64.8576 287.343 64.8576 287.498 64.8765 287.651C64.8765 287.794 64.9123 287.935 64.9805 288.06C64.9805 288.06 64.9805 287.898 64.9805 287.651C64.9788 287.503 64.9918 287.355 65.0195 287.209C65.0195 287.059 65.1365 286.851 65.273 286.923C65.4095 286.994 65.416 287.222 65.416 287.371C65.4045 287.515 65.3623 287.655 65.2925 287.781C65.2071 287.898 65.109 288.004 65 288.099Z" fill="#263238"/>
<path d="M57.6484 281.138C57.6484 281.138 57.8694 281.288 58.1619 281.593C58.5426 281.995 58.8057 282.495 58.9224 283.036C59.0301 283.579 58.9851 284.142 58.7924 284.661C58.6429 285.064 58.4804 285.278 58.4999 285.311C58.5488 285.268 58.5905 285.218 58.6234 285.161C58.7203 285.022 58.801 284.871 58.8639 284.713C59.0886 284.184 59.1476 283.599 59.0329 283.036C58.9156 282.474 58.6326 281.96 58.2204 281.561C58.0976 281.441 57.9625 281.334 57.8174 281.242C57.7683 281.197 57.7109 281.161 57.6484 281.138Z" fill="#263238"/>
<path d="M60.885 278.766C60.4232 279.213 59.9891 279.689 59.585 280.189C59.1559 280.666 58.7524 281.165 58.376 281.684C58.8406 281.241 59.2749 280.768 59.676 280.267C60.1043 279.787 60.5078 279.286 60.885 278.766Z" fill="#263238"/>
<path d="M59.9619 285.396C60.2397 285.76 60.563 286.088 60.9239 286.371C61.2614 286.684 61.6396 286.951 62.0484 287.164C62.0484 287.164 61.5739 286.774 61.0019 286.286C60.4299 285.799 59.9879 285.35 59.9619 285.396Z" fill="#263238"/>
<path d="M58.558 284.219C58.558 284.219 58.5125 284.349 58.4735 284.499C58.4345 284.648 58.376 284.759 58.402 284.778C58.428 284.798 58.532 284.7 58.584 284.525C58.636 284.349 58.5905 284.213 58.558 284.219Z" fill="#263238"/>
<path d="M58.5775 283.114C58.545 283.114 58.532 283.231 58.545 283.367C58.558 283.504 58.5905 283.615 58.623 283.615C58.6555 283.615 58.6685 283.497 58.623 283.361C58.5775 283.224 58.61 283.114 58.5775 283.114Z" fill="#263238"/>
<path d="M58.0703 282.178C58.0703 282.211 58.1548 282.289 58.2263 282.412C58.2978 282.536 58.3303 282.659 58.3628 282.659C58.3953 282.659 58.4148 282.51 58.3238 282.354C58.2328 282.198 58.0833 282.152 58.0703 282.178Z" fill="#263238"/>
<path d="M57.6484 281.587C57.6484 281.587 57.6484 281.678 57.6484 281.749C57.6484 281.821 57.7459 281.866 57.7719 281.853C57.7979 281.84 57.7719 281.762 57.7719 281.691C57.7719 281.619 57.6744 281.574 57.6484 281.587Z" fill="#263238"/>
<path d="M83.9923 183.034C83.9923 183.034 80.8788 196.203 81.7628 198.809C82.6468 201.416 88.3473 202.917 88.3473 202.917L88.1523 238.986L56.6143 277.986L68.2493 287.502C68.2493 287.502 102.4 248.443 105.41 241.352C108.419 234.26 103.46 182.429 103.46 182.429L83.9923 183.034Z" fill="#263238"/>
<path d="M100.1 177.664L101.64 287.202L85.6045 287.3L77.551 198.068C75.848 196.443 73.4495 193.661 73.781 187.454L74.171 180.245L100.1 177.664Z" fill="#263238"/>
<path d="M83.1992 245.082C83.2227 245.025 83.2532 244.97 83.2902 244.92C83.3747 244.803 83.4722 244.653 83.5957 244.471L84.7852 242.788L89.1402 236.756V236.84C88.7892 233.038 88.3667 228.429 87.9117 223.457C87.3267 216.957 86.8587 211.042 86.5792 206.758C86.4362 204.62 86.3452 202.891 86.2932 201.695C86.2932 201.123 86.2542 200.661 86.2477 200.31C86.2279 200.151 86.2279 199.989 86.2477 199.829C86.2792 199.988 86.2987 200.149 86.3062 200.31C86.3062 200.655 86.3712 201.116 86.4167 201.688C86.5142 202.917 86.6442 204.633 86.8132 206.745C87.1512 211.016 87.6582 216.911 88.2432 223.424C88.6787 228.416 89.1207 233.018 89.4132 236.84V236.886V236.925L84.9607 242.879L83.7062 244.523L83.3682 244.946C83.2317 245.05 83.1992 245.089 83.1992 245.082Z" fill="#455A64"/>
<path d="M88.1138 199.83C86.6789 199.753 85.255 199.536 83.8628 199.18C82.4466 198.94 81.0575 198.561 79.7158 198.049C81.1367 198.231 82.5454 198.498 83.9343 198.848C85.3451 199.095 86.7405 199.423 88.1138 199.83Z" fill="#455A64"/>
<path d="M99.0985 237.25C97.7144 236.676 96.2577 236.295 94.7695 236.119C93.2703 236.059 91.7698 236.205 90.3105 236.554C90.6917 236.314 91.1153 236.148 91.5585 236.067C92.6183 235.791 93.7168 235.694 94.8085 235.781C95.8934 235.868 96.9563 236.134 97.9545 236.567C98.3737 236.725 98.7612 236.956 99.0985 237.25Z" fill="#455A64"/>
<path d="M104.76 242.307C104.832 242.365 100.321 248.423 94.6789 255.833C89.0369 263.243 84.4024 269.217 84.3309 269.165C84.2594 269.113 88.7704 263.048 94.4124 255.632C100.054 248.215 104.689 242.248 104.76 242.307Z" fill="#455A64"/>
<path d="M102.59 185.796C102.405 186.27 102.092 186.684 101.686 186.992C101.222 187.399 100.678 187.705 100.089 187.892C99.5008 188.079 98.88 188.142 98.266 188.077C97.6519 188.012 97.0578 187.821 96.5211 187.516C95.9844 187.211 95.5166 186.798 95.1471 186.303C94.8031 185.923 94.5772 185.451 94.4971 184.944C94.7473 185.36 95.0207 185.762 95.3161 186.147C96.059 187.047 97.1258 187.62 98.2869 187.742C99.4479 187.863 100.61 187.524 101.524 186.797C101.896 186.482 102.252 186.148 102.59 185.796Z" fill="#455A64"/>
<path d="M80.6646 129.435C78.0222 126.924 76.4642 123.481 76.3222 119.839C76.1801 116.197 77.4653 112.643 79.9041 109.935" fill="#263238"/>
<path d="M71.6489 139.653C71.6489 139.653 68.1649 143.592 67.4434 158.652C67.4434 158.652 77.3689 160.537 77.5509 159.997C77.7329 159.458 71.6489 139.653 71.6489 139.653Z" fill="#FF725E"/>
<g opacity="0.3">
<path opacity="0.3" d="M71.6489 139.653C71.6489 139.653 68.1649 143.592 67.4434 158.652C67.4434 158.652 77.3689 160.537 77.5509 159.997C77.7329 159.458 71.6489 139.653 71.6489 139.653Z" fill="black"/>
</g>
<path d="M73.2615 183.521H103.74L103.246 178.756C103.246 178.756 99.762 160.647 99.788 160.407L100.334 159.256C101.046 157.763 101.427 156.132 101.451 154.478C101.474 152.823 101.14 151.183 100.471 149.669L115.421 144.566L111.768 132.255C104.995 133.393 94.757 134.673 94.757 134.673L93.236 134.797C93.236 134.797 82.667 135.349 82.4395 135.375C78.0195 135.915 72.878 136.253 70.9995 140.985C69.992 143.513 70.9475 147.309 72.592 151.222L76.492 163.247C78.052 169.858 75.5625 169.539 74.191 176.195C73.97 177.196 73.242 182.598 73.2615 183.521Z" fill="#FF725E"/>
<g opacity="0.3">
<path opacity="0.3" d="M73.2615 183.521H103.74L103.246 178.756C103.246 178.756 99.762 160.647 99.788 160.407L100.334 159.256C101.046 157.763 101.427 156.132 101.451 154.478C101.474 152.823 101.14 151.183 100.471 149.669L115.421 144.566L111.768 132.255C104.995 133.393 94.757 134.673 94.757 134.673L93.236 134.797C93.236 134.797 82.667 135.349 82.4395 135.375C78.0195 135.915 72.878 136.253 70.9995 140.985C69.992 143.513 70.9475 147.309 72.592 151.222L76.492 163.247C78.052 169.858 75.5625 169.539 74.191 176.195C73.97 177.196 73.242 182.598 73.2615 183.521Z" fill="black"/>
</g>
<path d="M115.251 144.768C115.045 144.884 114.827 144.978 114.601 145.048C114.172 145.204 113.541 145.418 112.761 145.698C111.201 146.224 109.03 146.92 106.638 147.687C104.246 148.454 102.088 149.214 100.593 149.838C99.8264 150.15 99.2219 150.423 98.7994 150.605C98.5945 150.719 98.3761 150.806 98.1494 150.865C98.3382 150.715 98.5431 150.586 98.7604 150.481C99.1699 150.267 99.7614 149.955 100.515 149.617C102.486 148.758 104.502 148.007 106.554 147.368C108.952 146.601 111.104 145.938 112.709 145.47C113.496 145.236 114.139 145.054 114.581 144.931C114.797 144.849 115.022 144.794 115.251 144.768Z" fill="#263238"/>
<path d="M113.484 138.209C113.484 138.3 104.468 138.378 93.3336 138.378C82.1991 138.378 73.1836 138.3 73.1836 138.209C73.1836 138.118 82.1926 138.04 93.3336 138.04C104.475 138.04 113.484 138.118 113.484 138.209Z" fill="#FAFAFA"/>
<path d="M114.4 144.196C114.4 144.287 104.37 144.365 92.0009 144.365C79.6314 144.365 69.6084 144.287 69.6084 144.196C69.6084 144.105 79.6314 144.027 92.0009 144.027C104.37 144.027 114.4 144.105 114.4 144.196Z" fill="#FAFAFA"/>
<path d="M72.1496 151.008C71.5403 151.173 70.9067 151.231 70.2776 151.177C69.6507 151.23 69.0193 151.173 68.4121 151.008C69.0193 150.843 69.6507 150.786 70.2776 150.839C70.9067 150.786 71.5403 150.843 72.1496 151.008Z" fill="#FAFAFA"/>
<path d="M101.399 151.216C101.399 151.307 94.8409 151.385 86.7549 151.385C78.6689 151.385 72.1104 151.307 72.1104 151.216C72.1104 151.125 78.6624 151.047 86.7549 151.047C94.8474 151.047 101.399 151.118 101.399 151.216Z" fill="#FAFAFA"/>
<path d="M100.75 158.229C100.75 158.327 94.8605 158.398 87.6065 158.398C80.3525 158.398 74.457 158.327 74.457 158.229C74.457 158.132 80.3395 158.06 87.6065 158.06C94.8735 158.06 100.75 158.138 100.75 158.229Z" fill="#FAFAFA"/>
<path d="M100.567 164.736C100.567 164.827 95.2373 164.905 88.6593 164.905C82.0813 164.905 76.7383 164.827 76.7383 164.736C76.7383 164.645 82.0748 164.567 88.6593 164.567C95.2438 164.567 100.567 164.639 100.567 164.736Z" fill="#FAFAFA"/>
<path d="M101.614 169.995C101.614 170.092 95.9071 170.164 88.8676 170.164C81.8281 170.164 76.1211 170.092 76.1211 169.995C76.1211 169.897 81.8281 169.826 88.8676 169.826C95.9071 169.826 101.614 169.904 101.614 169.995Z" fill="#FAFAFA"/>
<path d="M103.265 176.703C103.265 176.8 96.7647 176.872 88.7632 176.872C80.7617 176.872 74.2617 176.8 74.2617 176.703C74.2617 176.605 80.7617 176.534 88.7632 176.534C96.7647 176.534 103.265 176.612 103.265 176.703Z" fill="#FAFAFA"/>
<path d="M76.2902 162.682C76.1675 162.499 76.0753 162.297 76.0172 162.084L75.3672 160.42C74.8277 159.016 74.0672 157.079 73.2872 154.914C72.5072 152.75 71.8507 150.774 71.4412 149.324C71.2397 148.596 71.0837 148.024 70.9992 147.595C70.9366 147.384 70.8995 147.166 70.8887 146.945C71.1894 147.7 71.4498 148.471 71.6687 149.253C72.1367 150.683 72.8192 152.646 73.6187 154.804C74.4182 156.962 75.1202 158.912 75.5687 160.342C75.8092 161.057 75.9912 161.642 76.1082 162.045C76.1958 162.249 76.2569 162.463 76.2902 162.682Z" fill="#263238"/>
</svg>
