<svg width="264" height="55" viewBox="0 0 264 55" fill="none" xmlns="http://www.w3.org/2000/svg">
<path d="M0.5 27.877C0.5 12.9653 12.5883 0.876953 27.5 0.876953H236.5C251.412 0.876953 263.5 12.9653 263.5 27.877C263.5 42.7886 251.412 54.877 236.5 54.877H27.5C12.5883 54.877 0.5 42.7886 0.5 27.877Z" fill="#40464D"/>
<path d="M50.788 33.005C50.084 33.005 49.732 32.6423 49.732 31.917V22.685C49.732 21.9596 50.0947 21.597 50.82 21.597H56.404C56.9587 21.597 57.236 21.8636 57.236 22.397C57.236 22.9516 56.9587 23.229 56.404 23.229H51.78V26.413H56.068C56.6227 26.413 56.9 26.6796 56.9 27.213C56.9 27.7676 56.6227 28.045 56.068 28.045H51.78V31.917C51.78 32.6423 51.4493 33.005 50.788 33.005ZM59.3921 33.005C58.7095 33.005 58.3681 32.6636 58.3681 31.981V25.933C58.3681 25.261 58.6935 24.925 59.3441 24.925C59.9948 24.925 60.3201 25.261 60.3201 25.933V26.429C60.7041 25.5116 61.5255 24.9996 62.7841 24.893C63.2428 24.8396 63.4988 25.101 63.5521 25.677C63.6055 26.2423 63.3281 26.557 62.7201 26.621L62.3681 26.653C61.0561 26.781 60.4001 27.453 60.4001 28.669V31.981C60.4001 32.6636 60.0641 33.005 59.3921 33.005ZM67.1316 33.037C66.5663 33.037 66.0596 32.9303 65.6116 32.717C65.1743 32.493 64.8276 32.1943 64.5716 31.821C64.3263 31.4476 64.2036 31.0263 64.2036 30.557C64.2036 29.981 64.353 29.5276 64.6516 29.197C64.9503 28.8556 65.4356 28.6103 66.1076 28.461C66.7796 28.3116 67.681 28.237 68.8116 28.237H69.3716V27.901C69.3716 27.3676 69.2543 26.9836 69.0196 26.749C68.785 26.5143 68.3903 26.397 67.8356 26.397C67.5263 26.397 67.1903 26.4343 66.8276 26.509C66.4756 26.5836 66.1023 26.7116 65.7076 26.893C65.4516 27.0103 65.2383 27.0263 65.0676 26.941C64.897 26.845 64.7796 26.701 64.7156 26.509C64.6623 26.3063 64.673 26.1036 64.7476 25.901C64.833 25.6983 64.9983 25.549 65.2436 25.453C65.7343 25.2503 66.2036 25.1063 66.6516 25.021C67.1103 24.9356 67.5263 24.893 67.8996 24.893C69.041 24.893 69.889 25.1596 70.4436 25.693C70.9983 26.2156 71.2756 27.0316 71.2756 28.141V31.981C71.2756 32.6636 70.9663 33.005 70.3476 33.005C69.7183 33.005 69.4036 32.6636 69.4036 31.981V31.629C69.2223 32.0663 68.9343 32.413 68.5396 32.669C68.145 32.9143 67.6756 33.037 67.1316 33.037ZM67.5476 31.661C68.0703 31.661 68.5023 31.4796 68.8436 31.117C69.1956 30.7543 69.3716 30.2956 69.3716 29.741V29.389H68.8276C67.825 29.389 67.1263 29.469 66.7316 29.629C66.3476 29.7783 66.1556 30.0556 66.1556 30.461C66.1556 30.813 66.2783 31.101 66.5236 31.325C66.769 31.549 67.1103 31.661 67.5476 31.661ZM74.2976 33.005C73.6363 33.005 73.3056 32.6636 73.3056 31.981V25.933C73.3056 25.261 73.631 24.925 74.2816 24.925C74.9323 24.925 75.2576 25.261 75.2576 25.933V26.269C75.5243 25.821 75.8816 25.4796 76.3296 25.245C76.7883 25.0103 77.3003 24.893 77.8656 24.893C79.711 24.893 80.6336 25.965 80.6336 28.109V31.981C80.6336 32.6636 80.303 33.005 79.6416 33.005C78.9696 33.005 78.6336 32.6636 78.6336 31.981V28.205C78.6336 27.597 78.5163 27.1543 78.2816 26.877C78.0576 26.5996 77.7056 26.461 77.2256 26.461C76.639 26.461 76.1696 26.6476 75.8176 27.021C75.4763 27.3836 75.3056 27.869 75.3056 28.477V31.981C75.3056 32.6636 74.9696 33.005 74.2976 33.005ZM86.281 33.037C85.4597 33.037 84.745 32.8716 84.137 32.541C83.529 32.1996 83.0597 31.7196 82.729 31.101C82.3983 30.4823 82.233 29.757 82.233 28.925C82.233 28.093 82.3983 27.3783 82.729 26.781C83.0597 26.173 83.529 25.709 84.137 25.389C84.745 25.0583 85.4597 24.893 86.281 24.893C86.633 24.893 87.0117 24.941 87.417 25.037C87.833 25.133 88.2223 25.293 88.585 25.517C88.7983 25.645 88.921 25.8103 88.953 26.013C88.9957 26.2156 88.969 26.4023 88.873 26.573C88.7877 26.7436 88.6543 26.8663 88.473 26.941C88.3023 27.0156 88.105 26.989 87.881 26.861C87.3903 26.5836 86.9157 26.445 86.457 26.445C85.7637 26.445 85.225 26.6636 84.841 27.101C84.4677 27.5276 84.281 28.141 84.281 28.941C84.281 29.7303 84.4677 30.3543 84.841 30.813C85.225 31.261 85.7637 31.485 86.457 31.485C86.9157 31.485 87.3903 31.3516 87.881 31.085C88.105 30.957 88.3023 30.9303 88.473 31.005C88.6437 31.0796 88.7663 31.2076 88.841 31.389C88.9157 31.5596 88.9317 31.7463 88.889 31.949C88.8463 32.141 88.7237 32.301 88.521 32.429C88.169 32.6423 87.7957 32.797 87.401 32.893C87.0063 32.989 86.633 33.037 86.281 33.037ZM91.2039 33.005C90.5425 33.005 90.2119 32.6636 90.2119 31.981V22.477C90.2119 21.805 90.5425 21.469 91.2039 21.469C91.8759 21.469 92.2119 21.805 92.2119 22.477V26.189C92.4785 25.7623 92.8359 25.4423 93.2839 25.229C93.7319 25.005 94.2279 24.893 94.7719 24.893C96.6172 24.893 97.5399 25.965 97.5399 28.109V31.981C97.5399 32.6636 97.2092 33.005 96.5479 33.005C95.8759 33.005 95.5399 32.6636 95.5399 31.981V28.205C95.5399 27.597 95.4225 27.1543 95.1879 26.877C94.9639 26.5996 94.6119 26.461 94.1319 26.461C93.5452 26.461 93.0759 26.6476 92.7239 27.021C92.3825 27.3836 92.2119 27.869 92.2119 28.477V31.981C92.2119 32.6636 91.8759 33.005 91.2039 33.005ZM100.563 23.453C100.19 23.453 99.8966 23.3623 99.6833 23.181C99.4806 22.989 99.3793 22.7276 99.3793 22.397C99.3793 22.0556 99.4806 21.7943 99.6833 21.613C99.8966 21.4316 100.19 21.341 100.563 21.341C101.353 21.341 101.747 21.693 101.747 22.397C101.747 23.101 101.353 23.453 100.563 23.453ZM100.563 32.989C100.243 32.989 99.9979 32.893 99.8273 32.701C99.6566 32.509 99.5713 32.2423 99.5713 31.901V26.029C99.5713 25.3036 99.9019 24.941 100.563 24.941C101.235 24.941 101.571 25.3036 101.571 26.029V31.901C101.571 32.2423 101.486 32.509 101.315 32.701C101.145 32.893 100.894 32.989 100.563 32.989ZM106.513 33.037C106.055 33.037 105.569 32.989 105.057 32.893C104.545 32.797 104.087 32.6316 103.681 32.397C103.457 32.269 103.319 32.1143 103.265 31.933C103.212 31.741 103.217 31.565 103.281 31.405C103.356 31.2343 103.473 31.1116 103.633 31.037C103.804 30.9623 104.001 30.9783 104.225 31.085C104.652 31.2876 105.052 31.4316 105.425 31.517C105.799 31.5916 106.167 31.629 106.529 31.629C107.041 31.629 107.42 31.5436 107.665 31.373C107.921 31.1916 108.049 30.957 108.049 30.669C108.049 30.221 107.719 29.933 107.057 29.805L105.457 29.501C104.103 29.245 103.425 28.541 103.425 27.389C103.425 26.877 103.564 26.4343 103.841 26.061C104.129 25.6876 104.524 25.3996 105.025 25.197C105.527 24.9943 106.103 24.893 106.753 24.893C107.692 24.893 108.529 25.101 109.265 25.517C109.468 25.6236 109.585 25.773 109.617 25.965C109.66 26.1463 109.639 26.3223 109.553 26.493C109.479 26.653 109.356 26.7703 109.185 26.845C109.015 26.909 108.817 26.8876 108.593 26.781C108.263 26.6103 107.943 26.4876 107.633 26.413C107.335 26.3383 107.047 26.301 106.769 26.301C106.247 26.301 105.857 26.3916 105.601 26.573C105.356 26.7543 105.233 26.9943 105.233 27.293C105.233 27.7623 105.537 28.0503 106.145 28.157L107.745 28.461C108.439 28.589 108.961 28.8236 109.313 29.165C109.676 29.5063 109.857 29.965 109.857 30.541C109.857 31.3196 109.553 31.933 108.945 32.381C108.337 32.8183 107.527 33.037 106.513 33.037ZM115.318 33.037C114.433 33.037 113.67 32.8716 113.03 32.541C112.39 32.2103 111.894 31.741 111.542 31.133C111.201 30.525 111.03 29.805 111.03 28.973C111.03 28.1623 111.195 27.453 111.526 26.845C111.867 26.237 112.331 25.7623 112.918 25.421C113.515 25.069 114.193 24.893 114.95 24.893C116.059 24.893 116.934 25.245 117.574 25.949C118.225 26.653 118.55 27.613 118.55 28.829C118.55 29.2236 118.294 29.421 117.782 29.421H112.95C113.099 30.8183 113.899 31.517 115.35 31.517C115.627 31.517 115.937 31.485 116.278 31.421C116.63 31.3463 116.961 31.2236 117.27 31.053C117.547 30.893 117.782 30.845 117.974 30.909C118.166 30.9623 118.299 31.0743 118.374 31.245C118.459 31.4156 118.47 31.6076 118.406 31.821C118.353 32.0236 118.203 32.1996 117.958 32.349C117.585 32.5836 117.153 32.7596 116.662 32.877C116.182 32.9836 115.734 33.037 115.318 33.037ZM115.03 26.253C114.443 26.253 113.969 26.4343 113.606 26.797C113.243 27.1596 113.025 27.6503 112.95 28.269H116.886C116.843 27.6183 116.662 27.1223 116.342 26.781C116.033 26.429 115.595 26.253 115.03 26.253ZM129.726 33.037C128.638 33.037 127.683 32.797 126.862 32.317C126.051 31.837 125.422 31.165 124.974 30.301C124.526 29.4263 124.302 28.4023 124.302 27.229C124.302 26.045 124.526 25.021 124.974 24.157C125.422 23.293 126.051 22.6263 126.862 22.157C127.672 21.677 128.627 21.437 129.726 21.437C130.824 21.437 131.779 21.677 132.59 22.157C133.4 22.6263 134.03 23.293 134.478 24.157C134.926 25.021 135.15 26.0396 135.15 27.213C135.15 28.397 134.926 29.4263 134.478 30.301C134.03 31.165 133.4 31.837 132.59 32.317C131.779 32.797 130.824 33.037 129.726 33.037ZM129.726 31.277C130.76 31.277 131.566 30.9196 132.142 30.205C132.718 29.4903 133.006 28.4983 133.006 27.229C133.006 25.949 132.718 24.957 132.142 24.253C131.576 23.549 130.771 23.197 129.726 23.197C128.691 23.197 127.886 23.549 127.31 24.253C126.734 24.957 126.446 25.949 126.446 27.229C126.446 28.4983 126.734 29.4903 127.31 30.205C127.886 30.9196 128.691 31.277 129.726 31.277ZM138.032 35.885C137.371 35.885 137.04 35.549 137.04 34.877V25.933C137.04 25.261 137.365 24.925 138.016 24.925C138.677 24.925 139.008 25.261 139.008 25.933V26.269C139.232 25.853 139.568 25.5223 140.016 25.277C140.464 25.021 140.976 24.893 141.552 24.893C142.235 24.893 142.832 25.0583 143.344 25.389C143.867 25.7196 144.272 26.189 144.56 26.797C144.848 27.3943 144.992 28.1143 144.992 28.957C144.992 29.789 144.848 30.5143 144.56 31.133C144.272 31.741 143.872 32.2103 143.36 32.541C142.848 32.8716 142.245 33.037 141.552 33.037C140.997 33.037 140.496 32.9196 140.048 32.685C139.611 32.4396 139.275 32.1143 139.04 31.709V34.877C139.04 35.549 138.704 35.885 138.032 35.885ZM140.992 31.517C141.589 31.517 142.069 31.3036 142.432 30.877C142.795 30.4396 142.976 29.7996 142.976 28.957C142.976 28.1036 142.795 27.469 142.432 27.053C142.069 26.6263 141.589 26.413 140.992 26.413C140.395 26.413 139.915 26.6263 139.552 27.053C139.189 27.469 139.008 28.1036 139.008 28.957C139.008 29.7996 139.189 30.4396 139.552 30.877C139.915 31.3036 140.395 31.517 140.992 31.517ZM147.626 35.885C146.964 35.885 146.634 35.549 146.634 34.877V25.933C146.634 25.261 146.959 24.925 147.61 24.925C148.271 24.925 148.602 25.261 148.602 25.933V26.269C148.826 25.853 149.162 25.5223 149.61 25.277C150.058 25.021 150.57 24.893 151.146 24.893C151.828 24.893 152.426 25.0583 152.938 25.389C153.46 25.7196 153.866 26.189 154.154 26.797C154.442 27.3943 154.586 28.1143 154.586 28.957C154.586 29.789 154.442 30.5143 154.154 31.133C153.866 31.741 153.466 32.2103 152.954 32.541C152.442 32.8716 151.839 33.037 151.146 33.037C150.591 33.037 150.09 32.9196 149.642 32.685C149.204 32.4396 148.868 32.1143 148.634 31.709V34.877C148.634 35.549 148.298 35.885 147.626 35.885ZM150.586 31.517C151.183 31.517 151.663 31.3036 152.026 30.877C152.388 30.4396 152.57 29.7996 152.57 28.957C152.57 28.1036 152.388 27.469 152.026 27.053C151.663 26.6263 151.183 26.413 150.586 26.413C149.988 26.413 149.508 26.6263 149.146 27.053C148.783 27.469 148.602 28.1036 148.602 28.957C148.602 29.7996 148.783 30.4396 149.146 30.877C149.508 31.3036 149.988 31.517 150.586 31.517ZM159.796 33.037C158.985 33.037 158.281 32.8716 157.684 32.541C157.086 32.2103 156.622 31.741 156.292 31.133C155.961 30.5143 155.796 29.789 155.796 28.957C155.796 28.125 155.961 27.405 156.292 26.797C156.622 26.189 157.086 25.7196 157.684 25.389C158.281 25.0583 158.985 24.893 159.796 24.893C160.606 24.893 161.31 25.0583 161.908 25.389C162.505 25.7196 162.969 26.189 163.3 26.797C163.63 27.405 163.796 28.125 163.796 28.957C163.796 29.789 163.63 30.5143 163.3 31.133C162.969 31.741 162.505 32.2103 161.908 32.541C161.31 32.8716 160.606 33.037 159.796 33.037ZM159.796 31.517C160.393 31.517 160.873 31.3036 161.236 30.877C161.598 30.4396 161.78 29.7996 161.78 28.957C161.78 28.1036 161.598 27.469 161.236 27.053C160.873 26.6263 160.393 26.413 159.796 26.413C159.198 26.413 158.718 26.6263 158.356 27.053C157.993 27.469 157.812 28.1036 157.812 28.957C157.812 29.7996 157.993 30.4396 158.356 30.877C158.718 31.3036 159.198 31.517 159.796 31.517ZM166.47 33.005C165.788 33.005 165.446 32.6636 165.446 31.981V25.933C165.446 25.261 165.772 24.925 166.422 24.925C167.073 24.925 167.398 25.261 167.398 25.933V26.429C167.782 25.5116 168.604 24.9996 169.862 24.893C170.321 24.8396 170.577 25.101 170.63 25.677C170.684 26.2423 170.406 26.557 169.798 26.621L169.446 26.653C168.134 26.781 167.478 27.453 167.478 28.669V31.981C167.478 32.6636 167.142 33.005 166.47 33.005ZM175.749 33.037C173.68 33.037 172.645 32.013 172.645 29.965V26.557H171.813C171.28 26.557 171.013 26.3063 171.013 25.805C171.013 25.3036 171.28 25.053 171.813 25.053H172.645V23.597C172.645 22.925 172.981 22.589 173.653 22.589C174.314 22.589 174.645 22.925 174.645 23.597V25.053H176.341C176.874 25.053 177.141 25.3036 177.141 25.805C177.141 26.3063 176.874 26.557 176.341 26.557H174.645V29.853C174.645 30.365 174.757 30.749 174.981 31.005C175.205 31.261 175.568 31.389 176.069 31.389C176.25 31.389 176.41 31.373 176.549 31.341C176.688 31.309 176.81 31.2876 176.917 31.277C177.045 31.2663 177.152 31.309 177.237 31.405C177.322 31.4903 177.365 31.6716 177.365 31.949C177.365 32.1623 177.328 32.3543 177.253 32.525C177.189 32.685 177.066 32.797 176.885 32.861C176.746 32.9036 176.565 32.941 176.341 32.973C176.117 33.0156 175.92 33.037 175.749 33.037ZM181.138 33.037C179.218 33.037 178.258 31.9596 178.258 29.805V25.933C178.258 25.261 178.588 24.925 179.25 24.925C179.922 24.925 180.258 25.261 180.258 25.933V29.837C180.258 30.3916 180.37 30.8023 180.594 31.069C180.818 31.3356 181.175 31.469 181.666 31.469C182.199 31.469 182.636 31.2876 182.978 30.925C183.319 30.5516 183.49 30.061 183.49 29.453V25.933C183.49 25.261 183.82 24.925 184.482 24.925C185.154 24.925 185.49 25.261 185.49 25.933V31.981C185.49 32.6636 185.164 33.005 184.514 33.005C183.863 33.005 183.538 32.6636 183.538 31.981V31.709C183.015 32.5943 182.215 33.037 181.138 33.037ZM188.563 33.005C187.902 33.005 187.571 32.6636 187.571 31.981V25.933C187.571 25.261 187.897 24.925 188.547 24.925C189.198 24.925 189.523 25.261 189.523 25.933V26.269C189.79 25.821 190.147 25.4796 190.595 25.245C191.054 25.0103 191.566 24.893 192.131 24.893C193.977 24.893 194.899 25.965 194.899 28.109V31.981C194.899 32.6636 194.569 33.005 193.907 33.005C193.235 33.005 192.899 32.6636 192.899 31.981V28.205C192.899 27.597 192.782 27.1543 192.547 26.877C192.323 26.5996 191.971 26.461 191.491 26.461C190.905 26.461 190.435 26.6476 190.083 27.021C189.742 27.3836 189.571 27.869 189.571 28.477V31.981C189.571 32.6636 189.235 33.005 188.563 33.005ZM197.923 23.453C197.549 23.453 197.256 23.3623 197.043 23.181C196.84 22.989 196.739 22.7276 196.739 22.397C196.739 22.0556 196.84 21.7943 197.043 21.613C197.256 21.4316 197.549 21.341 197.923 21.341C198.712 21.341 199.107 21.693 199.107 22.397C199.107 23.101 198.712 23.453 197.923 23.453ZM197.923 32.989C197.603 32.989 197.357 32.893 197.187 32.701C197.016 32.509 196.931 32.2423 196.931 31.901V26.029C196.931 25.3036 197.261 24.941 197.923 24.941C198.595 24.941 198.931 25.3036 198.931 26.029V31.901C198.931 32.2423 198.845 32.509 198.675 32.701C198.504 32.893 198.253 32.989 197.923 32.989ZM204.593 33.037C202.523 33.037 201.489 32.013 201.489 29.965V26.557H200.657C200.123 26.557 199.857 26.3063 199.857 25.805C199.857 25.3036 200.123 25.053 200.657 25.053H201.489V23.597C201.489 22.925 201.825 22.589 202.497 22.589C203.158 22.589 203.489 22.925 203.489 23.597V25.053H205.185C205.718 25.053 205.985 25.3036 205.985 25.805C205.985 26.3063 205.718 26.557 205.185 26.557H203.489V29.853C203.489 30.365 203.601 30.749 203.825 31.005C204.049 31.261 204.411 31.389 204.913 31.389C205.094 31.389 205.254 31.373 205.393 31.341C205.531 31.309 205.654 31.2876 205.761 31.277C205.889 31.2663 205.995 31.309 206.081 31.405C206.166 31.4903 206.209 31.6716 206.209 31.949C206.209 32.1623 206.171 32.3543 206.097 32.525C206.033 32.685 205.91 32.797 205.729 32.861C205.59 32.9036 205.409 32.941 205.185 32.973C204.961 33.0156 204.763 33.037 204.593 33.037ZM209.258 35.885C208.896 35.885 208.645 35.7516 208.506 35.485C208.368 35.2183 208.373 34.9143 208.522 34.573L209.434 32.557L206.698 26.253C206.549 25.901 206.549 25.5916 206.698 25.325C206.848 25.0583 207.141 24.925 207.578 24.925C207.824 24.925 208.021 24.9836 208.17 25.101C208.32 25.2076 208.453 25.4156 208.57 25.725L210.49 30.525L212.458 25.709C212.576 25.4103 212.714 25.2076 212.874 25.101C213.034 24.9836 213.248 24.925 213.514 24.925C213.856 24.925 214.096 25.0583 214.234 25.325C214.373 25.5916 214.368 25.8956 214.218 26.237L210.33 35.117C210.192 35.4156 210.042 35.6183 209.882 35.725C209.722 35.8316 209.514 35.885 209.258 35.885Z" fill="white"/>
</svg>
