<svg width="264" height="55" viewBox="0 0 264 55" fill="none" xmlns="http://www.w3.org/2000/svg">
<path d="M79.212 33.005C78.668 33.005 78.2787 32.7383 78.044 32.205L73.868 22.829C73.6973 22.4236 73.7027 22.0983 73.884 21.853C74.076 21.597 74.3533 21.469 74.716 21.469C75.0253 21.469 75.2547 21.5383 75.404 21.677C75.564 21.805 75.6973 22.0023 75.804 22.269L79.244 30.253L82.684 22.253C82.8013 21.997 82.94 21.805 83.1 21.677C83.26 21.5383 83.484 21.469 83.772 21.469C84.1133 21.469 84.3693 21.597 84.54 21.853C84.7213 22.109 84.7213 22.4343 84.54 22.829L80.364 32.205C80.2467 32.4716 80.0973 32.6743 79.916 32.813C79.7453 32.941 79.5107 33.005 79.212 33.005ZM87.7351 23.453C87.3618 23.453 87.0685 23.3623 86.8551 23.181C86.6525 22.989 86.5511 22.7276 86.5511 22.397C86.5511 22.0556 86.6525 21.7943 86.8551 21.613C87.0685 21.4316 87.3618 21.341 87.7351 21.341C88.5245 21.341 88.9191 21.693 88.9191 22.397C88.9191 23.101 88.5245 23.453 87.7351 23.453ZM87.7351 32.989C87.4151 32.989 87.1698 32.893 86.9991 32.701C86.8285 32.509 86.7431 32.2423 86.7431 31.901V26.029C86.7431 25.3036 87.0738 24.941 87.7351 24.941C88.4071 24.941 88.7431 25.3036 88.7431 26.029V31.901C88.7431 32.2423 88.6578 32.509 88.4871 32.701C88.3165 32.893 88.0658 32.989 87.7351 32.989ZM94.6773 33.037C93.7919 33.037 93.0293 32.8716 92.3893 32.541C91.7493 32.2103 91.2533 31.741 90.9013 31.133C90.5599 30.525 90.3893 29.805 90.3893 28.973C90.3893 28.1623 90.5546 27.453 90.8853 26.845C91.2266 26.237 91.6906 25.7623 92.2773 25.421C92.8746 25.069 93.5519 24.893 94.3093 24.893C95.4186 24.893 96.2933 25.245 96.9333 25.949C97.5839 26.653 97.9093 27.613 97.9093 28.829C97.9093 29.2236 97.6533 29.421 97.1413 29.421H92.3093C92.4586 30.8183 93.2586 31.517 94.7093 31.517C94.9866 31.517 95.2959 31.485 95.6373 31.421C95.9893 31.3463 96.3199 31.2236 96.6293 31.053C96.9066 30.893 97.1413 30.845 97.3333 30.909C97.5253 30.9623 97.6586 31.0743 97.7333 31.245C97.8186 31.4156 97.8293 31.6076 97.7653 31.821C97.7119 32.0236 97.5626 32.1996 97.3173 32.349C96.9439 32.5836 96.5119 32.7596 96.0213 32.877C95.5413 32.9836 95.0933 33.037 94.6773 33.037ZM94.3893 26.253C93.8026 26.253 93.3279 26.4343 92.9653 26.797C92.6026 27.1596 92.3839 27.6503 92.3093 28.269H96.2453C96.2026 27.6183 96.0213 27.1223 95.7013 26.781C95.3919 26.429 94.9546 26.253 94.3893 26.253ZM102.392 33.005C101.837 33.005 101.453 32.7276 101.24 32.173L98.9201 26.253C98.7815 25.8796 98.7868 25.565 98.9361 25.309C99.0961 25.053 99.3735 24.925 99.7681 24.925C100.003 24.925 100.195 24.9836 100.344 25.101C100.493 25.2076 100.621 25.4156 100.728 25.725L102.488 30.541L104.296 25.597C104.467 25.149 104.771 24.925 105.208 24.925C105.656 24.925 105.96 25.149 106.12 25.597L107.928 30.589L109.704 25.677C109.811 25.389 109.944 25.1916 110.104 25.085C110.275 24.9783 110.461 24.925 110.664 24.925C111.048 24.925 111.299 25.0636 111.416 25.341C111.533 25.6076 111.523 25.9116 111.384 26.253L109.08 32.173C108.856 32.7276 108.472 33.005 107.928 33.005C107.363 33.005 106.979 32.7276 106.776 32.173L105.144 27.837L103.544 32.157C103.341 32.7223 102.957 33.005 102.392 33.005ZM122.601 33.037C121.513 33.037 120.558 32.797 119.737 32.317C118.926 31.837 118.297 31.165 117.849 30.301C117.401 29.4263 117.177 28.4023 117.177 27.229C117.177 26.045 117.401 25.021 117.849 24.157C118.297 23.293 118.926 22.6263 119.737 22.157C120.547 21.677 121.502 21.437 122.601 21.437C123.699 21.437 124.654 21.677 125.465 22.157C126.275 22.6263 126.905 23.293 127.353 24.157C127.801 25.021 128.025 26.0396 128.025 27.213C128.025 28.397 127.801 29.4263 127.353 30.301C126.905 31.165 126.275 31.837 125.465 32.317C124.654 32.797 123.699 33.037 122.601 33.037ZM122.601 31.277C123.635 31.277 124.441 30.9196 125.017 30.205C125.593 29.4903 125.881 28.4983 125.881 27.229C125.881 25.949 125.593 24.957 125.017 24.253C124.451 23.549 123.646 23.197 122.601 23.197C121.566 23.197 120.761 23.549 120.185 24.253C119.609 24.957 119.321 25.949 119.321 27.229C119.321 28.4983 119.609 29.4903 120.185 30.205C120.761 30.9196 121.566 31.277 122.601 31.277ZM132.747 33.037C130.827 33.037 129.867 31.9596 129.867 29.805V25.933C129.867 25.261 130.198 24.925 130.859 24.925C131.531 24.925 131.867 25.261 131.867 25.933V29.837C131.867 30.3916 131.979 30.8023 132.203 31.069C132.427 31.3356 132.784 31.469 133.275 31.469C133.808 31.469 134.246 31.2876 134.587 30.925C134.928 30.5516 135.099 30.061 135.099 29.453V25.933C135.099 25.261 135.43 24.925 136.091 24.925C136.763 24.925 137.099 25.261 137.099 25.933V31.981C137.099 32.6636 136.774 33.005 136.123 33.005C135.472 33.005 135.147 32.6636 135.147 31.981V31.709C134.624 32.5943 133.824 33.037 132.747 33.037ZM140.205 33.005C139.522 33.005 139.181 32.6636 139.181 31.981V25.933C139.181 25.261 139.506 24.925 140.157 24.925C140.807 24.925 141.133 25.261 141.133 25.933V26.429C141.517 25.5116 142.338 24.9996 143.597 24.893C144.055 24.8396 144.311 25.101 144.365 25.677C144.418 26.2423 144.141 26.557 143.533 26.621L143.181 26.653C141.869 26.781 141.213 27.453 141.213 28.669V31.981C141.213 32.6636 140.877 33.005 140.205 33.005ZM150.942 33.005C150.323 33.005 150.014 32.685 150.014 32.045V22.429C150.014 21.789 150.334 21.469 150.974 21.469C151.241 21.469 151.449 21.5223 151.598 21.629C151.758 21.725 151.902 21.8956 152.03 22.141L155.726 28.973L159.422 22.141C159.55 21.8956 159.689 21.725 159.838 21.629C159.987 21.5223 160.195 21.469 160.462 21.469C161.081 21.469 161.39 21.789 161.39 22.429V32.045C161.39 32.685 161.081 33.005 160.462 33.005C159.843 33.005 159.534 32.685 159.534 32.045V25.277L156.526 30.765C156.419 30.9463 156.307 31.0796 156.19 31.165C156.073 31.2503 155.913 31.293 155.71 31.293C155.507 31.293 155.342 31.2503 155.214 31.165C155.086 31.069 154.974 30.9356 154.878 30.765L151.87 25.309V32.045C151.87 32.685 151.561 33.005 150.942 33.005ZM167.537 33.037C166.651 33.037 165.889 32.8716 165.249 32.541C164.609 32.2103 164.113 31.741 163.761 31.133C163.419 30.525 163.249 29.805 163.249 28.973C163.249 28.1623 163.414 27.453 163.745 26.845C164.086 26.237 164.55 25.7623 165.137 25.421C165.734 25.069 166.411 24.893 167.169 24.893C168.278 24.893 169.153 25.245 169.793 25.949C170.443 26.653 170.769 27.613 170.769 28.829C170.769 29.2236 170.513 29.421 170.001 29.421H165.169C165.318 30.8183 166.118 31.517 167.569 31.517C167.846 31.517 168.155 31.485 168.497 31.421C168.849 31.3463 169.179 31.2236 169.489 31.053C169.766 30.893 170.001 30.845 170.193 30.909C170.385 30.9623 170.518 31.0743 170.593 31.245C170.678 31.4156 170.689 31.6076 170.625 31.821C170.571 32.0236 170.422 32.1996 170.177 32.349C169.803 32.5836 169.371 32.7596 168.881 32.877C168.401 32.9836 167.953 33.037 167.537 33.037ZM167.249 26.253C166.662 26.253 166.187 26.4343 165.825 26.797C165.462 27.1596 165.243 27.6503 165.169 28.269H169.105C169.062 27.6183 168.881 27.1223 168.561 26.781C168.251 26.429 167.814 26.253 167.249 26.253ZM173.345 33.005C172.683 33.005 172.353 32.6636 172.353 31.981V25.933C172.353 25.261 172.678 24.925 173.329 24.925C173.979 24.925 174.305 25.261 174.305 25.933V26.269C174.571 25.821 174.929 25.4796 175.377 25.245C175.835 25.0103 176.347 24.893 176.913 24.893C178.758 24.893 179.681 25.965 179.681 28.109V31.981C179.681 32.6636 179.35 33.005 178.689 33.005C178.017 33.005 177.681 32.6636 177.681 31.981V28.205C177.681 27.597 177.563 27.1543 177.329 26.877C177.105 26.5996 176.753 26.461 176.273 26.461C175.686 26.461 175.217 26.6476 174.865 27.021C174.523 27.3836 174.353 27.869 174.353 28.477V31.981C174.353 32.6636 174.017 33.005 173.345 33.005ZM184.544 33.037C182.624 33.037 181.664 31.9596 181.664 29.805V25.933C181.664 25.261 181.995 24.925 182.656 24.925C183.328 24.925 183.664 25.261 183.664 25.933V29.837C183.664 30.3916 183.776 30.8023 184 31.069C184.224 31.3356 184.581 31.469 185.072 31.469C185.605 31.469 186.043 31.2876 186.384 30.925C186.725 30.5516 186.896 30.061 186.896 29.453V25.933C186.896 25.261 187.227 24.925 187.888 24.925C188.56 24.925 188.896 25.261 188.896 25.933V31.981C188.896 32.6636 188.571 33.005 187.92 33.005C187.269 33.005 186.944 32.6636 186.944 31.981V31.709C186.421 32.5943 185.621 33.037 184.544 33.037Z" fill="#40464D"/>
<path d="M27.5 2.87695H236.5V-1.12305H27.5V2.87695ZM236.5 52.877H27.5V56.877H236.5V52.877ZM27.5 52.877C13.6929 52.877 2.5 41.6841 2.5 27.877H-1.5C-1.5 43.8932 11.4837 56.877 27.5 56.877V52.877ZM261.5 27.877C261.5 41.6841 250.307 52.877 236.5 52.877V56.877C252.516 56.877 265.5 43.8932 265.5 27.877H261.5ZM236.5 2.87695C250.307 2.87695 261.5 14.0698 261.5 27.877H265.5C265.5 11.8607 252.516 -1.12305 236.5 -1.12305V2.87695ZM27.5 -1.12305C11.4837 -1.12305 -1.5 11.8607 -1.5 27.877H2.5C2.5 14.0698 13.6929 2.87695 27.5 2.87695V-1.12305Z" fill="#40464D"/>
</svg>
